<svg width="64" height="64" viewBox="0 0 64 64" fill="none" xmlns="http://www.w3.org/2000/svg">
<rect opacity="0.5" width="64" height="64" rx="16" fill="#E1DEF5"/>
<g clip-path="url(#clip0)">
<path opacity="0.5" d="M18.3297 45.5H16.25C15.125 45.4999 14 44.15 14 42.8V21.2C14 19.85 15.125 18.5 16.25 18.5H47.75C48.875 18.5 50 19.85 50 21.2V42.8C50 44.15 48.875 45.4999 47.75 45.4999H21.0172" fill="#3E2CB1"/>
<circle cx="41.5625" cy="40.4375" r="2.8125" fill="#3E2CB1"/>
<circle opacity="0.4" cx="44.9375" cy="40.4375" r="2.8125" fill="#3E2CB1"/>
<path d="M50 23H14V27.5H50V23Z" fill="#3E2CB1"/>
<path opacity="0.75" d="M32 33.25C32 33.8023 31.5523 34.25 31 34.25H19.5C18.9478 34.25 18.5 33.8023 18.5 33.25L18.5 33.125L18.5 33C18.5 32.4477 18.9477 32 19.5 32H31C31.5523 32 32 32.4477 32 33V33.125V33.25Z" fill="#3E2CB1"/>
<path opacity="0.75" d="M32 37.75C32 38.3023 31.5523 38.75 31 38.75H19.5C18.9478 38.75 18.5 38.3023 18.5 37.75L18.5 37.625L18.5 37.5C18.5 36.9477 18.9477 36.5 19.5 36.5H31C31.5523 36.5 32 36.9477 32 37.5V37.625V37.75Z" fill="#3E2CB1"/>
</g>
<defs>
<clipPath id="clip0">
<rect width="36" height="27" fill="white" transform="translate(14 18.5)"/>
</clipPath>
</defs>
</svg>
