<svg width="461" height="318" viewBox="0 0 461 318" fill="none" xmlns="http://www.w3.org/2000/svg">
<path opacity="0.25" d="M64.3074 161.146L59.6054 152.84L92.0857 144.819C95.2021 152.532 88.8369 158.244 85.2648 160.136L105.773 191.048C109.133 188.703 112.875 191.692 114.327 193.48C114.889 194.224 116.725 196.75 119.566 200.896C123.758 206.829 120.875 210.797 118.91 212.04C117.689 212.72 113.515 215.038 106.585 218.87C96.7251 224.335 89.5273 217.781 87.1609 213.821L61.4389 166.399L64.3074 161.146Z" fill="white"/>
<path d="M72.3126 165.955L72.4459 165.711L72.3089 165.469L67.9317 157.737L99.3434 149.98C100.618 153.49 99.8483 156.537 98.3263 158.964C96.7345 161.503 94.3239 163.349 92.5972 164.264L92.1094 164.522L92.4145 164.982L112.923 195.893L113.206 196.32L113.626 196.027C115.121 194.984 116.7 195.11 118.13 195.741C119.572 196.377 120.808 197.508 121.499 198.357C122.062 199.102 123.89 201.618 126.72 205.748L126.72 205.748L126.724 205.754C128.754 208.627 129.03 210.958 128.626 212.682C128.22 214.418 127.107 215.615 126.22 216.179C124.985 216.868 120.816 219.183 113.909 223.002L113.909 223.002C109.118 225.658 105.017 225.38 101.829 223.991C98.6204 222.592 96.3047 220.051 95.1618 218.143L69.5746 170.969L72.3126 165.955Z" stroke="white"/>
<path opacity="0.35" d="M55.8356 150.608L91.1713 141.882L74.1604 72.9951L39.1817 81.6328C32.4001 83.3074 19.1278 90.902 23.147 107.178L30.0219 135.018C34.1115 151.579 48.9351 152.312 55.8356 150.608Z" fill="white"/>
<path d="M69.5468 77.868L83.3212 133.648L48.471 142.254C45.0984 143.087 39.7778 143.323 34.8162 141.33C29.8838 139.349 25.2683 135.153 23.2625 127.03L19.3844 111.325C17.4164 103.356 19.6795 97.5553 23.2405 93.5286C26.8227 89.478 31.7387 87.2043 35.0535 86.3858L69.5468 77.868Z" stroke="white"/>
<path opacity="0.15" d="M46.0693 89.5881L60.0835 146.339L119.512 131.664C168.91 119.466 195.226 138.213 202.209 149.112C202.209 149.112 208.527 122.558 198.612 82.4038C188.696 42.2496 170.743 21.6893 170.743 21.6893C166.803 52.3517 125.604 69.9477 105.497 74.9129L46.0693 89.5881Z" fill="white"/>
<path d="M117.893 125.111L89.2889 132.174L75.5144 76.3941L104.118 69.3306C114.218 66.8366 128.09 61.5485 139.942 53.0249C151.505 44.7097 161.195 33.2768 163.513 18.3134C163.533 18.3395 163.555 18.3661 163.576 18.3933C164.082 19.0278 164.817 19.9813 165.731 21.2519C167.559 23.7931 170.103 27.6025 172.957 32.6649C178.665 42.7898 185.614 57.9264 190.56 77.9543C195.505 97.9822 196.401 114.613 196.062 126.232C195.893 132.041 195.415 136.596 194.98 139.696C194.762 141.246 194.555 142.432 194.404 143.229C194.401 143.241 194.399 143.253 194.397 143.264C190.691 137.831 183.92 130.596 172.421 125.944C160.194 120.998 142.672 118.992 117.893 125.111Z" stroke="white"/>
<path opacity="0.25" d="M203.93 77.8717C194.014 37.7175 176.061 17.1572 176.061 17.1572C169.575 9.29195 178.419 3.69959 183.922 12.1864C183.922 12.1864 202.585 34.0864 212.853 75.6682C223.121 117.25 217.151 146.747 217.151 146.747C215.97 154.234 205.99 152.155 207.527 144.58C207.527 144.58 213.845 118.026 203.93 77.8717Z" fill="white"/>
<path d="M182.425 6.11865C182.425 6.11865 201.087 28.0186 211.355 69.6004C221.623 111.182 215.653 140.68 215.653 140.68" stroke="white"/>
<path opacity="0.15" d="M285.704 106.453L378.094 118.131C378.094 118.131 378.094 118.131 399.999 144.191C421.904 170.251 427.54 185.47 427.54 185.47L411.238 314.444L261.801 295.556L285.704 106.453Z" fill="white"/>
<path d="M281.05 97.4235C281.085 97.1495 281.335 96.9555 281.609 96.9901L369.819 108.14C369.878 108.147 369.901 108.149 369.916 108.15C369.93 108.151 369.935 108.152 369.953 108.155C370.038 108.173 370.488 108.298 371.547 109.055C372.6 109.808 374.226 111.165 376.659 113.604C381.526 118.482 389.587 127.653 402.702 144.886C416.251 162.689 423.127 172.892 426.612 178.684C428.354 181.58 429.243 183.364 429.694 184.436C430.104 185.41 430.139 185.767 430.142 185.819L430.141 185.827L414.751 307.581C414.717 307.855 414.467 308.049 414.193 308.014L257.44 288.201C257.166 288.166 256.972 287.916 257.006 287.642L281.05 97.4235Z" stroke="white"/>
<rect opacity="0.15" x="293.157" y="157.146" width="120" height="120" transform="rotate(7.204 293.157 157.146)" fill="white"/>
<rect x="288.565" y="147.619" width="119" height="119" transform="rotate(7.204 288.565 147.619)" stroke="white"/>
<rect x="306.591" y="174.467" width="89.0001" height="63.1667" transform="rotate(7.204 306.591 174.467)" stroke="white"/>
<rect x="299.901" y="247.328" width="36.5" height="11.5" transform="rotate(7.204 299.901 247.328)" stroke="white"/>
<rect x="346.406" y="253.206" width="36.5" height="11.5" transform="rotate(7.204 346.406 253.206)" stroke="white"/>
<path fill-rule="evenodd" clip-rule="evenodd" d="M309.39 228.073L340.659 190.027L354.128 218.903L365.394 203.652L378.838 236.85L361.477 234.656L361.478 234.657L309.39 228.073Z" fill="white"/>
<path d="M430.624 185.861C418.601 170.359 418.925 166.811 381.759 162.05C381.212 161.98 380.804 161.454 380.872 160.906C385.897 120.248 378.993 119.289 369.969 107.655C369.969 107.655 378.868 107.015 406.162 142.208C433.456 177.401 430.624 185.861 430.624 185.861Z" fill="white"/>
</svg>
