<svg width="142" height="112" viewBox="0 0 142 112" fill="none" xmlns="http://www.w3.org/2000/svg">
<path opacity="0.45" d="M100.772 112C123.528 112 141.975 108.382 141.975 103.918C141.975 99.4544 123.528 95.8359 100.772 95.8359C78.0164 95.8359 59.5692 99.4544 59.5692 103.918C59.5692 108.382 78.0164 112 100.772 112Z" fill="url(#paint0_linear)"/>
<path d="M123.076 22.2255C123.076 19.1203 121.073 17.121 117.558 17.121C113.915 17.121 111.742 19.2904 111.465 22.7997H104.072C104.371 15.6535 109.462 10.5703 117.281 10.5703C125.909 10.5703 130.49 15.143 130.49 21.6299C130.49 31.7537 120.818 30.7116 120.818 39.5593H113.787C113.744 27.6064 123.076 29.0739 123.076 22.2255ZM112.573 47.9178C112.573 45.3443 114.575 43.2387 117.26 43.2387C119.965 43.2387 121.947 45.3443 121.947 47.9178C121.947 50.4913 119.944 52.5969 117.26 52.5969C114.575 52.6181 112.573 50.4913 112.573 47.9178Z" fill="#FF9700"/>
<path d="M117.664 91.5182C124.013 96.6227 130.361 101.727 136.689 106.832C137.115 106.874 137.775 106.853 138.542 106.619C140.46 106.002 141.312 104.364 141.461 104.067C142.462 102.046 141.717 100.111 141.61 99.8129C135.091 94.7936 128.593 89.7955 122.074 84.7761C120.604 87.0306 119.134 89.285 117.664 91.5182Z" fill="#142F3C"/>
<path d="M119.669 88.4768C126.018 93.5813 131.216 96.1973 137.565 101.302C140.484 104.279 137.799 106.853 138.566 106.619C140.484 106.002 141.336 104.364 141.485 104.067C142.486 102.046 141.741 100.111 141.634 99.8129C135.115 94.7936 128.617 89.7955 122.098 84.7761C120.606 87.0306 121.118 86.2436 119.669 88.4768Z" fill="#14222F"/>
<path d="M118.091 91.6035C118.666 91.88 119.54 92.1777 120.583 92.1777C123.673 92.1352 125.547 89.3916 125.76 89.0513C124.525 88.0091 123.289 86.967 122.075 85.9248C120.754 87.8177 119.433 89.7106 118.091 91.6035Z" fill="#14222F"/>
<path d="M44.5264 44.2385H0V99.324H44.5264V44.2385Z" fill="white"/>
<path opacity="0.38" d="M44.5264 99.324H0V44.2385L3.55785 60.4026C7.52048 78.417 21.134 92.7733 38.9233 97.7501L44.5264 99.324Z" fill="#9DB8B4"/>
<path opacity="0.71" d="M30.5704 89.5403H5.85724C4.49375 89.5403 3.40723 88.4556 3.40723 87.0945V78.1617C3.40723 76.8005 4.49375 75.7158 5.85724 75.7158H30.5704C31.9339 75.7158 33.0204 76.8005 33.0204 78.1617V87.0945C33.0204 88.4556 31.9339 89.5403 30.5704 89.5403Z" fill="#27254E"/>
<path opacity="0.3" d="M40.437 49.832H4.00635V51.8525H40.437V49.832Z" fill="#45394A"/>
<path opacity="0.3" d="M40.437 53.5544H4.00635V55.5749H40.437V53.5544Z" fill="#45394A"/>
<path opacity="0.3" d="M40.2217 57.2761H3.79102V59.2966H40.2217V57.2761Z" fill="#45394A"/>
<path opacity="0.3" d="M40.3293 61.1042H3.89868V63.1247H40.3293V61.1042Z" fill="#45394A"/>
<path opacity="0.3" d="M40.3293 64.8264H3.89868V66.8469H40.3293V64.8264Z" fill="#45394A"/>
<path opacity="0.3" d="M40.116 68.5483H3.6853V70.5688H40.116V68.5483Z" fill="#45394A"/>
<path opacity="0.38" d="M10.6535 44.3447H4.90125V59.0838H44.5276V51.3633H10.9304L10.6535 44.3447Z" fill="#626D55"/>
<path d="M53.0483 0H8.52197V55.0854H53.0483V0Z" fill="white"/>
<path opacity="0.38" d="M53.0483 55.0854H8.52197V0L11.3342 15.3559C14.7003 33.7318 28.3777 48.5135 46.4439 53.3414L53.0483 55.0854Z" fill="#9DB8B4"/>
<path opacity="0.42" d="M45.6994 21.2688H15.234C13.6362 21.2688 12.3579 19.9927 12.3579 18.3975V6.69986C12.3579 5.10472 13.6362 3.82861 15.234 3.82861H45.6994C47.2973 3.82861 48.5755 5.10472 48.5755 6.69986V18.3975C48.5755 19.9927 47.2973 21.2688 45.6994 21.2688Z" fill="#FF9700"/>
<path opacity="0.3" d="M48.8923 23.8208H12.4617V25.8413H48.8923V23.8208Z" fill="#45394A"/>
<path opacity="0.3" d="M48.8923 27.5427H12.4617V29.5632H48.8923V27.5427Z" fill="#45394A"/>
<path opacity="0.3" d="M48.6829 31.2646H12.2522V33.2852H48.6829V31.2646Z" fill="#45394A"/>
<path opacity="0.3" d="M48.7886 35.093H12.3579V37.1135H48.7886V35.093Z" fill="#45394A"/>
<path opacity="0.3" d="M48.7886 38.8152H12.3579V40.8357H48.7886V38.8152Z" fill="#45394A"/>
<path opacity="0.3" d="M48.5732 42.5369H12.1426V44.5574H48.5732V42.5369Z" fill="#45394A"/>
<path d="M33.8096 92.2623C34.3209 91.7093 34.8322 91.2839 35.7696 90.9861C36.217 90.8373 37.2396 90.582 38.6031 91.0287C39.4979 91.3264 40.0731 91.8369 40.3927 92.1346C39.7748 92.8152 39.157 93.113 38.7948 93.2406C37.5805 93.6872 36.43 93.5171 35.4713 93.2406C34.6618 93.0067 34.1931 92.6451 33.8096 92.2623Z" fill="white" stroke="#6A747B" stroke-width="1.7328" stroke-miterlimit="10" stroke-linecap="round" stroke-linejoin="round"/>
<path d="M37.132 93.5388C37.8968 93.5388 38.5168 92.9199 38.5168 92.1564C38.5168 91.3929 37.8968 90.7739 37.132 90.7739C36.3672 90.7739 35.7472 91.3929 35.7472 92.1564C35.7472 92.9199 36.3672 93.5388 37.132 93.5388Z" fill="#6A747B"/>
<path d="M44.2485 47.9814C44.7598 47.4285 45.2711 47.0031 46.2085 46.7053C46.6559 46.5564 47.6786 46.3012 49.042 46.7479C49.9368 47.0456 50.5121 47.5561 50.8316 47.8538C50.2138 48.5344 49.596 48.8322 49.2338 48.9598C48.0194 49.4064 46.869 49.2363 45.9103 48.9598C45.1007 48.7258 44.6533 48.3643 44.2485 47.9814Z" fill="white" stroke="#6A747B" stroke-width="1.7328" stroke-miterlimit="10" stroke-linecap="round" stroke-linejoin="round"/>
<path d="M47.5919 49.2366C48.3567 49.2366 48.9767 48.6176 48.9767 47.8541C48.9767 47.0906 48.3567 46.4717 47.5919 46.4717C46.8271 46.4717 46.2072 47.0906 46.2072 47.8541C46.2072 48.6176 46.8271 49.2366 47.5919 49.2366Z" fill="#6A747B"/>
<path d="M34.0642 95.2197L34.6394 94.8369H35.1294V97.7294H34.6394V95.3474L34.0642 95.7302V95.2197Z" fill="#59576C"/>
<path d="M35.6852 96.5164V96.3038C35.6852 95.2403 36.1326 94.7937 36.7717 94.7937C37.283 94.7937 37.5813 95.0915 37.6665 95.5168H37.1552C37.0913 95.3892 36.9634 95.2616 36.7504 95.2616C36.4308 95.2616 36.1965 95.4743 36.1752 96.0485C36.3243 95.8997 36.5374 95.7933 36.7717 95.7933C37.3682 95.7933 37.7304 96.1549 37.7304 96.7504V96.7929C37.7304 97.3459 37.3256 97.75 36.7291 97.75C36.09 97.7713 35.6852 97.3672 35.6852 96.5164ZM36.2178 96.7504V96.7929C36.2178 97.112 36.4095 97.3034 36.7291 97.3034C37.0061 97.3034 37.1978 97.112 37.1978 96.7929V96.7504C37.1978 96.4314 37.0061 96.24 36.7291 96.24C36.4095 96.2612 36.2178 96.4526 36.2178 96.7504Z" fill="#59576C"/>
<path d="M38.2832 94.8364H39.9663V95.2831H38.7306L38.688 95.9211C38.8158 95.8148 39.0076 95.751 39.1993 95.751C39.7532 95.751 40.158 96.1338 40.158 96.7506C40.158 97.3674 39.7745 97.7502 39.1141 97.7502C38.5815 97.7502 38.1767 97.4737 38.0702 96.9845H38.5815C38.6667 97.1972 38.8585 97.3036 39.0928 97.3036C39.4124 97.3036 39.6041 97.1122 39.6041 96.7719C39.6041 96.4316 39.4124 96.2401 39.0928 96.2401C38.8798 96.2401 38.7093 96.3465 38.6241 96.4741H38.1341L38.2832 94.8364Z" fill="#59576C"/>
<path d="M45.2521 52.6394H45.7634C45.8273 52.7671 45.9551 52.8947 46.1682 52.8947C46.4877 52.8947 46.7008 52.7032 46.7221 52.1077C46.573 52.2779 46.3599 52.363 46.1256 52.363C45.529 52.363 45.1669 52.0014 45.1669 51.4059V51.3633C45.1669 50.7891 45.5717 50.4062 46.1682 50.4062C46.8073 50.4062 47.2121 50.8104 47.2121 51.6611V51.8738C47.2121 52.9585 46.8073 53.3838 46.1469 53.3838C45.6356 53.3626 45.316 53.0648 45.2521 52.6394ZM46.6582 51.4059V51.3633C46.6582 51.0443 46.4664 50.8529 46.1469 50.8529C45.8699 50.8529 45.6782 51.0443 45.6782 51.3633V51.4059C45.6782 51.7249 45.8699 51.9163 46.1469 51.9163C46.4877 51.9163 46.6582 51.7249 46.6582 51.4059Z" fill="#59576C"/>
<path d="M47.7007 52.6397H48.212C48.2759 52.7673 48.4037 52.8949 48.6168 52.8949C48.9364 52.8949 49.1494 52.7035 49.1707 52.108C49.0216 52.2781 48.8085 52.3632 48.5742 52.3632C47.9777 52.3632 47.6155 52.0016 47.6155 51.4061V51.3636C47.6155 50.7893 48.0203 50.4065 48.6168 50.4065C49.2559 50.4065 49.6607 50.8106 49.6607 51.6613V51.874C49.6607 52.9587 49.2559 53.3841 48.5955 53.3841C48.1055 53.3628 47.7859 53.0651 47.7007 52.6397ZM49.1281 51.4061V51.3636C49.1281 51.0445 48.9364 50.8531 48.6168 50.8531C48.3398 50.8531 48.1481 51.0445 48.1481 51.3636V51.4061C48.1481 51.7251 48.3398 51.9166 48.6168 51.9166C48.9364 51.9166 49.1281 51.7251 49.1281 51.4061Z" fill="#59576C"/>
<path opacity="0.38" d="M50.0658 28.5637H44.5266V55.0855H51.1949L50.0658 28.5637Z" fill="#626D55"/>
<path d="M94.5927 24.0334H50.0663V79.1189H94.5927V24.0334Z" fill="white"/>
<path opacity="0.42" d="M89.7963 31.6898H73.2854C72.7527 31.6898 72.3267 31.2644 72.3267 30.7327V27.9678C72.3267 27.4361 72.7527 27.0107 73.2854 27.0107H89.7963C90.3289 27.0107 90.755 27.4361 90.755 27.9678V30.7327C90.755 31.2644 90.3289 31.6898 89.7963 31.6898Z" fill="#FF9700"/>
<path opacity="0.55" d="M89.4342 41.2611H73.6688C72.9232 41.2611 72.3267 40.6656 72.3267 39.9212V35.1358C72.3267 34.3914 72.9232 33.7959 73.6688 33.7959H89.4342C90.1798 33.7959 90.7763 34.3914 90.7763 35.1358V39.9212C90.755 40.6656 90.1585 41.2611 89.4342 41.2611Z" fill="#DF6A00"/>
<path opacity="0.38" d="M94.5927 79.1189H50.0663V24.0334L55.5628 42.1968C60.0794 57.1485 71.0725 69.3141 85.5169 75.3331L94.5927 79.1189Z" fill="#9DB8B4"/>
<path opacity="0.71" d="M68.2812 41.686H55.0724C53.9646 41.686 53.0485 40.7715 53.0485 39.6655V28.8186C53.0485 27.7126 53.9646 26.7981 55.0724 26.7981H68.2812C69.389 26.7981 70.3051 27.7126 70.3051 28.8186V39.6655C70.3051 40.7715 69.389 41.686 68.2812 41.686Z" fill="#393148"/>
<path opacity="0.3" d="M89.7983 44.196H53.3677V46.2166H89.7983V44.196Z" fill="#45394A"/>
<path opacity="0.3" d="M89.7983 47.918H53.3677V49.9385H89.7983V47.918Z" fill="#45394A"/>
<path opacity="0.3" d="M89.5849 51.6401H53.1543V53.6606H89.5849V51.6401Z" fill="#45394A"/>
<path opacity="0.3" d="M89.6907 55.468H53.26V57.4885H89.6907V55.468Z" fill="#45394A"/>
<path opacity="0.3" d="M89.6907 59.1899H53.26V61.2104H89.6907V59.1899Z" fill="#45394A"/>
<path opacity="0.3" d="M89.4791 62.9124H53.0485V64.9329H89.4791V62.9124Z" fill="#45394A"/>
<path d="M75.6308 90.795C50.2785 57.2759 83.4496 35.6671 102.901 38.666V90.7738L75.6308 90.795Z" fill="white"/>
<path opacity="0.38" d="M65.6807 66.8469C68.7059 74.6737 71.2624 77.7577 76.8016 81.905C85.6217 88.4983 93.1208 88.8173 100.769 90.7953C92.4604 90.774 84.1516 90.7527 75.8429 90.7315C74.3303 89.2214 72.839 86.9457 70.9429 84.4573C67.5342 79.9696 66.2559 69.3566 65.6807 66.8469Z" fill="#9DB8B4"/>
<path d="M96.3583 99.345C113.337 99.345 127.101 85.6044 127.101 68.6546C127.101 51.7047 113.337 37.9641 96.3583 37.9641C79.3798 37.9641 65.616 51.7047 65.616 68.6546C65.616 85.6044 79.3798 99.345 96.3583 99.345Z" stroke="#142F3C" stroke-width="7" stroke-miterlimit="10"/>
<path opacity="0.3" d="M96.9337 61.7424V65.2092H65.8079C65.9357 64.0394 66.1274 62.8909 66.4044 61.7424H96.9337Z" fill="#45394A"/>
<path opacity="0.3" d="M96.827 68.6975V72.1643H65.8077C65.6799 71.037 65.616 69.8673 65.616 68.6975H96.827Z" fill="#45394A"/>
<path opacity="0.3" d="M96.9357 54.8516V58.2971H67.4077C67.8338 57.106 68.3238 55.9575 68.899 54.8516H96.9357Z" fill="#45394A"/>
<path opacity="0.3" d="M96.9336 47.939V51.3845H70.9421C71.773 50.1722 72.6891 49.0024 73.6904 47.939H96.9336Z" fill="#45394A"/>
<path opacity="0.3" d="M96.8262 41.4521V44.8977H76.8853C78.5044 43.579 80.2514 42.4092 82.1048 41.4521H96.8262Z" fill="#45394A"/>
<path d="M83.8542 78.0764C84.7277 77.1193 85.6225 76.3962 87.2417 75.8645C88.0299 75.6093 89.7769 75.1626 92.163 75.9496C93.6969 76.46 94.7195 77.332 95.2521 77.8637C94.1869 79.0548 93.1004 79.5439 92.4826 79.7779C90.3734 80.5436 88.3921 80.2671 86.7517 79.7779C85.3243 79.3525 84.5573 78.7357 83.8542 78.0764Z" fill="white" stroke="#6A747B" stroke-width="2.993" stroke-miterlimit="10" stroke-linecap="round" stroke-linejoin="round"/>
<path d="M89.6307 80.2463C90.9485 80.2463 92.0168 79.1798 92.0168 77.8643C92.0168 76.5487 90.9485 75.4822 89.6307 75.4822C88.3129 75.4822 87.2446 76.5487 87.2446 77.8643C87.2446 79.1798 88.3129 80.2463 89.6307 80.2463Z" fill="#6A747B"/>
<path d="M80.6801 83.1818L81.6814 82.5012H82.5335V87.4993H81.6814V83.3945L80.6801 84.0538V83.1818Z" fill="#59576C"/>
<path d="M83.514 85.4143V85.0528C83.514 83.2237 84.281 82.458 85.3675 82.458C86.241 82.458 86.7523 82.9897 86.9015 83.6916H86.028C85.9214 83.4576 85.7084 83.2449 85.3249 83.2449C84.7497 83.2449 84.3662 83.6065 84.3236 84.5849C84.5793 84.3084 84.9414 84.1595 85.3462 84.1595C86.3688 84.1595 86.9867 84.7763 86.9867 85.8184V85.9035C86.9867 86.8606 86.2836 87.5624 85.261 87.5624C84.1958 87.5837 83.514 86.8818 83.514 85.4143ZM84.4088 85.8184V85.9035C84.4088 86.4352 84.7284 86.7755 85.3036 86.7755C85.7936 86.7755 86.1132 86.4565 86.1132 85.9035V85.8184C86.1132 85.2867 85.7936 84.9464 85.3036 84.9464C84.7284 84.9677 84.4088 85.2867 84.4088 85.8184Z" fill="#59576C"/>
<path d="M87.4323 82.522H90.7131V83.2876L88.9875 87.5201H88.0288L89.7757 83.2876H87.4323V82.522Z" fill="#59576C"/>
<path d="M90.9041 85.7122L92.9919 82.522H94.121V85.7122H94.6962V86.4779H94.121V87.5201H93.2688V86.4779H90.9041V85.7122ZM93.2688 85.7122V83.4791L91.8201 85.7122H93.2688Z" fill="#59576C"/>
<path d="M95.1044 85.8397H95.9992C96.0205 86.499 96.3187 86.7755 96.8939 86.7755C97.4905 86.7755 97.7887 86.4777 97.7887 86.0311C97.7887 85.627 97.5118 85.3292 96.9579 85.3292H96.2974V84.5636H96.9579C97.4052 84.5636 97.6822 84.3084 97.6822 83.9255C97.6822 83.5214 97.4052 83.2449 96.8939 83.2449C96.4252 83.2449 96.1483 83.5214 96.1057 84.0531H95.2109C95.2322 83.0535 95.85 82.458 96.8939 82.458C98.0018 82.458 98.577 83.0323 98.577 83.8617C98.577 84.3084 98.3852 84.7125 97.9592 84.9251C98.4492 85.1591 98.6835 85.5845 98.6835 86.0736C98.6835 86.9457 98.0657 87.5624 96.8939 87.5624C95.7648 87.5837 95.1257 86.9456 95.1044 85.8397Z" fill="#59576C"/>
<path opacity="0.29" d="M129.852 68.8672C129.852 85.8182 116.09 99.5577 99.1099 99.5577C83.3232 99.5577 70.3275 87.6686 68.5805 72.3765C68.4527 71.2493 68.3888 70.0795 68.3888 68.9098V68.846C68.3888 67.6762 68.4527 66.5277 68.5805 65.3792C68.7084 64.2094 68.9001 63.0609 69.1771 61.9124C69.454 60.7427 69.7949 59.5942 70.1784 58.4882C70.6045 57.2972 71.0945 56.1487 71.6697 55.0427C72.2662 53.8517 72.948 52.6819 73.7149 51.5759C74.5458 50.3636 75.4619 49.1939 76.4632 48.1304C77.4645 47.0458 78.5297 46.0249 79.6802 45.0891C81.2993 43.7704 83.0463 42.6006 84.8998 41.6436C89.1607 39.4104 93.9968 38.1555 99.1312 38.1555C116.09 38.1768 129.852 51.9162 129.852 68.8672Z" fill="#E8FFF4" stroke="#143952" stroke-width="7" stroke-miterlimit="10"/>
<path opacity="0.44" d="M97.7218 97.835C97.7218 97.835 88.8165 100.536 76.9073 92.5817C68.5347 86.9881 65.616 75.6733 65.616 68.6334C65.616 62.7845 68.3642 53.1499 73.4347 48.3432C82.2335 39.9634 95.5914 39.7295 95.5914 39.7295C42.458 63.7842 96.0175 94.7511 97.7218 97.835Z" fill="white"/>
<path d="M96.4018 36.1138C78.57 36.1138 64.1042 50.5551 64.1042 68.3568C64.1042 86.1586 78.5487 100.6 96.4018 100.6C114.255 100.6 128.699 86.1586 128.699 68.3568C128.699 50.5551 114.234 36.1138 96.4018 36.1138ZM96.2953 97.7286C80.253 97.7286 67.2573 84.7548 67.2573 68.7397C67.2573 52.7245 80.253 39.7507 96.2953 39.7507C112.338 39.7507 125.333 52.7245 125.333 68.7397C125.333 84.7548 112.338 97.7286 96.2953 97.7286Z" fill="#142F3C"/>
<g opacity="0.39">
<g opacity="0.39">
<path opacity="0.39" d="M76.5456 44.3234C73.4139 46.9395 70.7934 49.9383 68.8973 53.5752C67.0438 57.1484 66.149 60.8703 65.8295 64.8688C65.8295 64.9326 65.936 64.9539 65.9573 64.8901C66.5538 61.1043 67.9812 57.276 69.7495 53.873C71.5391 50.4275 73.8613 47.1309 76.7161 44.4723C76.8013 44.366 76.6521 44.2171 76.5456 44.3234Z" fill="white"/>
</g>
</g>
<g opacity="0.39">
<g opacity="0.39">
<path opacity="0.39" d="M65.3852 67.6338C65.3639 72.7169 66.4504 77.5449 68.6448 82.1389C70.8604 86.7967 74.2266 90.6463 78.2531 93.8366C78.317 93.8791 78.4022 93.794 78.3383 93.7515C74.5461 90.6038 71.6061 86.4777 69.3904 82.0964C67.1535 77.6512 65.79 72.6106 65.5343 67.6338C65.5343 67.5487 65.3852 67.5274 65.3852 67.6338Z" fill="white"/>
</g>
</g>
<g opacity="0.39">
<g opacity="0.39">
<path opacity="0.39" d="M116.408 46.6204C118.219 48.1518 119.689 50.0021 120.989 51.9801C122.203 53.8305 123.354 55.8935 124.227 57.914C124.248 57.9778 124.376 57.9353 124.355 57.8502C124.057 56.723 123.801 55.5958 123.29 54.5536C122.757 53.4902 122.139 52.4693 121.457 51.4909C120.073 49.5768 118.368 47.9604 116.536 46.4928C116.43 46.4716 116.323 46.5566 116.408 46.6204Z" fill="white"/>
</g>
</g>
<g opacity="0.39">
<g opacity="0.39">
<path opacity="0.39" d="M118.242 54.5536C120.329 60.2748 120.819 66.6341 119.797 72.6106C118.817 78.3105 116.835 83.7127 113.491 88.4343C113.427 88.5194 113.555 88.6045 113.64 88.5407C115.728 86.4351 117.496 83.9679 118.945 81.3732C120.479 78.6508 121.437 75.9284 121.906 72.8232C122.396 69.6542 122.289 66.4852 121.799 63.3375C121.288 60.1472 120.202 57.2334 118.732 54.3622C118.582 54.107 118.156 54.2771 118.242 54.5536Z" fill="white"/>
</g>
</g>
<g opacity="0.39">
<g opacity="0.39">
<path opacity="0.39" d="M96.1906 42.0478C97.9802 42.1967 99.7484 42.7284 101.474 43.3026C103.093 43.8344 104.691 44.4937 106.204 45.2806C109.208 46.8757 111.7 49.1089 114.576 50.8317C115.002 51.0869 115.471 50.5977 115.237 50.1724C114.811 49.4067 114.427 48.6836 113.767 48.0881C113.128 47.4925 112.403 46.9608 111.679 46.4504C110.166 45.3657 108.547 44.4937 106.822 43.7918C105.138 43.09 103.37 42.5582 101.581 42.2392C99.7911 41.9202 98.0015 41.9202 96.1906 41.8564C96.0628 41.8351 96.0628 42.0265 96.1906 42.0478Z" fill="white"/>
</g>
</g>
<g opacity="0.39">
<g opacity="0.39">
<path opacity="0.39" d="M126.229 71.0368C126.059 73.2487 125.611 75.4181 124.93 77.5237C124.291 79.5229 123.374 81.4158 122.693 83.3725C122.671 83.415 122.735 83.4576 122.778 83.4151C125.547 80.0759 126.293 75.2267 126.421 71.0368C126.421 70.9304 126.251 70.9304 126.229 71.0368Z" fill="white"/>
</g>
</g>
<g opacity="0.34">
<g opacity="0.34">
<path opacity="0.34" d="M123.183 94.4535C124.93 95.8147 126.528 97.346 128.253 98.7497C129.894 100.09 131.683 101.217 133.388 102.472C133.452 102.514 133.537 102.408 133.473 102.365C131.939 100.813 130.49 99.2177 128.765 97.8777C127.039 96.5591 125.228 95.3893 123.46 94.1132C123.247 93.9643 122.991 94.2834 123.183 94.4535Z" fill="white"/>
</g>
</g>
<path d="M127.401 25.0544C129.254 20.6518 128.338 15.7388 125.675 12.6123C125.675 12.6123 130.468 15.1433 130.468 21.6301C130.468 31.754 120.796 30.7118 120.796 39.5595H118.751C118.666 30.414 124.759 31.3711 127.401 25.0544ZM112.573 47.918C112.573 45.3445 114.575 43.2389 117.26 43.2389C119.965 43.2389 121.947 45.3445 121.947 47.918C121.947 50.4915 119.944 52.5971 117.26 52.5971C114.575 52.6184 112.573 50.4915 112.573 47.918Z" fill="#FF511B"/>
<path d="M123.077 22.2257C123.077 22.2257 122.353 17.1 117.559 17.1213C113.916 17.1425 111.743 19.2906 111.466 22.7999H108.441C108.739 15.6537 115.812 13.059 120.371 15.1858C123.993 16.8873 124.27 19.3757 123.077 22.2257ZM112.574 47.9181C112.574 45.3446 114.577 43.239 117.261 43.239C119.967 43.239 121.948 45.3446 121.948 47.9181C121.948 50.4915 119.945 52.5971 117.261 52.5971C114.577 52.6184 112.574 50.4915 112.574 47.9181Z" fill="#FF511B"/>
<path opacity="0.44" d="M105.243 20.7796C105.84 20.737 106.436 20.6945 107.012 20.6307C107.331 19.1206 107.885 17.9934 108.29 17.2915C108.631 16.696 110.378 13.846 113.978 12.4636C115.001 12.0595 115.917 11.9106 116.535 11.8255C115.704 11.7405 114.383 11.6767 112.849 12.102C110.399 12.7826 108.929 14.2289 108.311 14.8669C106.117 17.1001 105.456 19.6523 105.243 20.7796Z" fill="white"/>
<path opacity="0.43" d="M114.83 38.4956C115.32 38.4744 115.832 38.4531 116.322 38.4318C116.322 37.8363 116.364 37.0281 116.535 36.0923C116.641 35.4542 116.854 34.2632 117.451 32.902C117.834 32.03 118.58 30.6688 119.944 29.2864C119.113 29.7968 117.962 30.6263 116.961 31.9875C115.001 34.6035 114.83 37.4109 114.83 38.4956Z" fill="white"/>
<path opacity="0.43" d="M117.174 44.3872C116.855 44.6424 116.343 45.1316 115.96 45.876C115.789 46.2163 115.001 47.7902 115.747 49.4278C116.386 50.8103 117.728 51.3207 118.026 51.4058C117.664 51.4909 116.94 51.5972 116.109 51.342C114.98 50.9804 114.021 50.0233 113.702 48.7898C113.638 48.5558 113.276 47.0032 114.341 45.6633C115.406 44.3447 117.004 44.3659 117.174 44.3872Z" fill="white"/>
<path opacity="0.43" d="M124.311 19.9497C124.396 20.4814 124.46 21.2684 124.375 22.1829C124.332 22.6295 124.141 24.0333 123.246 25.5859C122.585 26.7344 121.818 27.5213 121.222 28.0317C121.691 27.8829 122.372 27.6064 123.097 27.0747C123.629 26.6918 124.694 25.9049 125.227 24.4586C125.397 24.012 125.887 22.6721 125.291 21.2684C124.993 20.6303 124.588 20.1837 124.311 19.9497Z" fill="white"/>
<path opacity="0.33" d="M22.9452 19.9928H15.9147C14.7855 19.9928 13.8481 19.0782 13.8481 17.9297V7.29547C13.8481 6.16824 14.7642 5.23242 15.9147 5.23242H22.9452C24.0743 5.23242 25.0117 6.14697 25.0117 7.29547V17.9297C24.9904 19.0782 24.0743 19.9928 22.9452 19.9928Z" fill="#DF6A00"/>
<path opacity="0.36" d="M67.8967 33.8169H64.1258C63.5292 33.8169 63.0605 33.349 63.0605 32.7535V28.989C63.0605 28.3934 63.5292 27.9255 64.1258 27.9255H67.8967C68.4932 27.9255 68.9619 28.3934 68.9619 28.989V32.7535C68.9619 33.349 68.4719 33.8169 67.8967 33.8169Z" fill="#393148"/>
<path opacity="0.37" d="M29.722 85.0742H23.0537C22.095 85.0742 21.3068 84.2873 21.3068 83.3302V78.9276C21.3068 77.9705 22.095 77.1836 23.0537 77.1836H29.722C30.6807 77.1836 31.469 77.9705 31.469 78.9276V83.3302C31.469 84.2873 30.6807 85.0742 29.722 85.0742Z" fill="#393148"/>
<defs>
<linearGradient id="paint0_linear" x1="59.5675" y1="103.909" x2="141.983" y2="103.909" gradientUnits="userSpaceOnUse">
<stop stop-color="#5E7CA0"/>
<stop offset="0.0189686" stop-color="#5D7B9D"/>
<stop offset="0.6934" stop-color="#394948"/>
<stop offset="1" stop-color="#2B3526"/>
</linearGradient>
</defs>
</svg>
