<svg width="361" height="510" viewBox="0 0 361 510" fill="none" xmlns="http://www.w3.org/2000/svg">
<path opacity="0.1" d="M360.5 161C360.5 249.599 281.746 321.5 184.5 321.5C87.2536 321.5 8.5 249.599 8.5 161C8.5 72.4006 87.2536 0.5 184.5 0.5C281.746 0.5 360.5 72.4006 360.5 161Z" stroke="black"/>
<ellipse opacity="0.05" cx="176.5" cy="177" rx="176.5" ry="160" fill="white"/>
<path opacity="0.1" d="M316.5 267C316.5 334.029 300.511 394.688 274.685 438.573C248.853 482.47 213.239 509.5 174 509.5C134.761 509.5 99.1467 482.47 73.3147 438.573C47.4894 394.688 31.5 334.029 31.5 267C31.5 199.971 47.4894 139.312 73.3147 95.4266C99.1467 51.5302 134.761 24.5 174 24.5C213.239 24.5 248.853 51.5302 274.685 95.4266C300.511 139.312 316.5 199.971 316.5 267Z" stroke="black"/>
</svg>
