<svg width="64" height="64" viewBox="0 0 64 64" fill="none" xmlns="http://www.w3.org/2000/svg">
<path opacity="0.5" fill-rule="evenodd" clip-rule="evenodd" d="M54.8644 15.7394C55.522 15.7394 56.1431 16.0445 56.5477 16.5665C56.9524 17.0886 57.0956 17.7693 56.9363 18.4117L52.597 35.8914C52.3705 36.8033 51.5822 37.4617 50.6504 37.5168L16.5209 39.5369C17.1311 40.973 18.5447 41.9587 20.167 41.9587H44.017C47.5871 41.9587 50.4916 44.8838 50.4916 48.4793C50.4916 52.0748 47.5871 55 44.017 55C40.4469 55 37.5424 52.0748 37.5424 48.4793C37.5424 47.7004 37.6791 46.9533 37.9289 46.2602H26.2406C26.4903 46.9533 26.6271 47.7004 26.6271 48.4793C26.6271 52.0748 23.7226 55 20.1525 55C16.5825 55 13.678 52.0748 13.678 48.4793C13.678 46.9671 14.1932 45.5747 15.0541 44.4674C13.3926 43.1418 12.2435 41.1798 11.984 38.9153C11.9818 38.8974 11.98 38.8792 11.9784 38.8611L11.8928 37.9008C11.8791 37.8214 11.8685 37.7407 11.8637 37.6581C11.8626 37.639 11.8628 37.6201 11.863 37.6012C11.8631 37.5894 11.8632 37.5775 11.863 37.5656L9.52216 11.3016H7.13559C5.95613 11.3016 5 10.3386 5 9.15079C5 7.96294 5.95613 7 7.13559 7H11.4746C12.58 7 13.5028 7.84966 13.6016 8.95855L14.206 15.7394H54.8644ZM14.7964 21.3361L16.2821 36.299L48.6429 34.4286L51.4286 21.3361H14.7964Z" fill="#A67C00"/>
<path d="M57.5477 18.5665L57.9429 18.2602L57.9429 18.2602L57.5477 18.5665ZM57.9363 20.4117L58.4216 20.5321L58.4216 20.532L57.9363 20.4117ZM53.597 37.8914L54.0822 38.0119L54.0823 38.0119L53.597 37.8914ZM51.6504 39.5168L51.6209 39.0176L51.6209 39.0176L51.6504 39.5168ZM17.5209 41.5369L17.4913 41.0377L16.7834 41.0797L17.0607 41.7324L17.5209 41.5369ZM38.9289 48.2602L39.3993 48.4298L39.6407 47.7602H38.9289V48.2602ZM27.2406 48.2602V47.7602H26.5289L26.7702 48.4297L27.2406 48.2602ZM16.0541 46.4674L16.4489 46.7743L16.752 46.3845L16.366 46.0765L16.0541 46.4674ZM12.984 40.9153L13.4807 40.8584L13.4805 40.8561L12.984 40.9153ZM12.9784 40.8611L12.4804 40.9055L12.4804 40.9058L12.9784 40.8611ZM12.8928 39.9008L13.3908 39.8564L13.389 39.8363L13.3856 39.8163L12.8928 39.9008ZM12.8637 39.6581L12.3644 39.6858L12.3645 39.687L12.8637 39.6581ZM12.863 39.6012L13.3629 39.6056V39.6056L12.863 39.6012ZM12.863 39.5656L13.3629 39.5574L13.3626 39.5393L13.361 39.5212L12.863 39.5656ZM10.5222 13.3016L11.0202 13.2572L10.9796 12.8016H10.5222V13.3016ZM14.6016 10.9585L15.0997 10.9142L15.0997 10.9142L14.6016 10.9585ZM15.206 17.7394L14.708 17.7837L14.7486 18.2394H15.206V17.7394ZM17.2821 38.299L16.7846 38.3484L16.832 38.8258L17.311 38.7981L17.2821 38.299ZM15.7964 23.3361V22.8361H15.2443L15.2989 23.3855L15.7964 23.3361ZM49.6429 36.4286L49.6717 36.9278L50.0525 36.9058L50.1319 36.5327L49.6429 36.4286ZM52.4286 23.3361L52.9176 23.4402L53.0462 22.8361H52.4286V23.3361ZM57.9429 18.2602C57.444 17.6165 56.6774 17.2394 55.8644 17.2394V18.2394C56.3667 18.2394 56.8421 18.4724 57.1525 18.8728L57.9429 18.2602ZM58.4216 20.532C58.6177 19.7415 58.4415 18.9036 57.9429 18.2602L57.1525 18.8728C57.4632 19.2736 57.5736 19.797 57.451 20.2913L58.4216 20.532ZM54.0823 38.0119L58.4216 20.5321L57.451 20.2912L53.1117 37.7709L54.0823 38.0119ZM51.68 40.0159C52.8322 39.9478 53.8035 39.1341 54.0822 38.0119L53.1117 37.7709C52.9375 38.4725 52.3322 38.9756 51.6209 39.0176L51.68 40.0159ZM17.5504 42.036L51.68 40.0159L51.6209 39.0176L17.4913 41.0377L17.5504 42.036ZM21.167 43.4587C19.7518 43.4587 18.5154 42.5989 17.9811 41.3414L17.0607 41.7324C17.7467 43.3471 19.3376 44.4587 21.167 44.4587V43.4587ZM45.017 43.4587H21.167V44.4587H45.017V43.4587ZM51.9916 50.4793C51.9916 46.611 48.8666 43.4587 45.017 43.4587V44.4587C48.3076 44.4587 50.9916 47.1566 50.9916 50.4793H51.9916ZM45.017 57.5C48.8666 57.5 51.9916 54.3476 51.9916 50.4793H50.9916C50.9916 53.802 48.3076 56.5 45.017 56.5V57.5ZM38.0424 50.4793C38.0424 54.3476 41.1674 57.5 45.017 57.5V56.5C41.7264 56.5 39.0424 53.802 39.0424 50.4793H38.0424ZM38.4586 48.0906C38.1895 48.8371 38.0424 49.6416 38.0424 50.4793H39.0424C39.0424 49.7593 39.1687 49.0695 39.3993 48.4298L38.4586 48.0906ZM27.2406 48.7602H38.9289V47.7602H27.2406V48.7602ZM28.1271 50.4793C28.1271 49.6415 27.9799 48.8371 27.711 48.0907L26.7702 48.4297C27.0007 49.0695 27.1271 49.7594 27.1271 50.4793H28.1271ZM21.1525 57.5C25.0021 57.5 28.1271 54.3476 28.1271 50.4793H27.1271C27.1271 53.802 24.4431 56.5 21.1525 56.5V57.5ZM14.178 50.4793C14.178 54.3476 17.303 57.5 21.1525 57.5V56.5C17.862 56.5 15.178 53.802 15.178 50.4793H14.178ZM15.6594 46.1605C14.733 47.3521 14.178 48.8516 14.178 50.4793H15.178C15.178 49.0826 15.6534 47.7974 16.4489 46.7743L15.6594 46.1605ZM12.4872 40.9722C12.7623 43.3723 13.9807 45.4528 15.7423 46.8583L16.366 46.0765C14.8044 44.8308 13.7247 42.9873 13.4807 40.8584L12.4872 40.9722ZM12.4804 40.9058C12.4823 40.9275 12.4847 40.9506 12.4875 40.9744L13.4805 40.8561C13.479 40.8441 13.4777 40.8309 13.4764 40.8164L12.4804 40.9058ZM12.3947 39.9453L12.4804 40.9055L13.4764 40.8167L13.3908 39.8564L12.3947 39.9453ZM12.3645 39.687C12.3707 39.7934 12.3842 39.8935 12.4 39.9853L13.3856 39.8163C13.3741 39.7492 13.3662 39.6879 13.3628 39.6292L12.3645 39.687ZM12.363 39.5967C12.3628 39.6131 12.3623 39.648 12.3644 39.6858L13.3629 39.6304C13.363 39.6312 13.3629 39.6301 13.3628 39.6259C13.3628 39.6211 13.3628 39.6157 13.3629 39.6056L12.363 39.5967ZM12.363 39.5738C12.3631 39.5784 12.3631 39.5839 12.363 39.5967L13.3629 39.6056C13.363 39.5948 13.3632 39.5767 13.3629 39.5574L12.363 39.5738ZM10.0241 13.346L12.3649 39.61L13.361 39.5212L11.0202 13.2572L10.0241 13.346ZM8.13559 13.8016H10.5222V12.8016H8.13559V13.8016ZM5.5 11.1508C5.5 12.6114 6.67665 13.8016 8.13559 13.8016V12.8016C7.23561 12.8016 6.5 12.0658 6.5 11.1508H5.5ZM8.13559 8.5C6.67665 8.5 5.5 9.69014 5.5 11.1508H6.5C6.5 10.2357 7.23561 9.5 8.13559 9.5V8.5ZM12.4746 8.5H8.13559V9.5H12.4746V8.5ZM15.0997 10.9142C14.9781 9.55027 13.8419 8.5 12.4746 8.5V9.5C13.3182 9.5 14.0275 10.1491 14.1036 11.0029L15.0997 10.9142ZM15.704 17.695L15.0997 10.9142L14.1036 11.0029L14.708 17.7837L15.704 17.695ZM55.8644 17.2394H15.206V18.2394H55.8644V17.2394ZM17.7797 38.2496L16.294 23.2867L15.2989 23.3855L16.7846 38.3484L17.7797 38.2496ZM49.614 35.9294L17.2533 37.7998L17.311 38.7981L49.6717 36.9278L49.614 35.9294ZM51.9395 23.232L49.1538 36.3245L50.1319 36.5327L52.9176 23.4402L51.9395 23.232ZM15.7964 23.8361H52.4286V22.8361H15.7964V23.8361Z" fill="#A67C00"/>
</svg>
