<svg width="1216" height="488" viewBox="0 0 1216 488" fill="none" xmlns="http://www.w3.org/2000/svg">
<path opacity="0.2" d="M294.041 299.075C478.509 188.955 504.684 52.1261 496.773 1H0V648H19.71C30.121 436.64 80.0468 426.821 294.041 299.075Z" fill="white"/>
<path opacity="0.2" d="M362.745 326.678C418.513 387.807 397.743 524.363 380.388 585H0V288.279C172.121 235.529 293.036 250.268 362.745 326.678Z" fill="white"/>
<path opacity="0.2" d="M524.207 531C469.267 344.832 971.666 220.572 912.935 1.00003L1215 1.00003L1215 531L524.207 531Z" fill="white"/>
<path opacity="0.2" d="M1050.64 235.805C1089.23 206.305 1176.29 166.31 1215 150V484C1192.82 478.8 1132.82 456.486 1070.29 408.832C992.13 349.265 1002.4 272.679 1050.64 235.805Z" fill="white"/>
<path opacity="0.05" d="M563 -95.5C563 189.163 322.17 420 25 420C-272.17 420 -513 189.163 -513 -95.5C-513 -380.163 -272.17 -611 25 -611C322.17 -611 563 -380.163 563 -95.5Z" stroke="black" stroke-width="2"/>
<path opacity="0.05" d="M1569 238.5C1569 288.982 1536.45 334.833 1483.5 368.115C1430.57 401.388 1357.39 422 1276.5 422C1195.61 422 1122.43 401.388 1069.5 368.115C1016.55 334.833 984 288.982 984 238.5C984 188.018 1016.55 142.167 1069.5 108.885C1122.43 75.6125 1195.61 55 1276.5 55C1357.39 55 1430.57 75.6125 1483.5 108.885C1536.45 142.167 1569 188.018 1569 238.5Z" stroke="black" stroke-width="2"/>
</svg>
