<svg width="125" height="138" viewBox="0 0 125 138" fill="none" xmlns="http://www.w3.org/2000/svg">
<path fill-rule="evenodd" clip-rule="evenodd" d="M57 127C88.4802 127 114 101.48 114 70C114 38.5198 88.4802 13 57 13C25.5198 13 0 38.5198 0 70C0 101.48 25.5198 127 57 127ZM57 120C84.6142 120 107 97.6142 107 70C107 42.3858 84.6142 20 57 20C29.3858 20 7 42.3858 7 70C7 97.6142 29.3858 120 57 120Z" fill="#E1DEF5"/>
<path opacity="0.8" d="M57 138C94.5554 138 125 107.555 125 70C125 32.4446 94.5554 2 57 2V34C76.8823 34 93 50.1177 93 70C93 89.8822 76.8823 106 57 106C50.6482 106 44.6806 104.355 39.5 101.468L24 129.47C33.7727 134.905 45.0248 138 57 138Z" fill="#3E2CB1"/>
<path d="M122.5 68C122.5 105.279 92.2792 135.5 55 135.5C43.2902 135.5 32.2781 132.519 22.68 127.274L37.6963 100.146C42.8462 102.924 48.7397 104.5 55 104.5C75.1584 104.5 91.5 88.1584 91.5 68C91.5 48.0085 75.4279 31.7709 55.5 31.5034V0.501813C92.5491 0.770592 122.5 30.8876 122.5 68Z" stroke="#3E2CB1"/>
<circle cx="57" cy="70" r="22" fill="#E1DEF5"/>
</svg>
