<svg width="176" height="184" viewBox="0 0 176 184" fill="none" xmlns="http://www.w3.org/2000/svg">
<path opacity="0.25" fill-rule="evenodd" clip-rule="evenodd" d="M44.2047 7.96006C47.752 7.68415 55.5015 6.47016 58.121 3.82144C63.0326 -1.97232 70.4001 -0.524107 76.1303 3.82144C79.4047 6.30461 88.4094 8.78779 94.1396 3.82144C99.8699 -1.1449 105.6 -0.317176 112.149 3.82144C117.388 7.13234 121.972 7.96006 123.609 7.96006L110.512 32.7918C103.963 44.3802 103.144 46.8631 121.972 64.2453C146.53 86.9177 171.089 137.085 171.089 177.644C171.089 229.79 134.579 243.034 83.4978 243.034C32.4168 243.034 0 224.824 0 177.644C0 123.842 32.908 78.1508 46.6605 64.2453C63.8512 51.002 65.9796 44.7108 58.121 32.7918L44.2047 7.96006ZM66.0347 184.005C69.2906 187.84 74.2064 190.114 80.782 190.829V199.993H90.9327V190.829C97.8914 190.114 103.031 188.002 106.35 184.492C109.67 180.983 111.33 176.564 111.33 171.234C111.33 167.79 110.723 164.93 109.51 162.655C108.297 160.381 106.733 158.496 104.818 157.001C102.903 155.441 100.732 154.239 98.3063 153.394C95.8804 152.484 93.4225 151.672 90.9327 150.957V132.239C93.2948 132.824 94.9866 133.994 96.008 135.749C97.0933 137.439 97.7956 139.843 98.1148 142.963H110.372C109.925 136.464 108.17 131.427 105.105 127.852C102.041 124.278 97.3168 122.133 90.9327 121.418V112.254H80.782V121.418C77.5261 121.808 74.6852 122.555 72.2592 123.66C69.8971 124.765 67.918 126.13 66.322 127.755C64.726 129.38 63.513 131.264 62.6831 133.409C61.917 135.489 61.5339 137.731 61.5339 140.136C61.5339 143.32 62.0766 145.985 63.1619 148.13C64.311 150.274 65.7794 152.094 67.5669 153.589C69.3545 155.019 71.3974 156.189 73.6956 157.099C75.9939 158.008 78.356 158.788 80.782 159.438V180.008C78.1645 179.293 76.2493 177.961 75.0363 176.011C73.8233 173.996 73.0891 171.104 72.8338 167.335H60.5763C61.0232 174.614 62.8427 180.171 66.0347 184.005ZM96.8699 165.677C98.4659 166.977 99.2639 168.764 99.2639 171.039C99.2639 173.249 98.5936 175.166 97.2529 176.791C95.9123 178.351 93.8055 179.456 90.9327 180.106V162.363C93.3587 163.273 95.3377 164.378 96.8699 165.677ZM75.6109 145.108C74.2702 143.938 73.5999 142.313 73.5999 140.233C73.5999 138.348 74.1744 136.691 75.3236 135.261C76.4727 133.831 78.2922 132.824 80.782 132.239V148.032C78.6752 147.252 76.9515 146.277 75.6109 145.108Z" fill="#E9872C"/>
<path d="M94.7077 134.553C96.6357 135.152 97.9994 136.193 98.8509 137.656L98.8564 137.666L98.8623 137.675C99.888 139.272 100.577 141.589 100.892 144.67L100.938 145.119H101.39H113.647H114.183L114.146 144.584C113.695 138.018 111.917 132.865 108.76 129.183C105.66 125.567 100.95 123.402 94.7077 122.629V113.91V113.41H94.2077H84.057H83.557V113.91V122.633C80.4434 123.041 77.6979 123.781 75.327 124.861L75.327 124.861L75.3224 124.863C72.914 125.99 70.8837 127.387 69.2403 129.06C67.5961 130.734 66.346 132.677 65.4918 134.884L65.4917 134.884L65.4889 134.892C64.7007 137.032 64.3089 139.333 64.3089 141.792C64.3089 145.03 64.8604 147.778 65.9907 150.011L65.9906 150.011L65.9962 150.022C67.1741 152.22 68.6824 154.091 70.5212 155.628L70.5211 155.628L70.5296 155.635C72.3589 157.099 74.4458 158.293 76.7866 159.219C78.9858 160.09 81.2426 160.842 83.557 161.477V180.992C81.3673 180.273 79.7751 179.072 78.7378 177.406C77.5844 175.488 76.8604 172.688 76.6076 168.957L76.5761 168.491H76.1088H63.8513H63.3197L63.3523 169.021C63.8028 176.36 65.6404 182.035 68.9254 185.981L68.9286 185.985C72.2153 189.855 77.1156 192.153 83.557 192.931V201.649V202.149H84.057H94.2077H94.7077V201.649V192.934C101.509 192.168 106.63 190.043 109.989 186.492C113.405 182.88 115.105 178.333 115.105 172.89C115.105 169.39 114.489 166.443 113.227 164.076C111.984 161.745 110.377 159.806 108.405 158.266C106.444 156.67 104.223 155.44 101.746 154.578L94.7077 134.553ZM94.7077 134.553V152.237V134.553ZM99.8214 167.715L99.8214 167.715L99.8292 167.721C101.295 168.915 102.039 170.553 102.039 172.695C102.039 174.793 101.406 176.595 100.145 178.125C98.9912 179.466 97.1976 180.478 94.7077 181.126V164.75C96.7849 165.591 98.4859 166.582 99.8214 167.715ZM79.2146 146.387C78.0015 145.328 77.3749 143.851 77.3749 141.889C77.3749 140.115 77.9126 138.569 78.9883 137.23C79.953 136.03 81.4574 135.121 83.557 134.539V148.958C81.8005 148.242 80.3565 147.383 79.2146 146.387Z" stroke="#E9872C"/>
<path opacity="0.5" d="M63.7434 9.49142L63.7704 9.46415L63.7952 9.43489C66.037 6.79036 68.7969 5.82023 71.6731 5.98437C74.592 6.15095 77.6804 7.49424 80.4374 9.58503L81.0417 8.78824L80.4374 9.58503C82.2481 10.9582 85.5042 12.2532 89.0339 12.5776C92.5802 12.9036 96.569 12.2627 99.706 9.54392C102.411 7.19931 105.037 6.27994 107.714 6.37327C110.43 6.46798 113.323 7.60941 116.526 9.63358C120.742 12.2978 124.583 13.4236 126.937 13.7855L114.545 37.2792C111.327 42.9737 109.202 46.8884 110.683 51.6119C111.408 53.9252 112.97 56.3502 115.472 59.2476C117.98 62.1511 121.494 65.5973 126.205 69.9468C138.357 81.1659 150.567 99.2511 159.739 119.615C168.91 139.976 175 162.514 175 182.611C175 208.413 165.992 224.406 150.825 234.016C135.562 243.687 113.906 247.001 88.4091 247.001C62.9568 247.001 42.3313 242.458 28.0898 232.187C13.9099 221.96 5.91138 205.945 5.91138 182.611C5.91138 155.909 14.0791 131.191 23.9788 111.397C33.8579 91.6451 45.4322 76.8564 52.2358 69.9629C60.7797 63.3762 65.8303 58.3444 67.6365 53.3275C69.497 48.1597 67.8518 43.2594 63.8872 37.2383L50.7362 13.7723C52.4429 13.5738 54.583 13.2318 56.662 12.7182C58.0481 12.3757 59.4284 11.9518 60.644 11.4334C61.8462 10.9206 62.9571 10.2865 63.7434 9.49142Z" stroke="#E9872C" stroke-width="2"/>
<path opacity="0.25" d="M94.14 3.82221C88.4097 8.78855 79.4051 6.30538 76.1306 3.82221C73.8483 2.09142 71.3063 0.820248 68.7632 0.283203L82.6795 49.3477H89.2283L100.868 0.511629C98.5934 0.837362 96.3667 1.89232 94.14 3.82221Z" fill="#E9872C"/>
<path opacity="0.25" d="M171.089 177.645C171.089 137.086 146.53 86.9186 121.972 64.2461C116.728 59.4048 113.008 55.7193 110.512 52.6709C182.549 193.371 120.335 233.939 32.7443 233.939C46.2208 240.221 63.4172 243.035 83.4979 243.035C134.579 243.035 171.089 229.791 171.089 177.645Z" fill="#E9872C"/>
<path opacity="0.6" d="M58.9394 43.7246C58.9394 43.1723 59.3871 42.7246 59.9394 42.7246H108.693C109.245 42.7246 109.693 43.1723 109.693 43.7246V48.3464C109.693 48.8987 109.245 49.3464 108.693 49.3464H101.965C101.124 49.3464 100.642 50.3323 101.146 51.0061C103.536 54.2054 108.89 61.7935 113.786 71.6949C116.242 76.6613 111.379 79.5278 109.693 75.8336C105.234 66.0639 94.701 52.2004 92.7992 49.7302C92.6114 49.4862 92.3223 49.3464 92.0143 49.3464H79.8389C79.5618 49.3464 79.3046 49.4534 79.1169 49.6572C77.0956 51.8515 64.9327 65.2289 58.9394 75.8336C54.5462 83.607 48.2978 82.4553 51.572 75.8336C55.9838 66.911 65.6594 55.3006 69.3445 51.0231C69.9086 50.3682 69.437 49.3464 68.5726 49.3464H59.9394C59.3871 49.3464 58.9394 48.8987 58.9394 48.3464V43.7246Z" fill="#E9872C"/>
<path d="M60.4392 45.7246C60.4392 45.4485 60.6631 45.2246 60.9392 45.2246H109.693C109.969 45.2246 110.193 45.4485 110.193 45.7246V50.3464C110.193 50.6225 109.969 50.8464 109.693 50.8464H102.965C101.701 50.8464 101.002 52.3107 101.745 53.3054C104.124 56.4898 109.459 64.0513 114.338 73.9166C115.49 76.2473 114.869 77.9261 113.985 78.6182C113.533 78.971 113.003 79.089 112.517 78.9604C112.035 78.8331 111.52 78.4423 111.148 77.6259C106.66 67.7949 96.0897 53.8859 94.1952 51.4252C93.9111 51.0561 93.4745 50.8464 93.0141 50.8464H80.8387C80.4292 50.8464 80.0362 51.0067 79.7489 51.3184C77.7332 53.5066 65.5301 66.9247 59.5039 77.5876C58.4319 79.4844 57.2592 80.8141 56.1704 81.6471C55.071 82.4882 54.1021 82.791 53.4224 82.7336C53.0904 82.7055 52.8316 82.5931 52.6395 82.4209C52.447 82.2483 52.2917 81.9888 52.2131 81.6168C52.0524 80.8566 52.2242 79.6646 53.02 78.0552C57.3994 69.1981 67.0325 57.6333 70.7231 53.3494C71.5685 52.3681 70.8615 50.8464 69.5725 50.8464H60.9392C60.6631 50.8464 60.4392 50.6225 60.4392 50.3464V45.7246Z" stroke="#E9872C"/>
</svg>
