<svg width="176" height="160" viewBox="0 0 176 160" fill="none" xmlns="http://www.w3.org/2000/svg">
<path d="M137.925 120.11H129.153L126.119 117.107C136.932 104.714 143.442 88.6082 143.442 70.9741C143.442 31.7745 111.333 0 71.7212 0C32.1095 0 0 31.7745 0 70.9741C0 110.174 32.1089 141.948 71.7212 141.948C89.5409 141.948 105.816 135.506 118.34 124.86L121.374 127.863V136.488L176.544 190.974L192.985 174.705L137.925 120.11ZM71.7212 120.11C44.3018 120.11 22.0682 98.1078 22.0682 70.9741C22.0682 43.8404 44.3018 21.8383 71.7212 21.8383C99.1405 21.8383 121.374 43.8404 121.374 70.9741C121.374 98.1078 99.1405 120.11 71.7212 120.11Z" fill="#EBEDEE"/>
<path opacity="0.2" d="M74.882 36.1846C53.983 36.1846 36.7624 51.9334 34.4406 72.2107C34.3179 73.2826 35.7335 73.6351 36.2465 72.6858C46.7247 53.2955 66.0517 42.2622 84.6088 39.2444C85.6584 39.0737 85.7987 37.6504 84.767 37.393C81.6023 36.6036 78.2911 36.1846 74.882 36.1846Z" fill="#5E6E77"/>
<circle cx="73.8769" cy="75.8876" r="45.2333" stroke="#5E6E77"/>
<path opacity="0.5" d="M132.396 122.593H141.136L196 176.824L179.618 192.985L124.644 138.862V130.294L121.62 127.311L129.372 119.61L132.396 122.593Z" fill="#5E6E77"/>
<path d="M139.935 125.135H131.163L128.129 122.132C138.942 109.739 145.452 93.6336 145.452 75.9995C145.452 36.7999 113.343 5.02539 73.7314 5.02539C34.1197 5.02539 2.01025 36.7999 2.01025 75.9995C2.01025 115.199 34.1192 146.974 73.7314 146.974C91.5511 146.974 107.826 140.531 120.35 129.885L123.384 132.888V141.514L178.554 196L194.995 179.73L139.935 125.135ZM73.7314 125.135C46.3121 125.135 24.0784 103.133 24.0784 75.9995C24.0784 48.8658 46.3121 26.8637 73.7314 26.8637C101.151 26.8637 123.384 48.8658 123.384 75.9995C123.384 103.133 101.151 125.135 73.7314 125.135Z" stroke="#5E6E77" stroke-width="2"/>
</svg>
