<svg width="176" height="128" viewBox="0 0 176 128" fill="none" xmlns="http://www.w3.org/2000/svg">
<circle opacity="0.7" cx="126.047" cy="30.4272" r="30.4253" fill="#E2F1AB"/>
<circle opacity="0.7" cx="191.245" cy="39.1161" r="21.7323" fill="#E2F1AB"/>
<circle opacity="0.7" cx="47.8111" cy="30.4257" r="21.7323" fill="#E2F1AB"/>
<circle opacity="0.8" cx="50.6183" cy="32.5995" r="20.9823" stroke="#5E7500" stroke-width="1.5"/>
<circle opacity="0.8" cx="121.067" cy="32.5985" r="31.5985" stroke="#5E7500" stroke-width="2"/>
<circle opacity="0.8" cx="185.177" cy="36.9462" r="20.9823" stroke="#5E7500" stroke-width="1.5"/>
<path opacity="0.7" d="M57.1388 112.372C57.1388 81.9469 93.74 63.5568 126.682 64.5606C159.625 65.5644 191.879 81.9469 191.879 112.372C191.879 131.931 150.587 134.104 122.336 134.104C100.603 134.104 57.1384 131.931 57.1388 112.372Z" fill="#E2F1AB"/>
<path opacity="0.7" d="M0 95.4486C0 72.6428 25.975 58.8579 49.3534 59.6104C72.7318 60.3628 95.6223 72.6428 95.6223 95.4486C95.6219 110.11 66.3183 111.739 46.2689 111.739C30.8455 111.739 -0.000269077 110.11 0 95.4486Z" fill="#E2F1AB"/>
<path opacity="0.7" d="M143.434 114.737C143.434 91.9308 169.409 78.146 192.787 78.8984C216.165 79.6509 239.056 91.9308 239.056 114.737C239.055 129.398 209.752 131.027 189.702 131.027C174.279 131.027 143.433 129.398 143.434 114.737Z" fill="#E2F1AB"/>
<path opacity="0.8" d="M4.01001 99.9759C4.01001 88.8933 10.313 79.9551 19.5824 73.8488C28.859 67.7378 41.0423 64.5157 52.5893 64.8873C64.1681 65.26 75.5859 68.4881 84.0864 74.4024C92.5684 80.3038 98.1323 88.862 98.1323 99.9759C98.1322 103.343 96.4676 105.988 93.5505 108.099C90.6089 110.227 86.4328 111.777 81.5574 112.888C71.8144 115.107 59.5498 115.516 49.5289 115.516C41.8286 115.516 30.3324 115.108 20.7803 112.888C15.9997 111.778 11.7708 110.227 8.75342 108.094C5.75585 105.975 4.00995 103.329 4.01001 99.9759Z" stroke="#5E7500" stroke-width="1.5"/>
<path opacity="0.8" d="M52.071 116.267C52.071 101.508 60.9381 89.5826 74.0186 81.4244C87.1034 73.2636 104.291 68.9592 120.584 69.4556C136.918 69.9533 153.025 74.2648 165.016 82.1639C176.985 90.0479 184.812 101.465 184.812 116.267C184.811 120.735 182.479 124.263 178.353 127.09C174.197 129.936 168.3 132.007 161.423 133.491C147.682 136.454 130.389 137 116.268 137C105.416 137 89.2064 136.455 75.7344 133.492C68.9913 132.008 63.0203 129.936 58.7579 127.083C54.5174 124.246 52.071 120.716 52.071 116.267Z" stroke="#5E7500" stroke-width="2"/>
<path opacity="0.8" d="M143.097 107.582C143.097 96.4998 149.4 87.5615 158.669 81.4552C167.946 75.3443 180.129 72.1221 191.676 72.4938C203.255 72.8664 214.673 76.0946 223.173 82.0089C231.655 87.9103 237.219 96.4685 237.219 107.582C237.219 110.95 235.554 113.595 232.637 115.705C229.696 117.834 225.519 119.384 220.644 120.494C210.901 122.714 198.636 123.122 188.616 123.122C180.915 123.122 169.419 122.714 159.867 120.495C155.086 119.384 150.858 117.833 147.84 115.7C144.843 113.582 143.097 110.935 143.097 107.582Z" stroke="#5E7500" stroke-width="1.5"/>
</svg>
