<svg width="176" height="152" viewBox="0 0 176 152" fill="none" xmlns="http://www.w3.org/2000/svg">
<path d="M169.902 18.1644H161.063V3.43262H146.331V18.1644H49.1016V3.43262H34.3698V18.1644H25.5308C13.3461 18.1644 3.43311 28.0774 3.43311 40.2621V169.902C3.43311 182.087 13.3461 192 25.5308 192H169.902C182.087 192 192 182.087 192 169.902V40.2621C192 28.0774 182.087 18.1644 169.902 18.1644Z" fill="#E1DEF5"/>
<path opacity="0.5" d="M156.63 14.7318V15.7318H157.63H166.469C178.101 15.7318 187.567 25.1971 187.567 36.8295V166.469C187.567 178.102 178.101 187.567 166.469 187.567H22.0977C10.4653 187.567 1 178.102 1 166.469V36.8295C1 25.1971 10.4653 15.7318 22.0977 15.7318H30.9367H31.9367V14.7318V1H44.6685V14.7318V15.7318H45.6685H142.898H143.898V14.7318V1H156.63V14.7318Z" stroke="#3E2CB1" stroke-width="2"/>
<path opacity="0.5" d="M172.835 166.47C172.835 169.979 169.978 172.836 166.469 172.836H22.0976C18.5883 172.836 15.7317 169.979 15.7317 166.47V70.2402H172.835V166.47Z" stroke="#3E2CB1" stroke-width="2"/>
<path opacity="0.5" d="M157.528 44.9924H158.528V43.9924V30.2607H166.367C169.877 30.2607 172.733 33.1174 172.733 36.6266V53.3046H15.6301V36.6266C15.6301 33.1174 18.4867 30.2607 21.996 30.2607H29.8351V43.9924V44.9924H30.8351H45.5669H46.5669V43.9924V30.2607H141.797V43.9924V44.9924H142.797H157.528Z" stroke="#3E2CB1" stroke-width="2"/>
<path opacity="0.2" d="M177.086 170.532C177.086 174.594 173.782 177.898 169.72 177.898H25.3488C21.2872 177.898 17.9829 174.594 17.9829 170.532V73.3027H177.086V170.532Z" fill="#3E2CB1"/>
<path d="M24 107V113C24 114.105 24.8954 115 26 115H32C33.1046 115 34 114.105 34 113V107C34 105.895 33.1046 105 32 105H26C24.8954 105 24 105.895 24 107Z" fill="white"/>
<path d="M24 127V133C24 134.105 24.8954 135 26 135H32C33.1046 135 34 134.105 34 133V127C34 125.895 33.1046 125 32 125H26C24.8954 125 24 125.895 24 127Z" fill="white"/>
<path d="M24 147V153C24 154.105 24.8954 155 26 155H32C33.1046 155 34 154.105 34 153V147C34 145.895 33.1046 145 32 145H26C24.8954 145 24 145.895 24 147Z" fill="white"/>
<path d="M46 107V113C46 114.105 46.8954 115 48 115H54C55.1046 115 56 114.105 56 113V107C56 105.895 55.1046 105 54 105H48C46.8954 105 46 105.895 46 107Z" fill="white"/>
<path d="M46 127V133C46 134.105 46.8954 135 48 135H54C55.1046 135 56 134.105 56 133V127C56 125.895 55.1046 125 54 125H48C46.8954 125 46 125.895 46 127Z" fill="white"/>
<path d="M46 147V153C46 154.105 46.8954 155 48 155H54C55.1046 155 56 154.105 56 153V147C56 145.895 55.1046 145 54 145H48C46.8954 145 46 145.895 46 147Z" fill="white"/>
<path d="M68 87V93.0001C68 94.1046 68.8954 95.0001 70 95.0001H76C77.1046 95.0001 78 94.1046 78 93.0001V87C78 85.8954 77.1046 85 76 85H70C68.8954 85 68 85.8954 68 87Z" fill="white"/>
<path d="M68 107V113C68 114.105 68.8954 115 70 115H76C77.1046 115 78 114.105 78 113V107C78 105.895 77.1046 105 76 105H70C68.8954 105 68 105.895 68 107Z" fill="white"/>
<path d="M68 127V133C68 134.105 68.8954 135 70 135H76C77.1046 135 78 134.105 78 133V127C78 125.895 77.1046 125 76 125H70C68.8954 125 68 125.895 68 127Z" fill="white"/>
<path d="M68 147V153C68 154.105 68.8954 155 70 155H76C77.1046 155 78 154.105 78 153V147C78 145.895 77.1046 145 76 145H70C68.8954 145 68 145.895 68 147Z" fill="white"/>
<path d="M90 87V93.0001C90 94.1046 90.8954 95.0001 92 95.0001H98C99.1046 95.0001 100 94.1046 100 93.0001V87C100 85.8954 99.1046 85 98 85H92C90.8954 85 90 85.8954 90 87Z" fill="white"/>
<path d="M90 107V113C90 114.105 90.8954 115 92 115H98C99.1046 115 100 114.105 100 113V107C100 105.895 99.1046 105 98 105H92C90.8954 105 90 105.895 90 107Z" fill="white"/>
<path d="M90 127V133C90 134.105 90.8954 135 92 135H98C99.1046 135 100 134.105 100 133V127C100 125.895 99.1046 125 98 125H92C90.8954 125 90 125.895 90 127Z" fill="white"/>
<path d="M90 147V153C90 154.105 90.8954 155 92 155H98C99.1046 155 100 154.105 100 153V147C100 145.895 99.1046 145 98 145H92C90.8954 145 90 145.895 90 147Z" fill="white"/>
<path d="M112 87V93.0001C112 94.1046 112.895 95.0001 114 95.0001H120C121.105 95.0001 122 94.1046 122 93.0001V87C122 85.8954 121.105 85 120 85H114C112.895 85 112 85.8954 112 87Z" fill="white"/>
<path d="M112 107V113C112 114.105 112.895 115 114 115H120C121.105 115 122 114.105 122 113V107C122 105.895 121.105 105 120 105H114C112.895 105 112 105.895 112 107Z" fill="white"/>
<path d="M112 127V133C112 134.105 112.895 135 114 135H120C121.105 135 122 134.105 122 133V127C122 125.895 121.105 125 120 125H114C112.895 125 112 125.895 112 127Z" fill="white"/>
<path d="M112 147V153C112 154.105 112.895 155 114 155H120C121.105 155 122 154.105 122 153V147C122 145.895 121.105 145 120 145H114C112.895 145 112 145.895 112 147Z" fill="white"/>
<path d="M134 87V93.0001C134 94.1046 134.895 95.0001 136 95.0001H142C143.105 95.0001 144 94.1046 144 93.0001V87C144 85.8954 143.105 85 142 85H136C134.895 85 134 85.8954 134 87Z" fill="white"/>
<path d="M134 107V113C134 114.105 134.895 115 136 115H142C143.105 115 144 114.105 144 113V107C144 105.895 143.105 105 142 105H136C134.895 105 134 105.895 134 107Z" fill="white"/>
<path d="M134 127V133C134 134.105 134.895 135 136 135H142C143.105 135 144 134.105 144 133V127C144 125.895 143.105 125 142 125H136C134.895 125 134 125.895 134 127Z" fill="white"/>
<path d="M134 147V153C134 154.105 134.895 155 136 155H142C143.105 155 144 154.105 144 153V147C144 145.895 143.105 145 142 145H136C134.895 145 134 145.895 134 147Z" fill="white"/>
<path d="M156 87V93.0001C156 94.1046 156.895 95.0001 158 95.0001H164C165.105 95.0001 166 94.1046 166 93.0001V87C166 85.8954 165.105 85 164 85H158C156.895 85 156 85.8954 156 87Z" fill="white"/>
<path d="M156 107V113C156 114.105 156.895 115 158 115H164C165.105 115 166 114.105 166 113V107C166 105.895 165.105 105 164 105H158C156.895 105 156 105.895 156 107Z" fill="white"/>
<path d="M156 127V133C156 134.105 156.895 135 158 135H164C165.105 135 166 134.105 166 133V127C166 125.895 165.105 125 164 125H158C156.895 125 156 125.895 156 127Z" fill="white"/>
<path d="M156 147V153C156 154.105 156.895 155 158 155H164C165.105 155 166 154.105 166 153V147C166 145.895 165.105 145 164 145H158C156.895 145 156 145.895 156 147Z" fill="white"/>
<path opacity="0.7" d="M25.5 115V109C25.5 108.172 26.1716 107.5 27 107.5H33C33.8284 107.5 34.5 108.172 34.5 109V115C34.5 115.828 33.8284 116.5 33 116.5H27C26.1716 116.5 25.5 115.828 25.5 115Z" stroke="#3E2CB1"/>
<path opacity="0.7" d="M25.5 134.999V128.999C25.5 128.171 26.1716 127.499 27 127.499H33C33.8284 127.499 34.5 128.171 34.5 128.999V134.999C34.5 135.828 33.8284 136.499 33 136.499H27C26.1716 136.499 25.5 135.828 25.5 134.999Z" stroke="#3E2CB1"/>
<path opacity="0.7" d="M25.5 155V149C25.5 148.172 26.1716 147.5 27 147.5H33C33.8284 147.5 34.5 148.172 34.5 149V155C34.5 155.828 33.8284 156.5 33 156.5H27C26.1716 156.5 25.5 155.828 25.5 155Z" stroke="#3E2CB1"/>
<path opacity="0.7" d="M47.5 115V109C47.5 108.172 48.1716 107.5 49 107.5H55C55.8284 107.5 56.5 108.172 56.5 109V115C56.5 115.828 55.8284 116.5 55 116.5H49C48.1716 116.5 47.5 115.828 47.5 115Z" stroke="#3E2CB1"/>
<path opacity="0.7" d="M47.5 134.999V128.999C47.5 128.171 48.1716 127.499 49 127.499H55C55.8284 127.499 56.5 128.171 56.5 128.999V134.999C56.5 135.828 55.8284 136.499 55 136.499H49C48.1716 136.499 47.5 135.828 47.5 134.999Z" stroke="#3E2CB1"/>
<path opacity="0.7" d="M47.5 155V149C47.5 148.172 48.1716 147.5 49 147.5H55C55.8284 147.5 56.5 148.172 56.5 149V155C56.5 155.828 55.8284 156.5 55 156.5H49C48.1716 156.5 47.5 155.828 47.5 155Z" stroke="#3E2CB1"/>
<path opacity="0.7" d="M69.5 94.9999V89C69.5 88.1716 70.1716 87.5 71 87.5H77C77.8284 87.5 78.5 88.1716 78.5 89V94.9999C78.5 95.8284 77.8284 96.4999 77 96.4999H71C70.1716 96.4999 69.5 95.8284 69.5 94.9999Z" stroke="#3E2CB1"/>
<path opacity="0.7" d="M69.5 115V109C69.5 108.172 70.1716 107.5 71 107.5H77C77.8284 107.5 78.5 108.172 78.5 109V115C78.5 115.828 77.8284 116.5 77 116.5H71C70.1716 116.5 69.5 115.828 69.5 115Z" stroke="#3E2CB1"/>
<path opacity="0.7" d="M69.5 134.999V128.999C69.5 128.171 70.1716 127.499 71 127.499H77C77.8284 127.499 78.5 128.171 78.5 128.999V134.999C78.5 135.828 77.8284 136.499 77 136.499H71C70.1716 136.499 69.5 135.828 69.5 134.999Z" stroke="#3E2CB1"/>
<path opacity="0.7" d="M69.5 155V149C69.5 148.172 70.1716 147.5 71 147.5H77C77.8284 147.5 78.5 148.172 78.5 149V155C78.5 155.828 77.8284 156.5 77 156.5H71C70.1716 156.5 69.5 155.828 69.5 155Z" stroke="#3E2CB1"/>
<path opacity="0.7" d="M91.5 94.9999V89C91.5 88.1716 92.1716 87.5 93 87.5H99C99.8284 87.5 100.5 88.1716 100.5 89V94.9999C100.5 95.8284 99.8284 96.4999 99 96.4999H93C92.1716 96.4999 91.5 95.8284 91.5 94.9999Z" stroke="#3E2CB1"/>
<path opacity="0.7" d="M91.5 115V109C91.5 108.172 92.1716 107.5 93 107.5H99C99.8284 107.5 100.5 108.172 100.5 109V115C100.5 115.828 99.8284 116.5 99 116.5H93C92.1716 116.5 91.5 115.828 91.5 115Z" stroke="#3E2CB1"/>
<path opacity="0.7" d="M91.5 134.999V128.999C91.5 128.171 92.1716 127.499 93 127.499H99C99.8284 127.499 100.5 128.171 100.5 128.999V134.999C100.5 135.828 99.8284 136.499 99 136.499H93C92.1716 136.499 91.5 135.828 91.5 134.999Z" stroke="#3E2CB1"/>
<path opacity="0.7" d="M91.5 155V149C91.5 148.172 92.1716 147.5 93 147.5H99C99.8284 147.5 100.5 148.172 100.5 149V155C100.5 155.828 99.8284 156.5 99 156.5H93C92.1716 156.5 91.5 155.828 91.5 155Z" stroke="#3E2CB1"/>
<path opacity="0.7" d="M113.5 94.9999V89C113.5 88.1716 114.172 87.5 115 87.5H121C121.828 87.5 122.5 88.1716 122.5 89V94.9999C122.5 95.8284 121.828 96.4999 121 96.4999H115C114.172 96.4999 113.5 95.8284 113.5 94.9999Z" stroke="#3E2CB1"/>
<path opacity="0.7" d="M113.5 115V109C113.5 108.172 114.172 107.5 115 107.5H121C121.828 107.5 122.5 108.172 122.5 109V115C122.5 115.828 121.828 116.5 121 116.5H115C114.172 116.5 113.5 115.828 113.5 115Z" stroke="#3E2CB1"/>
<path opacity="0.7" d="M113.5 134.999V128.999C113.5 128.171 114.172 127.499 115 127.499H121C121.828 127.499 122.5 128.171 122.5 128.999V134.999C122.5 135.828 121.828 136.499 121 136.499H115C114.172 136.499 113.5 135.828 113.5 134.999Z" stroke="#3E2CB1"/>
<path opacity="0.7" d="M113.5 155V149C113.5 148.172 114.172 147.5 115 147.5H121C121.828 147.5 122.5 148.172 122.5 149V155C122.5 155.828 121.828 156.5 121 156.5H115C114.172 156.5 113.5 155.828 113.5 155Z" stroke="#3E2CB1"/>
<path opacity="0.7" d="M135.5 94.9999V89C135.5 88.1716 136.172 87.5 137 87.5H143C143.828 87.5 144.5 88.1716 144.5 89V94.9999C144.5 95.8284 143.828 96.4999 143 96.4999H137C136.172 96.4999 135.5 95.8284 135.5 94.9999Z" stroke="#3E2CB1"/>
<path opacity="0.7" d="M135.5 115V109C135.5 108.172 136.172 107.5 137 107.5H143C143.828 107.5 144.5 108.172 144.5 109V115C144.5 115.828 143.828 116.5 143 116.5H137C136.172 116.5 135.5 115.828 135.5 115Z" stroke="#3E2CB1"/>
<path opacity="0.7" d="M135.5 134.999V128.999C135.5 128.171 136.172 127.499 137 127.499H143C143.828 127.499 144.5 128.171 144.5 128.999V134.999C144.5 135.828 143.828 136.499 143 136.499H137C136.172 136.499 135.5 135.828 135.5 134.999Z" stroke="#3E2CB1"/>
<path opacity="0.7" d="M135.5 155V149C135.5 148.172 136.172 147.5 137 147.5H143C143.828 147.5 144.5 148.172 144.5 149V155C144.5 155.828 143.828 156.5 143 156.5H137C136.172 156.5 135.5 155.828 135.5 155Z" stroke="#3E2CB1"/>
<path opacity="0.7" d="M157.5 94.9999V89C157.5 88.1716 158.172 87.5 159 87.5H165C165.828 87.5 166.5 88.1716 166.5 89V94.9999C166.5 95.8284 165.828 96.4999 165 96.4999H159C158.172 96.4999 157.5 95.8284 157.5 94.9999Z" stroke="#3E2CB1"/>
<path opacity="0.7" d="M157.5 115V109C157.5 108.172 158.172 107.5 159 107.5H165C165.828 107.5 166.5 108.172 166.5 109V115C166.5 115.828 165.828 116.5 165 116.5H159C158.172 116.5 157.5 115.828 157.5 115Z" stroke="#3E2CB1"/>
<path opacity="0.7" d="M157.5 134.999V128.999C157.5 128.171 158.172 127.499 159 127.499H165C165.828 127.499 166.5 128.171 166.5 128.999V134.999C166.5 135.828 165.828 136.499 165 136.499H159C158.172 136.499 157.5 135.828 157.5 134.999Z" stroke="#3E2CB1"/>
<path opacity="0.7" d="M157.5 155V149C157.5 148.172 158.172 147.5 159 147.5H165C165.828 147.5 166.5 148.172 166.5 149V155C166.5 155.828 165.828 156.5 165 156.5H159C158.172 156.5 157.5 155.828 157.5 155Z" stroke="#3E2CB1"/>
<path opacity="0.2" d="M17.8813 58.3682H176.984V40.6901C176.984 36.6286 173.68 33.3242 169.619 33.3242H160.78V48.056H146.048V33.3242H48.8181V48.056H34.0863V33.3242H25.2472C21.1857 33.3242 17.8813 36.6286 17.8813 40.6901V58.3682Z" fill="#3E2CB1"/>
</svg>
