<svg width="232" height="139" viewBox="0 0 232 139" fill="none" xmlns="http://www.w3.org/2000/svg">
<rect y="98" width="40" height="17" rx="6" fill="#CCEEDA"/>
<path opacity="0.5" d="M5.74576 128.239L7.69576 126.9H8.60576V136H7.69576V127.927L5.74576 129.253V128.239ZM10.8857 135.168L14.1097 131.97C14.387 131.693 14.6297 131.441 14.8377 131.216C15.0544 130.991 15.232 130.778 15.3707 130.579C15.518 130.38 15.6264 130.189 15.6957 130.007C15.765 129.825 15.7997 129.634 15.7997 129.435C15.7997 128.924 15.622 128.503 15.2667 128.174C14.9114 127.836 14.426 127.667 13.8107 127.667C13.1954 127.667 12.71 127.836 12.3547 128.174C11.9994 128.503 11.8217 128.924 11.8217 129.435H10.8857C10.8857 129.062 10.955 128.716 11.0937 128.395C11.2324 128.074 11.4274 127.797 11.6787 127.563C11.93 127.329 12.2377 127.147 12.6017 127.017C12.9657 126.878 13.3687 126.809 13.8107 126.809C14.2527 126.809 14.6557 126.878 15.0197 127.017C15.3837 127.147 15.6914 127.329 15.9427 127.563C16.194 127.797 16.389 128.074 16.5277 128.395C16.6664 128.716 16.7357 129.062 16.7357 129.435C16.7357 129.938 16.5624 130.427 16.2157 130.904C15.8777 131.381 15.4054 131.914 14.7987 132.503L12.0557 135.168H16.7357V136H10.8857V135.168ZM18.4981 132.204H22.3981V133.036H18.4981V132.204ZM23.8432 128.239L25.7932 126.9H26.7032V136H25.7932V127.927L23.8432 129.253V128.239ZM28.6581 126.9H34.3781V127.732L30.9851 136H30.0231L33.4291 127.732H28.6581V126.9Z" fill="#7D8B92"/>
<path d="M51.632 128.239L53.582 126.9H54.492V136H53.582V127.927L51.632 129.253V128.239ZM60.0219 136.091C59.5452 136.091 59.1206 136.03 58.7479 135.909C58.3752 135.779 58.0632 135.601 57.8119 135.376C57.5606 135.142 57.3656 134.869 57.2269 134.557C57.0969 134.245 57.0319 133.903 57.0319 133.53C57.0319 132.984 57.1749 132.52 57.4609 132.139C57.7469 131.749 58.1369 131.454 58.6309 131.255C58.2149 131.064 57.8856 130.8 57.6429 130.462C57.4089 130.124 57.2919 129.708 57.2919 129.214C57.2919 128.876 57.3569 128.564 57.4869 128.278C57.6256 127.983 57.8119 127.728 58.0459 127.511C58.2886 127.294 58.5746 127.125 58.9039 127.004C59.2419 126.874 59.6146 126.809 60.0219 126.809C60.4379 126.809 60.8106 126.87 61.1399 126.991C61.4779 127.112 61.7639 127.281 61.9979 127.498C62.2406 127.715 62.4269 127.97 62.5569 128.265C62.6869 128.551 62.7519 128.867 62.7519 129.214C62.7519 129.699 62.6262 130.111 62.3749 130.449C62.1322 130.787 61.8029 131.051 61.3869 131.242C61.8809 131.45 62.2752 131.749 62.5699 132.139C62.8646 132.52 63.0119 132.984 63.0119 133.53C63.0119 133.894 62.9426 134.232 62.8039 134.544C62.6739 134.856 62.4789 135.129 62.2189 135.363C61.9589 135.588 61.6426 135.766 61.2699 135.896C60.9059 136.026 60.4899 136.091 60.0219 136.091ZM60.0219 135.233C60.3426 135.233 60.6286 135.19 60.8799 135.103C61.1399 135.008 61.3566 134.882 61.5299 134.726C61.7032 134.57 61.8376 134.392 61.9329 134.193C62.0282 133.985 62.0759 133.764 62.0759 133.53C62.0759 133.253 62.0196 133.001 61.9069 132.776C61.8029 132.551 61.6556 132.36 61.4649 132.204C61.2829 132.039 61.0662 131.909 60.8149 131.814C60.5636 131.719 60.2992 131.658 60.0219 131.632C59.7359 131.658 59.4672 131.719 59.2159 131.814C58.9646 131.901 58.7436 132.026 58.5529 132.191C58.3709 132.347 58.2279 132.538 58.1239 132.763C58.0199 132.988 57.9679 133.244 57.9679 133.53C57.9679 133.764 58.0156 133.985 58.1109 134.193C58.2062 134.392 58.3406 134.57 58.5139 134.726C58.6872 134.882 58.8996 135.008 59.1509 135.103C59.4109 135.19 59.7012 135.233 60.0219 135.233ZM60.0219 130.878C60.2472 130.852 60.4682 130.804 60.6849 130.735C60.9016 130.657 61.0922 130.553 61.2569 130.423C61.4302 130.284 61.5646 130.115 61.6599 129.916C61.7639 129.717 61.8159 129.483 61.8159 129.214C61.8159 129.015 61.7726 128.824 61.6859 128.642C61.6079 128.451 61.4909 128.287 61.3349 128.148C61.1789 128.001 60.9882 127.884 60.7629 127.797C60.5462 127.71 60.2992 127.667 60.0219 127.667C59.7446 127.667 59.4932 127.71 59.2679 127.797C59.0512 127.884 58.8649 128.001 58.7089 128.148C58.5529 128.287 58.4316 128.451 58.3449 128.642C58.2669 128.824 58.2279 129.015 58.2279 129.214C58.2279 129.474 58.2799 129.704 58.3839 129.903C58.4879 130.094 58.6222 130.258 58.7869 130.397C58.9602 130.536 59.1552 130.644 59.3719 130.722C59.5886 130.8 59.8052 130.852 60.0219 130.878ZM64.9049 132.204H68.8049V133.036H64.9049V132.204ZM70.445 135.168L73.669 131.97C73.9463 131.693 74.189 131.441 74.397 131.216C74.6136 130.991 74.7913 130.778 74.93 130.579C75.0773 130.38 75.1856 130.189 75.255 130.007C75.3243 129.825 75.359 129.634 75.359 129.435C75.359 128.924 75.1813 128.503 74.826 128.174C74.4706 127.836 73.9853 127.667 73.37 127.667C72.7546 127.667 72.2693 127.836 71.914 128.174C71.5586 128.503 71.381 128.924 71.381 129.435H70.445C70.445 129.062 70.5143 128.716 70.653 128.395C70.7916 128.074 70.9866 127.797 71.238 127.563C71.4893 127.329 71.797 127.147 72.161 127.017C72.525 126.878 72.928 126.809 73.37 126.809C73.812 126.809 74.215 126.878 74.579 127.017C74.943 127.147 75.2506 127.329 75.502 127.563C75.7533 127.797 75.9483 128.074 76.087 128.395C76.2256 128.716 76.295 129.062 76.295 129.435C76.295 129.938 76.1216 130.427 75.775 130.904C75.437 131.381 74.9646 131.914 74.358 132.503L71.615 135.168H76.295V136H70.445V135.168ZM77.7324 132.984L81.9964 126.9H83.1274V132.984H84.3624V133.816H83.1274V136H82.2174V133.816H77.7324V132.984ZM82.2174 132.984V127.953L78.7334 132.984H82.2174Z" fill="#7D8B92"/>
<path d="M98.4876 135.168L101.712 131.97C101.989 131.693 102.232 131.441 102.44 131.216C102.656 130.991 102.834 130.778 102.973 130.579C103.12 130.38 103.228 130.189 103.298 130.007C103.367 129.825 103.402 129.634 103.402 129.435C103.402 128.924 103.224 128.503 102.869 128.174C102.513 127.836 102.028 127.667 101.413 127.667C100.797 127.667 100.312 127.836 99.9566 128.174C99.6013 128.503 99.4236 128.924 99.4236 129.435H98.4876C98.4876 129.062 98.557 128.716 98.6956 128.395C98.8343 128.074 99.0293 127.797 99.2806 127.563C99.532 127.329 99.8396 127.147 100.204 127.017C100.568 126.878 100.971 126.809 101.413 126.809C101.855 126.809 102.258 126.878 102.622 127.017C102.986 127.147 103.293 127.329 103.545 127.563C103.796 127.797 103.991 128.074 104.13 128.395C104.268 128.716 104.338 129.062 104.338 129.435C104.338 129.938 104.164 130.427 103.818 130.904C103.48 131.381 103.007 131.914 102.401 132.503L99.6576 135.168H104.338V136H98.4876V135.168ZM106.815 126.9H111.56V127.732H107.647L107.4 130.748C107.625 130.514 107.898 130.332 108.219 130.202C108.54 130.072 108.895 130.007 109.285 130.007C109.701 130.007 110.082 130.081 110.429 130.228C110.784 130.367 111.088 130.57 111.339 130.839C111.59 131.099 111.785 131.42 111.924 131.801C112.071 132.174 112.145 132.59 112.145 133.049C112.145 133.508 112.071 133.924 111.924 134.297C111.785 134.67 111.582 134.99 111.313 135.259C111.053 135.528 110.737 135.736 110.364 135.883C110 136.022 109.597 136.091 109.155 136.091C108.401 136.091 107.755 135.905 107.218 135.532C106.689 135.159 106.338 134.613 106.165 133.894H107.127C107.283 134.345 107.534 134.683 107.881 134.908C108.228 135.125 108.652 135.233 109.155 135.233C109.779 135.233 110.277 135.042 110.65 134.661C111.023 134.271 111.209 133.734 111.209 133.049C111.209 132.356 111.023 131.818 110.65 131.437C110.277 131.056 109.779 130.865 109.155 130.865C108.713 130.865 108.336 130.965 108.024 131.164C107.712 131.363 107.478 131.589 107.322 131.84H106.425L106.815 126.9ZM113.851 132.204H117.751V133.036H113.851V132.204ZM122.511 136.091C121.592 136.091 120.873 135.835 120.353 135.324C119.841 134.813 119.564 134.106 119.521 133.205H120.457C120.5 133.855 120.695 134.358 121.042 134.713C121.388 135.06 121.878 135.233 122.511 135.233C123.187 135.233 123.698 135.073 124.045 134.752C124.391 134.423 124.565 133.994 124.565 133.465C124.565 132.954 124.396 132.538 124.058 132.217C123.72 131.896 123.243 131.736 122.628 131.736H121.406V130.904H122.628C123.174 130.904 123.598 130.757 123.902 130.462C124.214 130.159 124.37 129.769 124.37 129.292C124.37 128.798 124.209 128.404 123.889 128.109C123.577 127.814 123.117 127.667 122.511 127.667C121.965 127.667 121.531 127.827 121.211 128.148C120.899 128.46 120.712 128.889 120.652 129.435H119.716C119.733 129.036 119.811 128.677 119.95 128.356C120.088 128.035 120.275 127.762 120.509 127.537C120.751 127.303 121.042 127.125 121.38 127.004C121.718 126.874 122.095 126.809 122.511 126.809C122.953 126.809 123.347 126.87 123.694 126.991C124.04 127.112 124.331 127.281 124.565 127.498C124.807 127.715 124.989 127.979 125.111 128.291C125.241 128.594 125.306 128.928 125.306 129.292C125.306 129.734 125.197 130.133 124.981 130.488C124.773 130.835 124.469 131.108 124.071 131.307C124.539 131.506 124.894 131.797 125.137 132.178C125.379 132.551 125.501 132.98 125.501 133.465C125.501 133.855 125.431 134.21 125.293 134.531C125.163 134.852 124.972 135.129 124.721 135.363C124.469 135.588 124.157 135.766 123.785 135.896C123.412 136.026 122.987 136.091 122.511 136.091ZM127.072 132.984L131.336 126.9H132.467V132.984H133.702V133.816H132.467V136H131.557V133.816H127.072V132.984ZM131.557 132.984V127.953L128.073 132.984H131.557Z" fill="#7D8B92"/>
<path opacity="0.5" d="M149.506 136.091C148.587 136.091 147.868 135.835 147.348 135.324C146.837 134.813 146.559 134.106 146.516 133.205H147.452C147.495 133.855 147.69 134.358 148.037 134.713C148.384 135.06 148.873 135.233 149.506 135.233C150.182 135.233 150.693 135.073 151.04 134.752C151.387 134.423 151.56 133.994 151.56 133.465C151.56 132.954 151.391 132.538 151.053 132.217C150.715 131.896 150.238 131.736 149.623 131.736H148.401V130.904H149.623C150.169 130.904 150.594 130.757 150.897 130.462C151.209 130.159 151.365 129.769 151.365 129.292C151.365 128.798 151.205 128.404 150.884 128.109C150.572 127.814 150.113 127.667 149.506 127.667C148.96 127.667 148.527 127.827 148.206 128.148C147.894 128.46 147.708 128.889 147.647 129.435H146.711C146.728 129.036 146.806 128.677 146.945 128.356C147.084 128.035 147.27 127.762 147.504 127.537C147.747 127.303 148.037 127.125 148.375 127.004C148.713 126.874 149.09 126.809 149.506 126.809C149.948 126.809 150.342 126.87 150.689 126.991C151.036 127.112 151.326 127.281 151.56 127.498C151.803 127.715 151.985 127.979 152.106 128.291C152.236 128.594 152.301 128.928 152.301 129.292C152.301 129.734 152.193 130.133 151.976 130.488C151.768 130.835 151.465 131.108 151.066 131.307C151.534 131.506 151.889 131.797 152.132 132.178C152.375 132.551 152.496 132.98 152.496 133.465C152.496 133.855 152.427 134.21 152.288 134.531C152.158 134.852 151.967 135.129 151.716 135.363C151.465 135.588 151.153 135.766 150.78 135.896C150.407 136.026 149.983 136.091 149.506 136.091ZM155.107 126.9H159.852V127.732H155.939L155.692 130.748C155.917 130.514 156.19 130.332 156.511 130.202C156.832 130.072 157.187 130.007 157.577 130.007C157.993 130.007 158.374 130.081 158.721 130.228C159.076 130.367 159.38 130.57 159.631 130.839C159.882 131.099 160.077 131.42 160.216 131.801C160.363 132.174 160.437 132.59 160.437 133.049C160.437 133.508 160.363 133.924 160.216 134.297C160.077 134.67 159.874 134.99 159.605 135.259C159.345 135.528 159.029 135.736 158.656 135.883C158.292 136.022 157.889 136.091 157.447 136.091C156.693 136.091 156.047 135.905 155.51 135.532C154.981 135.159 154.63 134.613 154.457 133.894H155.419C155.575 134.345 155.826 134.683 156.173 134.908C156.52 135.125 156.944 135.233 157.447 135.233C158.071 135.233 158.569 135.042 158.942 134.661C159.315 134.271 159.501 133.734 159.501 133.049C159.501 132.356 159.315 131.818 158.942 131.437C158.569 131.056 158.071 130.865 157.447 130.865C157.005 130.865 156.628 130.965 156.316 131.164C156.004 131.363 155.77 131.589 155.614 131.84H154.717L155.107 126.9ZM162.143 132.204H166.043V133.036H162.143V132.204ZM167.423 132.984L171.687 126.9H172.818V132.984H174.053V133.816H172.818V136H171.908V133.816H167.423V132.984ZM171.908 132.984V127.953L168.424 132.984H171.908ZM175.173 132.984L179.437 126.9H180.568V132.984H181.803V133.816H180.568V136H179.658V133.816H175.173V132.984ZM179.658 132.984V127.953L176.174 132.984H179.658Z" fill="#7D8B92"/>
<path opacity="0.5" d="M194.031 132.984L198.295 126.9H199.426V132.984H200.661V133.816H199.426V136H198.516V133.816H194.031V132.984ZM198.516 132.984V127.953L195.032 132.984H198.516ZM202.821 126.9H207.566V127.732H203.653L203.406 130.748C203.632 130.514 203.905 130.332 204.225 130.202C204.546 130.072 204.901 130.007 205.291 130.007C205.707 130.007 206.089 130.081 206.435 130.228C206.791 130.367 207.094 130.57 207.345 130.839C207.597 131.099 207.792 131.42 207.93 131.801C208.078 132.174 208.151 132.59 208.151 133.049C208.151 133.508 208.078 133.924 207.93 134.297C207.792 134.67 207.588 134.99 207.319 135.259C207.059 135.528 206.743 135.736 206.37 135.883C206.006 136.022 205.603 136.091 205.161 136.091C204.407 136.091 203.762 135.905 203.224 135.532C202.696 135.159 202.345 134.613 202.171 133.894H203.133C203.289 134.345 203.541 134.683 203.887 134.908C204.234 135.125 204.659 135.233 205.161 135.233C205.785 135.233 206.284 135.042 206.656 134.661C207.029 134.271 207.215 133.734 207.215 133.049C207.215 132.356 207.029 131.818 206.656 131.437C206.284 131.056 205.785 130.865 205.161 130.865C204.719 130.865 204.342 130.965 204.03 131.164C203.718 131.363 203.484 131.589 203.328 131.84H202.431L202.821 126.9ZM209.857 132.204H213.757V133.036H209.857V132.204ZM218.777 136.091C218.318 136.091 217.902 136.017 217.529 135.87C217.165 135.714 216.853 135.48 216.593 135.168C216.333 134.856 216.134 134.462 215.995 133.985C215.856 133.5 215.787 132.923 215.787 132.256V131.424C215.787 130.583 215.861 129.873 216.008 129.292C216.164 128.703 216.376 128.226 216.645 127.862C216.914 127.489 217.234 127.221 217.607 127.056C217.98 126.891 218.391 126.809 218.842 126.809C219.189 126.809 219.501 126.861 219.778 126.965C220.064 127.069 220.311 127.212 220.519 127.394C220.736 127.567 220.913 127.775 221.052 128.018C221.191 128.261 221.295 128.516 221.364 128.785H220.402C220.272 128.464 220.081 128.2 219.83 127.992C219.587 127.784 219.258 127.68 218.842 127.68C218.521 127.68 218.231 127.736 217.971 127.849C217.711 127.953 217.486 128.135 217.295 128.395C217.113 128.646 216.966 128.984 216.853 129.409C216.749 129.834 216.688 130.362 216.671 130.995C216.905 130.657 217.208 130.397 217.581 130.215C217.954 130.024 218.374 129.929 218.842 129.929C219.241 129.929 219.609 130.003 219.947 130.15C220.285 130.289 220.58 130.488 220.831 130.748C221.082 131.008 221.277 131.32 221.416 131.684C221.563 132.039 221.637 132.429 221.637 132.854V133.166C221.637 133.599 221.563 133.994 221.416 134.349C221.277 134.704 221.078 135.012 220.818 135.272C220.567 135.532 220.268 135.736 219.921 135.883C219.574 136.022 219.193 136.091 218.777 136.091ZM218.777 130.787C218.153 130.787 217.659 130.96 217.295 131.307C216.931 131.645 216.74 132.091 216.723 132.646V133.036C216.723 133.738 216.905 134.28 217.269 134.661C217.642 135.042 218.144 135.233 218.777 135.233C219.349 135.233 219.813 135.051 220.168 134.687C220.523 134.314 220.701 133.807 220.701 133.166V132.854C220.701 132.213 220.523 131.71 220.168 131.346C219.813 130.973 219.349 130.787 218.777 130.787ZM223.269 132.984L227.533 126.9H228.664V132.984H229.899V133.816H228.664V136H227.754V133.816H223.269V132.984ZM227.754 132.984V127.953L224.27 132.984H227.754Z" fill="#7D8B92"/>
<rect opacity="0.8" x="48" y="33" width="40" height="82" rx="6" fill="#008A39"/>
<rect opacity="0.8" x="96" y="3" width="40" height="112" rx="6" fill="#008A39"/>
<rect x="46.5" y="30.5" width="39" height="81" rx="5.5" stroke="#008A39"/>
<rect x="94.5" y="0.5" width="39" height="111" rx="5.5" stroke="#008A39"/>
<rect x="144" y="57" width="40" height="58" rx="6" fill="#CCEEDA"/>
<rect x="192" y="79" width="40" height="36" rx="6" fill="#CCEEDA"/>
</svg>
