<svg width="104" height="152" viewBox="0 0 104 152" fill="none" xmlns="http://www.w3.org/2000/svg">
<path opacity="0.25" fill-rule="evenodd" clip-rule="evenodd" d="M32.1488 -7.18743C34.7287 -7.38809 40.3647 -8.271 42.2698 -10.1973C45.8419 -14.411 51.2 -13.3577 55.3674 -10.1973C57.7488 -8.39139 64.2977 -6.58545 68.4651 -10.1973C72.6326 -13.8092 76.8 -13.2072 81.5628 -10.1973C85.373 -7.78941 88.707 -7.18743 89.8977 -7.18743L80.3721 10.872C75.6093 19.2999 75.0139 21.1056 88.707 33.7472C106.567 50.2363 124.428 86.7217 124.428 116.219C124.428 154.144 97.8754 163.775 60.7256 163.775C23.5758 163.775 0 150.532 0 116.219C0 77.09 23.933 43.8603 33.9349 33.7472C46.4372 24.1158 47.9851 19.5403 42.2698 10.872L32.1488 -7.18743ZM48.0255 120.845C50.3934 123.633 53.9685 125.288 58.7508 125.807V132.472H66.1331V125.807C71.1939 125.288 74.9315 123.751 77.3459 121.199C79.7602 118.647 80.9674 115.432 80.9674 111.557C80.9674 109.051 80.5263 106.972 79.6441 105.317C78.762 103.663 77.6244 102.292 76.2315 101.205C74.8387 100.071 73.26 99.1964 71.4957 98.5819C69.7314 97.9202 67.9438 97.3294 66.1331 96.8094V83.1967C67.851 83.6221 69.0814 84.4729 69.8242 85.7491C70.6135 86.978 71.1243 88.7268 71.3564 90.9956H80.2709C79.9459 86.269 78.6691 82.6058 76.4405 80.0062C74.2119 77.4065 70.7761 75.8467 66.1331 75.3268V68.6622H58.7508V75.3268C56.3828 75.6104 54.3167 76.1539 52.5524 76.9575C50.8345 77.761 49.3952 78.7536 48.2344 79.9353C47.0737 81.1169 46.1915 82.4877 45.5879 84.0475C45.0308 85.56 44.7522 87.1907 44.7522 88.9395C44.7522 91.2556 45.1468 93.1935 45.9362 94.7533C46.7719 96.3131 47.8398 97.6366 49.1398 98.7237C50.4398 99.7636 51.9256 100.614 53.5971 101.276C55.2685 101.938 56.9864 102.505 58.7508 102.978V117.938C56.8471 117.418 55.4542 116.449 54.5721 115.031C53.6899 113.565 53.156 111.462 52.9703 108.721H44.0557C44.3808 114.014 45.704 118.056 48.0255 120.845ZM70.451 107.515C71.6118 108.461 72.1922 109.76 72.1922 111.415C72.1922 113.022 71.7047 114.416 70.7296 115.598C69.7546 116.732 68.2224 117.536 66.1331 118.009V105.105C67.8974 105.766 69.3367 106.57 70.451 107.515ZM54.9899 92.5554C54.0149 91.7046 53.5274 90.523 53.5274 89.0104C53.5274 87.6397 53.9453 86.4344 54.781 85.3946C55.6167 84.3547 56.94 83.6221 58.7508 83.1967V94.6824C57.2186 94.1152 55.965 93.4062 54.9899 92.5554Z" fill="#E9872C"/>
<path d="M69.0145 85.0678C70.296 85.5023 71.2005 86.221 71.7736 87.2056L71.7791 87.2151L71.785 87.2243C72.5146 88.3603 73.0123 90.0213 73.2405 92.2516L73.2864 92.7007H73.7379H82.6524H83.1879L83.1512 92.1664C82.8216 87.3727 81.5226 83.5932 79.2015 80.8857C76.9383 78.2457 73.517 76.6657 69.0145 76.0882V69.8672V69.3672H68.5145H61.1322H60.6322V69.8672V76.0915C58.4059 76.3929 56.4352 76.9293 54.7266 77.7074L54.7266 77.7074L54.722 77.7096C52.9578 78.5348 51.4673 79.56 50.2592 80.7899C49.0502 82.0206 48.131 83.4493 47.5031 85.072L47.503 85.072L47.5002 85.0796C46.921 86.652 46.6336 88.3417 46.6336 90.1446C46.6336 92.5146 47.0372 94.5354 47.8715 96.1841L47.8713 96.1842L47.8769 96.1945C48.7414 97.8081 49.8493 99.1824 51.2005 100.312L51.2004 100.312L51.2089 100.319C52.5508 101.392 54.0804 102.267 55.7945 102.946C57.3668 103.569 58.9794 104.108 60.6322 104.565V118.463C59.158 117.943 58.0866 117.109 57.38 115.975C56.5574 114.607 56.0337 112.595 55.8506 109.892L55.819 109.426H55.3517H46.4372H45.9056L45.9381 109.956C46.2668 115.309 47.6082 119.469 50.0226 122.369L50.0258 122.373C52.4239 125.197 55.9829 126.875 60.6322 127.457V133.677V134.177H61.1322H68.5145H69.0145V133.677V127.461C73.9196 126.89 77.6381 125.34 80.0905 122.748C82.6021 120.092 83.8488 116.751 83.8488 112.762C83.8488 110.201 83.3983 108.034 82.4668 106.287C81.5546 104.577 80.3742 103.152 78.9247 102.019C77.4874 100.849 75.8603 99.9489 74.0472 99.3167C72.39 98.6953 70.7124 98.136 69.0145 97.6388V85.0678ZM72.509 109.102L72.509 109.102L72.5167 109.108C73.5477 109.948 74.0736 111.098 74.0736 112.62C74.0736 114.115 73.6238 115.394 72.7286 116.481C71.939 117.398 70.7181 118.106 69.0145 118.574V107.045C70.4297 107.636 71.5914 108.323 72.509 109.102ZM57.7001 93.3837C56.8527 92.6442 56.4089 91.6105 56.4089 90.2155C56.4089 88.9553 56.7899 87.8612 57.5522 86.9128C58.2045 86.1011 59.2148 85.47 60.6322 85.0508V95.152C59.4507 94.6523 58.4763 94.061 57.7001 93.3837Z" stroke="#E9872C"/>
<path opacity="0.5" d="M46.5529 -5.88087L46.5798 -5.90815L46.6046 -5.9374C48.1768 -7.79187 50.0994 -8.46571 52.1105 -8.35094C54.1642 -8.23374 56.3597 -7.28548 58.3353 -5.78726C59.6994 -4.75275 62.1183 -3.79637 64.7271 -3.55657C67.3524 -3.31524 70.3366 -3.78682 72.6921 -5.82837C74.616 -7.49575 76.4605 -8.13294 78.3279 -8.06783C80.2348 -8.00134 82.2907 -7.19853 84.6006 -5.73871C87.4814 -3.91815 90.1327 -3.06949 91.9012 -2.74373L83.0664 14.0059C80.7414 18.1204 79.1181 21.0756 80.2365 24.642C80.7805 26.3769 81.9441 28.174 83.7734 30.2919C85.6078 32.4158 88.1731 34.9308 91.6007 38.0953C100.404 46.2226 109.265 59.3414 115.925 74.129C122.585 88.9137 127 105.267 127 119.832C127 138.524 120.481 150.058 109.545 156.987C98.5127 163.978 82.8288 166.388 64.2977 166.388C45.8109 166.388 30.8784 163.088 20.5887 155.667C10.3604 148.29 4.57208 136.732 4.57208 119.832C4.57208 100.467 10.4961 82.5327 17.6832 68.1627C24.8498 53.8339 33.2426 43.1086 38.171 38.1113C44.371 33.3303 48.1041 29.6304 49.4469 25.9004C50.8441 22.0197 49.5899 18.3612 46.6967 13.9651L37.3359 -2.73788C38.5115 -2.88808 39.9102 -3.12416 41.2743 -3.46116C42.2911 -3.71238 43.3099 -4.02482 44.2118 -4.40946C45.1003 -4.78841 45.9451 -5.26638 46.5529 -5.88087Z" stroke="#E9872C" stroke-width="2"/>
<path opacity="0.25" d="M68.4653 -10.1957C64.2978 -6.58383 57.749 -8.38977 55.3676 -10.1957C53.7077 -11.4545 51.859 -12.379 50.0095 -12.7695L60.1304 22.9137H64.8932L73.3585 -12.6034C71.7042 -12.3665 70.0847 -11.5993 68.4653 -10.1957Z" fill="#E9872C"/>
<path opacity="0.25" d="M124.428 116.218C124.428 86.721 106.567 50.2355 88.707 33.7465C84.8932 30.2255 82.1878 27.5451 80.3721 25.3281C132.763 127.655 87.5162 157.159 23.814 157.159C33.6151 161.728 46.1215 163.774 60.7257 163.774C97.8754 163.774 124.428 154.143 124.428 116.218Z" fill="#E9872C"/>
<path opacity="0.6" d="M42.8649 19.0957C42.8649 18.5434 43.3127 18.0957 43.8649 18.0957H78.7766C79.3289 18.0957 79.7766 18.5434 79.7766 19.0957V21.9115C79.7766 22.4638 79.3289 22.9115 78.7766 22.9115H74.7279C73.8868 22.9115 73.4005 23.8973 73.8986 24.575C75.7682 27.1185 79.4076 32.3991 82.7533 39.165C84.5394 42.7769 81.003 44.8617 79.7766 42.1749C76.5892 35.1919 69.1355 25.333 67.5671 23.2907C67.3795 23.0464 67.0943 22.9115 66.7863 22.9115H58.183C57.9059 22.9115 57.6456 23.0219 57.4581 23.226C55.77 25.0636 47.1496 34.5935 42.8649 42.1749C39.6699 47.8283 35.1256 46.9907 37.5068 42.1749C40.5676 35.9847 47.112 28.0156 50.035 24.5941C50.5964 23.9368 50.1253 22.9115 49.2609 22.9115H43.8649C43.3127 22.9115 42.8649 22.4638 42.8649 21.9115V19.0957Z" fill="#E9872C"/>
<path d="M44.092 20.5488C44.092 20.2727 44.3159 20.0488 44.592 20.0488H79.5036C79.7798 20.0488 80.0036 20.2727 80.0036 20.5488V23.3647C80.0036 23.6408 79.7798 23.8647 79.5036 23.8647H75.455C74.193 23.8647 73.4885 25.3254 74.2228 26.3243C76.0814 28.8529 79.7034 34.1081 83.0322 40.8398C83.8498 42.4932 83.393 43.638 82.8136 44.0912C82.5151 44.3247 82.1728 44.3971 81.8652 44.3158C81.5621 44.2356 81.2161 43.9849 80.9585 43.4204C77.7433 36.3765 70.2521 26.4726 68.6907 24.4393C68.4046 24.0667 67.9702 23.8647 67.5134 23.8647H58.9101C58.498 23.8647 58.1024 24.0301 57.817 24.3408C56.1341 26.1727 47.474 35.743 43.1567 43.382C42.3842 44.7489 41.5426 45.7007 40.7682 46.2932C39.9831 46.8939 39.3116 47.0937 38.864 47.0558C38.648 47.0375 38.4889 46.9657 38.3741 46.8627C38.259 46.7595 38.1586 46.5981 38.1064 46.3513C37.9986 45.8414 38.1095 45.0076 38.6821 43.8497C41.7112 37.7233 48.2148 29.7987 51.1422 26.372C51.9799 25.3914 51.2806 23.8647 49.988 23.8647H44.592C44.3159 23.8647 44.092 23.6408 44.092 23.3647V20.5488Z" stroke="#E9872C"/>
</svg>
