<svg width="66" height="64" viewBox="0 0 66 64" fill="none" xmlns="http://www.w3.org/2000/svg">
<path opacity="0.25" d="M5.93091 15.8294C5.93088 11.0367 10.0599 7.71877 14.0415 7.71876L48.2535 7.71875C52.3825 7.71875 56.0692 11.5529 56.0692 15.5344V52.1058C56.0692 56.6773 52.0138 59.9215 48.2535 59.9215H14.0415C10.3549 59.9215 5.93093 56.9722 5.93093 51.811L5.93091 15.8294Z" fill="#3E2CB1"/>
<path d="M8.11077 27.0369C8.11076 23.4018 8.11075 19.9281 8.11073 17.0092C8.11071 12.2166 12.2397 8.8986 16.2213 8.89859C17.1881 8.89859 18.2263 8.89859 19.3181 8.89859M8.11077 27.0369C5.6038 27.0369 4.12914 28.5115 4.12915 31.0185C4.12916 34.9345 4.12916 37.13 4.12915 41.046C4.12914 43.2581 5.38261 45.0277 8.11077 45.0276M8.11077 27.0369C8.11078 33.2107 8.11077 39.8501 8.11077 45.0276M8.11077 45.0276C8.11076 48.5748 8.11076 51.4357 8.11076 52.9908C8.11076 58.1521 12.5347 61.1014 16.2213 61.1014C29.5819 61.1014 37.0727 61.1014 50.4333 61.1014C54.1937 61.1014 58.249 57.8571 58.249 53.2857C58.249 51.849 58.249 48.8381 58.249 45.0276M58.249 27.0369C58.249 23.2796 58.249 19.6937 58.249 16.7143C58.249 12.7327 54.5623 8.89859 50.4333 8.89859C49.7187 8.89859 48.5467 8.89859 47.0416 8.89858M58.249 27.0369C58.249 33.2156 58.249 39.8575 58.249 45.0276M58.249 27.0369C60.6084 27.0369 62.2305 28.659 62.2305 31.0184C62.2305 34.9344 62.2306 37.13 62.2306 41.046C62.2306 43.1843 60.9034 45.0276 58.249 45.0276M47.0416 8.89858L43.06 3H23.2997L19.3181 8.89859M47.0416 8.89858C40.6371 8.89858 28.2016 8.89858 19.3181 8.89859" stroke="#3E2CB1"/>
<path opacity="0.25" d="M53.0875 23.6451C53.0875 21.7281 51.3916 19.9585 49.4008 19.9585L14.599 19.9585C12.9031 19.9585 10.9124 21.5806 10.9124 23.6451L10.9124 52.2534C10.9124 54.3917 12.9769 55.9401 14.599 55.9401H49.4008C51.023 55.9401 53.0875 54.3179 53.0875 52.2534V23.6451Z" fill="#3E2CB1"/>
<path d="M50.2856 21.6382C51.9938 21.6382 53.4722 23.1775 53.4722 24.8248V53.4331C53.4722 54.2936 53.0408 55.09 52.3981 55.6832C51.7498 56.2817 50.9442 56.6198 50.2856 56.6198H15.4838C14.8187 56.6198 14.0128 56.2948 13.3687 55.7085C12.7313 55.1283 12.2971 54.3335 12.2971 53.4331L12.2971 24.8248C12.2971 23.9584 12.7155 23.1621 13.346 22.5725C13.9812 21.9786 14.7854 21.6382 15.4838 21.6382L50.2856 21.6382Z" stroke="#3E2CB1"/>
<circle opacity="0.25" cx="21.5" cy="31.5" r="5.5" fill="#3E2CB1"/>
<circle opacity="0.25" cx="43.5" cy="31.5" r="5.5" fill="#3E2CB1"/>
<circle cx="22.5" cy="32.5" r="5" stroke="#3E2CB1"/>
<circle cx="44.5" cy="32.5" r="5" stroke="#3E2CB1"/>
<path d="M21.0554 47.0923C21.0554 47.0923 28.3191 48.0923 33.0001 48.0923C37.6811 48.0923 44.9448 47.0923 44.9448 47.0923" stroke="#3E2CB1"/>
<path d="M65 40.8985V6.83398" stroke="#3E2CB1"/>
<path d="M1 40.8985V6.83398" stroke="#3E2CB1"/>
</svg>
