<svg width="64" height="64" viewBox="0 0 64 64" fill="none" xmlns="http://www.w3.org/2000/svg">
<rect opacity="0.35" x="54.5852" y="34.104" width="35.0843" height="11.861" rx="5.9305" transform="rotate(-135 54.5852 34.104)" fill="#CC4400"/>
<rect x="53.8779" y="35.5182" width="34.0843" height="10.861" rx="5.4305" transform="rotate(-135 53.8779 35.5182)" stroke="#CC4400"/>
<path opacity="0.25" d="M38.7522 10.8159L52.1106 24.1742L41.1061 50.4454C41.1061 50.4454 18.1006 51.5561 5.41843 57.508C11.0295 45.1922 12.4811 21.8203 12.4811 21.8203L38.7522 10.8159Z" fill="#CC4400"/>
<path d="M5.9094 59.164C11.7366 43.7781 12.9721 23.4763 12.9721 23.4763L39.2432 12.4719L52.6015 25.8303L41.5971 52.1014C41.5971 52.1014 21.6361 53.6776 5.9094 59.164ZM5.9094 59.164C14.2569 50.8165 18.6458 46.4276 26.9934 38.0801M26.9934 38.0801C28.365 39.4517 31.1933 39.7245 32.7694 38.1483C34.3456 36.5721 34.315 33.9861 32.7012 32.3722C31.0873 30.7584 28.5013 30.7278 26.9251 32.304C25.349 33.8802 25.4429 36.5295 26.9934 38.0801Z" stroke="#CC4400"/>
<path opacity="0.25" d="M32.7416 35.7909C31.1654 37.367 28.3372 37.0943 26.9656 35.7226C25.415 34.1721 25.3212 31.5228 26.8973 29.9466C28.4735 28.3704 31.0595 28.401 32.6734 30.0148C34.2872 31.6287 34.3178 34.2147 32.7416 35.7909Z" fill="#CC4400"/>
</svg>
