<svg width="64" height="64" viewBox="0 0 64 64" fill="none" xmlns="http://www.w3.org/2000/svg">
<path opacity="0.25" d="M61.5664 25.2856C61.5664 32.0811 57.582 38.044 51.5893 41.4061C54.2661 46.0505 57.8757 46.4576 56.8212 48.2491C55.7667 50.0406 45.9112 46.9055 42.4638 44.2036C41.7569 44.2672 41.0398 44.2997 40.3142 44.2997C28.577 44.2997 19.062 35.7868 19.062 25.2856C19.062 14.7844 28.577 6.27148 40.3142 6.27148C52.0515 6.27148 61.5664 14.7844 61.5664 25.2856Z" fill="#008A39"/>
<path d="M53.7782 38.6986L53.3371 38.9461L53.5897 39.3843C54.947 41.7394 56.5409 43.0455 57.649 43.9535C57.6732 43.9734 57.6972 43.9931 57.721 44.0126C58.2966 44.4845 58.6578 44.7944 58.8374 45.0751C58.9169 45.1994 58.9414 45.291 58.9426 45.3676C58.9438 45.4453 58.9218 45.5577 58.8239 45.724C58.7974 45.769 58.6964 45.8708 58.3722 45.94C58.0609 46.0064 57.6291 46.023 57.0887 45.9826C56.0123 45.9022 54.6119 45.6043 53.1156 45.1605C50.1117 44.2697 46.8564 42.8322 45.2058 41.5386L45.0499 41.4164L44.8526 41.4342C44.1606 41.4964 43.4585 41.5282 42.7478 41.5282C31.2329 41.5282 21.9956 33.1883 21.9956 23.0141C21.9956 12.8399 31.2329 4.5 42.7478 4.5C54.2627 4.5 63.5 12.8399 63.5 23.0141C63.5 29.6032 59.6368 35.4117 53.7782 38.6986Z" stroke="#008A39"/>
<path opacity="0.25" d="M1.1357 34.4819C1.1357 41.2774 5.12016 47.2402 11.1129 50.6024C8.43608 55.2468 4.82645 55.6539 5.88095 57.4454C6.93545 59.2369 16.791 56.1018 20.2384 53.3999C20.9452 53.4635 21.6623 53.496 22.3879 53.496C34.1252 53.496 43.6401 44.9831 43.6401 34.4819C43.6401 23.9807 34.1252 15.4678 22.3879 15.4678C10.6506 15.4678 1.1357 23.9807 1.1357 34.4819Z" fill="#008A39"/>
<path d="M10.2218 52.1937L10.6629 52.4412L10.4103 52.8795C9.05297 55.2345 7.45906 56.5407 6.35104 57.4486C6.32679 57.4685 6.30276 57.4882 6.27898 57.5077C5.70344 57.9796 5.34218 58.2895 5.16263 58.5702C5.08314 58.6945 5.05861 58.7861 5.05741 58.8627C5.05619 58.9404 5.07822 59.0528 5.1761 59.2191C5.20259 59.2641 5.30362 59.3659 5.62779 59.4351C5.93915 59.5015 6.37091 59.5182 6.91135 59.4777C7.98766 59.3973 9.38812 59.0994 10.8844 58.6556C13.8883 57.7648 17.1436 56.3274 18.7942 55.0337L18.9501 54.9116L19.1474 54.9293C19.8394 54.9915 20.5415 55.0233 21.2522 55.0233C32.7671 55.0233 42.0044 46.6834 42.0044 36.5092C42.0044 26.335 32.7671 17.9951 21.2522 17.9951C9.73727 17.9951 0.499958 26.335 0.499958 36.5092C0.499958 43.0984 4.36319 48.9068 10.2218 52.1937Z" stroke="#008A39"/>
</svg>
