<svg width="64" height="64" viewBox="0 0 64 64" fill="none" xmlns="http://www.w3.org/2000/svg">
<rect opacity="0.5" width="64" height="64" rx="16" fill="#CAF4FA"/>
<path fill-rule="evenodd" clip-rule="evenodd" d="M20.9021 19.5882C21.6024 18.7113 22.189 18 23.2802 18H39.9271C41.833 18 42.1645 18.4162 43.0044 19.4709L43.0979 19.5882L49.4395 27.5291C50.1399 28.4061 50.2323 29.1173 49.4395 29.9114C44.8644 34.4942 41.8528 37.5111 37.9726 41.3982L34.3781 44.9991C32.2285 47.1526 31.7747 47.1557 29.6218 44.9991L29.2956 44.6723C23.6161 38.983 20.3326 35.6938 14.5604 29.9114C13.7677 29.1173 13.8601 28.406 14.5604 27.5291L20.9021 19.5882ZM18.1539 27.2315L22.3078 22.1546L24.1539 27.2315H18.1539ZM18.6155 30.0007H25.077L28.5385 39.6931L18.6155 30.0007ZM24.6153 20.7686L26.4615 25.3839L29.4615 20.7686H24.6153ZM28.5384 27.2301L31.9999 22.1532L35.4615 27.2301H28.5384ZM37.5384 25.3839L34.5384 20.7686H39.3845L37.5384 25.3839ZM41.6922 22.1532L39.8461 27.2301H45.8461L41.6922 22.1532ZM38.923 29.9993H45.3845L35.4615 39.6916L38.923 29.9993ZM31.9999 41.0762L35.923 29.9993H28.0769L31.9999 41.0762Z" fill="#0E8595"/>
</svg>
