<svg width="48" height="48" viewBox="0 0 48 48" fill="none" xmlns="http://www.w3.org/2000/svg">
<rect width="48" height="48" rx="16" fill="#E1DEF5"/>
<path d="M35.7913 17.3846C35.6045 17.1454 35.3179 17.0055 35.0143 17.0055H16.2489L15.97 13.8977C15.9244 13.3894 15.4985 13 14.9883 13H12.9857C12.4413 13 12 13.4413 12 13.9858C12 14.5302 12.4413 14.9716 12.9857 14.9716H14.0872L15.1675 27.0092C15.1678 27.0234 15.1671 27.0374 15.1679 27.0516C15.1701 27.0895 15.175 27.1265 15.1813 27.1629L15.2208 27.603C15.2215 27.6113 15.2224 27.6196 15.2234 27.6278C15.3432 28.6657 15.8735 29.565 16.6404 30.1726C16.243 30.6801 16.0052 31.3183 16.0052 32.0114C16.0052 33.6593 17.3458 35 18.9935 35C20.6412 35 21.9817 33.6593 21.9817 32.0114C21.9817 31.6544 21.9186 31.3119 21.8033 30.9943H27.198C27.0827 31.3119 27.0196 31.6544 27.0196 32.0114C27.0196 33.6593 28.3601 35 30.0078 35C31.6556 35 32.9961 33.6593 32.9961 32.0114C32.9961 30.3634 31.6556 29.0227 30.0078 29.0227H19.0001C18.2514 29.0227 17.5989 28.571 17.3173 27.9127L33.0694 26.9869C33.4995 26.9616 33.8633 26.6599 33.9678 26.2419L35.9706 18.2303C36.0441 17.9359 35.978 17.6239 35.7913 17.3846Z" fill="#3E2CB1"/>
</svg>
