<svg width="48" height="48" viewBox="0 0 48 48" fill="none" xmlns="http://www.w3.org/2000/svg">
<rect width="48" height="48" rx="16" fill="#CCEEDA"/>
<path d="M24.4135 30.2432V30.1122C23.8559 30.1049 23.3227 30.0685 22.8076 30.0176C22.5288 30.8838 22.1349 31.6918 21.644 32.4125C22.5712 32.5945 23.5105 32.6964 24.4498 32.7109L24.4135 30.2432Z" fill="#008A39"/>
<path d="M21.9592 25.4217C21.5108 22.844 19.9291 20.7469 17.8263 19.9532C17.2445 19.742 16.6446 19.6328 16.0386 19.6328C14.5357 19.6401 13.0813 20.31 11.9723 21.5187C9.50589 24.2129 9.33015 28.8076 11.5724 31.7712C13.8146 34.7348 17.6384 34.946 20.1048 32.2518C21.3653 30.8756 22.0865 28.9314 22.0804 26.8853C22.0804 26.3974 22.038 25.9023 21.9592 25.4217ZM16.0386 25.9095C17.0627 25.9095 17.9657 26.7251 18.2444 27.912C18.5838 29.3756 17.8808 30.8901 16.6567 31.3052V31.946C16.6567 32.3465 16.384 32.6741 16.0507 32.6741C15.7174 32.6741 15.4447 32.3465 15.4447 31.946V31.3125C14.4448 30.9848 13.754 29.8999 13.7479 28.6547C13.7479 28.2542 14.0206 27.9265 14.3539 27.9265C14.6872 27.9265 14.9599 28.2542 14.9599 28.6547C14.9599 29.3683 15.4447 29.9435 16.0386 29.9435C16.6325 29.9435 17.1112 29.361 17.1112 28.6474C17.1112 27.9338 16.6264 27.3586 16.0325 27.3586C14.9963 27.3586 14.0933 26.5212 13.8267 25.3197C13.5055 23.8634 14.2327 22.3488 15.4508 21.9556V21.6425C15.4508 21.242 15.7235 20.9144 16.0568 20.9144C16.3901 20.9144 16.6628 21.242 16.6628 21.6425V21.9702C17.6505 22.3052 18.3293 23.3901 18.3293 24.6207C18.3293 25.0212 18.0566 25.3489 17.7233 25.3489C17.39 25.3489 17.1173 25.0212 17.1173 24.6207C17.1173 23.9071 16.6325 23.3246 16.0386 23.3246C15.4447 23.3246 14.966 23.8998 14.9599 24.6207C14.9599 25.3343 15.4447 25.9095 16.0386 25.9095Z" fill="#008A39"/>
<path d="M24.3954 28.6465L24.359 26.0686C23.9833 26.0613 23.6136 26.0467 23.2622 26.0176C23.2803 26.3089 23.2925 26.5929 23.2925 26.8769C23.2925 27.4449 23.244 28.0202 23.1531 28.5809C23.553 28.6246 23.9712 28.6465 24.3954 28.6465Z" fill="#008A39"/>
<path d="M31.031 16.5957C30.6129 16.8578 30.1705 17.069 29.716 17.2292C28.3525 17.7243 26.5648 17.9937 24.6983 17.9937C22.9106 17.9937 21.2077 17.7462 19.8927 17.2874C19.4382 17.1418 19.0019 16.9379 18.5837 16.6831L18.6262 18.7364C19.3109 19.0423 19.9472 19.4792 20.5229 20.0253C20.5411 20.0325 20.5532 20.0325 20.5714 20.0398C21.7349 20.3966 23.2015 20.5859 24.6983 20.5859C26.4315 20.5859 28.1343 20.3238 29.3645 19.8796C30.6795 19.3991 30.9704 18.8966 30.9704 18.802C30.9704 18.7 30.9643 18.6054 31.031 18.5034V16.5957Z" fill="#008A39"/>
<path d="M29.3585 13.7063C28.1283 13.2548 26.4254 13 24.6923 13C22.947 13 21.3108 13.2548 20.0867 13.7063C18.808 14.1723 18.5293 14.631 18.5232 14.7766C18.5232 14.7766 18.5293 14.7766 18.5293 14.7912C18.5596 14.9514 18.9232 15.4465 20.2261 15.8979C21.432 16.3202 23.0197 16.5532 24.6923 16.5532C26.4254 16.5532 28.1222 16.2984 29.3524 15.8542C30.6674 15.381 30.9644 14.8785 30.9644 14.7766C30.9644 14.682 30.6735 14.1868 29.3585 13.7063Z" fill="#008A39"/>
<path d="M37.9878 33.8541V31.6699C37.5818 31.9175 37.1576 32.1286 36.7152 32.2888C35.3578 32.7838 33.5822 33.0532 31.7097 33.0532C30.0492 33.0532 28.4312 32.8275 27.1586 32.4271C26.6374 32.2669 26.1345 32.0485 25.6497 31.7646L25.68 33.8759C25.68 33.8832 25.68 33.8832 25.68 33.8905C25.68 33.9997 25.9466 34.4875 27.2253 34.9607C28.4373 35.4048 30.0735 35.6523 31.8248 35.6523C33.5701 35.6523 35.2124 35.3975 36.4365 34.9389C37.7151 34.4583 37.9939 33.956 37.9939 33.8541H37.9878Z" fill="#008A39"/>
<path d="M31.019 20.6602C30.6009 20.9151 30.1646 21.1263 29.7101 21.2865C28.3466 21.7817 26.5589 22.0512 24.6863 22.0512C23.7652 22.0512 22.8502 21.9784 21.9412 21.84C22.432 22.6557 22.7956 23.5733 23.0259 24.5492C23.5471 24.5929 24.1106 24.6221 24.6924 24.6221C24.7106 24.6221 24.7348 24.6221 24.753 24.6221C25.7468 23.3111 28.4193 22.6557 31.019 22.5683V20.6602Z" fill="#008A39"/>
<path d="M36.6729 28.2616C35.3215 28.7423 33.5641 29.0045 31.7219 29.0045C29.9342 29.0045 28.2313 28.7568 26.9163 28.298C26.4618 28.1451 26.0194 27.9412 25.5952 27.6863L25.6195 29.3613L25.6255 29.9731C26.0982 30.6795 28.3586 31.5898 31.7158 31.5898C33.4671 31.5898 35.1215 31.3422 36.3638 30.8907C37.6728 30.41 37.9576 29.9148 37.9576 29.8128C37.9576 29.7327 37.9939 29.6453 37.9939 29.5725H38V27.6426C37.5758 27.8975 37.1334 28.116 36.6729 28.2616Z" fill="#008A39"/>
<path d="M36.3881 24.7291C35.1518 24.2775 33.455 24.0371 31.7218 24.0371H31.6188C30.0069 24.0371 28.4737 24.2556 27.298 24.6562C26.0436 25.0787 25.6133 25.5595 25.5588 25.7561C25.5527 25.7707 25.5527 25.778 25.5527 25.7853C25.5527 25.7853 25.5527 25.7853 25.5649 25.8144C25.6012 25.9674 25.9588 26.4627 27.2617 26.9216C28.4676 27.3367 30.0553 27.5698 31.7279 27.5698C33.455 27.5698 35.0912 27.3295 36.3335 26.8851C37.6789 26.4044 37.9819 25.9018 37.9879 25.7925V25.7853C37.9819 25.676 37.6789 25.1953 36.3881 24.7291Z" fill="#008A39"/>
</svg>
