<svg width="48" height="48" viewBox="0 0 48 48" fill="none" xmlns="http://www.w3.org/2000/svg">
<rect width="48" height="48" rx="16" fill="#CAF4FA"/>
<path fill-rule="evenodd" clip-rule="evenodd" d="M26.5992 13.8138C28.7498 11.6636 32.2365 11.6636 34.387 13.8138C36.5376 15.9641 36.5376 19.4503 34.3869 21.6005L29.3799 26.6068C28.6756 27.3112 27.7934 27.8114 26.8272 28.054H26.7839L26.5558 28.1012L26.43 28.1248L26.1586 28.1641H26.0248C25.9656 28.1641 25.9102 28.1707 25.8573 28.177C25.819 28.1816 25.7819 28.186 25.7456 28.1877L25.5096 28.2152H25.486H25.2107C25.0144 28.2074 24.8188 28.189 24.6246 28.1601C24.4634 28.1326 24.306 28.1011 24.1487 28.0618L23.9166 27.9989C23.834 27.9753 23.7475 27.9478 23.6649 27.9163C23.6346 27.9048 23.6039 27.8938 23.5729 27.8828C23.5194 27.8637 23.4655 27.8444 23.4132 27.822C23.3857 27.8102 23.3581 27.7988 23.3306 27.7874C23.2755 27.7647 23.2205 27.742 23.1654 27.7158C22.58 27.4446 22.0474 27.0718 21.5921 26.6146C21.2732 26.295 21.1071 25.8539 21.1358 25.4034C21.1611 25.0237 21.3232 24.666 21.5921 24.3966C22.213 23.8123 23.1816 23.8123 23.8026 24.3966C24.724 25.3167 26.2166 25.3167 27.138 24.3966L28.4281 23.1146L28.4596 23.0792L32.149 19.3943C33.0711 18.4723 33.0711 16.9775 32.149 16.0555C31.2268 15.1335 29.7318 15.1335 28.8096 16.0555L25.8479 19.0128C25.7357 19.1257 25.5665 19.1599 25.4192 19.0993C24.6215 18.7731 23.7677 18.6062 22.9058 18.6077H22.7603C22.5996 18.6108 22.4533 18.5158 22.3906 18.3679C22.3272 18.2203 22.3599 18.0491 22.4732 17.9353L26.5992 13.8138ZM25.8756 20.6557C26.2103 20.8685 26.5203 21.1178 26.7999 21.399C27.1188 21.7185 27.285 22.1597 27.2563 22.6102C27.2291 22.9872 27.0671 23.3418 26.8 23.6091C26.1791 24.1935 25.2105 24.1935 24.5895 23.6091C23.6681 22.689 22.1755 22.689 21.2541 23.6091L16.2313 28.6272C15.3092 29.5492 15.3092 31.044 16.2313 31.966C17.1535 32.888 18.6485 32.888 19.5707 31.966L22.5403 28.9929C22.6525 28.88 22.8217 28.8458 22.969 28.9064C23.7682 29.2314 24.6234 29.3971 25.4862 29.3941H25.6436C25.8608 29.3928 26.0379 29.5678 26.0392 29.785C26.0398 29.8907 25.9979 29.9922 25.9228 30.0665L21.7929 34.1958C20.762 35.2278 19.3617 35.8054 17.9029 35.8004C14.8617 35.7984 12.398 33.3319 12.3999 30.2911C12.4008 28.834 12.9795 27.4366 14.009 26.4053L19.0121 21.399C20.0434 20.3643 21.445 19.7839 22.906 19.7866C23.9586 19.7866 24.9892 20.0882 25.8756 20.6557Z" fill="#0E8595"/>
</svg>
