<svg width="73" height="64" viewBox="0 0 73 64" fill="none" xmlns="http://www.w3.org/2000/svg">
<g filter="url(#filter0_d)">
<path opacity="0.5" d="M7.55556 30.4448C7.55556 30.4448 24.8863 30.8892 36 30.8892C47.1137 30.8892 64.4444 30.4448 64.4444 30.4448C65.6296 30.2967 68 30.267 68 31.3337C68 32.4004 65.6296 32.3707 64.4444 32.2225C64.4444 32.2225 59.7999 32.6989 53.7778 33.1585C60 35.8722 62.6667 39.7781 64.4444 41.1114C65.8667 42.1781 65.6296 43.0373 65.3333 43.3336C65.037 43.7781 64.0889 44.3114 62.6667 42.8892C57.3333 36.1336 48 34.0012 44 33.7794C41.1994 33.914 38.4488 34.0003 36 34.0003C33.5512 34.0003 30.8006 33.914 28 33.7794C23.7037 33.853 13.9556 35.7781 9.33333 42.8892C8.26667 44.6669 7.11111 44.2225 6.66667 43.7781C6.37037 43.6299 6.13333 42.8892 7.55556 41.1114C9.33333 38.8892 11.1111 36.7612 18.2222 33.1585C12.2001 32.6989 7.55556 32.2225 7.55556 32.2225C6.37037 32.3707 4 32.4004 4 31.3337C4 30.267 6.37037 30.2966 7.55556 30.4448Z" fill="#008A39"/>
<path d="M65.4768 32.2222C65.4768 32.2222 60.8323 32.6986 54.8101 33.1582C51.7625 33.3908 48.3621 33.619 45.0323 33.779M8.58789 32.2222C8.58789 32.2222 13.2324 32.6986 19.2546 33.1582C22.3021 33.3908 25.7025 33.619 29.0323 33.779M29.0323 33.779C31.8329 33.9136 34.5835 33.9999 37.0323 33.9999C39.4811 33.9999 42.2318 33.9136 45.0323 33.779M29.0323 33.779C24.736 33.8527 14.9879 35.7777 10.3657 42.8888M45.0323 33.779C49.0323 34.0008 58.3657 36.1333 63.699 42.8888" stroke="#008A39"/>
<path opacity="0.5" fill-rule="evenodd" clip-rule="evenodd" d="M19.1107 44.6667C26.4745 44.6667 32.444 38.6971 32.444 31.3333C32.444 30.7603 32.4079 30.1958 32.3377 29.6418C34.6215 27.6007 37.3777 27.6008 39.6615 29.6417C39.5913 30.1957 39.5552 30.7603 39.5552 31.3333C39.5552 38.6971 45.5247 44.6667 52.8885 44.6667C60.2523 44.6667 66.2218 38.6971 66.2218 31.3333C66.2218 23.9695 60.2523 18 52.8885 18C46.9839 18 41.9758 21.8381 40.2228 27.1555C37.6575 25.1703 34.3417 25.1704 31.7764 27.1556C30.0234 21.8381 25.0153 18 19.1107 18C11.7469 18 5.77734 23.9695 5.77734 31.3333C5.77734 38.6971 11.7469 44.6667 19.1107 44.6667ZM19.1063 42C24.9973 42 29.7729 37.2244 29.7729 31.3334C29.7729 25.4423 24.9973 20.6667 19.1063 20.6667C13.2152 20.6667 8.43959 25.4423 8.43959 31.3334C8.43959 37.2244 13.2152 42 19.1063 42ZM52.8929 42C58.784 42 63.5596 37.2244 63.5596 31.3334C63.5596 25.4423 58.784 20.6667 52.8929 20.6667C47.0019 20.6667 42.2263 25.4423 42.2263 31.3334C42.2263 37.2244 47.0019 42 52.8929 42Z" fill="#008A39"/>
<mask id="path-4-outside-1" maskUnits="userSpaceOnUse" x="5.80957" y="18.0322" width="63" height="29" fill="black">
<rect fill="white" x="5.80957" y="18.0322" width="63" height="29"/>
<path fill-rule="evenodd" clip-rule="evenodd" d="M20.1429 45.6989C27.5067 45.6989 33.4762 39.7294 33.4762 32.3656C33.4762 31.7926 33.4401 31.228 33.37 30.674C35.6537 28.633 38.4099 28.633 40.6937 30.674C40.6235 31.228 40.5874 31.7925 40.5874 32.3656C40.5874 39.7294 46.5569 45.6989 53.9207 45.6989C61.2845 45.6989 67.2541 39.7294 67.2541 32.3656C67.2541 25.0018 61.2845 19.0322 53.9207 19.0322C48.0162 19.0322 43.008 22.8703 41.255 28.1877C38.6898 26.2025 35.3739 26.2026 32.8086 28.1878C31.0557 22.8703 26.0475 19.0322 20.1429 19.0322C12.7791 19.0322 6.80957 25.0018 6.80957 32.3656C6.80957 39.7294 12.7791 45.6989 20.1429 45.6989ZM20.1385 43.0323C26.0295 43.0323 30.8052 38.2566 30.8052 32.3656C30.8052 26.4746 26.0295 21.6989 20.1385 21.6989C14.2474 21.6989 9.47182 26.4746 9.47182 32.3656C9.47182 38.2566 14.2474 43.0323 20.1385 43.0323ZM53.9252 43.0323C59.8162 43.0323 64.5918 38.2566 64.5918 32.3656C64.5918 26.4746 59.8162 21.6989 53.9252 21.6989C48.0341 21.6989 43.2585 26.4746 43.2585 32.3656C43.2585 38.2566 48.0341 43.0323 53.9252 43.0323Z"/>
</mask>
<path d="M33.37 30.674L32.7036 29.9284L32.3119 30.2785L32.3779 30.7996L33.37 30.674ZM40.6937 30.674L41.6858 30.7996L41.7518 30.2784L41.36 29.9283L40.6937 30.674ZM41.255 28.1877L40.643 28.9786L41.7618 29.8444L42.2048 28.5008L41.255 28.1877ZM32.8086 28.1878L31.8589 28.5009L32.3018 29.8445L33.4207 28.9787L32.8086 28.1878ZM32.4762 32.3656C32.4762 39.1771 26.9544 44.6989 20.1429 44.6989V46.6989C28.059 46.6989 34.4762 40.2816 34.4762 32.3656H32.4762ZM32.3779 30.7996C32.4428 31.312 32.4762 31.8347 32.4762 32.3656H34.4762C34.4762 31.7505 34.4374 31.144 34.362 30.5484L32.3779 30.7996ZM41.36 29.9283C40.0662 28.7721 38.5767 28.1432 37.0318 28.1432C35.4869 28.1432 33.9974 28.7721 32.7036 29.9284L34.0363 31.4197C35.0263 30.5349 36.0568 30.1432 37.0318 30.1432C38.0069 30.1432 39.0373 30.5349 40.0273 31.4196L41.36 29.9283ZM41.5874 32.3656C41.5874 31.8346 41.6209 31.312 41.6858 30.7996L39.7016 30.5484C39.6262 31.1439 39.5874 31.7504 39.5874 32.3656H41.5874ZM53.9207 44.6989C47.1092 44.6989 41.5874 39.1771 41.5874 32.3656H39.5874C39.5874 40.2816 46.0047 46.6989 53.9207 46.6989V44.6989ZM66.2541 32.3656C66.2541 39.1771 60.7322 44.6989 53.9207 44.6989V46.6989C61.8368 46.6989 68.2541 40.2816 68.2541 32.3656H66.2541ZM53.9207 20.0322C60.7322 20.0322 66.2541 25.554 66.2541 32.3656H68.2541C68.2541 24.4495 61.8368 18.0322 53.9207 18.0322V20.0322ZM42.2048 28.5008C43.8266 23.5811 48.4605 20.0322 53.9207 20.0322V18.0322C47.5718 18.0322 42.1894 22.1595 40.3053 27.8747L42.2048 28.5008ZM33.4207 28.9787C35.6256 27.2723 38.4381 27.2723 40.643 28.9786L41.8671 27.3969C38.9414 25.1328 35.1222 25.1329 32.1966 27.397L33.4207 28.9787ZM20.1429 20.0322C25.6031 20.0322 30.2371 23.5812 31.8589 28.5009L33.7584 27.8747C31.8743 22.1595 26.4919 18.0322 20.1429 18.0322V20.0322ZM7.80957 32.3656C7.80957 25.554 13.3314 20.0322 20.1429 20.0322V18.0322C12.2268 18.0322 5.80957 24.4495 5.80957 32.3656H7.80957ZM20.1429 44.6989C13.3314 44.6989 7.80957 39.1771 7.80957 32.3656H5.80957C5.80957 40.2816 12.2268 46.6989 20.1429 46.6989V44.6989ZM29.8052 32.3656C29.8052 37.7044 25.4772 42.0323 20.1385 42.0323V44.0323C26.5818 44.0323 31.8052 38.8089 31.8052 32.3656H29.8052ZM20.1385 22.6989C25.4772 22.6989 29.8052 27.0269 29.8052 32.3656H31.8052C31.8052 25.9223 26.5818 20.6989 20.1385 20.6989V22.6989ZM10.4718 32.3656C10.4718 27.0269 14.7997 22.6989 20.1385 22.6989V20.6989C13.6952 20.6989 8.47182 25.9223 8.47182 32.3656H10.4718ZM20.1385 42.0323C14.7997 42.0323 10.4718 37.7044 10.4718 32.3656H8.47182C8.47182 38.8089 13.6952 44.0323 20.1385 44.0323V42.0323ZM63.5918 32.3656C63.5918 37.7044 59.2639 42.0323 53.9252 42.0323V44.0323C60.3685 44.0323 65.5918 38.8089 65.5918 32.3656H63.5918ZM53.9252 22.6989C59.2639 22.6989 63.5918 27.0269 63.5918 32.3656H65.5918C65.5918 25.9223 60.3685 20.6989 53.9252 20.6989V22.6989ZM44.2585 32.3656C44.2585 27.0269 48.5864 22.6989 53.9252 22.6989V20.6989C47.4818 20.6989 42.2585 25.9223 42.2585 32.3656H44.2585ZM53.9252 42.0323C48.5864 42.0323 44.2585 37.7044 44.2585 32.3656H42.2585C42.2585 38.8089 47.4818 44.0323 53.9252 44.0323V42.0323Z" fill="#008A39" mask="url(#path-4-outside-1)"/>
</g>
<defs>
<filter id="filter0_d" x="0" y="16" width="72.2541" height="36.6989" filterUnits="userSpaceOnUse" color-interpolation-filters="sRGB">
<feFlood flood-opacity="0" result="BackgroundImageFix"/>
<feColorMatrix in="SourceAlpha" type="matrix" values="0 0 0 0 0 0 0 0 0 0 0 0 0 0 0 0 0 0 127 0"/>
<feOffset dy="2"/>
<feGaussianBlur stdDeviation="2"/>
<feColorMatrix type="matrix" values="0 0 0 0 0.168627 0 0 0 0 0.2 0 0 0 0 0.219608 0 0 0 0.08 0"/>
<feBlend mode="normal" in2="BackgroundImageFix" result="effect1_dropShadow"/>
<feBlend mode="normal" in="SourceGraphic" in2="effect1_dropShadow" result="shape"/>
</filter>
</defs>
</svg>
