<svg width="48" height="48" viewBox="0 0 48 48" fill="none" xmlns="http://www.w3.org/2000/svg">
<rect width="48" height="48" rx="16" fill="#E1DEF5"/>
<g clip-path="url(#clip0)">
<path d="M35.0462 21.3643L34.5908 20.9073C34.5908 20.9007 34.5846 20.8941 34.5785 20.8874L32.7446 15.5563C32.4185 14.6225 31.5877 14 30.6585 14L18.2288 14C17.2996 14 15.9138 14.6225 15.5877 15.5563L13.7723 20.8278L13.0831 21.4437C12.4 22.0596 12.0062 22.9669 12 23.9272V31.6093C12 32.9272 13.0215 34 14.2462 34H16.8031C18.0215 34 19 32.9338 19 31.6292C19 31.6225 19 31.6159 19 31.6159V31H29V31.6093C28.9877 32.9206 29.9723 33.9868 31.1908 34C31.1969 34 31.2031 34 31.2031 34H33.76C34.9846 34 36 32.9272 36 31.6093V23.7351C36 22.8345 35.6554 21.9802 35.0462 21.3643ZM17 16.6821C17.1477 16.2649 17.5169 15.9933 17.9292 16L30.5708 16C30.9831 15.9934 31.3523 16.2649 31.5 16.6821L32.5 20H31.5585C31.2631 18.212 29.7923 16.8014 28.02 16.8014C26.2477 16.8014 24.7831 18.212 24.4938 20H16.0586L17 16.6821ZM30 20L26 20C26.5 19 27 18.5 28 18.5C29 18.5 29.5 19 30 20ZM17 31C17.0123 31.5762 16.5877 31.9868 16.0523 32C16.0462 32 16.04 32 16.0338 32H15C14.4523 32 13.9846 31.5232 13.9846 30.9338V30.755C14.3046 30.9206 14.6492 31 15 31H17ZM34.0154 31C34.0154 31.6093 33.5477 32 33 32H32C31.4646 32 31 31.5762 31 31H33C33.3508 31 33.7015 30.9206 34.0154 30.755V31ZM32.9846 29H15C14.4523 29 13.9846 28.5298 13.9846 27.9404V24C13.9908 23.4239 14.2246 23.0663 14.6308 22.6954L15.3877 22H32.8738L33.4277 22.5629C33.7908 22.9338 34 23.4636 34 24V27.9404C34 28.5298 33.5323 29 32.9846 29Z" fill="#3E2CB1"/>
<path d="M19.4308 23.7559H15.6154C15.2769 23.7559 15 24.033 15 24.3718V27.0201C15 27.3588 15.2769 27.636 15.6154 27.636H19.4308C19.7692 27.636 20.0462 27.3588 20.0462 27.0201V24.3718C20.0462 24.033 19.7692 23.7559 19.4308 23.7559ZM18.8154 26.4042H16.2308V24.9876H18.8154V26.4042Z" fill="#3E2CB1"/>
<path d="M32.4308 23.7559H28.6154C28.2769 23.7559 28 24.033 28 24.3718V27.0201C28 27.3588 28.2769 27.636 28.6154 27.636H32.4308C32.7692 27.636 33.0462 27.3588 33.0462 27.0201V24.3718C33.0462 24.033 32.7692 23.7559 32.4308 23.7559ZM31.8154 26.4042H29.2308V24.9876H31.8154V26.4042Z" fill="#3E2CB1"/>
<path d="M26.3982 25.8501H21.6018C21.2708 25.8501 21 26.1273 21 26.466C21 26.8047 21.2708 27.0819 21.6018 27.0819H26.3982C26.7292 27.0819 27 26.8047 27 26.466C27 26.1273 26.7352 25.8501 26.3982 25.8501Z" fill="#3E2CB1"/>
<path d="M26.3982 24.3105H21.6018C21.2708 24.3105 21 24.5877 21 24.9265C21 25.2652 21.2708 25.5424 21.6018 25.5424H26.3982C26.7292 25.5424 27 25.2652 27 24.9265C27 24.5877 26.7352 24.3105 26.3982 24.3105Z" fill="#3E2CB1"/>
</g>
<defs>
<clipPath id="clip0">
<rect width="24" height="24" fill="white" transform="translate(12 12)"/>
</clipPath>
</defs>
</svg>
