<svg width="48" height="48" viewBox="0 0 48 48" fill="none" xmlns="http://www.w3.org/2000/svg">
<rect width="48" height="48" rx="16" fill="#C5E4F3"/>
<path fill-rule="evenodd" clip-rule="evenodd" d="M15.9379 24.0045L12.356 22.2601C12.1384 22.1541 12 21.9315 12 21.6872V21.1711C12 20.9269 12.1384 20.7042 12.356 20.5983L23.722 15.063C23.8945 14.979 24.0954 14.979 24.2679 15.063L35.644 20.6031C35.8616 20.7091 36 20.9318 36 21.176V21.6824C36 21.9266 35.8616 22.1492 35.644 22.2552L34.2871 22.9161V27.4656C34.5023 27.6103 34.6666 27.8287 34.7441 28.0947L35.2998 30.0024C35.3707 30.2456 35.3591 30.5094 35.2671 30.7453L34.6711 32.275C34.4994 32.7154 34.0861 33 33.6179 33L33.6081 32.9999L33.5924 32.9997L33.5829 32.9995C33.1067 32.9847 32.688 32.6669 32.541 32.2088L32.0255 31.7212C31.9534 31.4965 31.9515 31.2582 32.02 31.0323L32.5759 29.201C32.6548 28.941 32.8178 28.7275 33.0292 28.5851V23.5286L32.0522 24.0044V27.7268C32.0522 27.8126 32.035 27.8976 32.0016 27.9765C31.9934 27.9959 31.9852 28.0152 31.9766 28.0342C31.9156 28.1695 31.8097 28.2788 31.6772 28.3435L24.8437 31.6715C24.7585 31.7129 24.6653 31.7344 24.5707 31.7344H23.4193C23.3247 31.7344 23.2314 31.7129 23.1463 31.6715L16.2938 28.3343C16.0762 28.2283 15.9379 28.0056 15.9379 27.7614V24.0045ZM33.5 21.5L23.9952 17L14.5 21.5L23.9952 25.8L33.5 21.5ZM30 27L24.4271 29.8H23.5628L18 27V25L23.722 27.7955C23.8083 27.8375 23.9016 27.8584 23.995 27.8584C24.0884 27.8584 24.1817 27.8375 24.2679 27.7955L30 25V27Z" fill="#006BA1"/>
</svg>
