<svg width="48" height="48" viewBox="0 0 48 48" fill="none" xmlns="http://www.w3.org/2000/svg">
<rect width="48" height="48" rx="16" fill="#F5CCD3"/>
<g clip-path="url(#clip0)">
<path d="M35.0181 21H14.0181C13.5181 21 13 21.5056 13 22.0056V33.5047C13 34.8832 14.1214 36.0056 15.5009 36.0056H33.5076C34.8871 36.0056 36.0085 34.8832 36.0085 33.5047V22.0056C36.0085 21.5056 35.5181 21 35.0181 21ZM34.0181 33.0056C34.0181 33.5056 33.5076 34.0056 33.0181 34.0056H16.0181C15.5009 34.0056 15.0181 33.5056 15.0181 33.0056V23.0056H34.0181V33.0056Z" fill="#CC0022"/>
<path d="M35.5 26H13.5C13.224 26 13 26.448 13 27C13 27.552 13.224 28 13.5 28H35.5C35.777 28 36 27.552 36 27C36 26.448 35.776 26 35.5 26Z" fill="#CC0022"/>
<rect x="17.3838" y="21.835" width="1.5" height="5" transform="rotate(30 17.3838 21.835)" fill="#CC0022"/>
<rect x="22.5" y="21.835" width="1.5" height="5" transform="rotate(30 22.5 21.835)" fill="#CC0022"/>
<rect x="27.5" y="21.835" width="1.5" height="5" transform="rotate(30 27.5 21.835)" fill="#CC0022"/>
<rect x="32.5" y="22" width="1.5" height="5" transform="rotate(30 32.5 22)" fill="#CC0022"/>
<path fill-rule="evenodd" clip-rule="evenodd" d="M12.9849 15.8266C12.4925 15.9132 12.0868 16.4926 12.1737 16.9851L12.5556 19.1508L13.0419 21.9091C13.1288 22.4014 13.708 22.8071 14.2004 22.7203C17.0327 22.2208 19.4286 21.7986 21.6942 21.3992L21.7085 21.3967C25.8977 20.6584 29.6433 19.9982 34.8814 19.0736C35.3738 18.9867 35.7793 18.4075 35.6925 17.9152L34.8243 12.9911C34.7375 12.4987 34.1582 12.0932 33.6658 12.18C30.1115 12.8061 27.2446 13.3122 24.46 13.8037C20.917 14.429 17.5074 15.0309 12.9849 15.8266ZM19.357 16.7338L16.0245 17.3214L18.305 19.9655L21.6375 19.3779L19.357 16.7338ZM21.0628 16.433L23.3432 19.0772L26.5615 18.5097L24.2811 15.8655L21.0628 16.433ZM31.5795 17.6249L28.2673 18.2089L25.9868 15.5648L29.2991 14.9807L31.5795 17.6249ZM33.2852 17.3241L33.5493 17.2776L33.0284 14.3231L31.0048 14.6799L33.2852 17.3241ZM14.317 17.6225L14.3188 17.6221L16.5992 20.2663L14.838 20.5769L14.317 17.6225Z" fill="#CC0022"/>
</g>
<defs>
<clipPath id="clip0">
<rect width="24" height="24" fill="white" transform="translate(12 12)"/>
</clipPath>
</defs>
</svg>
