<svg width="48" height="48" viewBox="0 0 48 48" fill="none" xmlns="http://www.w3.org/2000/svg">
<rect width="48" height="48" rx="16" fill="#EBEDEE"/>
<g clip-path="url(#clip0)">
<path d="M23.9531 21.4688C24.4709 21.4688 24.8906 21.8884 24.8906 22.4062C24.8906 22.9241 24.4709 23.3438 23.9531 23.3438C23.4353 23.3438 23.0156 22.9241 23.0156 22.4062C23.0156 21.8884 23.4353 21.4688 23.9531 21.4688ZM27.2344 22.4062C27.2344 22.9241 27.6541 23.3438 28.1719 23.3438C28.6897 23.3438 29.1094 22.9241 29.1094 22.4062C29.1094 21.8884 28.6897 21.4688 28.1719 21.4688C27.6541 21.4688 27.2344 21.8884 27.2344 22.4062ZM18.7969 22.4062C18.7969 22.9241 19.2166 23.3438 19.7344 23.3438C20.2522 23.3438 20.6719 22.9241 20.6719 22.4062C20.6719 21.8884 20.2522 21.4688 19.7344 21.4688C19.2166 21.4688 18.7969 21.8884 18.7969 22.4062ZM35.1757 31.1982C36.2728 32.2954 36.2728 34.0796 35.1762 35.1762C34.628 35.7244 33.9077 35.9987 33.1875 35.9987C32.4673 35.9987 31.747 35.7244 31.1988 35.1762L26.0524 30.0414C25.9431 29.9323 25.8625 29.798 25.8177 29.6501L24.6967 25.96C24.5973 25.6328 24.6839 25.2775 24.9227 25.0327C25.1614 24.7881 25.5145 24.6929 25.8441 24.7841L29.6279 25.8322C29.7838 25.8754 29.9257 25.9579 30.0401 26.0722L35.1757 31.1982ZM27.5433 28.8801L31.0162 32.3454L32.3423 31.0193L28.8898 27.5735L26.9863 27.0461L27.5433 28.8801ZM33.8503 32.5247L33.6694 32.3439L32.3436 33.6698L32.5239 33.8496C32.8901 34.216 33.4849 34.216 33.8503 33.8503C34.216 33.4849 34.216 32.8901 33.8503 32.5247ZM24.5215 31.4275C24.3483 31.435 24.1729 31.4388 24 31.4388C22.4925 31.4388 21.0412 31.1581 19.6866 30.6046C19.4559 30.5105 19.197 30.512 18.9673 30.6088L14.6986 32.4108L16.1369 29.0037C16.2775 28.6707 16.214 28.2861 15.9734 28.0159C14.6006 26.4738 13.875 24.6286 13.875 22.6804C13.875 17.8251 18.4171 13.875 24 13.875C29.5829 13.875 34.125 17.8251 34.125 22.6804C34.125 23.8317 33.8423 24.9877 33.2845 26.1158C33.0551 26.58 33.2454 27.1423 33.7095 27.3717C34.1737 27.6011 34.736 27.4109 34.9655 26.9467C35.6519 25.5579 36 24.1225 36 22.6804C36 16.7911 30.6169 12 24 12C17.3833 12 12 16.7911 12 22.6804C12 24.9033 12.7537 27.0084 14.1861 28.8038L12.0738 33.8073C11.9255 34.1587 12.0049 34.565 12.2747 34.8347C12.4541 35.0142 12.6938 35.1094 12.9377 35.1094C13.0605 35.1094 13.1845 35.0852 13.3021 35.0356L19.3456 32.4844C20.8196 33.035 22.3835 33.3138 24 33.3138C24.2 33.3138 24.403 33.3093 24.6035 33.3007C25.1208 33.278 25.5218 32.8403 25.4991 32.3231C25.4766 31.8058 25.038 31.4035 24.5215 31.4275Z" fill="#5E6E77"/>
</g>
<defs>
<clipPath id="clip0">
<rect width="24" height="24" fill="white" transform="translate(12 12)"/>
</clipPath>
</defs>
</svg>
