<svg width="48" height="48" viewBox="0 0 48 48" fill="none" xmlns="http://www.w3.org/2000/svg">
<rect width="48" height="48" rx="16" fill="#F5DACC"/>
<g clip-path="url(#clip0)">
<path fill-rule="evenodd" clip-rule="evenodd" d="M17.8109 19.7575C17.9222 19.3123 18.3222 19 18.7811 19H29.2195C29.6784 19 30.0784 19.3123 30.1897 19.7575L30.7503 22H35.0003C35.1825 22 35.3533 22.0487 35.5004 22.1338L35.5117 22.1275L35.5227 22.1471C35.8092 22.323 36.0003 22.6392 36.0003 23L36.4889 23.8725L36.0003 24.1461V35C36.0003 35.5523 35.5526 36 35.0003 36H13.0003C12.448 36 12.0003 35.5523 12.0003 35V24.1461L11.5117 23.8725L12.0003 23C12.0003 22.6392 12.1914 22.323 12.4779 22.1471L12.4889 22.1275L12.5002 22.1338C12.6473 22.0487 12.8181 22 13.0003 22H17.2503L17.8109 19.7575ZM19.2503 22H28.7503L28.5003 21H19.5003L19.2503 22ZM14.0003 25.2661L21.0003 29.1861V29.5C21.0003 30.6046 21.8958 31.5 23.0003 31.5H25.0003C26.1049 31.5 27.0003 30.6046 27.0003 29.5V29.1861L34.0003 25.2661V34H14.0003V25.2661ZM15.8327 24L21.5022 27.1749C21.8686 26.761 22.404 26.5 23.0003 26.5H25.0003C25.5966 26.5 26.132 26.761 26.4984 27.1749L32.168 24H15.8327ZM23.5003 28C22.948 28 22.5003 28.4477 22.5003 29C22.5003 29.5523 22.948 30 23.5003 30H24.5003C25.0526 30 25.5003 29.5523 25.5003 29C25.5003 28.4477 25.0526 28 24.5003 28H23.5003Z" fill="#CC4400"/>
<path d="M12.75 21V12.75H17.75V13.75M17.75 18V13.75M17.75 13.75H22.75V14.75M22.75 18V14.75M22.75 14.75H27.75V18" stroke="#CC4400" stroke-width="1.5"/>
</g>
<defs>
<clipPath id="clip0">
<rect width="24" height="24" fill="white" transform="translate(12 12)"/>
</clipPath>
</defs>
</svg>
