<svg width="48" height="48" viewBox="0 0 48 48" fill="none" xmlns="http://www.w3.org/2000/svg">
<rect width="48" height="48" rx="16" fill="#E2F1AB"/>
<g clip-path="url(#clip0)">
<path d="M35.2969 12H32.4844C32.0961 12 31.7812 12.3148 31.7812 12.7031V13.4062H25.9884C25.6982 12.5879 24.9166 12 24 12C23.0834 12 22.3018 12.5879 22.0116 13.4062H16.2188V12.7031C16.2188 12.3148 15.9039 12 15.5156 12H12.7031C12.3148 12 12 12.3148 12 12.7031V15.5156C12 15.9039 12.3148 16.2188 12.7031 16.2188H15.5156C15.9039 16.2188 16.2188 15.9039 16.2188 15.5156V14.8031H19.1427C16.606 16.4097 15.064 19.1238 14.8785 22.0051C14.0502 22.2899 13.4531 23.0763 13.4531 24C13.4531 25.1631 14.3994 26.1094 15.5625 26.1094C16.7256 26.1094 17.6719 25.1631 17.6719 24C17.6719 23.0916 17.0946 22.3154 16.2877 22.0191C16.5373 18.7075 18.9219 15.8553 22.1108 15.046C22.4564 15.7403 23.1732 16.2188 24 16.2188C24.8268 16.2188 25.5436 15.7403 25.8892 15.0461C29.0781 15.8553 31.4627 18.7075 31.7123 22.0191C30.9054 22.3154 30.3281 23.0916 30.3281 24C30.3281 25.1631 31.2744 26.1094 32.4375 26.1094C33.6006 26.1094 34.5469 25.1631 34.5469 24C34.5469 23.0763 33.9498 22.2899 33.1215 22.0051C32.9356 19.1181 31.389 16.416 28.8573 14.8125H31.7812V15.5156C31.7812 15.9039 32.0961 16.2188 32.4844 16.2188H35.2969C35.6852 16.2188 36 15.9039 36 15.5156V12.7031C36 12.3148 35.6852 12 35.2969 12ZM14.8125 14.8125H13.4062V13.4062H14.8125V14.8125ZM15.5625 24.7031C15.1748 24.7031 14.8594 24.3877 14.8594 24C14.8594 23.6123 15.1748 23.2969 15.5625 23.2969C15.9502 23.2969 16.2656 23.6123 16.2656 24C16.2656 24.3877 15.9502 24.7031 15.5625 24.7031ZM24 14.8125C23.6123 14.8125 23.2969 14.4971 23.2969 14.1094C23.2969 13.7217 23.6123 13.4062 24 13.4062C24.3877 13.4062 24.7031 13.7217 24.7031 14.1094C24.7031 14.4971 24.3877 14.8125 24 14.8125ZM32.4375 23.2969C32.8252 23.2969 33.1406 23.6123 33.1406 24C33.1406 24.3877 32.8252 24.7031 32.4375 24.7031C32.0498 24.7031 31.7344 24.3877 31.7344 24C31.7344 23.6123 32.0498 23.2969 32.4375 23.2969ZM34.5938 14.8125H33.1875V13.4062H34.5938V14.8125Z" fill="#5E7500"/>
<path d="M30.21 26.4225L24.585 17.985C24.5848 17.9847 24.5846 17.9844 24.5844 17.9841C24.5824 17.9811 24.5802 17.9783 24.5781 17.9753C24.5684 17.9613 24.5583 17.9478 24.5477 17.9346C24.2514 17.5665 23.6872 17.5913 23.4219 17.9753C23.4198 17.9783 23.4176 17.9811 23.4156 17.9841C23.4154 17.9844 23.4152 17.9847 23.415 17.985L17.79 26.4225C17.604 26.7014 17.6408 27.0727 17.8778 27.3097C19.2807 28.7125 20.1735 30.5463 20.4168 32.5082C20.3076 32.5965 20.2022 32.691 20.1022 32.7932C19.4418 33.4688 19.0781 34.358 19.0781 35.2969C19.0781 35.6852 19.3929 36 19.7812 36H28.2187C28.6071 36 28.9219 35.6852 28.9219 35.2969C28.9219 34.358 28.5582 33.4688 27.8978 32.7932C27.7978 32.6909 27.6924 32.5964 27.5832 32.5081C27.8264 30.5461 28.7193 28.7124 30.1221 27.3097C30.3592 27.0727 30.3959 26.7013 30.21 26.4225ZM24 26.1094C24.3877 26.1094 24.7031 26.4248 24.7031 26.8125C24.7031 27.2002 24.3877 27.5156 24 27.5156C23.6123 27.5156 23.2969 27.2002 23.2969 26.8125C23.2969 26.4248 23.6123 26.1094 24 26.1094ZM20.6043 34.5938C20.8968 33.7578 21.6899 33.1406 22.5937 33.1406H25.4062C26.3101 33.1406 27.1032 33.7578 27.3957 34.5938H20.6043ZM26.2615 31.8414C25.9849 31.7708 25.6982 31.7344 25.4062 31.7344H22.5937C22.3018 31.7344 22.0151 31.7708 21.7385 31.8414C21.4094 29.9463 20.5549 28.1748 19.2705 26.7368L23.2969 20.6973V24.8241C22.4785 25.1144 21.8906 25.8959 21.8906 26.8126C21.8906 27.9757 22.8369 28.9219 24 28.9219C25.1631 28.9219 26.1094 27.9757 26.1094 26.8126C26.1094 25.8959 25.5215 25.1144 24.7031 24.8241V20.6973L28.7295 26.7368C27.4451 28.1747 26.5905 29.9462 26.2615 31.8414Z" fill="#5E7500"/>
</g>
<defs>
<clipPath id="clip0">
<rect width="24" height="24" fill="white" transform="translate(12 12)"/>
</clipPath>
</defs>
</svg>
