<svg width="48" height="48" viewBox="0 0 48 48" fill="none" xmlns="http://www.w3.org/2000/svg">
<rect width="48" height="48" rx="16" fill="#FAEECC"/>
<g clip-path="url(#clip0)">
<path d="M35.5937 18.1277C35.341 17.9714 35.0254 17.9572 34.7597 18.09L29 21V18.5714C29 17.1513 27.8487 16 26.4286 16L14.5714 16C13.1513 16 12 17.1513 12 18.5714L12 29.4286C12 30.8487 13.1513 32 14.5714 32L26.4286 32C27.8487 32 29 30.8487 29 29.4286V27L34.7597 29.9142C35.1832 30.1258 35.698 29.9541 35.9096 29.5306C35.9698 29.4102 36.0008 29.2773 36 29.1428V18.8571C36.0002 18.56 35.8464 18.284 35.5937 18.1277ZM27 29C27 29.4734 26.4734 29.9999 26 29.9999L15 30C14.5266 30 14 29.4734 14 29V19C14 18.5266 14.5266 17.9999 15 17.9999H26C26.4286 17.9999 27 18.5 27 19V29ZM34 27.5L29 25V23L34 20.5V27.5Z" fill="#A67C00"/>
<path fill-rule="evenodd" clip-rule="evenodd" d="M17 24C17 22.067 18.567 20.5 20.5 20.5C22.433 20.5 24 22.067 24 24C24 25.933 22.433 27.5 20.5 27.5C18.567 27.5 17 25.933 17 24ZM20.5 25.5C19.6716 25.5 19 24.8284 19 24C19 23.1716 19.6716 22.5 20.5 22.5C21.3284 22.5 22 23.1716 22 24C22 24.8284 21.3284 25.5 20.5 25.5Z" fill="#A67C00"/>
</g>
<defs>
<clipPath id="clip0">
<rect width="24" height="24" fill="white" transform="translate(12 12)"/>
</clipPath>
</defs>
</svg>
