<svg width="48" height="48" viewBox="0 0 48 48" fill="none" xmlns="http://www.w3.org/2000/svg">
<rect width="48" height="48" rx="16" fill="#E1DEF5"/>
<g clip-path="url(#clip0)">
<path fill-rule="evenodd" clip-rule="evenodd" d="M16.1843 18.601C16.8269 15.4044 19.2692 12.8532 22.2813 12.1893C27.3799 11.0659 32 15.1142 32 20.4378C32 22.4812 31.2967 24.4529 30.0196 25.9895C29.1471 27.0393 28.6666 28.3307 28.6666 29.6257V31.032C28.6666 31.9677 28.0858 32.7626 27.2846 33.0379C27.0211 34.6802 25.6696 36.001 23.9998 36.001C22.3296 36.001 20.9784 34.6798 20.7149 33.0379C19.9138 32.7626 19.333 31.9677 19.333 31.0321V29.6257C19.333 28.3333 18.854 27.0262 18.0189 26.036C16.3103 24.0102 15.6417 21.3003 16.1843 18.601ZM22.1139 33.1368C22.3914 33.9727 23.1428 34.5947 23.9998 34.5947C24.8568 34.5947 25.6082 33.9727 25.8856 33.1368H22.1139ZM26.3333 31.7352C26.7009 31.7352 27 31.4198 27 31.0321V30.3289H21V31.0321C21 31.4198 21.2991 31.7352 21.6667 31.7352H26.3333ZM28.6433 24.8389C29.4912 23.888 30 23.3173 30 20.0002C30 16.6865 27.3137 14.0002 24 14.0002C20.6863 14.0002 18 16.6865 18 20.0002C18 23.3008 18.562 23.9375 19.4889 24.9877L19.5 25.0002C20.4335 26.0579 21 27.5002 21 28.0002C21 28.5002 21 28.7502 21.125 28.8752C21.25 29.0002 21.5 29.0002 22 29.0002H26C26.5 29.0002 26.75 29.0002 26.875 28.8752C27 28.7502 27 28.5002 27 28.0002C27 27.5002 27.6174 26.0002 28.5 25.0002C28.548 24.9459 28.595 24.8932 28.641 24.8416L28.6413 24.8412L28.6432 24.8391L28.6433 24.8389ZM14.1094 19.4373H12.7031C12.3148 19.4373 12 19.7521 12 20.1404C12 20.5287 12.3148 20.8435 12.7031 20.8435H14.1094C14.4977 20.8435 14.8125 20.5287 14.8125 20.1404C14.8125 19.7521 14.4977 19.4373 14.1094 19.4373ZM14.4062 13.9271L15.4006 14.9215C15.6752 15.1961 15.6752 15.6413 15.4006 15.9159C15.126 16.1905 14.6808 16.1904 14.4062 15.9159L13.4119 14.9215C13.1373 14.6469 13.1373 14.2017 13.4119 13.9271C13.6865 13.6525 14.1317 13.6525 14.4062 13.9271ZM15.4006 24.3649C15.126 24.0903 14.6808 24.0903 14.4062 24.3649L13.4119 25.3592C13.1373 25.6338 13.1373 26.079 13.4119 26.3536C13.6864 26.6282 14.1316 26.6282 14.4062 26.3536L15.4006 25.3592C15.6752 25.0846 15.6752 24.6395 15.4006 24.3649ZM33.8906 19.4373H35.2969C35.6852 19.4373 36 19.7521 36 20.1404C36 20.5287 35.6852 20.8435 35.2969 20.8435H33.8906C33.5023 20.8435 33.1875 20.5287 33.1875 20.1404C33.1875 19.7521 33.5023 19.4373 33.8906 19.4373ZM34.5881 13.9271C34.3136 13.6525 33.8683 13.6525 33.5937 13.9271L32.5994 14.9215C32.3248 15.1961 32.3248 15.6413 32.5994 15.9159C32.8739 16.1904 33.3191 16.1904 33.5937 15.9159L34.5881 14.9215C34.8627 14.6469 34.8627 14.2017 34.5881 13.9271ZM33.5937 24.3649L34.5881 25.3592C34.8627 25.6338 34.8627 26.079 34.5881 26.3536C34.3135 26.6282 33.8683 26.6281 33.5937 26.3536L32.5994 25.3592C32.3248 25.0846 32.3248 24.6395 32.5994 24.3649C32.874 24.0903 33.3192 24.0903 33.5937 24.3649Z" fill="#3E2CB1"/>
</g>
<defs>
<clipPath id="clip0">
<rect width="24" height="24" fill="white" transform="translate(12 12)"/>
</clipPath>
</defs>
</svg>
