<svg width="48" height="48" viewBox="0 0 48 48" fill="none" xmlns="http://www.w3.org/2000/svg">
<rect width="48" height="48" rx="16" fill="#CAF4FA"/>
<path fill-rule="evenodd" clip-rule="evenodd" d="M16.6014 15.5188C17.0683 14.9341 17.4594 14.46 18.1868 14.46H29.2847C30.5554 14.46 30.7763 14.7374 31.3363 15.4406L31.3986 15.5188L35.6264 20.8127C36.0933 21.3973 36.1549 21.8715 35.6264 22.4009C32.5674 25.465 30.5569 27.479 27.9592 30.0814L27.9381 30.1025L25.5854 32.4594C24.1523 33.895 23.8498 33.8971 22.4146 32.4594L12.3736 22.4009C11.8451 21.8715 11.9067 21.3973 12.3736 20.8127L16.6014 15.5188ZM14.7692 20.6138L17.5385 17.2292L18.7692 20.6138H14.7692ZM15.0769 22.46H19.3846L21.6923 28.9215L15.0769 22.46ZM19.0769 16.3061L20.3077 19.383L22.3077 16.3061H19.0769ZM21.6923 20.6138L24 17.2292L26.3077 20.6138H21.6923ZM27.6923 19.383L25.6923 16.3061H28.9231L27.6923 19.383ZM30.4615 17.2292L29.2308 20.6138H33.2308L30.4615 17.2292ZM28.6154 22.46H32.9231L26.3077 28.9215L28.6154 22.46ZM24 29.8446L26.6154 22.46H21.3846L24 29.8446Z" fill="#0E8595"/>
</svg>
