<svg width="48" height="48" viewBox="0 0 48 48" fill="none" xmlns="http://www.w3.org/2000/svg">
<rect width="48" height="48" rx="16" fill="#C5E4F3"/>
<path d="M35.2969 17H29.9531V12.7531C29.9531 12.3372 29.6383 12 29.25 12H12.7031C12.3148 12 12 12.3372 12 12.7531V32.2343C12 34.3107 13.5771 36 15.5156 36H32.4844C34.4229 36 36 34.3107 36 32.2343V17.7531C36 17.3372 35.6852 17 35.2969 17ZM16 34C14.8369 34 14 33.2458 14 32V14H28C28 33.9062 27.975 31.7162 28 32C28.0611 32.6982 28.1156 33.4525 28.5 34H16ZM34 32C34 33.2458 33.3578 34 32.4219 34C32.2641 34 32.1549 34 32 34C30.8369 34 29.9531 33.2458 29.9531 32V19H34V32Z" fill="#006BA1"/>
<path d="M26 16H16C15.5 16 15 16.3358 15 16.75C15 17.1642 15.5 17.5 16 17.5H26C26.5 17.5 27 17.1642 27 16.75C27 16.3358 26.5 16 26 16Z" fill="#006BA1"/>
<path d="M26 30H16C15.5 30 15 30.3358 15 30.75C15 31.1642 15.5 31.5 16 31.5H26C26.5 31.5 27 31.1642 27 30.75C27 30.3358 26.5 30 26 30Z" fill="#006BA1"/>
<path d="M26 19H16C15.5 19 15 19.3358 15 19.75C15 20.1642 15.5 20.5 16 20.5H26C26.5 20.5 27 20.1642 27 19.75C27 19.3358 26.5 19 26 19Z" fill="#006BA1"/>
<path d="M18 23L16 23C15.5 23 15 23.3358 15 23.75C15 24.1642 15.5 24.5 16 24.5H18C18.5 24.5 19 24.1642 19 23.75C19 23.3358 18.5 23 18 23Z" fill="#006BA1"/>
<path d="M18 26L16 26C15.5 26 15 26.3358 15 26.75C15 27.1642 15.5 27.5 16 27.5H18C18.5 27.5 19 27.1642 19 26.75C19 26.3358 18.5 26 18 26Z" fill="#006BA1"/>
<path d="M26 22H22C21.5 22 21 22.5 21 23V27C21 27.5 21.5 28 22 28H26C26.5 28 27 27.5 27 27L27 23C27 22.5 26.5 22 26 22ZM25.5 26.5H22.5V23.5H25.5V26.5Z" fill="#006BA1"/>
</svg>
