<svg width="48" height="48" viewBox="0 0 48 48" fill="none" xmlns="http://www.w3.org/2000/svg">
<rect width="48" height="48" rx="16" fill="#CAF4FA"/>
<g clip-path="url(#clip0)">
<path d="M29 20C29.5523 20 30 19.5523 30 19C30 18.4477 29.5523 18 29 18C28.4477 18 28 18.4477 28 19C28 19.5523 28.4477 20 29 20Z" fill="#0E8595"/>
<path d="M26.5 17.5C27.0523 17.5 27.5 17.0523 27.5 16.5C27.5 15.9477 27.0523 15.5 26.5 15.5C25.9477 15.5 25.5 15.9477 25.5 16.5C25.5 17.0523 25.9477 17.5 26.5 17.5Z" fill="#0E8595"/>
<path d="M31.5 22.5C32.0523 22.5 32.5 22.0523 32.5 21.5C32.5 20.9477 32.0523 20.5 31.5 20.5C30.9477 20.5 30.5 20.9477 30.5 21.5C30.5 22.0523 30.9477 22.5 31.5 22.5Z" fill="#0E8595"/>
<path fill-rule="evenodd" clip-rule="evenodd" d="M24.0478 12H33.8916C35.0547 12 36.0009 12.9463 36.0009 14.1094V23.9532C36.0009 25.1163 35.0547 26.0625 33.8916 26.0625H29.9528C30.3021 26.8389 30.1588 27.7848 29.5221 28.4216L22.5614 35.3822C22.1631 35.7806 21.6334 36 21.0699 36C20.5065 36 19.9768 35.7806 19.5784 35.3822L12.6178 28.4216C11.7954 27.5992 11.7954 26.261 12.6178 25.4385L19.5783 18.4779C19.9767 18.0795 20.5064 17.86 21.0699 17.86C21.3745 17.86 21.669 17.9247 21.9384 18.0465V14.1094C21.9384 12.9463 22.8847 12 24.0478 12ZM33 24C33.5 24 34 23.5 34 23V15C34 14.5 33.5 14 33 14H25C24.5 14 24 14.5 24 15V20L28 24H33ZM27.8122 27.4541L21.4542 33.8119C21.3329 33.9332 21.1716 34 21 34C20.8285 34 20.6672 33.9332 20.5459 33.8119L14.1878 27.4541C13.9374 27.2037 13.9374 26.7963 14.1878 26.5459L20.5459 20.1881C20.6672 20.0668 20.8285 20 21 20C21.1716 20 21.3329 20.0668 21.4542 20.1881L27.8122 26.5459C28.0626 26.7963 28.0626 27.2038 27.8122 27.4541Z" fill="#0E8595"/>
<path d="M21.5 24.5C22.0523 24.5 22.5 24.0523 22.5 23.5C22.5 22.9477 22.0523 22.5 21.5 22.5C20.9477 22.5 20.5 22.9477 20.5 23.5C20.5 24.0523 20.9477 24.5 21.5 24.5Z" fill="#0E8595"/>
<path d="M17.5 28.5C18.0523 28.5 18.5 28.0523 18.5 27.5C18.5 26.9477 18.0523 26.5 17.5 26.5C16.9477 26.5 16.5 26.9477 16.5 27.5C16.5 28.0523 16.9477 28.5 17.5 28.5Z" fill="#0E8595"/>
<path d="M19.5 26.5C20.0523 26.5 20.5 26.0523 20.5 25.5C20.5 24.9477 20.0523 24.5 19.5 24.5C18.9477 24.5 18.5 24.9477 18.5 25.5C18.5 26.0523 18.9477 26.5 19.5 26.5Z" fill="#0E8595"/>
<path d="M24.5 27.5C25.0523 27.5 25.5 27.0523 25.5 26.5C25.5 25.9477 25.0523 25.5 24.5 25.5C23.9477 25.5 23.5 25.9477 23.5 26.5C23.5 27.0523 23.9477 27.5 24.5 27.5Z" fill="#0E8595"/>
<path d="M20.5 31.5C21.0523 31.5 21.5 31.0523 21.5 30.5C21.5 29.9477 21.0523 29.5 20.5 29.5C19.9477 29.5 19.5 29.9477 19.5 30.5C19.5 31.0523 19.9477 31.5 20.5 31.5Z" fill="#0E8595"/>
<path d="M22.5 29.5C23.0523 29.5 23.5 29.0523 23.5 28.5C23.5 27.9477 23.0523 27.5 22.5 27.5C21.9477 27.5 21.5 27.9477 21.5 28.5C21.5 29.0523 21.9477 29.5 22.5 29.5Z" fill="#0E8595"/>
</g>
<defs>
<clipPath id="clip0">
<rect width="24" height="24" fill="white" transform="translate(12 12)"/>
</clipPath>
</defs>
</svg>
