<svg width="32" height="32" viewBox="0 0 32 32" fill="none" xmlns="http://www.w3.org/2000/svg">
<g clip-path="url(#clip0)">
<path d="M8.00001 3.94407e-05C3.58174 3.94407e-05 2.29644e-05 3.58175 1.40782e-05 8.00002L0 14.9998V24C0 28.4183 3.58172 32 8 32H15H23.9674C28.3854 32 31.967 28.4187 31.9674 24.0007L31.968 16.9998L31.9673 7.99941C31.9669 3.58138 28.3853 3.94407e-05 23.9673 3.94407e-05H16.5H8.00001Z" fill="url(#paint0_linear)"/>
<path d="M16.0003 5.0106C11.4947 5.0106 7.21619 4.61012 5.58197 8.80093C4.90694 10.5318 5.00497 12.7797 5.00497 15.9985C5.00497 18.8229 4.91438 21.4775 5.58197 23.1947C7.21247 27.388 11.5257 26.9863 15.9978 26.9863C20.3123 26.9863 24.7608 27.4351 26.4149 23.1947C27.0911 21.4465 26.9919 19.2321 26.9919 15.9985C26.9919 11.706 27.2289 8.93483 25.1455 6.85431C23.036 4.74651 20.1832 5.0106 15.9953 5.0106H16.0003ZM15.015 6.9907C24.4133 6.97582 25.6095 5.93184 24.9494 20.4348C24.7149 25.5642 20.8061 25.0012 16.0015 25.0012C7.241 25.0012 6.98911 24.7508 6.98911 15.9935C6.98911 7.13452 7.68399 6.99566 15.015 6.98822V6.9907ZM21.8696 8.81457C21.1412 8.81457 20.5505 9.40475 20.5505 10.1326C20.5505 10.8604 21.1412 11.4506 21.8696 11.4506C22.598 11.4506 23.1886 10.8604 23.1886 10.1326C23.1886 9.40475 22.598 8.81457 21.8696 8.81457ZM16.0003 10.3557C12.882 10.3557 10.3543 12.8826 10.3543 15.9985C10.3543 19.1143 12.882 21.6399 16.0003 21.6399C19.1186 21.6399 21.645 19.1143 21.645 15.9985C21.645 12.8826 19.1186 10.3557 16.0003 10.3557ZM16.0003 12.3358C20.8459 12.3358 20.8521 19.6611 16.0003 19.6611C11.1559 19.6611 11.1485 12.3358 16.0003 12.3358Z" fill="white"/>
</g>
<defs>
<linearGradient id="paint0_linear" x1="2.06145" y1="29.956" x2="31.8021" y2="4.21585" gradientUnits="userSpaceOnUse">
<stop stop-color="#FFDD55"/>
<stop offset="0.5" stop-color="#FF543E"/>
<stop offset="1" stop-color="#C837AB"/>
</linearGradient>
<clipPath id="clip0">
<rect width="32" height="32" fill="white"/>
</clipPath>
</defs>
</svg>
