<svg width="1920" height="608" viewBox="0 0 1920 608" fill="none" xmlns="http://www.w3.org/2000/svg">
<mask id="mask0" mask-type="alpha" maskUnits="userSpaceOnUse" x="0" y="0" width="1920" height="608">
<rect width="1920" height="608" fill="#FAEECC"/>
</mask>
<g mask="url(#mask0)">
<path opacity="0.08" d="M849.469 701C849.469 966.915 1069.91 1182.5 1341.86 1182.5C1613.82 1182.5 1834.26 966.915 1834.26 701C1834.26 435.085 1613.82 219.5 1341.86 219.5C1069.91 219.5 849.469 435.085 849.469 701Z" stroke="black"/>
<ellipse opacity="0.05" rx="492.895" ry="482" transform="matrix(-1 0 0 1 1364.1 750)" fill="#5E6E77"/>
<path opacity="0.08" d="M972.447 1020.5C972.447 1222.15 1017.24 1404.69 1089.64 1536.8C1162.05 1668.93 1262 1750.5 1372.28 1750.5C1482.56 1750.5 1582.51 1668.93 1654.92 1536.8C1727.32 1404.69 1772.12 1222.15 1772.12 1020.5C1772.12 818.846 1727.32 636.306 1654.92 504.199C1582.51 372.073 1482.56 290.5 1372.28 290.5C1262 290.5 1162.05 372.073 1089.64 504.199C1017.24 636.306 972.447 818.846 972.447 1020.5Z" stroke="black"/>
<path opacity="0.05" d="M84.1242 -208.5C84.1242 -76.74 124.255 42.5272 189.113 128.843C253.971 215.159 343.534 268.5 442.42 268.5C541.307 268.5 630.87 215.159 695.728 128.843C760.586 42.5272 800.717 -76.74 800.717 -208.5C800.717 -340.26 760.586 -459.527 695.728 -545.843C630.87 -632.159 541.307 -685.5 442.42 -685.5C343.534 -685.5 253.971 -632.159 189.113 -545.843C124.255 -459.527 84.1242 -340.26 84.1242 -208.5Z" stroke="black"/>
<ellipse opacity="0.05" rx="358.796" ry="477.5" transform="matrix(-1 0 0 1 422.796 -259.5)" fill="#5E6E77"/>
<ellipse opacity="0.7" rx="231" ry="225.5" transform="matrix(-1 0 0 1 1596 287.5)" fill="white"/>
<path opacity="0.08" d="M1378.5 320.5C1378.5 444.753 1481.69 545.5 1609 545.5C1736.31 545.5 1839.5 444.753 1839.5 320.5C1839.5 196.247 1736.31 95.5 1609 95.5C1481.69 95.5 1378.5 196.247 1378.5 320.5Z" stroke="black"/>
</g>
</svg>
