<svg width="169" height="40" viewBox="0 0 169 40" fill="none" xmlns="http://www.w3.org/2000/svg">
<path opacity="0.65" d="M21.125 0L40.9099 37.7778C41.4917 38.8889 40.9099 40 39.7461 40H26.944C26.5561 40 24.6164 40 23.6466 38.1481L21.505 34.0588C21.2552 33.5819 21.125 33.0521 21.125 32.5138V0Z" fill="white"/>
<path d="M2.50394 40H15.3059C15.6938 40 17.6336 40 18.6034 38.1481L20.745 34.0588C20.9948 33.5819 21.125 33.0521 21.125 32.5138V0L1.34013 37.7778C0.758212 38.8889 1.34012 40 2.50394 40Z" fill="white"/>
<path d="M169 9.07289C169.001 9.84705 168.747 10.6 168.276 11.2147C167.804 11.8294 167.143 12.2715 166.395 12.4724C165.646 12.6732 164.853 12.6216 164.137 12.3254C163.421 12.0293 162.823 11.5053 162.435 10.8347C162.122 10.3004 161.957 9.69216 161.958 9.07289C161.958 8.14007 162.329 7.24546 162.99 6.58585C163.65 5.92623 164.545 5.55566 165.479 5.55566C166.413 5.55566 167.308 5.92623 167.969 6.58585C168.629 7.24546 169 8.14007 169 9.07289Z" fill="white"/>
<path opacity="0.65" fill-rule="evenodd" clip-rule="evenodd" d="M103.553 20.9373C103.677 20.877 103.753 20.7502 103.753 20.6127V15.5772C103.753 15.3726 103.919 15.2068 104.123 15.2068H107.486C107.691 15.2068 107.856 15.3726 107.856 15.5772V22.8197C107.856 22.9366 107.802 23.047 107.706 23.1152C105.585 24.6357 102.726 25.4479 100.024 25.4479C93.9369 25.4479 89.4536 21.3046 89.4536 15.5105C89.4536 9.71634 93.9369 5.56982 100.107 5.56982C103.367 5.56982 106.095 6.62831 107.972 8.62316C108.11 8.76938 108.097 8.9989 107.948 9.13438L105.598 11.2822C105.449 11.4182 105.22 11.4095 105.074 11.2695C103.721 9.96456 102.169 9.35771 100.321 9.35771C96.5575 9.35771 93.984 11.8582 93.984 15.5105C93.984 19.1062 96.5575 21.66 100.266 21.66C101.405 21.6833 102.533 21.435 103.553 20.9373ZM115.778 11.1309C115.778 11.4867 116.268 11.6662 116.542 11.4384C117.547 10.6006 118.927 10.1362 120.601 10.077C120.806 10.0697 120.972 10.2363 120.972 10.4409V13.6277C120.972 13.8433 120.789 14.0122 120.574 13.9966C120.377 13.9825 120.19 13.9722 119.989 13.9722C117.575 13.9722 115.975 15.2653 115.975 18.0937V24.7025C115.975 24.907 115.809 25.0729 115.604 25.0729H111.962C111.758 25.0729 111.592 24.907 111.592 24.7025V10.6607C111.592 10.4562 111.758 10.2903 111.962 10.2903H115.407C115.612 10.2903 115.778 10.4562 115.778 10.6607V11.1309ZM129.32 10.0705C127.105 10.0705 124.867 10.6439 123.276 11.6892C123.124 11.7889 123.076 11.9871 123.158 12.1494L124.331 14.4837C124.437 14.6952 124.712 14.754 124.909 14.6222C125.952 13.9242 127.371 13.5068 128.749 13.5068C130.875 13.5068 131.965 14.447 132.104 16.0777C132.121 16.2815 131.953 16.4479 131.748 16.4479H128.749C124.292 16.4479 122.473 18.2813 122.473 20.9202C122.473 23.5035 124.509 25.4479 127.933 25.4479C129.437 25.4479 130.638 25.0935 131.491 24.4132C131.788 24.1765 132.391 24.3747 132.391 24.7542V24.8553C132.391 25.0599 132.556 25.2257 132.761 25.2257H135.985C136.19 25.2257 136.356 25.0599 136.356 24.8553V16.711C136.356 12.1816 133.775 10.0705 129.32 10.0705ZM132.119 20.4497C132.119 20.4929 132.112 20.536 132.096 20.5764C131.593 21.8976 130.384 22.5411 128.993 22.5411C127.5 22.5411 126.595 21.8205 126.595 20.7437C126.595 19.7437 127.221 18.9937 129.203 18.9937H131.743C131.947 18.9937 132.113 19.1586 132.114 19.3625L132.119 20.4497ZM164.56 13.6537C164.705 13.6752 164.83 13.7725 164.872 13.9129C165.136 14.7862 165.262 15.6963 165.246 16.61V24.6928C165.246 24.8973 165.08 25.0632 164.876 25.0632H161.369C161.164 25.0632 160.998 24.8973 160.998 24.6928V17.2598C160.998 14.8709 159.936 13.7702 158.219 13.7702C156.312 13.7702 154.976 15.0115 154.976 17.6493V24.6976C154.976 24.9022 154.81 25.068 154.605 25.068H151.098C150.893 25.068 150.727 24.9022 150.727 24.6976V17.2646C150.727 14.8758 149.711 13.7751 147.948 13.7751C146.068 13.7751 144.732 15.0164 144.732 17.6542V24.7025C144.732 24.907 144.566 25.0729 144.361 25.0729H140.854C140.649 25.0729 140.483 24.907 140.483 24.7025V10.6608C140.483 10.4562 140.649 10.2904 140.854 10.2904H144.167C144.372 10.2904 144.538 10.4562 144.538 10.6608V10.9994C144.538 11.3427 144.988 11.5207 145.258 11.3085C146.295 10.4931 147.64 10.0706 149.142 10.0706C150.998 10.0706 152.606 10.7361 153.661 12.0672C153.82 12.2679 154.132 12.282 154.306 12.0944C155.492 10.8191 157.249 10.0706 159.254 10.0706C159.645 10.069 160.034 10.0973 160.42 10.1555C160.56 10.1766 160.672 10.2803 160.716 10.4147C160.998 11.2603 161.507 12.0122 162.189 12.5853C162.868 13.1559 163.689 13.5249 164.56 13.6537Z" fill="white"/>
<path fill-rule="evenodd" clip-rule="evenodd" d="M82.0881 5.93511C82.0881 5.72554 82.2526 5.55566 82.4561 5.55566H85.985C86.1882 5.55566 86.3531 5.72554 86.3531 5.93511V24.9468C86.3531 25.1564 86.1882 25.3263 85.985 25.3263H82.6475C82.4443 25.3263 82.2794 25.1564 82.2794 24.9468V24.6141C82.2794 24.2572 81.8187 24.076 81.5504 24.3011C80.5464 25.1422 79.2448 25.5557 77.6862 25.5557C73.5305 25.5557 70.3317 22.461 70.3317 17.6157C70.3317 12.7705 73.5305 9.67243 77.6862 9.67243C79.12 9.67243 80.3812 10.0473 81.3737 10.8342C81.6435 11.048 82.0881 10.8654 82.0881 10.5146V5.93511ZM74.6515 17.6073C74.6515 20.2719 76.2918 21.8775 78.4244 21.8775C80.5295 21.8775 82.1701 20.2753 82.1701 17.6073C82.1701 14.9393 80.5295 13.3337 78.4244 13.3337C76.2918 13.3337 74.6515 14.9427 74.6515 17.6073ZM60.8651 5.5749C61.154 5.5749 61.416 5.7491 61.5356 6.02033L69.7233 24.6353C69.8337 24.8864 69.6556 25.1714 69.3881 25.1714H65.7697C65.4731 25.1714 65.2055 24.9878 65.0907 24.7056L63.669 21.2051C63.612 21.064 63.478 20.9721 63.3297 20.9721H54.8697C54.7213 20.9721 54.5874 21.064 54.53 21.2051L53.1083 24.7056C52.9939 24.9878 52.7263 25.1714 52.4293 25.1714H48.9188C48.6516 25.1714 48.4735 24.8869 48.5835 24.6358L56.737 6.02143C56.8562 5.7496 57.1186 5.5749 57.4079 5.5749H60.8651ZM59.1078 10.0261L56.0532 17.5288H62.1624L59.1078 10.0261Z" fill="white"/>
<path fill-rule="evenodd" clip-rule="evenodd" d="M69.2967 29.3531V32.9442H70.2076V29.3531H69.2967ZM69.7507 27.6934C69.4127 27.6934 69.1922 27.9474 69.1922 28.2717C69.1922 28.5959 69.4182 28.8515 69.7507 28.8515C69.8233 28.8586 69.896 28.8484 69.9649 28.8215C70.0334 28.7945 70.0965 28.7515 70.1498 28.6951C70.2032 28.6388 70.2458 28.5703 70.2747 28.4941C70.3036 28.4178 70.3184 28.3355 70.3181 28.2525C70.3181 27.933 70.0902 27.6934 69.7507 27.6934ZM54.2686 28.8707C53.9699 28.8707 53.8091 29.0309 53.8091 29.3762V29.5224H54.693V30.3001H53.835V32.9442H52.8358V30.3032H52.3073V29.5255H52.8358V29.37C52.8358 28.5845 53.311 28.0697 54.1675 28.0697C54.4354 28.0581 54.7011 28.1239 54.9339 28.2595L54.6733 28.9936C54.554 28.9112 54.4128 28.8682 54.2686 28.8707ZM49.2939 31.067V32.1056L51.9319 32.1087V32.9442H48.1798V28.4435H51.8426V29.2805H49.2939V30.2576H51.5439V31.067H49.2939ZM56.4371 29.3762C56.4371 29.031 56.5979 28.8708 56.8967 28.8708C57.0401 28.8681 57.1802 28.9111 57.2984 28.9937L57.5604 28.2595C57.3277 28.1237 57.062 28.0579 56.794 28.0698C55.9375 28.0698 55.4624 28.5846 55.4624 29.37V29.5256H54.9339V30.3032H55.4624V32.9442H56.466V30.3001H57.3258V29.5224H56.4415L56.4371 29.3762ZM59.4602 29.1936C60.5064 29.1936 61.3125 29.9106 61.3125 31.0818C61.3125 31.1525 61.3018 31.2503 61.2925 31.3322V31.3323V31.3323L61.2888 31.3674H58.5974C58.6971 31.8216 59.0736 32.099 59.617 32.099C59.7811 32.1057 59.9446 32.0779 60.098 32.0174C60.2515 31.9568 60.3908 31.8648 60.5083 31.747L61.0561 32.3569C60.7266 32.743 60.2233 32.9442 59.5899 32.9442C58.3598 32.9442 57.5604 32.1639 57.5604 31.0705C57.5604 29.9771 58.3773 29.1936 59.4602 29.1936ZM58.892 30.2069C58.7319 30.3454 58.6245 30.5375 58.5893 30.7493H60.3404C60.3052 30.5375 60.1977 30.3454 60.0376 30.2069C59.8775 30.0684 59.6744 29.9924 59.465 29.9924C59.2552 29.9924 59.0522 30.0684 58.892 30.2069ZM63.9361 32.0779C63.4428 32.0779 63.0555 31.7048 63.0555 31.0705C63.0555 30.4362 63.4428 30.0615 63.9361 30.0615C64.091 30.0611 64.243 30.1077 64.3753 30.196C64.5072 30.2842 64.614 30.4107 64.6833 30.5611L65.4397 30.1215C65.1962 29.5245 64.6418 29.1936 63.9361 29.1936C62.8432 29.1936 62.063 29.9722 62.063 31.0705C62.063 32.1688 62.8432 32.9442 63.9361 32.9442C64.6418 32.9442 65.1962 32.6051 65.4397 32.0244L64.6833 31.5767C64.6154 31.7284 64.5091 31.856 64.3768 31.9447C64.2445 32.0334 64.0914 32.0796 63.9361 32.0779ZM68.0525 32.1095C68.2167 32.1118 68.3775 32.0645 68.5106 31.975L68.8167 32.7144C68.5399 32.8755 68.2167 32.9552 67.8898 32.943C66.9644 32.943 66.4222 32.5035 66.4222 31.6377V30.1411H65.8151V29.3304H66.4222V28.4435H67.5607V29.3304H68.5406V30.1411H67.5607V31.6231C67.5511 31.6865 67.5566 31.7511 67.577 31.8122C67.5978 31.8732 67.633 31.9292 67.6804 31.9759C67.7275 32.0227 67.7857 32.059 67.8498 32.0821C67.9143 32.1052 67.9836 32.1146 68.0525 32.1095ZM72.7741 31.7429L73.8078 29.1936H74.8203L73.2919 32.9442H72.2119L70.6928 29.1936H71.7761L72.7741 31.7429ZM78.9478 31.0818C78.9478 29.9106 78.141 29.1936 77.097 29.1936C76.0114 29.1936 75.1954 29.9771 75.1954 31.0705C75.1954 32.1639 75.9974 32.9442 77.2285 32.9442C77.8623 32.9442 78.3663 32.743 78.6958 32.3569L78.1458 31.747C78.0287 31.8651 77.889 31.9572 77.7355 32.0178C77.5821 32.0783 77.4183 32.106 77.2537 32.099C76.7104 32.099 76.3331 31.8216 76.2364 31.3674H78.9304C78.9319 31.3355 78.9349 31.2998 78.9374 31.2634V31.2633C78.9426 31.1995 78.9478 31.1335 78.9478 31.0818ZM76.219 30.7493C76.2553 30.5381 76.3632 30.3468 76.5236 30.209C76.6841 30.0711 76.8868 29.9956 77.0962 29.9956C77.3056 29.9956 77.5084 30.0711 77.6688 30.209C77.8289 30.3468 77.9368 30.5381 77.9731 30.7493H76.219ZM81.345 29.6338C81.852 29.3346 82.4442 29.1816 83.0461 29.1943C84.2498 29.1943 84.9477 29.7085 84.951 30.813V32.8939H83.8774V32.4381C83.6665 32.7706 83.2551 32.9442 82.6751 32.9442C81.7508 32.9442 81.1989 32.4868 81.1989 31.8429C81.1989 31.199 81.6911 30.7497 82.8949 30.7497H83.8018C83.8018 30.2972 83.5082 30.0345 82.8915 30.0345C82.4824 30.0304 82.0832 30.1494 81.7545 30.3734L81.345 29.6338ZM83.4656 32.1118C83.6176 32.0243 83.7354 31.8943 83.8018 31.7407V31.3612H83.0146C82.4872 31.3612 82.3115 31.5234 82.3115 31.7878C82.3115 32.0521 82.5539 32.2273 82.9564 32.2273C83.135 32.2398 83.3133 32.1993 83.4656 32.1118ZM88.4574 28.0684V29.765C88.3258 29.6229 88.165 29.5116 87.9867 29.4388C87.8081 29.366 87.6161 29.3333 87.4241 29.3432C86.4494 29.3432 85.7015 30.0436 85.7015 31.144C85.7015 32.2444 86.4494 32.9417 87.4241 32.9417C87.6258 32.9541 87.8274 32.9195 88.0134 32.8408C88.1998 32.762 88.3659 32.6411 88.4989 32.4872V32.8935H89.454V28.0684H88.4574ZM87.5976 32.1152C87.0987 32.1152 86.7133 31.751 86.7133 31.1487C86.7133 30.5463 87.0987 30.1805 87.5976 30.1805C88.0968 30.1805 88.4759 30.5417 88.4759 31.1487C88.4759 31.7557 88.0905 32.1152 87.5976 32.1152ZM92.2873 31.7429L93.3225 29.1936L94.3316 29.1969L92.804 32.9442H91.724L90.2041 29.1936H91.2859L92.2873 31.7429ZM98.0837 31.0818C98.0837 29.9106 97.2747 29.1936 96.2314 29.1936C95.1485 29.1936 94.3316 29.9771 94.3316 31.0705C94.3316 32.1639 95.1233 32.9442 96.3582 32.9442C97.0008 32.9442 97.4948 32.743 97.8273 32.3569L97.278 31.747C97.1613 31.8639 97.0227 31.9554 96.8707 32.0159C96.7184 32.0764 96.5561 32.1047 96.393 32.099C95.8515 32.099 95.4746 31.8216 95.3764 31.3674H98.0682C98.0689 31.3259 98.0723 31.2778 98.076 31.2301V31.2297C98.08 31.1768 98.0837 31.1244 98.0837 31.0818ZM95.359 30.7493C95.3953 30.5381 95.5032 30.3468 95.6633 30.209C95.8237 30.0711 96.0261 29.9956 96.2355 29.9956C96.4445 29.9956 96.6472 30.0711 96.8074 30.209C96.9678 30.3468 97.0753 30.5381 97.1116 30.7493H95.359ZM99.836 29.2381V29.7321C100.087 29.3731 100.522 29.1887 101.086 29.1937V30.1815C100.999 30.1667 100.931 30.1667 100.85 30.1667C100.267 30.1667 99.8842 30.491 99.8842 31.199V32.9442H98.8342V29.2381H99.836ZM103.812 31.975C103.695 32.0644 103.554 32.1116 103.409 32.1096C103.14 32.1096 102.983 31.9475 102.983 31.6232V30.1412H103.844V29.3304H102.989V28.4435H101.992V29.3304H101.461V30.1412H101.992V31.6378C101.992 32.5036 102.464 32.9431 103.273 32.9431C103.56 32.9548 103.844 32.8752 104.087 32.7144L103.812 31.975ZM104.948 32.9442V29.3531H105.859V32.9442H104.948ZM104.838 28.2717C104.838 27.9474 105.067 27.6934 105.405 27.6934C105.741 27.6934 105.969 27.933 105.963 28.2525C105.964 28.3347 105.949 28.4161 105.921 28.4916C105.893 28.5671 105.851 28.6351 105.798 28.6914C105.746 28.7476 105.684 28.7908 105.616 28.8184C105.549 28.846 105.476 28.8572 105.405 28.8515C105.067 28.8515 104.838 28.5959 104.838 28.2717ZM107.717 30.331C107.717 30.1413 107.9 29.9921 108.333 29.9921C108.667 29.9896 108.997 30.083 109.289 30.2629L109.608 29.5104C109.213 29.2929 108.775 29.1844 108.333 29.1942C107.366 29.1942 106.798 29.6807 106.798 30.3732C106.798 31.263 107.543 31.3813 108.124 31.4737C108.497 31.5328 108.802 31.5813 108.802 31.8149C108.802 32.016 108.635 32.1392 108.191 32.1392C107.786 32.138 107.388 32.017 107.04 31.7889L106.714 32.5511C107.153 32.8189 107.648 32.9543 108.15 32.9436C109.143 32.9436 109.715 32.4571 109.715 31.7873C109.718 30.9202 108.988 30.7942 108.41 30.6944C108.031 30.6291 107.717 30.5749 107.717 30.331ZM110.57 32.9442V29.3531H111.488V32.9442H110.57ZM110.466 28.2717C110.466 27.9474 110.688 27.6934 111.029 27.6934C111.37 27.6934 111.597 27.933 111.592 28.2525C111.592 28.3348 111.578 28.4163 111.549 28.4919C111.521 28.5675 111.479 28.6357 111.426 28.6919C111.373 28.7482 111.311 28.7914 111.242 28.8189C111.174 28.8464 111.101 28.8575 111.029 28.8515C110.694 28.8515 110.466 28.5959 110.466 28.2717ZM114.948 29.1948C114.722 29.186 114.498 29.2254 114.288 29.3104C114.079 29.3954 113.89 29.5241 113.734 29.6879V29.254H112.717V32.9442H113.781V31.1147C113.781 30.4358 114.151 30.1202 114.662 30.1202C115.133 30.1202 115.404 30.3947 115.404 30.9931V32.9442H116.47V30.827C116.471 29.7011 115.816 29.1948 114.948 29.1948ZM120.043 29.7335V29.2491H120.972V32.3959C120.972 33.7986 120.291 34.4444 119.066 34.4444C118.426 34.4444 117.801 34.2628 117.402 33.9264L117.795 33.1409C118.145 33.4201 118.565 33.5696 118.996 33.5681C119.691 33.5681 119.993 33.2082 119.993 32.5355V32.3673C119.854 32.5262 119.686 32.6505 119.501 32.7317C119.315 32.8129 119.116 32.8492 118.917 32.8382C117.976 32.8382 117.22 32.1066 117.22 31.0117C117.22 29.9168 117.976 29.1936 118.917 29.1936C119.393 29.1936 119.786 29.3668 120.043 29.7335ZM118.217 31.0134C118.217 31.5684 118.597 31.9401 119.116 31.9401V31.9451C119.641 31.9451 120.007 31.5684 120.007 31.0134C120.007 30.4584 119.635 30.0884 119.116 30.0884C118.597 30.0884 118.217 30.4584 118.217 31.0134ZM124.123 29.3531V32.9442H125.335V29.3531H124.123ZM124.73 27.6934C124.277 27.6934 123.974 27.9474 123.974 28.2717C123.974 28.5959 124.277 28.8515 124.73 28.8515C124.826 28.8575 124.922 28.8464 125.012 28.8189C125.103 28.7914 125.185 28.7482 125.255 28.6919C125.325 28.6357 125.381 28.5675 125.419 28.4919C125.457 28.4163 125.476 28.3348 125.475 28.2525C125.482 27.933 125.181 27.6934 124.73 27.6934ZM127.797 29.31C128.006 29.225 128.232 29.1857 128.457 29.1949C129.322 29.1949 129.977 29.7011 129.977 30.8271V32.9442H128.912V30.9931C128.912 30.3948 128.641 30.1203 128.168 30.1203C127.658 30.1203 127.289 30.4359 127.289 31.1147V32.9442H126.225V29.2541H127.242V29.688C127.398 29.5238 127.587 29.395 127.797 29.31ZM132.229 28.4435V29.2928H133.744V32.9442H134.842V29.2928H136.356V28.4435H132.229ZM138.257 29.1936C139.302 29.1936 140.108 29.9106 140.108 31.0818C140.108 31.1525 140.097 31.2503 140.088 31.3323V31.3324L140.084 31.3674H137.392C137.492 31.8216 137.869 32.099 138.412 32.099C138.576 32.1059 138.74 32.0782 138.894 32.0177C139.048 31.9571 139.188 31.865 139.305 31.747L139.855 32.3569C139.524 32.743 139.02 32.9442 138.387 32.9442C137.156 32.9442 136.356 32.1639 136.356 31.0705C136.356 29.9771 137.172 29.1936 138.257 29.1936ZM137.687 30.2069C137.527 30.3454 137.419 30.5375 137.384 30.7493H139.136C139.1 30.5375 138.993 30.3454 138.833 30.2069C138.673 30.0684 138.47 29.9924 138.26 29.9924C138.05 29.9924 137.847 30.0684 137.687 30.2069ZM140.859 28.0684V32.9442H141.984V28.0684H140.859ZM144.635 29.1936C145.679 29.1936 146.487 29.9106 146.487 31.0818C146.487 31.1629 146.487 31.2798 146.479 31.3674H143.786C143.883 31.8216 144.26 32.099 144.803 32.099C144.968 32.106 145.131 32.0783 145.285 32.0178C145.438 31.9572 145.578 31.8651 145.695 31.747L146.234 32.3569C145.903 32.743 145.4 32.9442 144.767 32.9442C143.536 32.9442 142.735 32.1639 142.735 31.0705C142.735 29.9771 143.552 29.1936 144.635 29.1936ZM144.067 30.209C143.907 30.3468 143.799 30.5381 143.763 30.7493H145.516C145.48 30.5381 145.372 30.3468 145.212 30.209C145.051 30.0711 144.849 29.9956 144.64 29.9956C144.43 29.9956 144.227 30.0711 144.067 30.209ZM150.059 29.2517V29.7352C149.922 29.554 149.75 29.4108 149.554 29.3172C149.359 29.2236 149.147 29.1822 148.934 29.1963C147.994 29.1963 147.238 29.9182 147.238 31.0178C147.238 32.1175 147.993 32.8411 148.934 32.8411C149.133 32.8522 149.332 32.816 149.516 32.7349C149.702 32.6538 149.869 32.5297 150.007 32.371V32.5389C150.007 33.2104 149.705 33.5697 149.01 33.5697C148.58 33.5712 148.161 33.422 147.812 33.1433L147.42 33.9273C147.819 34.2631 148.443 34.4444 149.082 34.4444C150.307 34.4444 150.99 33.7997 150.99 32.3995V29.2517H150.059ZM149.129 31.9379C148.614 31.9379 148.235 31.5668 148.235 31.0128C148.235 30.4588 148.614 30.0894 149.129 30.0894C149.645 30.0894 150.019 30.4588 150.019 31.0128C150.019 31.5668 149.648 31.9429 149.129 31.9429V31.9379ZM153.121 29.2381V29.7321C153.378 29.3731 153.81 29.1887 154.367 29.1937V30.1815C154.278 30.1667 154.212 30.1667 154.133 30.1667C153.549 30.1667 153.165 30.491 153.165 31.199V32.9442H152.115V29.2381H153.121ZM156.407 29.1943C155.865 29.182 155.331 29.335 154.873 29.6338L155.245 30.3734C155.541 30.1491 155.9 30.0301 156.268 30.0344C156.825 30.0344 157.088 30.2972 157.088 30.7497H156.268C155.184 30.7497 154.742 31.199 154.742 31.8429C154.742 32.4868 155.236 32.9442 156.072 32.9442C156.593 32.9442 156.963 32.7706 157.154 32.4381V32.8939H158.119V30.813C158.119 29.7084 157.492 29.1943 156.407 29.1943ZM157.088 31.7407C157.028 31.894 156.922 32.0238 156.786 32.1113C156.649 32.1988 156.489 32.2394 156.328 32.2273C155.964 32.2273 155.747 32.0521 155.747 31.7877C155.747 31.5234 155.905 31.3612 156.38 31.3612H157.088V31.7407ZM163.083 29.3434C163.305 29.2389 163.547 29.1883 163.79 29.1955C164.633 29.1955 165.243 29.7017 165.248 30.8275V32.9442H164.219V30.9934C164.219 30.3952 163.961 30.1208 163.545 30.1208C163.071 30.1208 162.755 30.4297 162.755 31.0871V32.9442H161.726V30.9934C161.726 30.3952 161.481 30.1208 161.053 30.1208C160.597 30.1208 160.274 30.4297 160.274 31.0871V32.9442H159.244V29.2498H160.229V29.6738C160.37 29.5146 160.543 29.3894 160.736 29.3068C160.928 29.2242 161.136 29.1862 161.343 29.1955C161.571 29.1829 161.799 29.2318 162.003 29.3375C162.207 29.4432 162.382 29.6021 162.51 29.7987C162.665 29.6036 162.862 29.4479 163.083 29.3434Z" fill="white"/>
</svg>
