<svg width="160" height="29" viewBox="0 0 160 29" fill="none" xmlns="http://www.w3.org/2000/svg">
<g clip-path="url(#clip0)">
<path fill-rule="evenodd" clip-rule="evenodd" d="M101.952 11.4025C102.384 12.3606 102.972 13.1958 103.717 13.9067C104.462 14.6174 105.337 15.1789 106.341 15.5905C107.344 16.0021 108.411 16.2092 109.541 16.2092C110.669 16.2092 111.736 16.0021 112.74 15.5905C113.743 15.1789 114.619 14.6174 115.363 13.9067C116.108 13.1958 116.696 12.3606 117.129 11.4025C117.56 10.4444 117.775 9.42581 117.775 8.34865C117.775 7.27075 117.56 6.25246 117.129 5.29405C116.696 4.33537 116.108 3.50157 115.363 2.78956C114.619 2.0791 113.743 1.51742 112.74 1.10552C111.736 0.69312 110.669 0.487305 109.541 0.487305C108.411 0.487305 107.344 0.69312 106.341 1.10552C105.337 1.51742 104.462 2.0791 103.717 2.78956C102.972 3.50157 102.384 4.33537 101.952 5.29405C101.521 6.25246 101.305 7.27075 101.305 8.34865C101.305 9.42581 101.521 10.4444 101.952 11.4025ZM106.505 7.12429C106.677 6.74272 106.913 6.40843 107.211 6.1245C107.508 5.84083 107.858 5.61574 108.258 5.45078C108.658 5.28634 109.085 5.20437 109.541 5.20437C109.995 5.20437 110.424 5.28634 110.823 5.45078C111.222 5.61574 111.572 5.84083 111.87 6.1245C112.167 6.40843 112.403 6.74272 112.576 7.12429C112.748 7.50611 112.835 7.91416 112.835 8.34865C112.835 8.78239 112.748 9.18987 112.576 9.57174C112.403 9.95328 112.167 10.2873 111.87 10.5715C111.572 10.856 111.222 11.0808 110.823 11.2455C110.424 11.4099 109.995 11.4925 109.541 11.4925C109.085 11.4925 108.658 11.4099 108.258 11.2455C107.858 11.0808 107.508 10.856 107.211 10.5715C106.913 10.2873 106.677 9.95328 106.505 9.57174C106.332 9.18987 106.246 8.78239 106.246 8.34865C106.246 7.91416 106.332 7.50611 106.505 7.12429Z" fill="#62696D"/>
<path fill-rule="evenodd" clip-rule="evenodd" d="M123.663 11.4025C124.094 12.3606 124.683 13.1958 125.43 13.9067C126.174 14.6174 127.047 15.1789 128.052 15.5905C129.056 16.0021 130.123 16.2092 131.252 16.2092C132.38 16.2092 133.447 16.0021 134.451 15.5905C135.456 15.1789 136.33 14.6174 137.076 13.9067C137.821 13.1958 138.409 12.3606 138.841 11.4025C139.271 10.4444 139.487 9.42581 139.487 8.34865C139.487 7.27075 139.271 6.25246 138.841 5.29405C138.409 4.33537 137.821 3.50157 137.076 2.78956C136.33 2.0791 135.456 1.51742 134.451 1.10552C133.447 0.69312 132.38 0.487305 131.252 0.487305C130.123 0.487305 129.056 0.69312 128.052 1.10552C127.047 1.51742 126.174 2.0791 125.43 2.78956C124.683 3.50157 124.094 4.33537 123.663 5.29405C123.232 6.25246 123.017 7.27075 123.017 8.34865C123.017 9.42581 123.232 10.4444 123.663 11.4025ZM128.216 7.12429C128.388 6.74272 128.624 6.40843 128.922 6.1245C129.22 5.84083 129.57 5.61574 129.969 5.45078C130.369 5.28634 130.797 5.20437 131.252 5.20437C131.707 5.20437 132.135 5.28634 132.534 5.45078C132.934 5.61574 133.283 5.84083 133.582 6.1245C133.878 6.40843 134.115 6.74272 134.287 7.12429C134.46 7.50611 134.546 7.91416 134.546 8.34865C134.546 8.78239 134.46 9.18987 134.287 9.57174C134.115 9.95328 133.878 10.2873 133.582 10.5715C133.283 10.856 132.934 11.0808 132.534 11.2455C132.135 11.4099 131.707 11.4925 131.252 11.4925C130.797 11.4925 130.369 11.4099 129.969 11.2455C129.57 11.0808 129.22 10.856 128.922 10.5715C128.624 10.2873 128.388 9.95328 128.216 9.57174C128.043 9.18987 127.957 8.78239 127.957 8.34865C127.957 7.91416 128.043 7.50611 128.216 7.12429Z" fill="#62696D"/>
<path fill-rule="evenodd" clip-rule="evenodd" d="M150.118 16.958C151.634 16.958 152.985 16.7832 154.17 16.4349C155.356 16.0853 156.357 15.5689 157.171 14.8882C157.985 14.205 158.607 13.3568 159.035 12.3411C159.462 11.3269 159.675 10.1535 159.675 8.82204C159.675 7.48951 159.462 6.31612 159.035 5.30132C158.607 4.28704 157.985 3.43748 157.171 2.75581C156.357 2.07282 155.356 1.56169 154.17 1.22059C152.985 0.880289 151.634 0.709473 150.118 0.709473H145.642V16.958H150.118ZM150.795 5.33718C152.005 5.33718 152.941 5.62249 153.603 6.19099C154.262 6.75869 154.593 7.63562 154.593 8.82204C154.593 10.0068 154.262 10.888 153.603 11.4653C152.941 12.0412 152.005 12.3303 150.795 12.3303V5.33718Z" fill="black"/>
<path fill-rule="evenodd" clip-rule="evenodd" d="M91.7286 0.487305L87.4668 6.52218L83.1813 0.487305H78.8457V16.2092H84.0928V10.553L87.4668 15.2669L90.8178 10.553V16.2092H96.0653V0.487305H91.7286Z" fill="black"/>
<path fill-rule="evenodd" clip-rule="evenodd" d="M60.1572 0.690918V16.958H70.5498V12.6903H65.1944V10.8115H70.3133V6.76325H65.1944V4.9584H70.3849V0.690918H60.1572Z" fill="black"/>
<path fill-rule="evenodd" clip-rule="evenodd" d="M46.6588 0.487305V6.54557L42.0516 0.487305H37.6689V16.2092H42.9024V10.1751L47.4852 16.2092H51.8935V0.487305H46.6588Z" fill="black"/>
<path fill-rule="evenodd" clip-rule="evenodd" d="M24.9414 16.2092H30.182V0.487305H24.9414V16.2092Z" fill="black"/>
<path fill-rule="evenodd" clip-rule="evenodd" d="M1.63331 11.5482C2.06629 12.5144 2.66573 13.342 3.43508 14.0305C4.20284 14.7201 5.11617 15.2541 6.1724 15.636C7.2297 16.0181 8.38202 16.2092 9.63143 16.2092C10.5601 16.2092 11.3846 16.1193 12.1044 15.9402C12.8258 15.7596 13.4422 15.5653 13.9543 15.3556C14.5466 15.1009 17.9456 13.6496 18.2036 9.3787H13.0381C12.9119 10.2765 12.4492 10.7436 12.1293 10.9084C11.8561 11.0585 11.5205 11.1929 11.1201 11.3128C10.7202 11.4328 10.2632 11.4925 9.75134 11.4925C9.23869 11.4925 8.76682 11.4108 8.33464 11.2447C7.90219 11.081 7.52585 10.8562 7.20562 10.572C6.88539 10.2876 6.63317 9.95452 6.44897 9.5724C6.26477 9.19086 6.1724 8.7828 6.1724 8.34826C6.1724 7.91374 6.26054 7.50621 6.4368 7.1241C6.61332 6.742 6.85733 6.40924 7.1691 6.12504C7.48219 5.84032 7.84609 5.61548 8.26186 5.45128C8.67817 5.28632 9.13443 5.20358 9.63143 5.20358C10.1118 5.20358 10.5398 5.25959 10.9164 5.37265C11.2922 5.48495 11.6166 5.60058 11.8887 5.72032C12.1925 5.88555 12.964 6.39151 13.0381 7.18294H18.2036C17.813 2.89683 14.306 1.53493 13.7142 1.29545C13.2017 1.08654 12.589 0.899727 11.8768 0.733731C11.1646 0.568761 10.3513 0.487305 9.43955 0.487305C8.28594 0.487305 7.19715 0.671032 6.1724 1.03746C5.14793 1.40466 4.25181 1.93271 3.48219 2.62163C2.71416 3.30952 2.10572 4.13744 1.65713 5.10284C1.2088 6.06825 0.984375 7.15083 0.984375 8.34826C0.984375 9.5164 1.20166 10.5825 1.63331 11.5482Z" fill="black"/>
<path d="M0.984375 26.8117H1.69078V23.429H3.55731V26.8117H4.26372V22.7915H0.984375V26.8117Z" fill="black"/>
<path d="M5.29688 26.8117H6.00328V25.5195H6.80159C7.68603 25.5195 8.40967 25.0486 8.40967 24.1469C8.40967 23.3256 7.81813 22.7915 6.88199 22.7915H5.29688V26.8117ZM6.00328 24.882V23.4348H6.82456C7.35293 23.4348 7.69177 23.6817 7.69177 24.1526C7.69177 24.5833 7.35867 24.882 6.82456 24.882H6.00328Z" fill="black"/>
<path d="M11.0514 26.8807C12.2861 26.8807 13.1591 25.9331 13.1591 24.8017C13.1591 23.6588 12.2976 22.7227 11.0628 22.7227C9.82801 22.7227 8.95508 23.6703 8.95508 24.8017C8.95508 25.9446 9.81656 26.8807 11.0514 26.8807ZM11.0628 26.2317C10.2645 26.2317 9.69592 25.5828 9.69592 24.8017C9.69592 24.0091 10.253 23.3716 11.0514 23.3716C11.8496 23.3716 12.4182 24.0206 12.4182 24.8017C12.4182 25.5942 11.8611 26.2317 11.0628 26.2317Z" fill="black"/>
<path d="M14.0127 26.8117H14.6789L16.7063 23.8827V26.8117H17.4012V22.7915H16.7407L14.7077 25.7262V22.7915H14.0127V26.8117Z" fill="black"/>
<path d="M19.8103 22.7227C19.0982 22.7227 18.6444 22.9639 18.2597 23.3314L18.6387 23.7909C18.9431 23.498 19.2877 23.3429 19.7643 23.3429C20.2123 23.3429 20.5225 23.5669 20.5225 23.9057C20.5225 24.2848 20.2066 24.4915 19.6954 24.4915H19.2475V25.0774H19.7012C20.2238 25.0774 20.6201 25.2497 20.6201 25.6632C20.6201 26.0422 20.2583 26.2662 19.8333 26.2662C19.2877 26.2662 18.857 26.0766 18.4951 25.7321L18.1104 26.2203C18.5583 26.651 19.0694 26.8807 19.8505 26.8807C20.7465 26.8807 21.3265 26.3696 21.3265 25.7033C21.3265 25.1807 20.9877 24.8764 20.5397 24.7385C20.8958 24.5892 21.2231 24.3192 21.2231 23.8024C21.2231 23.1763 20.643 22.7227 19.8103 22.7227Z" fill="black"/>
<path d="M22.1562 26.8117H24.0171C24.913 26.8117 25.5046 26.4269 25.5046 25.709C25.5046 25.1519 25.1772 24.882 24.7062 24.7212C25.0049 24.5661 25.2806 24.3077 25.2806 23.8253C25.2806 23.5439 25.1886 23.3256 25.0106 23.1476C24.7809 22.9178 24.4191 22.7915 23.9596 22.7915H22.1562V26.8117ZM22.8512 24.4858V23.4175H23.8677C24.3215 23.4175 24.5741 23.6127 24.5741 23.9286C24.5741 24.3077 24.2698 24.4858 23.8161 24.4858H22.8512ZM22.8512 26.1857V25.083H23.9711C24.5282 25.083 24.7981 25.284 24.7981 25.6229C24.7981 25.9962 24.5052 26.1857 24.0228 26.1857H22.8512Z" fill="black"/>
<path d="M28.2193 26.8807C29.4541 26.8807 30.3271 25.9331 30.3271 24.8017C30.3271 23.6588 29.4656 22.7227 28.2308 22.7227C26.996 22.7227 26.123 23.6703 26.123 24.8017C26.123 25.9446 26.9845 26.8807 28.2193 26.8807ZM28.2308 26.2317C27.4325 26.2317 26.8639 25.5828 26.8639 24.8017C26.8639 24.0091 27.421 23.3716 28.2193 23.3716C29.0176 23.3716 29.5862 24.0206 29.5862 24.8017C29.5862 25.5942 29.0291 26.2317 28.2308 26.2317Z" fill="black"/>
<path d="M30.7217 27.6732H31.342L31.4109 26.8117H34.2423V27.6732H34.828L34.9257 26.18H34.4261V22.7915H31.6234V23.3601C31.6234 24.704 31.4453 25.5195 31.1123 26.18H30.7217V27.6732ZM31.8646 26.18C32.1403 25.6229 32.301 24.8189 32.301 23.8884V23.429H33.7197V26.18H31.8646Z" fill="black"/>
<path d="M35.5557 26.8117H36.2218L38.2492 23.8827V26.8117H38.9441V22.7915H38.2836L36.2506 25.7262V22.7915H35.5557V26.8117Z" fill="black"/>
<path d="M40.9742 26.8117H41.6863V23.4462H42.9613V22.7915H39.6992V23.4462H40.9742V26.8117Z" fill="black"/>
<path d="M43.71 26.8117H46.7194V26.18H44.4164V25.1003H46.4322V24.4685H44.4164V23.4232H46.6906V22.7915H43.71V26.8117Z" fill="black"/>
<path d="M47.5575 26.8577C48.3501 26.8577 48.8153 26.3465 48.8153 23.7908V23.429H50.2051V26.8117H50.9115V22.7915H48.1548V23.5841C48.1548 25.9904 47.7758 26.2488 47.368 26.2488C47.2819 26.2488 47.19 26.2316 47.1383 26.2144L47.0693 26.7945C47.1785 26.8232 47.4025 26.8577 47.5575 26.8577Z" fill="black"/>
<path d="M51.9492 26.8117H53.5689C54.4992 26.8117 55.0851 26.3063 55.0851 25.4966C55.0851 24.6868 54.4762 24.2388 53.5745 24.2388H52.6499V22.7915H51.9492V26.8117ZM52.6499 26.18V24.8533H53.5459C54.0799 24.8533 54.3843 25.0773 54.3843 25.4908C54.3843 25.9445 54.0799 26.18 53.5573 26.18H52.6499Z" fill="black"/>
<path d="M57.5469 26.8117H58.2131L60.2404 23.8827V26.8117H60.9354V22.7915H60.2749L58.2418 25.7262V22.7915H57.5469V26.8117Z" fill="black"/>
<path d="M61.9775 26.8117H62.684V25.1175H64.6022V26.8117H65.3085V22.7915H64.6022V24.4628H62.684V22.7915H61.9775V26.8117Z" fill="black"/>
<path d="M66.3408 26.8117H67.0472V25.1175H68.9655V26.8117H69.6718V22.7915H68.9655V24.4628H67.0472V22.7915H66.3408V26.8117Z" fill="black"/>
<path d="M72.6227 26.8807C73.8574 26.8807 74.7304 25.9331 74.7304 24.8017C74.7304 23.6588 73.8689 22.7227 72.6341 22.7227C71.3993 22.7227 70.5264 23.6703 70.5264 24.8017C70.5264 25.9446 71.3879 26.8807 72.6227 26.8807ZM72.6341 26.2317C71.8358 26.2317 71.2672 25.5828 71.2672 24.8017C71.2672 24.0091 71.8243 23.3716 72.6227 23.3716C73.4209 23.3716 73.9895 24.0206 73.9895 24.8017C73.9895 25.5942 73.4324 26.2317 72.6341 26.2317Z" fill="black"/>
<path d="M75.584 26.8117H77.4448C78.3407 26.8117 78.9323 26.4269 78.9323 25.709C78.9323 25.1519 78.6049 24.882 78.134 24.7212C78.4326 24.5661 78.7083 24.3077 78.7083 23.8253C78.7083 23.5439 78.6164 23.3256 78.4383 23.1476C78.2087 22.9178 77.8468 22.7915 77.3874 22.7915H75.584V26.8117ZM76.279 24.4858V23.4175H77.2954C77.7492 23.4175 78.0019 23.6127 78.0019 23.9286C78.0019 24.3077 77.6975 24.4858 77.2438 24.4858H76.279ZM76.279 26.1857V25.083H77.3989C77.9559 25.083 78.2259 25.284 78.2259 25.6229C78.2259 25.9962 77.9329 26.1857 77.4505 26.1857H76.279Z" fill="black"/>
<path d="M79.3838 26.8117H80.1074L80.5209 25.841H82.4219L82.8297 26.8117H83.576L81.8074 22.7627H81.1526L79.3838 26.8117ZM80.7793 25.215L81.4686 23.607L82.1635 25.215H80.7793Z" fill="black"/>
<path d="M87.373 27.6732H87.9593L88.0565 26.1742H87.5574V22.7915H86.8566V26.1742H84.9724V22.7915H84.2666V26.8117H87.373V27.6732Z" fill="black"/>
<path d="M88.6855 26.8117H89.3518L91.3793 23.8827V26.8117H92.0744V22.7915H91.4139L89.3806 25.7262V22.7915H88.6855V26.8117Z" fill="black"/>
<path d="M95.0352 26.8807C96.2697 26.8807 97.1426 25.9331 97.1426 24.8017C97.1426 23.6588 96.2812 22.7227 95.0467 22.7227C93.8114 22.7227 92.9385 23.6703 92.9385 24.8017C92.9385 25.9446 93.7999 26.8807 95.0352 26.8807ZM95.0467 26.2317C94.2479 26.2317 93.6797 25.5828 93.6797 24.8017C93.6797 24.0091 94.2364 23.3716 95.0352 23.3716C95.8332 23.3716 96.4014 24.0206 96.4014 24.8017C96.4014 25.5942 95.8447 26.2317 95.0467 26.2317Z" fill="black"/>
<path d="M97.9951 26.8117H98.7017V25.1175H100.62V26.8117H101.326V22.7915H100.62V24.4628H98.7017V22.7915H97.9951V26.8117Z" fill="black"/>
<path d="M102.359 26.8117H103.066V25.1175H104.984V26.8117H105.691V22.7915H104.984V24.4628H103.066V22.7915H102.359V26.8117Z" fill="black"/>
<path d="M106.723 26.8117H108.343C109.273 26.8117 109.859 26.3063 109.859 25.4966C109.859 24.6868 109.25 24.2388 108.348 24.2388H107.423V22.7915H106.723V26.8117ZM107.423 26.18V24.8533H108.319C108.854 24.8533 109.158 25.0773 109.158 25.4908C109.158 25.9445 108.854 26.18 108.331 26.18H107.423ZM110.335 26.8117H111.036V22.7915H110.335V26.8117Z" fill="black"/>
<path d="M111.763 26.8117H112.572L113.635 25.2898L114.692 26.8117H115.525L114.066 24.7556L115.467 22.7915H114.657L113.652 24.233L112.653 22.7915H111.82L113.227 24.7672L111.763 26.8117Z" fill="black"/>
<path d="M117.974 26.8117H118.68V23.429H120.546V26.8117H121.253V22.7915H117.974V26.8117Z" fill="black"/>
<path d="M122.286 26.8117H122.993V25.5195H123.791C124.675 25.5195 125.399 25.0486 125.399 24.1469C125.399 23.3256 124.808 22.7915 123.871 22.7915H122.286V26.8117ZM122.993 24.882V23.4348H123.814C124.342 23.4348 124.681 23.6817 124.681 24.1526C124.681 24.5833 124.348 24.882 123.814 24.882H122.993Z" fill="black"/>
<path d="M128.041 26.8807C129.276 26.8807 130.148 25.9331 130.148 24.8017C130.148 23.6588 129.287 22.7227 128.053 22.7227C126.817 22.7227 125.944 23.6703 125.944 24.8017C125.944 25.9446 126.806 26.8807 128.041 26.8807ZM128.053 26.2317C127.254 26.2317 126.686 25.5828 126.686 24.8017C126.686 24.0091 127.242 23.3716 128.041 23.3716C128.839 23.3716 129.408 24.0206 129.408 24.8017C129.408 25.5942 128.851 26.2317 128.053 26.2317Z" fill="black"/>
<path d="M131.002 26.8117H134.011V26.18H131.708V25.1003H133.724V24.4685H131.708V23.4232H133.982V22.7915H131.002V26.8117Z" fill="black"/>
<path d="M134.849 26.8117H135.555V25.6459L136.181 25.0026L137.554 26.8117H138.41L136.664 24.5202L138.335 22.7915H137.468L135.555 24.8131V22.7915H134.849V26.8117Z" fill="black"/>
<path d="M139.998 26.8117H140.711V23.4462H141.986V22.7915H138.724V23.4462H139.998V26.8117Z" fill="black"/>
<path d="M144.653 26.8807C145.888 26.8807 146.762 25.9331 146.762 24.8017C146.762 23.6588 145.899 22.7227 144.665 22.7227C143.431 22.7227 142.558 23.6703 142.558 24.8017C142.558 25.9446 143.419 26.8807 144.653 26.8807ZM144.665 26.2317C143.867 26.2317 143.298 25.5828 143.298 24.8017C143.298 24.0091 143.855 23.3716 144.653 23.3716C145.451 23.3716 146.021 24.0206 146.021 24.8017C146.021 25.5942 145.463 26.2317 144.665 26.2317Z" fill="black"/>
<path d="M147.614 26.8117H148.321V25.5195H149.119C150.003 25.5195 150.727 25.0486 150.727 24.1469C150.727 23.3256 150.135 22.7915 149.2 22.7915H147.614V26.8117ZM148.321 24.882V23.4348H149.142C149.671 23.4348 150.009 23.6817 150.009 24.1526C150.009 24.5833 149.676 24.882 149.142 24.882H148.321Z" fill="black"/>
<path d="M153.368 26.8807C154.604 26.8807 155.477 25.9331 155.477 24.8017C155.477 23.6588 154.615 22.7227 153.38 22.7227C152.145 22.7227 151.272 23.6703 151.272 24.8017C151.272 25.9446 152.134 26.8807 153.368 26.8807ZM153.38 26.2317C152.582 26.2317 152.014 25.5828 152.014 24.8017C152.014 24.0091 152.57 23.3716 153.368 23.3716C154.167 23.3716 154.735 24.0206 154.735 24.8017C154.735 25.5942 154.179 26.2317 153.38 26.2317Z" fill="black"/>
<path d="M156.33 26.8117H158.191C159.087 26.8117 159.679 26.4269 159.679 25.709C159.679 25.1519 159.351 24.882 158.881 24.7212C159.179 24.5661 159.455 24.3077 159.455 23.8253C159.455 23.5439 159.362 23.3256 159.184 23.1476C158.955 22.9178 158.593 22.7915 158.134 22.7915H156.33V26.8117ZM157.025 24.4858V23.4175H158.041C158.495 23.4175 158.748 23.6127 158.748 23.9286C158.748 24.3077 158.444 24.4858 157.99 24.4858H157.025ZM157.025 26.1857V25.083H158.145C158.702 25.083 158.972 25.284 158.972 25.6229C158.972 25.9962 158.68 26.1857 158.197 26.1857H157.025Z" fill="black"/>
</g>
<defs>
<clipPath id="clip0">
<rect width="158.941" height="28" fill="white" transform="translate(0.984375 0.487305)"/>
</clipPath>
</defs>
</svg>
