<svg width="139" height="49" viewBox="0 0 139 49" fill="none" xmlns="http://www.w3.org/2000/svg">
<path fill-rule="evenodd" clip-rule="evenodd" d="M88.8227 23.0535C88.082 21.8349 86.9834 20.4889 85.6055 19.0752C86.9122 20.4984 87.868 21.8314 88.3859 22.9971C88.982 24.1374 89.2238 25.1406 88.9989 25.9298C87.9732 29.5105 78.2077 27.488 67.0394 21.4318C67.1015 21.1935 67.138 20.9451 67.138 20.6868C67.138 19.0591 65.8187 17.7415 64.192 17.7415C63.3994 17.7415 62.6818 18.0559 62.1527 18.5647C53.0012 12.7702 46.7593 6.25494 47.6583 3.08294C48.5194 0.0776099 55.5515 1.03132 64.3945 4.99772C66.4415 5.86826 68.5893 6.90478 70.7957 8.11252C72.0027 8.77569 73.1687 9.46097 74.2978 10.1582C72.6571 9.10693 70.9395 8.07287 69.1437 7.08127C67.0794 5.94054 65.0622 4.93421 63.1116 4.04752C53.9377 0.0776072 46.6737 -0.747322 45.7221 2.46257C44.6821 5.97388 51.551 13.1319 61.5765 19.3377C61.3677 19.7423 61.2477 20.2002 61.2477 20.6872C61.2477 22.3163 62.5657 23.6343 64.1924 23.6343C65.2401 23.6343 66.158 23.0858 66.6805 22.2609C78.3162 28.4105 88.4445 30.3291 89.5743 26.4971C89.8484 25.5757 89.5557 24.3943 88.8227 23.0535Z" fill="black"/>
<path fill-rule="evenodd" clip-rule="evenodd" d="M91.4618 14.4458C90.5148 19.8681 80.7616 26.5275 69.6729 29.3237C58.5818 32.1164 50.3578 29.9914 51.3034 24.5734C52.2108 19.3803 61.2029 13.05 71.701 10.0685C71.8895 10.6752 72.4561 11.1159 73.1249 11.1159C73.9481 11.1159 74.6148 10.4499 74.6148 9.62748C74.6148 9.53028 74.6046 9.43554 74.5871 9.34396C84.9136 7.09689 92.3664 9.27273 91.4618 14.4458ZM74.5274 9.13062C74.3228 8.55271 73.773 8.13867 73.1246 8.13867C72.3024 8.13867 71.6347 8.805 71.6347 9.62748C71.6347 9.69239 71.64 9.7559 71.6484 9.81906C59.7625 13.0205 49.4549 20.1733 48.4363 26.0187C47.3924 31.995 56.4586 34.3459 68.6911 31.2616C80.9254 28.177 91.6843 20.8298 92.7285 14.8511C93.7134 9.20887 85.7034 6.8011 74.5274 9.13062Z" fill="black"/>
<path fill-rule="evenodd" clip-rule="evenodd" d="M103.977 39.0047H104.986V37.8433H103.977V39.0047Z" fill="black"/>
<path fill-rule="evenodd" clip-rule="evenodd" d="M114.037 41.3585C114.351 40.9939 114.732 40.8115 115.181 40.8115C115.638 40.8115 116.027 40.9967 116.351 41.3669C116.675 41.7371 116.837 42.2873 116.837 43.0164C116.837 43.7796 116.679 44.34 116.365 44.6972C116.051 45.0544 115.662 45.233 115.198 45.233C114.73 45.233 114.341 45.0533 114.031 44.6944C113.72 44.3354 113.565 43.7649 113.565 42.9831C113.565 42.2648 113.722 41.7231 114.037 41.3585ZM113.363 48.0078C113.801 48.3278 114.375 48.4874 115.086 48.4874C115.684 48.4874 116.189 48.3752 116.598 48.1509C117.008 47.9264 117.307 47.6207 117.496 47.2334C117.685 46.8463 117.779 46.1888 117.779 45.2611V40.1101H116.848V40.8283C116.391 40.2595 115.812 39.9753 115.108 39.9753C114.581 39.9753 114.121 40.1062 113.731 40.368C113.34 40.6301 113.041 41.0013 112.836 41.482C112.63 41.9627 112.527 42.4873 112.527 43.0557C112.527 43.8828 112.752 44.5916 113.2 45.1824C113.65 45.7737 114.284 46.0691 115.103 46.0691C115.761 46.0691 116.311 45.8091 116.752 45.2891C116.756 45.9477 116.732 46.3797 116.679 46.5853C116.59 46.9221 116.418 47.1839 116.163 47.3709C115.909 47.5579 115.548 47.6516 115.08 47.6516C114.646 47.6516 114.304 47.5579 114.053 47.3709C113.866 47.2323 113.752 47.012 113.711 46.7088L112.729 46.5628C112.714 47.2064 112.926 47.6878 113.363 48.0078ZM107.533 46.0691V42.8147C107.533 42.0515 107.689 41.5333 108.002 41.2603C108.314 40.9873 108.685 40.8508 109.115 40.8508C109.385 40.8508 109.62 40.9115 109.82 41.0329C110.02 41.1546 110.159 41.3175 110.238 41.5213C110.316 41.7252 110.356 42.0329 110.356 42.4441V46.0691H111.366V42.4048C111.366 41.9375 111.347 41.6101 111.309 41.4231C111.249 41.135 111.145 40.8862 110.995 40.6767C110.846 40.4673 110.62 40.2981 110.319 40.169C110.018 40.0399 109.688 39.9753 109.329 39.9753C108.502 39.9753 107.87 40.3027 107.432 40.9574V40.1101H106.523V46.0691H107.533ZM103.976 46.0691H104.986V40.1101H103.976V46.0691ZM102.539 45.2049C102.39 45.2049 102.275 45.1807 102.194 45.1319C102.113 45.0835 102.056 45.0179 102.02 44.9358C101.985 44.8533 101.967 44.6684 101.967 44.38V40.8957H102.983V40.1101H101.967V38.0283L100.963 38.6342V40.1101H100.222V40.8957H100.963V44.3242C100.963 44.9302 101.004 45.3277 101.086 45.5165C101.168 45.7053 101.31 45.8579 101.512 45.9737C101.715 46.0895 101.999 46.1477 102.365 46.1477C102.59 46.1477 102.844 46.1176 103.128 46.0579L102.983 45.1656C102.799 45.1919 102.651 45.2049 102.539 45.2049ZM95.674 41.2715C95.9898 40.961 96.38 40.8059 96.8439 40.8059C97.3562 40.8059 97.7734 41.0002 98.0951 41.3894C98.3046 41.6399 98.4316 42.0161 98.4765 42.5171H95.1491C95.1828 41.9975 95.3579 41.582 95.674 41.2715ZM97.8425 45.0814C97.5807 45.2761 97.2646 45.3733 96.8944 45.3733C96.3969 45.3733 95.9814 45.1993 95.6488 44.8516C95.3158 44.5035 95.1305 44.0024 95.093 43.3477H99.5373C99.5408 43.228 99.5429 43.1382 99.5429 43.0782C99.5429 42.0947 99.2903 41.3315 98.7853 40.789C98.2804 40.2465 97.6295 39.9753 96.8326 39.9753C96.0095 39.9753 95.34 40.2522 94.8238 40.8059C94.3077 41.3596 94.0494 42.1375 94.0494 43.14C94.0494 44.1091 94.3049 44.8617 94.8154 45.3986C95.3259 45.9355 96.0172 46.2039 96.8888 46.2039C97.5807 46.2039 98.1492 46.0354 98.5944 45.6986C99.0397 45.3621 99.3446 44.8888 99.5092 44.2793L98.4653 44.1501C98.312 44.5765 98.1043 44.887 97.8425 45.0814ZM89.656 46.0691V43.7066L90.3687 43.0221L92.3382 46.0691H93.5838L91.0753 42.321L93.3536 40.1101H92.0462L89.656 42.534V37.843H88.6458V46.0691H89.656ZM85.812 46.0691V42.9494C85.812 42.5227 85.8682 42.1301 85.9805 41.7708C86.0552 41.5354 86.1805 41.3511 86.3566 41.2182C86.5324 41.0855 86.7307 41.0192 86.9514 41.0192C87.1981 41.0192 87.4451 41.0918 87.6921 41.2378L88.0398 40.3009C87.6882 40.0837 87.3423 39.9753 87.0019 39.9753C86.7661 39.9753 86.55 40.0427 86.3538 40.1774C86.1573 40.3122 85.9429 40.5908 85.7114 41.0136V40.1101H84.8022V46.0691H85.812ZM82.2267 43.4487C82.2267 43.894 82.1723 44.2305 82.0639 44.4586C81.9218 44.7544 81.6993 44.987 81.3962 45.1572C81.093 45.3277 80.747 45.4126 80.3582 45.4126C79.9653 45.4126 79.667 45.3228 79.4631 45.1431C79.2593 44.9638 79.1572 44.7393 79.1572 44.4698C79.1572 44.294 79.2042 44.1344 79.2975 43.9901C79.3912 43.8463 79.5238 43.7368 79.6961 43.6621C79.8681 43.587 80.1618 43.5196 80.5769 43.46C81.3102 43.355 81.86 43.228 82.2267 43.0782V43.4487ZM82.5127 46.0691H83.5678C83.4404 45.8411 83.3555 45.6025 83.3124 45.3537C83.2692 45.1049 83.2478 44.5112 83.2478 43.5722V42.2255C83.2478 41.7764 83.2309 41.4662 83.1973 41.2939C83.1376 41.0171 83.0327 40.788 82.8832 40.6066C82.7334 40.4252 82.4997 40.2746 82.1818 40.155C81.8639 40.0353 81.4502 39.9753 80.9418 39.9753C80.4291 39.9753 79.9782 40.0455 79.5895 40.1858C79.2003 40.3262 78.9028 40.5262 78.6972 40.7862C78.4915 41.0462 78.3438 41.3876 78.254 41.8101L79.2414 41.9448C79.3498 41.522 79.5172 41.2276 79.7439 41.061C79.9698 40.8946 80.3207 40.8115 80.7958 40.8115C81.3046 40.8115 81.6881 40.9255 81.946 41.1536C82.1369 41.322 82.2323 41.6118 82.2323 42.0234C82.2323 42.061 82.2302 42.1487 82.2267 42.2873C81.8414 42.4217 81.2407 42.5378 80.4253 42.635C80.0253 42.6838 79.726 42.7343 79.5277 42.7866C79.2582 42.8614 79.0161 42.9719 78.801 43.1175C78.5859 43.2635 78.4119 43.4572 78.2793 43.6982C78.1463 43.9396 78.08 44.2063 78.08 44.4979C78.08 44.9954 78.2558 45.4042 78.6073 45.7239C78.9589 46.0439 79.4621 46.2039 80.1168 46.2039C80.5133 46.2039 80.8846 46.1383 81.2306 46.0074C81.5765 45.8765 81.9365 45.6519 82.3109 45.334C82.3408 45.6147 82.4081 45.8597 82.5127 46.0691ZM69.9942 46.0691V39.0662L72.3735 46.0691H73.3553L75.7459 39.1841V46.0691H76.795V37.843H75.3304L73.3609 43.5666C73.1627 44.1463 73.0167 44.5859 72.9234 44.8853C72.8409 44.6158 72.71 44.2098 72.5304 43.6677L70.5833 37.843H68.945V46.0691H69.9942ZM60.5533 41.2715C60.8694 40.961 61.2596 40.8059 61.7235 40.8059C62.2357 40.8059 62.653 41.0002 62.9747 41.3894C63.1842 41.6399 63.3112 42.0161 63.3561 42.5171H60.0287C60.0624 41.9975 60.2371 41.582 60.5533 41.2715ZM62.7221 45.0814C62.4603 45.2761 62.1442 45.3733 61.774 45.3733C61.2761 45.3733 60.861 45.1993 60.528 44.8516C60.195 44.5035 60.0101 44.0024 59.9725 43.3477H64.4168C64.4204 43.228 64.4225 43.1382 64.4225 43.0782C64.4225 42.0947 64.1698 41.3315 63.6649 40.789C63.1596 40.2465 62.5087 39.9753 61.7122 39.9753C60.8891 39.9753 60.2196 40.2522 59.7034 40.8059C59.1869 41.3596 58.929 42.1375 58.929 43.14C58.929 44.1091 59.1841 44.8617 59.695 45.3986C60.2055 45.9355 60.8964 46.2039 61.7684 46.2039C62.4603 46.2039 63.0288 46.0354 63.474 45.6986C63.9193 45.3621 64.2239 44.8888 64.3888 44.2793L63.3449 44.1501C63.1916 44.5765 62.9838 44.887 62.7221 45.0814ZM56.9034 45.0084C56.6377 45.2519 56.3065 45.3733 55.91 45.3733C55.4163 45.3733 55.0159 45.1919 54.7093 44.8291C54.4026 44.4663 54.2493 43.8845 54.2493 43.0838C54.2493 42.2947 54.4082 41.7175 54.7261 41.3529C55.044 40.9883 55.4574 40.8059 55.9661 40.8059C56.303 40.8059 56.59 40.9069 56.8276 41.1087C57.0651 41.3108 57.2307 41.6119 57.3241 42.0122L58.3062 41.8606C58.19 41.2585 57.9265 40.7936 57.5149 40.4662C57.1034 40.1392 56.5742 39.9753 55.9268 39.9753C55.4145 39.9753 54.9401 40.096 54.5043 40.3374C54.0685 40.5785 53.7443 40.9406 53.531 41.4231C53.3177 41.9055 53.211 42.4687 53.211 43.1119C53.211 44.107 53.4587 44.8712 53.9545 45.4042C54.4503 45.9372 55.1058 46.2039 55.9212 46.2039C56.5721 46.2039 57.1213 46.0102 57.5683 45.6232C58.0153 45.2358 58.2929 44.7 58.4016 44.0154L57.4083 43.8863C57.337 44.3912 57.169 44.7656 56.9034 45.0084ZM48.1386 46.0691V42.8147C48.1386 42.0515 48.2947 41.5333 48.607 41.2603C48.9193 40.9873 49.2906 40.8508 49.7211 40.8508C49.9902 40.8508 50.225 40.9115 50.4253 41.0329C50.6253 41.1546 50.7646 41.3175 50.8432 41.5213C50.9218 41.7252 50.9611 42.0329 50.9611 42.4441V46.0691H51.971V42.4048C51.971 41.9375 51.9524 41.6101 51.9148 41.4231C51.8552 41.135 51.7503 40.8862 51.6008 40.6767C51.451 40.4673 51.2257 40.2981 50.9246 40.169C50.6232 40.0399 50.2934 39.9753 49.9341 39.9753C49.1074 39.9753 48.4751 40.3027 48.0375 40.9574V40.1101H47.1284V46.0691H48.1386ZM44.5417 43.4487C44.5417 43.894 44.4876 44.2305 44.3792 44.4586C44.2368 44.7544 44.0143 44.987 43.7115 45.1572C43.4083 45.3277 43.0623 45.4126 42.6732 45.4126C42.2806 45.4126 41.982 45.3228 41.7785 45.1431C41.5742 44.9638 41.4725 44.7393 41.4725 44.4698C41.4725 44.294 41.5192 44.1344 41.6128 43.9901C41.7062 43.8463 41.8392 43.7368 42.0111 43.6621C42.183 43.587 42.4767 43.5196 42.8922 43.46C43.6252 43.355 44.175 43.228 44.5417 43.0782V43.4487ZM44.828 46.0691H45.8828C45.7557 45.8411 45.6705 45.6025 45.6277 45.3537C45.5845 45.1049 45.5631 44.5112 45.5631 43.5722V42.2255C45.5631 41.7764 45.5463 41.4662 45.5126 41.2939C45.4526 41.0171 45.348 40.788 45.1982 40.6066C45.0487 40.4252 44.8147 40.2746 44.4968 40.155C44.1789 40.0353 43.7655 39.9753 43.2567 39.9753C42.7444 39.9753 42.2936 40.0455 41.9044 40.1858C41.5153 40.3262 41.2181 40.5262 41.0125 40.7862C40.8065 41.0462 40.6588 41.3876 40.569 41.8101L41.5567 41.9448C41.6651 41.522 41.8325 41.2276 42.0588 41.061C42.2851 40.8946 42.6357 40.8115 43.1111 40.8115C43.6196 40.8115 44.0031 40.9255 44.2613 41.1536C44.4522 41.322 44.5473 41.6118 44.5473 42.0234C44.5473 42.061 44.5455 42.1487 44.5417 42.2873C44.1564 42.4217 43.556 42.5378 42.7406 42.635C42.3402 42.6838 42.0409 42.7343 41.8427 42.7866C41.5735 42.8614 41.3311 42.9719 41.1163 43.1175C40.9009 43.2635 40.7272 43.4572 40.5942 43.6982C40.4616 43.9396 40.3953 44.2063 40.3953 44.4979C40.3953 44.9954 40.5711 45.4042 40.9227 45.7239C41.2742 46.0439 41.7774 46.2039 42.4322 46.2039C42.8283 46.2039 43.1999 46.1383 43.5459 46.0074C43.8918 45.8765 44.2518 45.6519 44.6259 45.334C44.6557 45.6147 44.7231 45.8597 44.828 46.0691ZM32.1747 46.0691V42.9775C32.1747 42.435 32.2288 42.0196 32.3376 41.7315C32.446 41.4438 32.6207 41.2248 32.8621 41.075C33.1035 40.9255 33.366 40.8508 33.6506 40.8508C34.0246 40.8508 34.2937 40.9631 34.4586 41.1873C34.6232 41.4118 34.7053 41.7483 34.7053 42.1975V46.0691H35.7155V42.607C35.7155 41.9936 35.8538 41.5473 36.1306 41.2687C36.4075 40.9901 36.7552 40.8508 37.1741 40.8508C37.4061 40.8508 37.6082 40.9048 37.7805 41.0136C37.9524 41.122 38.071 41.2652 38.1366 41.4427C38.2019 41.6203 38.2349 41.9111 38.2349 42.3154V46.0691H39.2391V41.9785C39.2391 41.2978 39.0802 40.7936 38.7623 40.4662C38.4444 40.1392 37.9896 39.9753 37.3987 39.9753C36.6429 39.9753 36.0296 40.3234 35.5583 41.0192C35.4422 40.6897 35.2432 40.4336 34.9608 40.2504C34.6783 40.0669 34.3162 39.9753 33.8748 39.9753C33.4783 39.9753 33.1249 40.0641 32.8144 40.242C32.5039 40.4195 32.2551 40.6543 32.0681 40.9462V40.1101H31.1645V46.0691H32.1747ZM28.3368 46.0691V42.9494C28.3368 42.5227 28.3929 42.1301 28.5048 41.7708C28.5799 41.5354 28.7052 41.3511 28.881 41.2182C29.0568 41.0855 29.255 41.0192 29.4757 41.0192C29.7228 41.0192 29.9694 41.0918 30.2164 41.2378L30.5642 40.3009C30.2126 40.0837 29.8666 39.9753 29.5263 39.9753C29.2905 39.9753 29.0747 40.0427 28.8782 40.1774C28.6817 40.3122 28.4676 40.5908 28.2357 41.0136V40.1101H27.3266V46.0691H28.3368ZM22.1082 41.3782C22.4412 41.0003 22.8601 40.8115 23.3651 40.8115C23.8626 40.8115 24.2788 41.0013 24.6135 41.381C24.9483 41.7606 25.116 42.3189 25.116 43.0557C25.116 43.8379 24.9493 44.4193 24.6163 44.801C24.2833 45.1825 23.8665 45.3733 23.3651 45.3733C22.8601 45.3733 22.4412 45.1835 22.1082 44.8038C21.7752 44.4242 21.6089 43.8526 21.6089 43.0894C21.6089 42.3266 21.7752 41.7561 22.1082 41.3782ZM21.3422 45.4014C21.8566 45.9365 22.531 46.2039 23.3651 46.2039C23.8851 46.2039 24.3647 46.0821 24.8044 45.839C25.2441 45.5958 25.5788 45.2547 25.809 44.8151C26.0388 44.3754 26.1539 43.7722 26.1539 43.0056C26.1539 42.0589 25.8939 41.3175 25.3739 40.7806C24.8539 40.2437 24.1844 39.9753 23.3651 39.9753C22.6282 39.9753 22.0033 40.196 21.491 40.6374C20.8773 41.1687 20.5706 41.9862 20.5706 43.0894C20.5706 44.0958 20.8278 44.8663 21.3422 45.4014ZM18.9997 46.0691V40.8957H20.1611V40.1101H18.9997V39.5602C18.9997 39.2009 19.0632 38.956 19.1902 38.8251C19.3176 38.6942 19.5345 38.6286 19.8411 38.6286C20.0282 38.6286 20.2264 38.6476 20.4362 38.6848L20.5875 37.8037C20.2433 37.7363 19.9292 37.7026 19.645 37.7026C19.2036 37.7026 18.8601 37.784 18.6151 37.9469C18.3702 38.1097 18.199 38.3219 18.1018 38.5837C18.0306 38.7784 17.9951 39.0757 17.9951 39.476V40.1101H17.1032V40.8957H17.9951V46.0691H18.9997ZM14.9259 46.0691V42.9494C14.9259 42.5227 14.9821 42.1301 15.0944 41.7708C15.1691 41.5354 15.2944 41.3511 15.4702 41.2182C15.646 41.0855 15.8442 41.0192 16.0649 41.0192C16.3119 41.0192 16.5586 41.0918 16.8056 41.2378L17.1534 40.3009C16.8018 40.0837 16.4558 39.9753 16.1154 39.9753C15.8796 39.9753 15.6638 40.0427 15.4674 40.1774C15.2709 40.3122 15.0568 40.5908 14.8249 41.0136V40.1101H13.9157V46.0691H14.9259ZM8.8237 41.2715C9.13985 40.961 9.52968 40.8059 9.99355 40.8059C10.5062 40.8059 10.923 41.0002 11.2448 41.3894C11.4543 41.6399 11.5817 42.0161 11.6266 42.5171H8.29913C8.33281 41.9975 8.50756 41.582 8.8237 41.2715ZM10.9925 45.0814C10.7304 45.2761 10.4146 45.3733 10.0441 45.3733C9.54653 45.3733 9.13143 45.1993 8.79844 44.8516C8.46545 44.5035 8.28018 44.0024 8.24299 43.3477H12.6869C12.6908 43.228 12.6926 43.1382 12.6926 43.0782C12.6926 42.0947 12.4403 41.3315 11.935 40.789C11.4301 40.2465 10.7792 39.9753 9.98233 39.9753C9.1595 39.9753 8.48966 40.2522 7.97351 40.8059C7.45736 41.3596 7.1991 42.1375 7.1991 43.14C7.1991 44.1091 7.45455 44.8617 7.96509 45.3986C8.47597 45.9355 9.16687 46.2039 10.0385 46.2039C10.7304 46.2039 11.2992 46.0354 11.7445 45.6986C12.1894 45.3621 12.4943 44.8888 12.6589 44.2793L11.6153 44.1501C11.462 44.5765 11.2543 44.887 10.9925 45.0814ZM1.08879 38.8139H3.1927C3.68675 38.8139 4.025 38.8381 4.20851 38.8869C4.49273 38.9655 4.72186 39.1272 4.8959 39.3721C5.06994 39.6171 5.1566 39.9118 5.1566 40.256C5.1566 40.7311 5.00888 41.0996 4.71344 41.3613C4.41799 41.6231 3.91868 41.754 3.21516 41.754H1.08879V38.8139ZM1.08879 46.0691V42.7248H3.19832C4.36185 42.7248 5.16608 42.4827 5.61135 41.9982C6.05627 41.514 6.27909 40.9217 6.27909 40.2223C6.27909 39.8146 6.19557 39.4406 6.02925 39.0999C5.86294 38.7595 5.64293 38.4949 5.36994 38.3062C5.09695 38.117 4.75835 37.989 4.35448 37.9216C4.06641 37.8693 3.6492 37.843 3.10322 37.843H0V46.0691H1.08879Z" fill="black"/>
<path fill-rule="evenodd" clip-rule="evenodd" d="M122.352 38.3945H123.344V45.2512H126.63V46.0842H122.352V38.3945Z" fill="black"/>
<path fill-rule="evenodd" clip-rule="evenodd" d="M130.614 43.2661C129.519 43.2433 128.276 43.4373 128.276 44.5096C128.276 45.1598 128.709 45.4679 129.222 45.4679C129.941 45.4679 130.398 45.0117 130.557 44.5436C130.592 44.4412 130.614 44.3271 130.614 44.2243V43.2661ZM130.763 46.084L130.683 45.3879H130.648C130.341 45.8216 129.747 46.2093 128.96 46.2093C127.842 46.2093 127.271 45.4223 127.271 44.6236C127.271 43.2889 128.458 42.5587 130.592 42.5703V42.4559C130.592 41.9997 130.466 41.1783 129.337 41.1783C128.823 41.1783 128.287 41.3379 127.899 41.5888L127.671 40.9271C128.127 40.6306 128.789 40.4365 129.485 40.4365C131.173 40.4365 131.584 41.5888 131.584 42.6955V44.7605C131.584 45.2398 131.607 45.7075 131.675 46.084H130.763Z" fill="black"/>
<path fill-rule="evenodd" clip-rule="evenodd" d="M134.193 43.8707C134.193 43.9963 134.215 44.1216 134.238 44.2356C134.432 44.9318 135.014 45.4107 135.744 45.4107C136.794 45.4107 137.421 44.5553 137.421 43.2889C137.421 42.1822 136.851 41.2352 135.778 41.2352C135.094 41.2352 134.455 41.7029 134.25 42.4675C134.227 42.5815 134.193 42.7184 134.193 42.878V43.8707ZM133.154 46.0841C133.177 45.7076 133.2 45.1486 133.2 44.6577V37.9839H134.193V41.452H134.215C134.569 40.8359 135.208 40.4366 136.098 40.4366C137.467 40.4366 138.437 41.5776 138.425 43.2545C138.425 45.2283 137.182 46.2093 135.949 46.2093C135.151 46.2093 134.512 45.9013 134.101 45.1714H134.067L134.021 46.0841H133.154Z" fill="black"/>
</svg>
