<svg width="126" height="37" viewBox="0 0 126 37" fill="none" xmlns="http://www.w3.org/2000/svg">
<g clip-path="url(#clip0)">
<path fill-rule="evenodd" clip-rule="evenodd" d="M119.46 28.0695C108.103 28.4155 77.1119 28.8345 48.6353 30.2351C27.8565 31.2561 7.4434 33.4498 1.85216 33.8717C0.954972 33.9392 0.263099 33.9392 0.620287 35.0867C1.00279 36.3214 1.62154 36.4058 2.98279 36.4086C8.55997 36.4254 27.4318 34.6901 48.0222 34.1951C76.7688 33.5005 109.47 34.0573 118.661 33.7451C120.123 33.6945 121.53 32.9436 122.278 30.8426C123.026 28.7417 123.172 27.957 119.46 28.0695ZM125.023 14.0323C124.202 14.9239 123.484 15.9167 122.638 16.7773C121.791 17.6379 120.053 19.7614 118.928 19.3086C118.158 18.9908 122.39 11.7514 124.37 9.12451C124.961 8.34264 124.978 7.86732 124.275 7.20076C123.88 6.84709 123.434 6.5542 122.953 6.3317C122.34 6.03076 121.867 6.1742 121.468 6.81264C120.36 8.58732 119.235 10.3311 118.023 12.0748C116.38 14.3895 112.862 19.7333 111.993 19.4436C110.797 19.0498 116.301 11.4195 117.786 9.50701C118.433 8.66326 118.464 8.25264 117.705 7.64232C117.381 7.38391 117.024 7.16926 116.644 7.00389C115.578 6.54264 115.128 6.67482 114.453 7.63389C113.987 8.28076 113.486 8.90795 113.07 9.60264C111.703 11.8526 110.538 14.2067 109.093 16.3836C107.838 18.2848 105.918 20.5742 104.514 19.9217C102.801 19.1258 107.962 12.6879 110.08 10.3142C110.868 9.43107 110.876 8.72232 110.139 7.5017C109.577 6.56795 109.233 6.47514 107.968 6.77045C106.981 7.00107 105.982 7.16701 104.874 7.38639C105.077 6.82389 105.785 5.53576 105.271 5.13639C103.468 3.73014 101.471 8.59014 101.027 10.1398C100.475 11.9679 98.8216 14.6904 97.691 16.2373C96.6503 17.6604 94.001 20.7964 93.2556 20.6698C91.8747 20.4364 93.5875 18.1779 93.7844 17.8573C95.2441 15.4639 96.7038 13.0761 98.1916 10.6911C98.7344 9.82764 98.5572 9.02889 97.5363 8.33982C96.4113 7.5917 95.9781 7.7042 95.2863 8.69983C92.7353 12.432 87.5097 21.4461 86.2075 20.6895C85.4931 20.2733 86.6688 18.5267 87.0288 18.0036C88.6235 15.6748 90.266 13.4248 91.8719 11.1214C92.1166 10.767 92.4344 10.2242 92.3135 9.90357C91.9928 8.99514 91.121 8.64639 90.2322 8.43264C89.4616 8.24701 89.1072 8.80389 88.7528 9.3242L85.8616 13.4867C85.2991 11.8386 84.4553 11.1692 82.7903 11.352C81.7581 11.4645 80.7147 11.4336 79.6769 11.4842C78.58 11.5348 77.4775 11.5489 76.3891 11.6839C75.4047 11.8076 75.1235 12.3533 75.2275 13.6048C75.2978 14.4486 75.686 14.817 76.6338 14.8564C77.0753 14.8761 77.5169 14.8564 77.9585 14.8564L78.2088 15.1236C77.5197 16.0208 76.901 16.9826 76.1247 17.7955C74.9772 18.9964 73.72 20.1045 71.9931 20.4195C70.9356 20.6136 70.3056 20.0511 70.4181 18.9908C70.482 18.2858 70.6429 17.593 70.8963 16.932C72.6878 12.5811 75.4807 8.88826 78.8866 5.66232C79.7303 4.87201 81.4375 3.13107 82.3881 3.52201C83.485 3.96357 80.8863 7.11357 80.5657 7.88139C80.3811 8.26124 80.346 8.69639 80.4669 9.10094C80.5876 9.50552 80.8556 9.85011 81.2181 10.0667C82.0619 10.5251 82.7791 10.2354 83.4035 9.64201C84.641 8.45232 85.2963 6.95607 85.5466 5.26857C85.6189 4.84189 85.5727 4.40353 85.413 4.00129C85.2535 3.59905 84.9863 3.24841 84.641 2.98763C83.9716 2.45607 83.2347 2.01732 82.5119 1.54763C80.29 0.0963845 79.3 0.116072 77.2356 1.78388C73.9267 4.48763 71.1373 7.77077 69.0035 11.4729C67.7575 13.5908 66.6522 15.7901 66.8181 18.3692C66.8255 18.5167 66.7785 18.6619 66.686 18.777C65.7803 19.7445 64.9085 20.7458 63.9156 21.6289C63.6063 21.9101 62.8891 22.152 62.4756 21.882C61.7697 21.4151 62.7569 19.8176 62.9397 19.5448C64.1941 17.5761 65.4428 15.6073 66.7197 13.6386C67.3525 12.6739 67.0966 11.6389 65.9913 10.9442C65.1025 10.3817 64.6244 10.5673 63.9775 11.7064C63.9078 11.805 63.8316 11.899 63.7497 11.9876C63.6541 11.8245 63.581 11.7064 63.505 11.5714C62.38 9.77701 61.0581 9.5492 59.4944 10.9723C57.277 13.0205 55.5147 15.5118 54.3222 18.2848C53.3125 20.5573 50.6913 23.4851 49.8222 23.2067C48.4947 22.782 52.916 15.717 54.7694 13.1436C55.6525 11.9201 55.5513 11.5011 54.2069 10.7558C53.0341 10.1117 52.5728 10.1258 52.03 11.0764C50.6238 13.5345 49.3047 16.0433 47.9716 18.5351C46.6385 21.027 44.0735 23.3586 43.6544 23.2095C42.5294 22.8073 45.0128 18.268 45.9944 16.6029C48.0025 13.1998 50.1935 9.89795 52.3647 6.59045C52.8288 5.88451 52.8428 5.36701 52.255 4.80732C52.0657 4.61945 51.8647 4.44378 51.6531 4.28139C50.7081 3.5867 50.4353 3.6092 49.825 4.59357C48.2191 7.18107 46.6722 9.76857 45.0888 12.3308C44.9622 12.5389 44.8216 12.7414 44.6472 13.0142C44.4644 12.733 44.335 12.5389 44.2141 12.342C43.5081 11.2029 42.6644 10.9808 41.5225 11.6979C41.0441 11.9973 40.6017 12.3502 40.2035 12.7498C38.3081 14.5907 36.8251 16.8127 35.8525 19.2692C35.0735 21.3336 32.7391 24.3092 29.6341 24.388C28.1125 24.4273 28.329 22.1942 29.1363 22.048C31.3514 21.64 33.3426 20.4405 34.7388 18.673C36.851 16.0883 36.7469 14.4795 35.1325 12.2942C34.3619 11.2508 33.7881 11.0961 32.6631 11.7317C30.3513 13.0648 27.8397 16.5495 26.5909 19.1314C25.3843 21.6205 25.7837 23.4036 27.8593 25.2205C29.2038 26.3961 30.5116 26.5789 32.0078 25.617C33.1694 24.8717 34.2241 23.9633 35.366 23.0998L36.4066 24.3936C37.2222 25.4061 38.0153 25.5523 39.1094 24.8183C39.7394 24.3964 40.3131 23.8958 40.915 23.4317C42.5716 25.7295 43.9272 25.8448 45.9381 23.8901C46.3572 23.4823 46.7481 23.0464 47.1672 22.6133C48.5735 25.2823 49.7772 25.5298 52.0497 23.6314C52.6769 23.1083 53.2506 22.5233 53.9144 21.9017C54.0466 24.0336 56.2713 24.6748 57.4469 23.8311C58.1585 23.3192 58.8025 22.7061 59.4803 22.1436C59.6744 22.5823 59.8206 23.0014 60.0428 23.3867C60.8641 24.8576 62.1522 25.2204 63.5388 24.2698C64.3083 23.7203 65.0156 23.0884 65.6481 22.3855C66.281 21.7076 66.8069 20.9258 67.361 20.2114C68.5956 21.2464 69.7628 22.2926 71.0003 23.2489C71.8019 23.8676 72.7413 24.4555 73.7791 23.8508C77.4747 21.6964 81.0522 19.4098 81.7132 14.6848L85.4594 14.0689C84.9335 15.0589 84.3513 16.0883 83.8366 17.1458C83.08 18.6954 83.2994 20.2001 84.2247 21.6008C85.1894 23.0605 86.4297 23.1983 87.6897 21.9692C88.4828 21.1958 89.1832 20.3267 90.0016 19.4183C90.0297 19.6686 90.0466 19.8289 90.0635 19.9808C90.1844 21.1367 90.4685 22.2308 91.6525 22.7539C92.8366 23.277 93.9025 22.782 94.7463 21.9889C95.8097 21.0502 96.7831 20.0144 97.6544 18.8951C99.2969 16.6451 100.799 14.3136 102.357 12.0129C103.257 10.6826 103.817 10.4633 105.532 10.8092C105.251 11.1495 104.989 11.4617 104.745 11.7879C103.338 13.6864 101.898 15.5848 101.392 17.9755C101.209 18.6991 101.259 19.4619 101.533 20.1559C101.808 20.8499 102.294 21.44 102.922 21.8426C104.281 22.7483 105.476 22.2814 106.598 21.4179C107.442 20.7626 108.249 20.0342 109.065 19.3451C109.345 19.8059 109.65 20.2509 109.979 20.6783C110.952 21.8173 112.012 21.9326 113.143 20.9595C113.769 20.3752 114.358 19.7524 114.906 19.0948C115.188 18.7855 115.438 18.4451 115.826 17.9698C115.865 18.4423 115.877 18.673 115.905 18.9008C116.234 21.5333 118.194 22.5176 120.405 21.0636C122.868 19.4492 124.508 17.0811 125.948 14.5808C126.063 14.3783 125.2 13.8355 125.02 14.0295L125.023 14.0323ZM33.9428 15.0673C33.7853 16.7211 31.3272 19.3705 29.5047 19.8317C30.8097 17.9614 31.8869 16.1529 33.9428 15.0673ZM37.8803 23.038C37.0619 22.3067 41.6097 13.1436 43.4631 15.0617C42.5266 18.4873 39.1938 24.1939 37.8888 23.0408L37.8803 23.038ZM56.3528 21.8004C55.3178 20.9989 61.5813 12.2379 62.5403 12.8004C64 13.6498 57.1966 22.4473 56.3613 21.8033L56.3528 21.8004ZM4.15559 26.6042C5.09215 27.1217 5.80653 26.8011 6.51528 25.4792C8.20278 22.363 11.8197 15.6354 11.9659 15.4076C12.0587 15.9701 12.1656 19.6686 12.4047 20.6923C12.7506 22.1886 14.8825 22.8973 16.1762 21.913C17.47 20.9286 20.9209 16.4736 22.5043 14.5667C22.3806 14.9633 20.0575 20.2873 18.9212 22.7567C18.7653 23.059 18.6938 23.3977 18.714 23.7372C18.7344 24.0767 18.8458 24.4045 19.0365 24.6861C19.464 25.3723 19.9393 26.0923 20.8506 26.0698C21.6943 26.0473 21.9137 25.2458 22.2568 24.627C24.895 19.7136 27.4825 14.7833 30.2191 9.91201C30.8744 8.75045 30.7366 7.85889 30.1375 6.8942C29.0406 5.13357 27.3025 5.02389 26.0087 6.5567C22.6506 10.5308 16.4265 18.5548 15.6025 18.192C15.2593 18.0429 16.2072 12.7161 16.795 10.0358C17.5037 6.79295 14.8881 5.8367 14.2075 5.69889C13.4481 5.5442 13.1247 5.62295 12.7281 6.36264C9.61372 12.1433 6.49092 17.9108 3.35965 23.6651C2.72122 24.8295 3.03904 25.9883 4.15559 26.6042Z" fill="black"/>
<path d="M59.4204 2.73727C57.2689 2.17477 55.9161 1.61227 54.6111 4.11539C53.3061 6.61851 53.5873 8.22445 54.4479 8.59007C55.9639 9.23414 62.5423 7.30195 63.3045 5.71851C64.1623 3.94101 60.9589 3.12258 59.4204 2.73727Z" fill="#62696D"/>
</g>
<defs>
<clipPath id="clip0">
<rect width="125.719" height="36" fill="white" transform="translate(0.265625 0.487305)"/>
</clipPath>
</defs>
</svg>
