<svg width="65" height="65" viewBox="0 0 65 65" fill="none" xmlns="http://www.w3.org/2000/svg">
<path fill-rule="evenodd" clip-rule="evenodd" d="M6.19963 40.9367L30.1006 0.973439C30.8791 -0.328153 32.7664 -0.323572 33.5385 0.981784L57.1769 40.945C57.9655 42.2783 57.0044 43.9632 55.4555 43.9632H7.91607C6.36275 43.9632 5.40234 42.2698 6.19963 40.9367ZM39.8749 29.2324L42.5397 29.6589C42.6326 29.0784 42.6808 28.4832 42.6808 27.877C42.6808 27.2707 42.6326 26.6755 42.5397 26.095L39.8005 26.5334C39.7622 26.3152 39.7173 26.0956 39.6654 25.8753L42.363 25.2181C42.0764 24.0417 41.6038 22.9368 40.9778 21.9356L38.7346 23.3383C38.6288 23.1345 38.5157 22.9339 38.395 22.7373L40.474 21.1966C39.7642 20.2387 38.9056 19.3952 37.9319 18.6992L36.5588 20.6202C36.3753 20.472 36.1836 20.3314 35.9834 20.1993L37.1845 18.2078C36.1764 17.5998 35.0658 17.1414 33.8843 16.8638L33.3542 19.1199C33.1259 19.0728 32.891 19.0346 32.6491 19.0056L33.006 16.6932C32.4252 16.6035 31.8299 16.557 31.2236 16.557C30.6173 16.557 30.022 16.6035 29.4412 16.6932L29.8079 19.0695C29.5722 19.1061 29.3402 19.1505 29.1124 19.2026L28.5629 16.8638C27.3814 17.1414 26.2708 17.5998 25.2627 18.2078L26.4981 20.2563C26.2966 20.3813 26.102 20.515 25.9148 20.6572L24.5153 18.6992C23.5416 19.3952 22.683 20.2387 21.9732 21.1966L24.0696 22.7502C23.956 22.9476 23.8507 23.1523 23.7543 23.3643L21.4694 21.9356C20.8434 22.9368 20.3708 24.0417 20.0842 25.2181L23.074 25.9465C23.0522 26.158 23.0371 26.3741 23.0289 26.5945L19.9075 26.095C19.8146 26.6755 19.7664 27.2707 19.7664 27.877C19.7664 28.2441 19.784 28.6071 19.8186 28.9652C19.8008 28.9008 19.7833 28.836 19.7663 28.7706C19.8627 30.437 20.4212 32.6969 22.0067 34.5324L21.9732 34.5573C22.683 35.5152 23.5416 36.3587 24.5153 37.0547L24.804 36.6508C25.0569 36.7718 25.3219 36.8845 25.5992 36.9881L25.2627 37.5461C26.2708 38.1541 27.3814 38.6125 28.5629 38.8901L28.8452 37.6888C29.1048 37.7111 29.3715 37.7274 29.6455 37.7372L29.4412 39.0607C30.022 39.1504 30.6173 39.1969 31.2236 39.1969C31.8299 39.1969 32.4252 39.1504 33.006 39.0607L32.7712 37.5397C33.0286 37.4858 33.2787 37.4209 33.5214 37.3459L33.8843 38.8901C35.0658 38.6125 36.1764 38.1541 37.1845 37.5461L36.2027 35.9182C36.3987 35.7611 36.5867 35.5963 36.7668 35.4246L37.9319 37.0547C38.9056 36.3587 39.7642 35.5152 40.474 34.5573L38.5399 33.124C38.6562 32.9179 38.7653 32.7091 38.8671 32.4985L40.9778 33.8183C41.6038 32.8171 42.0764 31.7122 42.363 30.5358L39.7561 29.9007C39.8037 29.6751 39.8432 29.4519 39.8749 29.2324ZM36.0316 28.6174L36.0383 28.6184C36.033 28.7436 36.0254 28.8672 36.0156 28.9894L35.9919 28.9836C36.009 28.8651 36.0223 28.7431 36.0316 28.6174ZM35.9289 27.153L31.6779 27.8333C31.6792 27.8412 31.6808 27.8551 31.6808 27.877C31.6808 27.8988 31.6792 27.9127 31.6779 27.9206L36.0259 28.6164C36.0137 28.7389 35.9965 28.86 35.9746 28.9794L31.6756 27.932C31.673 27.9428 31.6671 27.9605 31.651 27.9863L35.4647 30.371C35.4013 30.4817 35.3333 30.5895 35.2609 30.6941L31.6362 28.008C31.6123 28.0402 31.5784 28.0749 31.5354 28.1057L34.1739 31.797C34.068 31.8728 33.9587 31.9441 33.8461 32.0107L31.5037 28.1265C31.4617 28.1518 31.417 28.1703 31.3682 28.1817L32.3965 32.5581C32.2639 32.5829 32.135 32.6018 32.0113 32.6154L31.3282 28.1894C31.3007 28.1937 31.2663 28.1969 31.2236 28.1969C31.1809 28.1969 31.1465 28.1937 31.119 28.1894L30.4512 32.5165C30.327 32.4866 30.2049 32.4517 30.085 32.4119L31.079 28.1817C31.0302 28.1703 30.9855 28.1518 30.9435 28.1265L28.7749 31.7224C28.6777 31.6487 28.5835 31.5712 28.4927 31.49L30.9118 28.1057C30.8687 28.0749 30.8348 28.0402 30.811 28.008L27.5965 30.3901C27.5394 30.2914 27.486 30.1904 27.4364 30.0871L30.7961 27.9863C30.78 27.9605 30.7742 27.9428 30.7716 27.932L27.052 28.8382C27.0363 28.7337 27.0242 28.628 27.0159 28.5213L30.7693 27.9206C30.768 27.9127 30.7664 27.8988 30.7664 27.877C30.7664 27.8551 30.768 27.8412 30.7693 27.8333L27.1003 27.2461C27.122 27.1447 27.1472 27.0446 27.1757 26.9458L30.7716 27.8219C30.7742 27.8111 30.78 27.7934 30.7961 27.7676L27.6809 25.8197C27.7371 25.7303 27.7964 25.6431 27.8587 25.5581L30.811 27.7459C30.8348 27.7137 30.8687 27.679 30.9118 27.6482L28.7604 24.6383C28.8468 24.5722 28.9357 24.5092 29.0269 24.4494L30.9435 27.6274C30.9855 27.6021 31.0302 27.5836 31.079 27.5722L30.2154 23.8966C30.322 23.8648 30.4302 23.8368 30.54 23.8127L31.119 27.5645C31.1465 27.5602 31.1809 27.557 31.2236 27.557C31.2663 27.557 31.3007 27.5602 31.3282 27.5645L31.921 23.7233C32.0362 23.7332 32.1501 23.7473 32.2626 23.7655L31.3682 27.5722C31.417 27.5836 31.4617 27.6021 31.5037 27.6274L33.576 24.1912C33.6812 24.2442 33.7841 24.3012 33.8844 24.3619L31.5354 27.6482C31.5784 27.679 31.6123 27.7137 31.6362 27.7459L34.9678 25.277C35.0452 25.3667 35.1192 25.4595 35.1893 25.5551L31.651 27.7676C31.6671 27.7934 31.673 27.8111 31.6756 27.8219L35.8326 26.8091C35.8691 26.9219 35.9013 27.0366 35.9289 27.153ZM23.3787 29.1034L20.0263 29.6399C20.1239 29.9273 20.2304 30.2048 20.345 30.4723L23.6373 29.6702C23.5396 29.4788 23.4536 29.2889 23.3787 29.1034ZM25.0704 31.5666L22.2074 33.3569C22.4007 33.5629 22.601 33.757 22.8073 33.9391L25.5154 31.9323C25.3591 31.8164 25.2108 31.694 25.0704 31.5666ZM27.508 32.8678L25.569 35.5806C25.8135 35.669 26.0606 35.7456 26.3094 35.8106L28.0225 32.9699C27.8457 32.9428 27.6742 32.9086 27.508 32.8678ZM29.9509 32.9829L29.8209 33.5359L29.2314 36.0449C29.4634 36.0222 29.6938 35.9897 29.9217 35.9474L30.2801 33.6251L30.3894 32.9165C30.2407 32.9429 30.0945 32.965 29.9509 32.9829ZM32.0116 32.6177L32.1671 33.6251L32.3856 35.0411C32.5622 34.9385 32.7346 34.8284 32.9023 34.711L32.6262 33.5359L32.397 32.5602C32.2704 32.5847 32.1418 32.6039 32.0116 32.6177ZM33.8686 32.0479L34.3441 32.8363L34.525 33.1363C34.6286 32.997 34.7278 32.853 34.8224 32.7043L34.7337 32.5802L34.2093 31.8466C34.0976 31.9195 33.9838 31.9865 33.8686 32.0479ZM35.3344 30.7485L35.6315 30.9688C35.6754 30.8323 35.716 30.6932 35.7533 30.5515L35.5351 30.415C35.4727 30.5317 35.4056 30.6428 35.3344 30.7485ZM48.473 55.1192C48.473 53.6064 48.7486 52.5677 49.2998 52.0029C49.7336 51.5592 50.3639 51.3373 51.1907 51.3373C52.3952 51.3373 53.1658 51.8264 53.5027 52.8047C53.7017 53.3846 53.8012 54.1561 53.8012 55.1192V60.9886C53.8012 62.3753 53.6047 63.3863 53.2118 64.0217C52.8188 64.652 52.1298 64.9671 51.1448 64.9671C50.1649 64.9671 49.4734 64.6494 49.0702 64.0141C48.6721 63.3787 48.473 62.3703 48.473 60.9886V55.1192ZM52.2165 55.0284C52.2165 54.1762 52.1476 53.5737 52.0098 53.2207C51.8721 52.8627 51.5939 52.6837 51.1754 52.6837C50.7569 52.6837 50.466 52.8652 50.3027 53.2282C50.1394 53.5913 50.0577 54.1888 50.0577 55.0208V61.0037C50.0577 62.0173 50.1292 62.7081 50.2721 63.0762C50.415 63.4393 50.7033 63.6208 51.1371 63.6208C51.5709 63.6208 51.8593 63.4367 52.0022 63.0686C52.1451 62.6955 52.2165 62.0072 52.2165 61.0037V55.0284ZM38.6829 53.1224C38.5145 53.5963 38.4303 54.3376 38.4303 55.3461V60.8903C38.4303 62.2568 38.6344 63.2804 39.0427 63.9611C39.451 64.6368 40.1349 64.9747 41.0944 64.9747C42.0539 64.9747 42.725 64.6469 43.1078 63.9914C43.4956 63.3308 43.6896 62.3022 43.6896 60.9054V59.4456H42.1202V60.9205C42.1202 61.929 42.0488 62.635 41.9059 63.0384C41.7681 63.4418 41.4899 63.6435 41.0714 63.6435C40.658 63.6435 40.3773 63.4443 40.2293 63.0459C40.0864 62.6425 40.015 61.9366 40.015 60.9281V55.1646C40.015 54.3124 40.0941 53.6896 40.2523 53.2963C40.4156 52.898 40.7091 52.6988 41.1327 52.6988C41.3368 52.6988 41.5052 52.7492 41.6379 52.8501C41.7706 52.9459 41.8829 53.145 41.9748 53.4476C42.0717 53.7451 42.1202 54.3199 42.1202 55.1721V56.6546H43.6743V55.1797C43.6743 54.2166 43.5773 53.4451 43.3834 52.8652C43.0465 51.8567 42.2963 51.3499 41.1327 51.3449C40.3008 51.3499 39.6679 51.5945 39.2341 52.0786C39.0351 52.3004 38.8513 52.6484 38.6829 53.1224ZM0.425781 51.5037H2.95973C3.99066 51.5037 4.70006 51.8189 5.08794 52.4492C5.47581 53.0745 5.66975 53.9645 5.66975 55.1192L5.67741 60.9659C5.67741 62.3324 5.46561 63.3157 5.04201 63.9158C4.61841 64.5158 3.90645 64.8158 2.90614 64.8158H0.425781V51.5037ZM4.09273 55.0814C4.09273 54.2493 3.99321 53.6518 3.79417 53.2888C3.59513 52.9257 3.2685 52.7442 2.81428 52.7442H2.0028V63.5527H2.81428C3.12049 63.5527 3.36036 63.4922 3.53389 63.3712C3.90645 63.109 4.09273 62.3879 4.09273 61.208V55.0814ZM12.0915 51.5037H13.9977L16.2254 64.8158H14.7326L14.3498 62.2744H11.9078L11.5556 64.8158H10.0475L12.0915 51.5037ZM12.0838 61.0037H14.1508L13.0867 53.9695H13.0637L12.0838 61.0037ZM24.2012 51.5037H19.7534V52.8047H21.2385V64.8158H22.8156V52.8047H24.2012V51.5037ZM29.9875 51.5037H31.8937L34.1215 64.8158H32.6287L32.2459 62.2744H29.8038L29.4516 64.8158H27.9435L29.9875 51.5037ZM29.9799 61.0037H32.0468L30.9827 53.9695H30.9598L29.9799 61.0037ZM64.4258 51.5037H63.0248V56.7151L63.1856 60.565L60.0622 51.5037H58.8679V64.8158H60.3301V59.0372L60.2383 55.6789L63.2622 64.8158H64.4258V51.5037Z" fill="black"/>
</svg>
