<svg width="96" height="37" viewBox="0 0 96 37" fill="none" xmlns="http://www.w3.org/2000/svg">
<path fill-rule="evenodd" clip-rule="evenodd" d="M62.1845 9.44139C62.1845 13.7157 58.7274 17.1728 54.4531 17.1728C50.1788 17.1728 46.7217 13.7157 46.7217 9.44139C46.7217 5.1671 50.1945 1.70996 54.4531 1.70996C58.7274 1.70996 62.1845 5.1671 62.1845 9.44139ZM49.126 9.44139C49.126 12.3642 51.4988 14.7371 54.4217 14.7371C57.3445 14.7371 59.7174 12.3642 59.7174 9.44139C59.7174 6.51853 57.3445 4.14568 54.4217 4.14568C51.4988 4.14568 49.126 6.51853 49.126 9.44139ZM14.3203 1.98749H5.32031V34.9875H32.3203V25.9875L14.3203 1.98749ZM14.3003 25.9875V3.98749L30.8003 25.9875H14.3003ZM40.7503 4.28525H45.3075H45.3232V1.99096H33.8203V4.28525H38.346V16.8881H40.7503V4.28525ZM77.3804 16.8705V1.99121H74.9761V8.22231L75.1804 13.4803L67.7475 1.99121H64.9189V16.8862H67.3232V10.6551L67.0875 5.36574L74.4732 16.8705H77.3804ZM47.5523 32.7075V35.0018H38.3438V20.1047H40.748V32.7075H47.5523ZM52.9107 30.9947H59.385L60.9722 35.0018H63.5493L57.735 20.1047H54.6707L48.8565 35.0018H51.465L52.9107 30.9947ZM56.1479 22.4618L58.5207 28.7004H53.775L56.1479 22.4618ZM77.2364 30.7904C77.2364 33.399 75.4293 35.0018 72.3021 35.0018H65.875V20.1047H72.2236C75.1307 20.1047 76.7493 21.5504 76.7493 23.939C76.8436 25.2904 76.0421 26.5475 74.7693 27.0504C76.3721 27.5532 77.4093 29.109 77.2364 30.7904ZM71.925 22.399H68.2007V26.2332H71.8621C73.6064 26.2332 74.2507 25.5418 74.2507 24.3161C74.2507 23.0904 73.6379 22.399 71.925 22.399ZM74.8164 30.6018C74.8164 29.2347 74.1721 28.449 72.2236 28.449H68.2007V32.7075H72.1607C74.1721 32.7075 74.785 31.8747 74.785 30.6018H74.8164ZM85.261 35.2533C87.9167 35.2533 90.8238 33.9804 90.8238 30.7276C90.8238 27.8518 88.7495 27.0661 84.9781 26.2647C82.5109 25.7776 81.6467 25.3847 81.6467 24.3318C81.6467 23.0276 82.7309 22.1318 84.7424 22.1318C86.2352 21.8961 87.681 22.7604 88.1995 24.1747H90.6352C90.211 21.7547 88.4824 19.8218 84.7424 19.8218C81.8667 19.8218 79.2738 21.5347 79.2738 24.3318C79.2738 27.129 81.6624 27.9461 84.4281 28.5747C84.5272 28.5968 84.6243 28.6184 84.7195 28.6395C87.2648 29.2049 88.4038 29.458 88.4038 30.8061C88.4038 32.2047 87.2567 32.9904 85.2452 32.9904C82.8881 32.9904 81.7409 32.1104 81.2852 30.3818H78.8652C79.2581 32.959 81.0967 35.2533 85.261 35.2533Z" fill="black"/>
</svg>
