<svg width="136" height="31" viewBox="0 0 136 31" fill="none" xmlns="http://www.w3.org/2000/svg">
<mask id="path-1-outside-1" maskUnits="userSpaceOnUse" x="0.320312" y="0.487305" width="135" height="30" fill="black">
<rect fill="white" x="0.320312" y="0.487305" width="135" height="30"/>
<path d="M8.62001 22.1767C7.46256 22.1767 6.47533 21.9809 5.65831 21.5894C4.85831 21.1979 4.25405 20.6618 3.84554 19.9809C3.43703 19.3001 3.26682 18.5256 3.3349 17.6575H6.60299C6.58597 18.2533 6.78171 18.7384 7.19022 19.1128C7.59873 19.4873 8.2115 19.6745 9.02852 19.6745C9.74341 19.6745 10.2966 19.5213 10.6881 19.215C11.0966 18.9086 11.3009 18.5171 11.3009 18.0405C11.3009 17.615 11.0881 17.3086 10.6626 17.1213C10.237 16.9171 9.69235 16.7384 9.02852 16.5852C8.33065 16.415 7.6498 16.1937 6.98597 15.9213C6.32214 15.649 5.76894 15.2916 5.32639 14.849C4.90086 14.4065 4.68809 13.8362 4.68809 13.1384C4.68809 12.3213 4.92639 11.5979 5.40299 10.9682C5.8966 10.3213 6.56894 9.81922 7.42001 9.46177C8.27107 9.0873 9.2498 8.90007 10.3562 8.90007C11.8541 8.90007 13.037 9.25752 13.9051 9.97241C14.7732 10.6873 15.1902 11.6575 15.1562 12.883H12.0158C11.9987 12.4405 11.803 12.083 11.4285 11.8107C11.0711 11.5384 10.5945 11.4022 9.99873 11.4022C9.38597 11.4022 8.88384 11.5384 8.49235 11.8107C8.11788 12.066 7.93065 12.3894 7.93065 12.7809C7.93065 13.1554 8.15192 13.4448 8.59448 13.649C9.05405 13.8362 9.6498 14.015 10.3817 14.1852C11.1817 14.3724 11.8966 14.6022 12.5264 14.8745C13.1732 15.1469 13.6838 15.5043 14.0583 15.9469C14.4498 16.3724 14.6455 16.9341 14.6455 17.632C14.6455 18.5511 14.3817 19.3511 13.8541 20.032C13.3264 20.7128 12.603 21.2405 11.6838 21.615C10.7817 21.9894 9.76043 22.1767 8.62001 22.1767Z"/>
<path d="M30.5723 9.20645L28.3511 21.8703H25.466L25.5425 19.7767C25.0149 20.5086 24.3511 21.0958 23.5511 21.5384C22.7511 21.9639 21.8574 22.1767 20.8702 22.1767C19.5596 22.1767 18.5383 21.8192 17.8064 21.1043C17.0915 20.3724 16.734 19.3256 16.734 17.9639C16.734 17.4873 16.7851 16.9511 16.8872 16.3554L18.1638 9.20645H21.4319L20.2064 16.049C20.1894 16.2533 20.1638 16.449 20.1298 16.6362C20.1128 16.8065 20.1042 16.9682 20.1042 17.1213C20.1042 18.6533 20.8617 19.4192 22.3766 19.4192C23.2787 19.4192 24.0787 19.1043 24.7766 18.4745C25.4745 17.8277 25.9255 16.9511 26.1298 15.8448L27.3042 9.20645H30.5723Z"/>
<path d="M29.884 27.4873L33.0755 9.20645H36.0117L36.0372 11.0192C36.5479 10.3894 37.1606 9.87879 37.8755 9.4873C38.6074 9.09581 39.4755 8.90007 40.4798 8.90007C41.5181 8.90007 42.4202 9.13837 43.1862 9.61496C43.9691 10.0916 44.5734 10.7469 44.9989 11.5809C45.4245 12.3979 45.6372 13.3256 45.6372 14.3639C45.6372 15.4533 45.45 16.4745 45.0755 17.4277C44.7181 18.3639 44.2074 19.1894 43.5436 19.9043C42.8798 20.6192 42.0968 21.1809 41.1947 21.5894C40.3096 21.9809 39.3479 22.1767 38.3096 22.1767C37.3904 22.1767 36.5904 21.9809 35.9096 21.5894C35.2287 21.1809 34.7351 20.6958 34.4287 20.1341L33.1521 27.4873H29.884ZM38.1564 19.3171C38.9394 19.3171 39.6372 19.1299 40.25 18.7554C40.8798 18.3639 41.3734 17.8362 41.7308 17.1724C42.0883 16.5086 42.267 15.7596 42.267 14.9256C42.267 14.0235 41.9947 13.2745 41.45 12.6788C40.9053 12.066 40.1649 11.7596 39.2287 11.7596C38.4287 11.7596 37.7138 11.9554 37.084 12.3469C36.4713 12.7384 35.9862 13.2745 35.6287 13.9554C35.2713 14.6362 35.0925 15.4022 35.0925 16.2533C35.0925 17.1384 35.3734 17.8703 35.9351 18.449C36.4968 19.0277 37.2372 19.3171 38.1564 19.3171Z"/>
<path d="M52.5359 22.1767C50.8508 22.1767 49.5061 21.6916 48.5019 20.7213C47.5146 19.7511 47.021 18.4405 47.021 16.7894C47.021 15.7171 47.2082 14.7043 47.5827 13.7511C47.9572 12.7979 48.4933 11.9639 49.1912 11.249C49.8891 10.5171 50.7146 9.94688 51.6678 9.53837C52.638 9.11284 53.7019 8.90007 54.8593 8.90007C55.9827 8.90007 56.9444 9.12135 57.7444 9.5639C58.5444 9.98943 59.1572 10.5852 59.5827 11.3511C60.0253 12.1001 60.2465 12.9596 60.2465 13.9299C60.2465 14.3384 60.204 14.7639 60.1189 15.2065C60.0508 15.632 59.9657 16.0065 59.8636 16.3299H50.238C50.238 16.466 50.238 16.6107 50.238 16.7639C50.238 17.615 50.4933 18.2873 51.004 18.7809C51.5146 19.2575 52.1784 19.4958 52.9955 19.4958C53.6423 19.4958 54.2125 19.3511 54.7061 19.0618C55.2167 18.7554 55.6338 18.3639 55.9572 17.8873H59.2763C58.8848 18.7043 58.3487 19.4362 57.6678 20.083C57.004 20.7299 56.2295 21.2405 55.3444 21.615C54.4763 21.9894 53.5401 22.1767 52.5359 22.1767ZM54.4253 11.5554C53.6423 11.5554 52.9019 11.7852 52.204 12.2448C51.5061 12.6873 50.9955 13.3682 50.6721 14.2873H56.9784C56.9955 14.1511 57.004 14.0575 57.004 14.0065C57.021 13.2575 56.7912 12.6618 56.3146 12.2192C55.838 11.7767 55.2082 11.5554 54.4253 11.5554Z"/>
<path d="M60.8177 21.8703L63.0389 9.20645H65.9751L65.873 11.5043C66.4687 10.7213 67.2006 10.0916 68.0687 9.61496C68.9538 9.13837 69.9326 8.90007 71.0049 8.90007L70.3921 12.3469H69.4985C68.4092 12.3469 67.473 12.6022 66.69 13.1128C65.907 13.6065 65.3964 14.5256 65.1581 15.8703L64.0858 21.8703H60.8177Z"/>
<path d="M77.7195 22.1767C76.7833 22.1767 75.9748 21.9809 75.2939 21.5894C74.6301 21.1809 74.1365 20.6958 73.8131 20.1341L73.1493 21.8703H70.2386L73.4812 3.4873H76.7493L75.4727 10.815C75.9492 10.2873 76.545 9.83624 77.2599 9.46177C77.9918 9.0873 78.8684 8.90007 79.8897 8.90007C80.928 8.90007 81.8301 9.13837 82.5961 9.61496C83.362 10.0916 83.9578 10.7469 84.3833 11.5809C84.8258 12.3979 85.0471 13.3256 85.0471 14.3639C85.0471 15.4533 84.8599 16.4745 84.4854 17.4277C84.111 18.3639 83.5918 19.1894 82.928 19.9043C82.2641 20.6192 81.4897 21.1809 80.6046 21.5894C79.7195 21.9809 78.7578 22.1767 77.7195 22.1767ZM77.5407 19.3171C78.3237 19.3171 79.0216 19.1299 79.6344 18.7554C80.2641 18.3639 80.7578 17.8362 81.1152 17.1724C81.4727 16.5086 81.6514 15.7596 81.6514 14.9256C81.6514 14.0235 81.379 13.2745 80.8344 12.6788C80.2897 12.066 79.5493 11.7596 78.6131 11.7596C77.8301 11.7596 77.1237 11.9554 76.4939 12.3469C75.8812 12.7384 75.3961 13.2745 75.0386 13.9554C74.6812 14.6362 74.5024 15.4022 74.5024 16.2533C74.5024 17.1384 74.7748 17.8703 75.3195 18.449C75.8812 19.0277 76.6216 19.3171 77.5407 19.3171Z"/>
<path d="M90.0826 22.1767C88.6528 22.1767 87.606 21.8533 86.9421 21.2065C86.2783 20.5426 85.9464 19.7511 85.9464 18.832C85.9464 17.4703 86.5166 16.3894 87.657 15.5894C88.7975 14.7894 90.3209 14.3894 92.2272 14.3894H95.4443L95.4953 14.083C95.5124 13.9809 95.5209 13.8788 95.5209 13.7767C95.5379 13.6575 95.5464 13.5554 95.5464 13.4703C95.5464 12.8235 95.3421 12.3469 94.9336 12.0405C94.5251 11.7171 94.006 11.5554 93.3762 11.5554C92.7123 11.5554 92.0996 11.7171 91.5379 12.0405C90.9932 12.3469 90.6017 12.8065 90.3634 13.4192H87.1719C87.4272 12.5001 87.8698 11.7001 88.4996 11.0192C89.1464 10.3384 89.9294 9.81922 90.8485 9.46177C91.7677 9.0873 92.7634 8.90007 93.8358 8.90007C95.4017 8.90007 96.6272 9.24901 97.5124 9.94688C98.4145 10.6448 98.8655 11.649 98.8655 12.9596C98.8655 13.1299 98.857 13.3171 98.84 13.5213C98.823 13.7086 98.7975 13.8958 98.7634 14.083L97.3847 21.8703H94.4741L94.6017 19.9043C94.1081 20.5511 93.4868 21.0958 92.7379 21.5384C92.006 21.9639 91.1209 22.1767 90.0826 22.1767ZM91.2826 19.6235C92.2187 19.6235 92.9932 19.3171 93.606 18.7043C94.2358 18.0916 94.6953 17.3341 94.9847 16.432H92.2272C91.3762 16.432 90.7038 16.6022 90.2102 16.9426C89.7166 17.283 89.4698 17.7511 89.4698 18.3469C89.4698 18.7724 89.6315 19.0958 89.9549 19.3171C90.2953 19.5213 90.7379 19.6235 91.2826 19.6235Z"/>
<path d="M99.679 21.8703L102.896 3.4873H106.164L104.836 11.1469C105.364 10.466 106.019 9.92135 106.802 9.51284C107.602 9.10433 108.479 8.90007 109.432 8.90007C110.998 8.90007 112.122 9.39369 112.802 10.3809C113.5 11.3682 113.688 12.815 113.364 14.7213L112.088 21.8703H108.819L110.045 15.0277C110.232 13.9384 110.156 13.1043 109.815 12.5256C109.475 11.9469 108.828 11.6575 107.875 11.6575C106.973 11.6575 106.173 11.9809 105.475 12.6277C104.777 13.2745 104.317 14.1767 104.096 15.3341V15.3086L102.947 21.8703H99.679Z"/>
<path d="M119.059 7.31709C118.463 7.31709 117.969 7.13837 117.578 6.78092C117.204 6.40645 117.016 5.94688 117.016 5.4022C117.016 4.85752 117.204 4.40645 117.578 4.04901C117.969 3.67454 118.463 3.4873 119.059 3.4873C119.655 3.4873 120.14 3.67454 120.514 4.04901C120.906 4.40645 121.101 4.85752 121.101 5.4022C121.101 5.94688 120.906 6.40645 120.514 6.78092C120.14 7.13837 119.655 7.31709 119.059 7.31709ZM114.514 21.8703L116.735 9.20645H120.004L117.782 21.8703H114.514Z"/>
<path d="M125.728 22.1767C124.57 22.1767 123.583 21.9809 122.766 21.5894C121.966 21.1979 121.362 20.6618 120.953 19.9809C120.545 19.3001 120.375 18.5256 120.443 17.6575H123.711C123.694 18.2533 123.889 18.7384 124.298 19.1128C124.706 19.4873 125.319 19.6745 126.136 19.6745C126.851 19.6745 127.404 19.5213 127.796 19.215C128.204 18.9086 128.409 18.5171 128.409 18.0405C128.409 17.615 128.196 17.3086 127.77 17.1213C127.345 16.9171 126.8 16.7384 126.136 16.5852C125.438 16.415 124.757 16.1937 124.094 15.9213C123.43 15.649 122.877 15.2916 122.434 14.849C122.009 14.4065 121.796 13.8362 121.796 13.1384C121.796 12.3213 122.034 11.5979 122.511 10.9682C123.004 10.3213 123.677 9.81922 124.528 9.46177C125.379 9.0873 126.357 8.90007 127.464 8.90007C128.962 8.90007 130.145 9.25752 131.013 9.97241C131.881 10.6873 132.298 11.6575 132.264 12.883H129.123C129.106 12.4405 128.911 12.083 128.536 11.8107C128.179 11.5384 127.702 11.4022 127.106 11.4022C126.494 11.4022 125.992 11.5384 125.6 11.8107C125.226 12.066 125.038 12.3894 125.038 12.7809C125.038 13.1554 125.26 13.4448 125.702 13.649C126.162 13.8362 126.757 14.015 127.489 14.1852C128.289 14.3724 129.004 14.6022 129.634 14.8745C130.281 15.1469 130.792 15.5043 131.166 15.9469C131.557 16.3724 131.753 16.9341 131.753 17.632C131.753 18.5511 131.489 19.3511 130.962 20.032C130.434 20.7128 129.711 21.2405 128.792 21.615C127.889 21.9894 126.868 22.1767 125.728 22.1767Z"/>
</mask>
<path d="M8.62001 22.1767C7.46256 22.1767 6.47533 21.9809 5.65831 21.5894C4.85831 21.1979 4.25405 20.6618 3.84554 19.9809C3.43703 19.3001 3.26682 18.5256 3.3349 17.6575H6.60299C6.58597 18.2533 6.78171 18.7384 7.19022 19.1128C7.59873 19.4873 8.2115 19.6745 9.02852 19.6745C9.74341 19.6745 10.2966 19.5213 10.6881 19.215C11.0966 18.9086 11.3009 18.5171 11.3009 18.0405C11.3009 17.615 11.0881 17.3086 10.6626 17.1213C10.237 16.9171 9.69235 16.7384 9.02852 16.5852C8.33065 16.415 7.6498 16.1937 6.98597 15.9213C6.32214 15.649 5.76894 15.2916 5.32639 14.849C4.90086 14.4065 4.68809 13.8362 4.68809 13.1384C4.68809 12.3213 4.92639 11.5979 5.40299 10.9682C5.8966 10.3213 6.56894 9.81922 7.42001 9.46177C8.27107 9.0873 9.2498 8.90007 10.3562 8.90007C11.8541 8.90007 13.037 9.25752 13.9051 9.97241C14.7732 10.6873 15.1902 11.6575 15.1562 12.883H12.0158C11.9987 12.4405 11.803 12.083 11.4285 11.8107C11.0711 11.5384 10.5945 11.4022 9.99873 11.4022C9.38597 11.4022 8.88384 11.5384 8.49235 11.8107C8.11788 12.066 7.93065 12.3894 7.93065 12.7809C7.93065 13.1554 8.15192 13.4448 8.59448 13.649C9.05405 13.8362 9.6498 14.015 10.3817 14.1852C11.1817 14.3724 11.8966 14.6022 12.5264 14.8745C13.1732 15.1469 13.6838 15.5043 14.0583 15.9469C14.4498 16.3724 14.6455 16.9341 14.6455 17.632C14.6455 18.5511 14.3817 19.3511 13.8541 20.032C13.3264 20.7128 12.603 21.2405 11.6838 21.615C10.7817 21.9894 9.76043 22.1767 8.62001 22.1767Z" fill="black"/>
<path d="M30.5723 9.20645L28.3511 21.8703H25.466L25.5425 19.7767C25.0149 20.5086 24.3511 21.0958 23.5511 21.5384C22.7511 21.9639 21.8574 22.1767 20.8702 22.1767C19.5596 22.1767 18.5383 21.8192 17.8064 21.1043C17.0915 20.3724 16.734 19.3256 16.734 17.9639C16.734 17.4873 16.7851 16.9511 16.8872 16.3554L18.1638 9.20645H21.4319L20.2064 16.049C20.1894 16.2533 20.1638 16.449 20.1298 16.6362C20.1128 16.8065 20.1042 16.9682 20.1042 17.1213C20.1042 18.6533 20.8617 19.4192 22.3766 19.4192C23.2787 19.4192 24.0787 19.1043 24.7766 18.4745C25.4745 17.8277 25.9255 16.9511 26.1298 15.8448L27.3042 9.20645H30.5723Z" fill="black"/>
<path d="M29.884 27.4873L33.0755 9.20645H36.0117L36.0372 11.0192C36.5479 10.3894 37.1606 9.87879 37.8755 9.4873C38.6074 9.09581 39.4755 8.90007 40.4798 8.90007C41.5181 8.90007 42.4202 9.13837 43.1862 9.61496C43.9691 10.0916 44.5734 10.7469 44.9989 11.5809C45.4245 12.3979 45.6372 13.3256 45.6372 14.3639C45.6372 15.4533 45.45 16.4745 45.0755 17.4277C44.7181 18.3639 44.2074 19.1894 43.5436 19.9043C42.8798 20.6192 42.0968 21.1809 41.1947 21.5894C40.3096 21.9809 39.3479 22.1767 38.3096 22.1767C37.3904 22.1767 36.5904 21.9809 35.9096 21.5894C35.2287 21.1809 34.7351 20.6958 34.4287 20.1341L33.1521 27.4873H29.884ZM38.1564 19.3171C38.9394 19.3171 39.6372 19.1299 40.25 18.7554C40.8798 18.3639 41.3734 17.8362 41.7308 17.1724C42.0883 16.5086 42.267 15.7596 42.267 14.9256C42.267 14.0235 41.9947 13.2745 41.45 12.6788C40.9053 12.066 40.1649 11.7596 39.2287 11.7596C38.4287 11.7596 37.7138 11.9554 37.084 12.3469C36.4713 12.7384 35.9862 13.2745 35.6287 13.9554C35.2713 14.6362 35.0925 15.4022 35.0925 16.2533C35.0925 17.1384 35.3734 17.8703 35.9351 18.449C36.4968 19.0277 37.2372 19.3171 38.1564 19.3171Z" fill="black"/>
<path d="M52.5359 22.1767C50.8508 22.1767 49.5061 21.6916 48.5019 20.7213C47.5146 19.7511 47.021 18.4405 47.021 16.7894C47.021 15.7171 47.2082 14.7043 47.5827 13.7511C47.9572 12.7979 48.4933 11.9639 49.1912 11.249C49.8891 10.5171 50.7146 9.94688 51.6678 9.53837C52.638 9.11284 53.7019 8.90007 54.8593 8.90007C55.9827 8.90007 56.9444 9.12135 57.7444 9.5639C58.5444 9.98943 59.1572 10.5852 59.5827 11.3511C60.0253 12.1001 60.2465 12.9596 60.2465 13.9299C60.2465 14.3384 60.204 14.7639 60.1189 15.2065C60.0508 15.632 59.9657 16.0065 59.8636 16.3299H50.238C50.238 16.466 50.238 16.6107 50.238 16.7639C50.238 17.615 50.4933 18.2873 51.004 18.7809C51.5146 19.2575 52.1784 19.4958 52.9955 19.4958C53.6423 19.4958 54.2125 19.3511 54.7061 19.0618C55.2167 18.7554 55.6338 18.3639 55.9572 17.8873H59.2763C58.8848 18.7043 58.3487 19.4362 57.6678 20.083C57.004 20.7299 56.2295 21.2405 55.3444 21.615C54.4763 21.9894 53.5401 22.1767 52.5359 22.1767ZM54.4253 11.5554C53.6423 11.5554 52.9019 11.7852 52.204 12.2448C51.5061 12.6873 50.9955 13.3682 50.6721 14.2873H56.9784C56.9955 14.1511 57.004 14.0575 57.004 14.0065C57.021 13.2575 56.7912 12.6618 56.3146 12.2192C55.838 11.7767 55.2082 11.5554 54.4253 11.5554Z" fill="black"/>
<path d="M60.8177 21.8703L63.0389 9.20645H65.9751L65.873 11.5043C66.4687 10.7213 67.2006 10.0916 68.0687 9.61496C68.9538 9.13837 69.9326 8.90007 71.0049 8.90007L70.3921 12.3469H69.4985C68.4092 12.3469 67.473 12.6022 66.69 13.1128C65.907 13.6065 65.3964 14.5256 65.1581 15.8703L64.0858 21.8703H60.8177Z" fill="black"/>
<path d="M77.7195 22.1767C76.7833 22.1767 75.9748 21.9809 75.2939 21.5894C74.6301 21.1809 74.1365 20.6958 73.8131 20.1341L73.1493 21.8703H70.2386L73.4812 3.4873H76.7493L75.4727 10.815C75.9492 10.2873 76.545 9.83624 77.2599 9.46177C77.9918 9.0873 78.8684 8.90007 79.8897 8.90007C80.928 8.90007 81.8301 9.13837 82.5961 9.61496C83.362 10.0916 83.9578 10.7469 84.3833 11.5809C84.8258 12.3979 85.0471 13.3256 85.0471 14.3639C85.0471 15.4533 84.8599 16.4745 84.4854 17.4277C84.111 18.3639 83.5918 19.1894 82.928 19.9043C82.2641 20.6192 81.4897 21.1809 80.6046 21.5894C79.7195 21.9809 78.7578 22.1767 77.7195 22.1767ZM77.5407 19.3171C78.3237 19.3171 79.0216 19.1299 79.6344 18.7554C80.2641 18.3639 80.7578 17.8362 81.1152 17.1724C81.4727 16.5086 81.6514 15.7596 81.6514 14.9256C81.6514 14.0235 81.379 13.2745 80.8344 12.6788C80.2897 12.066 79.5493 11.7596 78.6131 11.7596C77.8301 11.7596 77.1237 11.9554 76.4939 12.3469C75.8812 12.7384 75.3961 13.2745 75.0386 13.9554C74.6812 14.6362 74.5024 15.4022 74.5024 16.2533C74.5024 17.1384 74.7748 17.8703 75.3195 18.449C75.8812 19.0277 76.6216 19.3171 77.5407 19.3171Z" fill="black"/>
<path d="M90.0826 22.1767C88.6528 22.1767 87.606 21.8533 86.9421 21.2065C86.2783 20.5426 85.9464 19.7511 85.9464 18.832C85.9464 17.4703 86.5166 16.3894 87.657 15.5894C88.7975 14.7894 90.3209 14.3894 92.2272 14.3894H95.4443L95.4953 14.083C95.5124 13.9809 95.5209 13.8788 95.5209 13.7767C95.5379 13.6575 95.5464 13.5554 95.5464 13.4703C95.5464 12.8235 95.3421 12.3469 94.9336 12.0405C94.5251 11.7171 94.006 11.5554 93.3762 11.5554C92.7123 11.5554 92.0996 11.7171 91.5379 12.0405C90.9932 12.3469 90.6017 12.8065 90.3634 13.4192H87.1719C87.4272 12.5001 87.8698 11.7001 88.4996 11.0192C89.1464 10.3384 89.9294 9.81922 90.8485 9.46177C91.7677 9.0873 92.7634 8.90007 93.8358 8.90007C95.4017 8.90007 96.6272 9.24901 97.5124 9.94688C98.4145 10.6448 98.8655 11.649 98.8655 12.9596C98.8655 13.1299 98.857 13.3171 98.84 13.5213C98.823 13.7086 98.7975 13.8958 98.7634 14.083L97.3847 21.8703H94.4741L94.6017 19.9043C94.1081 20.5511 93.4868 21.0958 92.7379 21.5384C92.006 21.9639 91.1209 22.1767 90.0826 22.1767ZM91.2826 19.6235C92.2187 19.6235 92.9932 19.3171 93.606 18.7043C94.2358 18.0916 94.6953 17.3341 94.9847 16.432H92.2272C91.3762 16.432 90.7038 16.6022 90.2102 16.9426C89.7166 17.283 89.4698 17.7511 89.4698 18.3469C89.4698 18.7724 89.6315 19.0958 89.9549 19.3171C90.2953 19.5213 90.7379 19.6235 91.2826 19.6235Z" fill="black"/>
<path d="M99.679 21.8703L102.896 3.4873H106.164L104.836 11.1469C105.364 10.466 106.019 9.92135 106.802 9.51284C107.602 9.10433 108.479 8.90007 109.432 8.90007C110.998 8.90007 112.122 9.39369 112.802 10.3809C113.5 11.3682 113.688 12.815 113.364 14.7213L112.088 21.8703H108.819L110.045 15.0277C110.232 13.9384 110.156 13.1043 109.815 12.5256C109.475 11.9469 108.828 11.6575 107.875 11.6575C106.973 11.6575 106.173 11.9809 105.475 12.6277C104.777 13.2745 104.317 14.1767 104.096 15.3341V15.3086L102.947 21.8703H99.679Z" fill="black"/>
<path d="M119.059 7.31709C118.463 7.31709 117.969 7.13837 117.578 6.78092C117.204 6.40645 117.016 5.94688 117.016 5.4022C117.016 4.85752 117.204 4.40645 117.578 4.04901C117.969 3.67454 118.463 3.4873 119.059 3.4873C119.655 3.4873 120.14 3.67454 120.514 4.04901C120.906 4.40645 121.101 4.85752 121.101 5.4022C121.101 5.94688 120.906 6.40645 120.514 6.78092C120.14 7.13837 119.655 7.31709 119.059 7.31709ZM114.514 21.8703L116.735 9.20645H120.004L117.782 21.8703H114.514Z" fill="black"/>
<path d="M125.728 22.1767C124.57 22.1767 123.583 21.9809 122.766 21.5894C121.966 21.1979 121.362 20.6618 120.953 19.9809C120.545 19.3001 120.375 18.5256 120.443 17.6575H123.711C123.694 18.2533 123.889 18.7384 124.298 19.1128C124.706 19.4873 125.319 19.6745 126.136 19.6745C126.851 19.6745 127.404 19.5213 127.796 19.215C128.204 18.9086 128.409 18.5171 128.409 18.0405C128.409 17.615 128.196 17.3086 127.77 17.1213C127.345 16.9171 126.8 16.7384 126.136 16.5852C125.438 16.415 124.757 16.1937 124.094 15.9213C123.43 15.649 122.877 15.2916 122.434 14.849C122.009 14.4065 121.796 13.8362 121.796 13.1384C121.796 12.3213 122.034 11.5979 122.511 10.9682C123.004 10.3213 123.677 9.81922 124.528 9.46177C125.379 9.0873 126.357 8.90007 127.464 8.90007C128.962 8.90007 130.145 9.25752 131.013 9.97241C131.881 10.6873 132.298 11.6575 132.264 12.883H129.123C129.106 12.4405 128.911 12.083 128.536 11.8107C128.179 11.5384 127.702 11.4022 127.106 11.4022C126.494 11.4022 125.992 11.5384 125.6 11.8107C125.226 12.066 125.038 12.3894 125.038 12.7809C125.038 13.1554 125.26 13.4448 125.702 13.649C126.162 13.8362 126.757 14.015 127.489 14.1852C128.289 14.3724 129.004 14.6022 129.634 14.8745C130.281 15.1469 130.792 15.5043 131.166 15.9469C131.557 16.3724 131.753 16.9341 131.753 17.632C131.753 18.5511 131.489 19.3511 130.962 20.032C130.434 20.7128 129.711 21.2405 128.792 21.615C127.889 21.9894 126.868 22.1767 125.728 22.1767Z" fill="black"/>
<path d="M8.62001 22.1767C7.46256 22.1767 6.47533 21.9809 5.65831 21.5894C4.85831 21.1979 4.25405 20.6618 3.84554 19.9809C3.43703 19.3001 3.26682 18.5256 3.3349 17.6575H6.60299C6.58597 18.2533 6.78171 18.7384 7.19022 19.1128C7.59873 19.4873 8.2115 19.6745 9.02852 19.6745C9.74341 19.6745 10.2966 19.5213 10.6881 19.215C11.0966 18.9086 11.3009 18.5171 11.3009 18.0405C11.3009 17.615 11.0881 17.3086 10.6626 17.1213C10.237 16.9171 9.69235 16.7384 9.02852 16.5852C8.33065 16.415 7.6498 16.1937 6.98597 15.9213C6.32214 15.649 5.76894 15.2916 5.32639 14.849C4.90086 14.4065 4.68809 13.8362 4.68809 13.1384C4.68809 12.3213 4.92639 11.5979 5.40299 10.9682C5.8966 10.3213 6.56894 9.81922 7.42001 9.46177C8.27107 9.0873 9.2498 8.90007 10.3562 8.90007C11.8541 8.90007 13.037 9.25752 13.9051 9.97241C14.7732 10.6873 15.1902 11.6575 15.1562 12.883H12.0158C11.9987 12.4405 11.803 12.083 11.4285 11.8107C11.0711 11.5384 10.5945 11.4022 9.99873 11.4022C9.38597 11.4022 8.88384 11.5384 8.49235 11.8107C8.11788 12.066 7.93065 12.3894 7.93065 12.7809C7.93065 13.1554 8.15192 13.4448 8.59448 13.649C9.05405 13.8362 9.6498 14.015 10.3817 14.1852C11.1817 14.3724 11.8966 14.6022 12.5264 14.8745C13.1732 15.1469 13.6838 15.5043 14.0583 15.9469C14.4498 16.3724 14.6455 16.9341 14.6455 17.632C14.6455 18.5511 14.3817 19.3511 13.8541 20.032C13.3264 20.7128 12.603 21.2405 11.6838 21.615C10.7817 21.9894 9.76043 22.1767 8.62001 22.1767Z" stroke="white" stroke-width="6" mask="url(#path-1-outside-1)"/>
<path d="M30.5723 9.20645L28.3511 21.8703H25.466L25.5425 19.7767C25.0149 20.5086 24.3511 21.0958 23.5511 21.5384C22.7511 21.9639 21.8574 22.1767 20.8702 22.1767C19.5596 22.1767 18.5383 21.8192 17.8064 21.1043C17.0915 20.3724 16.734 19.3256 16.734 17.9639C16.734 17.4873 16.7851 16.9511 16.8872 16.3554L18.1638 9.20645H21.4319L20.2064 16.049C20.1894 16.2533 20.1638 16.449 20.1298 16.6362C20.1128 16.8065 20.1042 16.9682 20.1042 17.1213C20.1042 18.6533 20.8617 19.4192 22.3766 19.4192C23.2787 19.4192 24.0787 19.1043 24.7766 18.4745C25.4745 17.8277 25.9255 16.9511 26.1298 15.8448L27.3042 9.20645H30.5723Z" stroke="white" stroke-width="6" mask="url(#path-1-outside-1)"/>
<path d="M29.884 27.4873L33.0755 9.20645H36.0117L36.0372 11.0192C36.5479 10.3894 37.1606 9.87879 37.8755 9.4873C38.6074 9.09581 39.4755 8.90007 40.4798 8.90007C41.5181 8.90007 42.4202 9.13837 43.1862 9.61496C43.9691 10.0916 44.5734 10.7469 44.9989 11.5809C45.4245 12.3979 45.6372 13.3256 45.6372 14.3639C45.6372 15.4533 45.45 16.4745 45.0755 17.4277C44.7181 18.3639 44.2074 19.1894 43.5436 19.9043C42.8798 20.6192 42.0968 21.1809 41.1947 21.5894C40.3096 21.9809 39.3479 22.1767 38.3096 22.1767C37.3904 22.1767 36.5904 21.9809 35.9096 21.5894C35.2287 21.1809 34.7351 20.6958 34.4287 20.1341L33.1521 27.4873H29.884ZM38.1564 19.3171C38.9394 19.3171 39.6372 19.1299 40.25 18.7554C40.8798 18.3639 41.3734 17.8362 41.7308 17.1724C42.0883 16.5086 42.267 15.7596 42.267 14.9256C42.267 14.0235 41.9947 13.2745 41.45 12.6788C40.9053 12.066 40.1649 11.7596 39.2287 11.7596C38.4287 11.7596 37.7138 11.9554 37.084 12.3469C36.4713 12.7384 35.9862 13.2745 35.6287 13.9554C35.2713 14.6362 35.0925 15.4022 35.0925 16.2533C35.0925 17.1384 35.3734 17.8703 35.9351 18.449C36.4968 19.0277 37.2372 19.3171 38.1564 19.3171Z" stroke="white" stroke-width="6" mask="url(#path-1-outside-1)"/>
<path d="M52.5359 22.1767C50.8508 22.1767 49.5061 21.6916 48.5019 20.7213C47.5146 19.7511 47.021 18.4405 47.021 16.7894C47.021 15.7171 47.2082 14.7043 47.5827 13.7511C47.9572 12.7979 48.4933 11.9639 49.1912 11.249C49.8891 10.5171 50.7146 9.94688 51.6678 9.53837C52.638 9.11284 53.7019 8.90007 54.8593 8.90007C55.9827 8.90007 56.9444 9.12135 57.7444 9.5639C58.5444 9.98943 59.1572 10.5852 59.5827 11.3511C60.0253 12.1001 60.2465 12.9596 60.2465 13.9299C60.2465 14.3384 60.204 14.7639 60.1189 15.2065C60.0508 15.632 59.9657 16.0065 59.8636 16.3299H50.238C50.238 16.466 50.238 16.6107 50.238 16.7639C50.238 17.615 50.4933 18.2873 51.004 18.7809C51.5146 19.2575 52.1784 19.4958 52.9955 19.4958C53.6423 19.4958 54.2125 19.3511 54.7061 19.0618C55.2167 18.7554 55.6338 18.3639 55.9572 17.8873H59.2763C58.8848 18.7043 58.3487 19.4362 57.6678 20.083C57.004 20.7299 56.2295 21.2405 55.3444 21.615C54.4763 21.9894 53.5401 22.1767 52.5359 22.1767ZM54.4253 11.5554C53.6423 11.5554 52.9019 11.7852 52.204 12.2448C51.5061 12.6873 50.9955 13.3682 50.6721 14.2873H56.9784C56.9955 14.1511 57.004 14.0575 57.004 14.0065C57.021 13.2575 56.7912 12.6618 56.3146 12.2192C55.838 11.7767 55.2082 11.5554 54.4253 11.5554Z" stroke="white" stroke-width="6" mask="url(#path-1-outside-1)"/>
<path d="M60.8177 21.8703L63.0389 9.20645H65.9751L65.873 11.5043C66.4687 10.7213 67.2006 10.0916 68.0687 9.61496C68.9538 9.13837 69.9326 8.90007 71.0049 8.90007L70.3921 12.3469H69.4985C68.4092 12.3469 67.473 12.6022 66.69 13.1128C65.907 13.6065 65.3964 14.5256 65.1581 15.8703L64.0858 21.8703H60.8177Z" stroke="white" stroke-width="6" mask="url(#path-1-outside-1)"/>
<path d="M77.7195 22.1767C76.7833 22.1767 75.9748 21.9809 75.2939 21.5894C74.6301 21.1809 74.1365 20.6958 73.8131 20.1341L73.1493 21.8703H70.2386L73.4812 3.4873H76.7493L75.4727 10.815C75.9492 10.2873 76.545 9.83624 77.2599 9.46177C77.9918 9.0873 78.8684 8.90007 79.8897 8.90007C80.928 8.90007 81.8301 9.13837 82.5961 9.61496C83.362 10.0916 83.9578 10.7469 84.3833 11.5809C84.8258 12.3979 85.0471 13.3256 85.0471 14.3639C85.0471 15.4533 84.8599 16.4745 84.4854 17.4277C84.111 18.3639 83.5918 19.1894 82.928 19.9043C82.2641 20.6192 81.4897 21.1809 80.6046 21.5894C79.7195 21.9809 78.7578 22.1767 77.7195 22.1767ZM77.5407 19.3171C78.3237 19.3171 79.0216 19.1299 79.6344 18.7554C80.2641 18.3639 80.7578 17.8362 81.1152 17.1724C81.4727 16.5086 81.6514 15.7596 81.6514 14.9256C81.6514 14.0235 81.379 13.2745 80.8344 12.6788C80.2897 12.066 79.5493 11.7596 78.6131 11.7596C77.8301 11.7596 77.1237 11.9554 76.4939 12.3469C75.8812 12.7384 75.3961 13.2745 75.0386 13.9554C74.6812 14.6362 74.5024 15.4022 74.5024 16.2533C74.5024 17.1384 74.7748 17.8703 75.3195 18.449C75.8812 19.0277 76.6216 19.3171 77.5407 19.3171Z" stroke="white" stroke-width="6" mask="url(#path-1-outside-1)"/>
<path d="M90.0826 22.1767C88.6528 22.1767 87.606 21.8533 86.9421 21.2065C86.2783 20.5426 85.9464 19.7511 85.9464 18.832C85.9464 17.4703 86.5166 16.3894 87.657 15.5894C88.7975 14.7894 90.3209 14.3894 92.2272 14.3894H95.4443L95.4953 14.083C95.5124 13.9809 95.5209 13.8788 95.5209 13.7767C95.5379 13.6575 95.5464 13.5554 95.5464 13.4703C95.5464 12.8235 95.3421 12.3469 94.9336 12.0405C94.5251 11.7171 94.006 11.5554 93.3762 11.5554C92.7123 11.5554 92.0996 11.7171 91.5379 12.0405C90.9932 12.3469 90.6017 12.8065 90.3634 13.4192H87.1719C87.4272 12.5001 87.8698 11.7001 88.4996 11.0192C89.1464 10.3384 89.9294 9.81922 90.8485 9.46177C91.7677 9.0873 92.7634 8.90007 93.8358 8.90007C95.4017 8.90007 96.6272 9.24901 97.5124 9.94688C98.4145 10.6448 98.8655 11.649 98.8655 12.9596C98.8655 13.1299 98.857 13.3171 98.84 13.5213C98.823 13.7086 98.7975 13.8958 98.7634 14.083L97.3847 21.8703H94.4741L94.6017 19.9043C94.1081 20.5511 93.4868 21.0958 92.7379 21.5384C92.006 21.9639 91.1209 22.1767 90.0826 22.1767ZM91.2826 19.6235C92.2187 19.6235 92.9932 19.3171 93.606 18.7043C94.2358 18.0916 94.6953 17.3341 94.9847 16.432H92.2272C91.3762 16.432 90.7038 16.6022 90.2102 16.9426C89.7166 17.283 89.4698 17.7511 89.4698 18.3469C89.4698 18.7724 89.6315 19.0958 89.9549 19.3171C90.2953 19.5213 90.7379 19.6235 91.2826 19.6235Z" stroke="white" stroke-width="6" mask="url(#path-1-outside-1)"/>
<path d="M99.679 21.8703L102.896 3.4873H106.164L104.836 11.1469C105.364 10.466 106.019 9.92135 106.802 9.51284C107.602 9.10433 108.479 8.90007 109.432 8.90007C110.998 8.90007 112.122 9.39369 112.802 10.3809C113.5 11.3682 113.688 12.815 113.364 14.7213L112.088 21.8703H108.819L110.045 15.0277C110.232 13.9384 110.156 13.1043 109.815 12.5256C109.475 11.9469 108.828 11.6575 107.875 11.6575C106.973 11.6575 106.173 11.9809 105.475 12.6277C104.777 13.2745 104.317 14.1767 104.096 15.3341V15.3086L102.947 21.8703H99.679Z" stroke="white" stroke-width="6" mask="url(#path-1-outside-1)"/>
<path d="M119.059 7.31709C118.463 7.31709 117.969 7.13837 117.578 6.78092C117.204 6.40645 117.016 5.94688 117.016 5.4022C117.016 4.85752 117.204 4.40645 117.578 4.04901C117.969 3.67454 118.463 3.4873 119.059 3.4873C119.655 3.4873 120.14 3.67454 120.514 4.04901C120.906 4.40645 121.101 4.85752 121.101 5.4022C121.101 5.94688 120.906 6.40645 120.514 6.78092C120.14 7.13837 119.655 7.31709 119.059 7.31709ZM114.514 21.8703L116.735 9.20645H120.004L117.782 21.8703H114.514Z" stroke="white" stroke-width="6" mask="url(#path-1-outside-1)"/>
<path d="M125.728 22.1767C124.57 22.1767 123.583 21.9809 122.766 21.5894C121.966 21.1979 121.362 20.6618 120.953 19.9809C120.545 19.3001 120.375 18.5256 120.443 17.6575H123.711C123.694 18.2533 123.889 18.7384 124.298 19.1128C124.706 19.4873 125.319 19.6745 126.136 19.6745C126.851 19.6745 127.404 19.5213 127.796 19.215C128.204 18.9086 128.409 18.5171 128.409 18.0405C128.409 17.615 128.196 17.3086 127.77 17.1213C127.345 16.9171 126.8 16.7384 126.136 16.5852C125.438 16.415 124.757 16.1937 124.094 15.9213C123.43 15.649 122.877 15.2916 122.434 14.849C122.009 14.4065 121.796 13.8362 121.796 13.1384C121.796 12.3213 122.034 11.5979 122.511 10.9682C123.004 10.3213 123.677 9.81922 124.528 9.46177C125.379 9.0873 126.357 8.90007 127.464 8.90007C128.962 8.90007 130.145 9.25752 131.013 9.97241C131.881 10.6873 132.298 11.6575 132.264 12.883H129.123C129.106 12.4405 128.911 12.083 128.536 11.8107C128.179 11.5384 127.702 11.4022 127.106 11.4022C126.494 11.4022 125.992 11.5384 125.6 11.8107C125.226 12.066 125.038 12.3894 125.038 12.7809C125.038 13.1554 125.26 13.4448 125.702 13.649C126.162 13.8362 126.757 14.015 127.489 14.1852C128.289 14.3724 129.004 14.6022 129.634 14.8745C130.281 15.1469 130.792 15.5043 131.166 15.9469C131.557 16.3724 131.753 16.9341 131.753 17.632C131.753 18.5511 131.489 19.3511 130.962 20.032C130.434 20.7128 129.711 21.2405 128.792 21.615C127.889 21.9894 126.868 22.1767 125.728 22.1767Z" stroke="white" stroke-width="6" mask="url(#path-1-outside-1)"/>
<path d="M77.7191 22.1767C76.783 22.1767 75.9745 21.9809 75.2936 21.5894C74.6298 21.1809 74.1362 20.6958 73.8128 20.1341L73.1489 21.8703H70.2383L73.4808 3.4873H76.7489L75.4723 10.815C75.9489 10.2873 76.5447 9.83624 77.2596 9.46177C77.9915 9.0873 78.8681 8.90007 79.8893 8.90007C80.9276 8.90007 81.8298 9.13837 82.5957 9.61496C83.3617 10.0916 83.9574 10.7469 84.383 11.5809C84.8255 12.3979 85.0468 13.3256 85.0468 14.3639C85.0468 15.4533 84.8596 16.4745 84.4851 17.4277C84.1106 18.3639 83.5915 19.1894 82.9276 19.9043C82.2638 20.6192 81.4893 21.1809 80.6042 21.5894C79.7191 21.9809 78.7574 22.1767 77.7191 22.1767ZM77.5404 19.3171C78.3234 19.3171 79.0213 19.1299 79.634 18.7554C80.2638 18.3639 80.7574 17.8362 81.1149 17.1724C81.4723 16.5086 81.651 15.7596 81.651 14.9256C81.651 14.0235 81.3787 13.2745 80.834 12.6788C80.2893 12.066 79.5489 11.7596 78.6128 11.7596C77.8298 11.7596 77.1234 11.9554 76.4936 12.3469C75.8808 12.7384 75.3957 13.2745 75.0383 13.9554C74.6808 14.6362 74.5021 15.4022 74.5021 16.2533C74.5021 17.1384 74.7745 17.8703 75.3191 18.449C75.8808 19.0277 76.6213 19.3171 77.5404 19.3171Z" fill="#62696D"/>
<path d="M90.0822 22.1767C88.6524 22.1767 87.6056 21.8533 86.9418 21.2065C86.278 20.5426 85.9461 19.7511 85.9461 18.832C85.9461 17.4703 86.5163 16.3894 87.6567 15.5894C88.7971 14.7894 90.3205 14.3894 92.2269 14.3894H95.4439L95.495 14.083C95.512 13.9809 95.5205 13.8788 95.5205 13.7767C95.5375 13.6575 95.5461 13.5554 95.5461 13.4703C95.5461 12.8235 95.3418 12.3469 94.9333 12.0405C94.5248 11.7171 94.0056 11.5554 93.3758 11.5554C92.712 11.5554 92.0993 11.7171 91.5375 12.0405C90.9929 12.3469 90.6014 12.8065 90.3631 13.4192H87.1716C87.4269 12.5001 87.8695 11.7001 88.4993 11.0192C89.1461 10.3384 89.929 9.81922 90.8482 9.46177C91.7673 9.0873 92.7631 8.90007 93.8354 8.90007C95.4014 8.90007 96.6269 9.24901 97.512 9.94688C98.4141 10.6448 98.8652 11.649 98.8652 12.9596C98.8652 13.1299 98.8567 13.3171 98.8397 13.5213C98.8227 13.7086 98.7971 13.8958 98.7631 14.083L97.3844 21.8703H94.4737L94.6014 19.9043C94.1078 20.5511 93.4865 21.0958 92.7376 21.5384C92.0056 21.9639 91.1205 22.1767 90.0822 22.1767ZM91.2822 19.6235C92.2184 19.6235 92.9929 19.3171 93.6056 18.7043C94.2354 18.0916 94.695 17.3341 94.9844 16.432H92.2269C91.3759 16.432 90.7035 16.6022 90.2099 16.9426C89.7163 17.283 89.4695 17.7511 89.4695 18.3469C89.4695 18.7724 89.6312 19.0958 89.9546 19.3171C90.295 19.5213 90.7376 19.6235 91.2822 19.6235Z" fill="#62696D"/>
<path d="M99.6787 21.8703L102.896 3.4873H106.164L104.836 11.1469C105.364 10.466 106.019 9.92135 106.802 9.51284C107.602 9.10433 108.479 8.90007 109.432 8.90007C110.998 8.90007 112.121 9.39369 112.802 10.3809C113.5 11.3682 113.687 12.815 113.364 14.7213L112.087 21.8703H108.819L110.045 15.0277C110.232 13.9384 110.155 13.1043 109.815 12.5256C109.474 11.9469 108.828 11.6575 107.874 11.6575C106.972 11.6575 106.172 11.9809 105.474 12.6277C104.777 13.2745 104.317 14.1767 104.096 15.3341V15.3086L102.947 21.8703H99.6787Z" fill="#62696D"/>
<path d="M119.058 7.31709C118.463 7.31709 117.969 7.13837 117.578 6.78092C117.203 6.40645 117.016 5.94688 117.016 5.4022C117.016 4.85752 117.203 4.40645 117.578 4.04901C117.969 3.67454 118.463 3.4873 119.058 3.4873C119.654 3.4873 120.139 3.67454 120.514 4.04901C120.905 4.40645 121.101 4.85752 121.101 5.4022C121.101 5.94688 120.905 6.40645 120.514 6.78092C120.139 7.13837 119.654 7.31709 119.058 7.31709ZM114.514 21.8703L116.735 9.20645H120.003L117.782 21.8703H114.514Z" fill="#62696D"/>
<path d="M125.727 22.1767C124.57 22.1767 123.583 21.9809 122.766 21.5894C121.966 21.1979 121.361 20.6618 120.953 19.9809C120.544 19.3001 120.374 18.5256 120.442 17.6575H123.71C123.693 18.2533 123.889 18.7384 124.298 19.1128C124.706 19.4873 125.319 19.6745 126.136 19.6745C126.851 19.6745 127.404 19.5213 127.795 19.215C128.204 18.9086 128.408 18.5171 128.408 18.0405C128.408 17.615 128.195 17.3086 127.77 17.1213C127.344 16.9171 126.8 16.7384 126.136 16.5852C125.438 16.415 124.757 16.1937 124.093 15.9213C123.43 15.649 122.876 15.2916 122.434 14.849C122.008 14.4065 121.795 13.8362 121.795 13.1384C121.795 12.3213 122.034 11.5979 122.51 10.9682C123.004 10.3213 123.676 9.81922 124.527 9.46177C125.378 9.0873 126.357 8.90007 127.464 8.90007C128.961 8.90007 130.144 9.25752 131.012 9.97241C131.881 10.6873 132.298 11.6575 132.264 12.883H129.123C129.106 12.4405 128.91 12.083 128.536 11.8107C128.178 11.5384 127.702 11.4022 127.106 11.4022C126.493 11.4022 125.991 11.5384 125.6 11.8107C125.225 12.066 125.038 12.3894 125.038 12.7809C125.038 13.1554 125.259 13.4448 125.702 13.649C126.161 13.8362 126.757 14.015 127.489 14.1852C128.289 14.3724 129.004 14.6022 129.634 14.8745C130.281 15.1469 130.791 15.5043 131.166 15.9469C131.557 16.3724 131.753 16.9341 131.753 17.632C131.753 18.5511 131.489 19.3511 130.961 20.032C130.434 20.7128 129.71 21.2405 128.791 21.615C127.889 21.9894 126.868 22.1767 125.727 22.1767Z" fill="#62696D"/>
<path d="M77.7191 22.1767C76.783 22.1767 75.9745 21.9809 75.2936 21.5894C74.6298 21.1809 74.1362 20.6958 73.8128 20.1341L73.1489 21.8703H70.2383L73.4808 3.4873H76.7489L75.4723 10.815C75.9489 10.2873 76.5447 9.83624 77.2596 9.46177C77.9915 9.0873 78.8681 8.90007 79.8893 8.90007C80.9276 8.90007 81.8298 9.13837 82.5957 9.61496C83.3617 10.0916 83.9574 10.7469 84.383 11.5809C84.8255 12.3979 85.0468 13.3256 85.0468 14.3639C85.0468 15.4533 84.8596 16.4745 84.4851 17.4277C84.1106 18.3639 83.5915 19.1894 82.9276 19.9043C82.2638 20.6192 81.4893 21.1809 80.6042 21.5894C79.7191 21.9809 78.7574 22.1767 77.7191 22.1767ZM77.5404 19.3171C78.3234 19.3171 79.0213 19.1299 79.634 18.7554C80.2638 18.3639 80.7574 17.8362 81.1149 17.1724C81.4723 16.5086 81.651 15.7596 81.651 14.9256C81.651 14.0235 81.3787 13.2745 80.834 12.6788C80.2893 12.066 79.5489 11.7596 78.6128 11.7596C77.8298 11.7596 77.1234 11.9554 76.4936 12.3469C75.8808 12.7384 75.3957 13.2745 75.0383 13.9554C74.6808 14.6362 74.5021 15.4022 74.5021 16.2533C74.5021 17.1384 74.7745 17.8703 75.3191 18.449C75.8808 19.0277 76.6213 19.3171 77.5404 19.3171Z" stroke="#62696D"/>
<path d="M90.0822 22.1767C88.6524 22.1767 87.6056 21.8533 86.9418 21.2065C86.278 20.5426 85.9461 19.7511 85.9461 18.832C85.9461 17.4703 86.5163 16.3894 87.6567 15.5894C88.7971 14.7894 90.3205 14.3894 92.2269 14.3894H95.4439L95.495 14.083C95.512 13.9809 95.5205 13.8788 95.5205 13.7767C95.5375 13.6575 95.5461 13.5554 95.5461 13.4703C95.5461 12.8235 95.3418 12.3469 94.9333 12.0405C94.5248 11.7171 94.0056 11.5554 93.3758 11.5554C92.712 11.5554 92.0993 11.7171 91.5375 12.0405C90.9929 12.3469 90.6014 12.8065 90.3631 13.4192H87.1716C87.4269 12.5001 87.8695 11.7001 88.4993 11.0192C89.1461 10.3384 89.929 9.81922 90.8482 9.46177C91.7673 9.0873 92.7631 8.90007 93.8354 8.90007C95.4014 8.90007 96.6269 9.24901 97.512 9.94688C98.4141 10.6448 98.8652 11.649 98.8652 12.9596C98.8652 13.1299 98.8567 13.3171 98.8397 13.5213C98.8227 13.7086 98.7971 13.8958 98.7631 14.083L97.3844 21.8703H94.4737L94.6014 19.9043C94.1078 20.5511 93.4865 21.0958 92.7376 21.5384C92.0056 21.9639 91.1205 22.1767 90.0822 22.1767ZM91.2822 19.6235C92.2184 19.6235 92.9929 19.3171 93.6056 18.7043C94.2354 18.0916 94.695 17.3341 94.9844 16.432H92.2269C91.3759 16.432 90.7035 16.6022 90.2099 16.9426C89.7163 17.283 89.4695 17.7511 89.4695 18.3469C89.4695 18.7724 89.6312 19.0958 89.9546 19.3171C90.295 19.5213 90.7376 19.6235 91.2822 19.6235Z" stroke="#62696D"/>
<path d="M99.6787 21.8703L102.896 3.4873H106.164L104.836 11.1469C105.364 10.466 106.019 9.92135 106.802 9.51284C107.602 9.10433 108.479 8.90007 109.432 8.90007C110.998 8.90007 112.121 9.39369 112.802 10.3809C113.5 11.3682 113.687 12.815 113.364 14.7213L112.087 21.8703H108.819L110.045 15.0277C110.232 13.9384 110.155 13.1043 109.815 12.5256C109.474 11.9469 108.828 11.6575 107.874 11.6575C106.972 11.6575 106.172 11.9809 105.474 12.6277C104.777 13.2745 104.317 14.1767 104.096 15.3341V15.3086L102.947 21.8703H99.6787Z" stroke="#62696D"/>
<path d="M119.058 7.31709C118.463 7.31709 117.969 7.13837 117.578 6.78092C117.203 6.40645 117.016 5.94688 117.016 5.4022C117.016 4.85752 117.203 4.40645 117.578 4.04901C117.969 3.67454 118.463 3.4873 119.058 3.4873C119.654 3.4873 120.139 3.67454 120.514 4.04901C120.905 4.40645 121.101 4.85752 121.101 5.4022C121.101 5.94688 120.905 6.40645 120.514 6.78092C120.139 7.13837 119.654 7.31709 119.058 7.31709ZM114.514 21.8703L116.735 9.20645H120.003L117.782 21.8703H114.514Z" stroke="#62696D"/>
<path d="M125.727 22.1767C124.57 22.1767 123.583 21.9809 122.766 21.5894C121.966 21.1979 121.361 20.6618 120.953 19.9809C120.544 19.3001 120.374 18.5256 120.442 17.6575H123.71C123.693 18.2533 123.889 18.7384 124.298 19.1128C124.706 19.4873 125.319 19.6745 126.136 19.6745C126.851 19.6745 127.404 19.5213 127.795 19.215C128.204 18.9086 128.408 18.5171 128.408 18.0405C128.408 17.615 128.195 17.3086 127.77 17.1213C127.344 16.9171 126.8 16.7384 126.136 16.5852C125.438 16.415 124.757 16.1937 124.093 15.9213C123.43 15.649 122.876 15.2916 122.434 14.849C122.008 14.4065 121.795 13.8362 121.795 13.1384C121.795 12.3213 122.034 11.5979 122.51 10.9682C123.004 10.3213 123.676 9.81922 124.527 9.46177C125.378 9.0873 126.357 8.90007 127.464 8.90007C128.961 8.90007 130.144 9.25752 131.012 9.97241C131.881 10.6873 132.298 11.6575 132.264 12.883H129.123C129.106 12.4405 128.91 12.083 128.536 11.8107C128.178 11.5384 127.702 11.4022 127.106 11.4022C126.493 11.4022 125.991 11.5384 125.6 11.8107C125.225 12.066 125.038 12.3894 125.038 12.7809C125.038 13.1554 125.259 13.4448 125.702 13.649C126.161 13.8362 126.757 14.015 127.489 14.1852C128.289 14.3724 129.004 14.6022 129.634 14.8745C130.281 15.1469 130.791 15.5043 131.166 15.9469C131.557 16.3724 131.753 16.9341 131.753 17.632C131.753 18.5511 131.489 19.3511 130.961 20.032C130.434 20.7128 129.71 21.2405 128.791 21.615C127.889 21.9894 126.868 22.1767 125.727 22.1767Z" stroke="#62696D"/>
<path d="M8.62001 22.1765C7.46256 22.1765 6.47533 21.9808 5.65831 21.5893C4.85831 21.1978 4.25405 20.6616 3.84554 19.9808C3.43703 19.2999 3.26682 18.5254 3.3349 17.6573H6.60299C6.58597 18.2531 6.78171 18.7382 7.19022 19.1127C7.59873 19.4871 8.2115 19.6744 9.02852 19.6744C9.74341 19.6744 10.2966 19.5212 10.6881 19.2148C11.0966 18.9084 11.3009 18.5169 11.3009 18.0403C11.3009 17.6148 11.0881 17.3084 10.6626 17.1212C10.237 16.9169 9.69235 16.7382 9.02852 16.585C8.33065 16.4148 7.6498 16.1935 6.98597 15.9212C6.32214 15.6488 5.76894 15.2914 5.32639 14.8488C4.90086 14.4063 4.68809 13.8361 4.68809 13.1382C4.68809 12.3212 4.92639 11.5978 5.40299 10.968C5.8966 10.3212 6.56894 9.81905 7.42001 9.4616C8.27107 9.08714 9.2498 8.8999 10.3562 8.8999C11.8541 8.8999 13.037 9.25735 13.9051 9.97224C14.7732 10.6871 15.1902 11.6573 15.1562 12.8829H12.0158C11.9987 12.4403 11.803 12.0829 11.4285 11.8105C11.0711 11.5382 10.5945 11.402 9.99873 11.402C9.38597 11.402 8.88384 11.5382 8.49235 11.8105C8.11788 12.0659 7.93065 12.3893 7.93065 12.7808C7.93065 13.1552 8.15192 13.4446 8.59448 13.6488C9.05405 13.8361 9.6498 14.0148 10.3817 14.185C11.1817 14.3722 11.8966 14.602 12.5264 14.8744C13.1732 15.1467 13.6838 15.5042 14.0583 15.9467C14.4498 16.3722 14.6455 16.9339 14.6455 17.6318C14.6455 18.551 14.3817 19.351 13.8541 20.0318C13.3264 20.7127 12.603 21.2403 11.6838 21.6148C10.7817 21.9893 9.76043 22.1765 8.62001 22.1765Z" fill="black"/>
<path d="M30.5723 9.20629L28.3511 21.8701H25.466L25.5425 19.7765C25.0149 20.5084 24.3511 21.0956 23.5511 21.5382C22.7511 21.9637 21.8574 22.1765 20.8702 22.1765C19.5596 22.1765 18.5383 21.8191 17.8064 21.1042C17.0915 20.3722 16.734 19.3254 16.734 17.9637C16.734 17.4871 16.7851 16.951 16.8872 16.3552L18.1638 9.20629H21.4319L20.2064 16.0488C20.1894 16.2531 20.1638 16.4488 20.1298 16.6361C20.1128 16.8063 20.1042 16.968 20.1042 17.1212C20.1042 18.6531 20.8617 19.4191 22.3766 19.4191C23.2787 19.4191 24.0787 19.1042 24.7766 18.4744C25.4745 17.8276 25.9255 16.951 26.1298 15.8446L27.3042 9.20629H30.5723Z" fill="black"/>
<path d="M29.884 27.4871L33.0755 9.20629H36.0117L36.0372 11.0191C36.5479 10.3893 37.1606 9.87863 37.8755 9.48714C38.6074 9.09565 39.4755 8.8999 40.4798 8.8999C41.5181 8.8999 42.4202 9.1382 43.1862 9.6148C43.9691 10.0914 44.5734 10.7467 44.9989 11.5808C45.4245 12.3978 45.6372 13.3254 45.6372 14.3637C45.6372 15.4531 45.45 16.4744 45.0755 17.4276C44.7181 18.3637 44.2074 19.1893 43.5436 19.9042C42.8798 20.6191 42.0968 21.1808 41.1947 21.5893C40.3096 21.9808 39.3479 22.1765 38.3096 22.1765C37.3904 22.1765 36.5904 21.9808 35.9096 21.5893C35.2287 21.1808 34.7351 20.6956 34.4287 20.1339L33.1521 27.4871H29.884ZM38.1564 19.3169C38.9394 19.3169 39.6372 19.1297 40.25 18.7552C40.8798 18.3637 41.3734 17.8361 41.7308 17.1722C42.0883 16.5084 42.267 15.7595 42.267 14.9254C42.267 14.0233 41.9947 13.2744 41.45 12.6786C40.9053 12.0659 40.1649 11.7595 39.2287 11.7595C38.4287 11.7595 37.7138 11.9552 37.084 12.3467C36.4713 12.7382 35.9862 13.2744 35.6287 13.9552C35.2713 14.6361 35.0925 15.402 35.0925 16.2531C35.0925 17.1382 35.3734 17.8701 35.9351 18.4488C36.4968 19.0276 37.2372 19.3169 38.1564 19.3169Z" fill="black"/>
<path d="M52.5359 22.1765C50.8508 22.1765 49.5061 21.6914 48.5019 20.7212C47.5146 19.751 47.021 18.4403 47.021 16.7893C47.021 15.7169 47.2082 14.7042 47.5827 13.751C47.9572 12.7978 48.4933 11.9637 49.1912 11.2488C49.8891 10.5169 50.7146 9.94671 51.6678 9.5382C52.638 9.11267 53.7019 8.8999 54.8593 8.8999C55.9827 8.8999 56.9444 9.12118 57.7444 9.56373C58.5444 9.98926 59.1572 10.585 59.5827 11.351C60.0253 12.0999 60.2465 12.9595 60.2465 13.9297C60.2465 14.3382 60.204 14.7637 60.1189 15.2063C60.0508 15.6318 59.9657 16.0063 59.8636 16.3297H50.238C50.238 16.4659 50.238 16.6105 50.238 16.7637C50.238 17.6148 50.4933 18.2871 51.004 18.7808C51.5146 19.2573 52.1785 19.4956 52.9955 19.4956C53.6423 19.4956 54.2125 19.351 54.7061 19.0616C55.2168 18.7552 55.6338 18.3637 55.9572 17.8871H59.2763C58.8848 18.7042 58.3487 19.4361 57.6678 20.0829C57.004 20.7297 56.2295 21.2403 55.3444 21.6148C54.4763 21.9893 53.5402 22.1765 52.5359 22.1765ZM54.4253 11.5552C53.6423 11.5552 52.9019 11.785 52.204 12.2446C51.5061 12.6871 50.9955 13.368 50.6721 14.2871H56.9785C56.9955 14.151 57.004 14.0573 57.004 14.0063C57.021 13.2573 56.7912 12.6616 56.3146 12.2191C55.838 11.7765 55.2082 11.5552 54.4253 11.5552Z" fill="black"/>
<path d="M60.8177 21.8701L63.039 9.20629H65.9751L65.873 11.5042C66.4687 10.7212 67.2007 10.0914 68.0687 9.6148C68.9538 9.1382 69.9326 8.8999 71.0049 8.8999L70.3922 12.3467H69.4985C68.4092 12.3467 67.473 12.602 66.69 13.1127C65.907 13.6063 65.3964 14.5254 65.1581 15.8701L64.0858 21.8701H60.8177Z" fill="black"/>
<path d="M8.62001 22.1765C7.46256 22.1765 6.47533 21.9808 5.65831 21.5893C4.85831 21.1978 4.25405 20.6616 3.84554 19.9808C3.43703 19.2999 3.26682 18.5254 3.3349 17.6573H6.60299C6.58597 18.2531 6.78171 18.7382 7.19022 19.1127C7.59873 19.4871 8.2115 19.6744 9.02852 19.6744C9.74341 19.6744 10.2966 19.5212 10.6881 19.2148C11.0966 18.9084 11.3009 18.5169 11.3009 18.0403C11.3009 17.6148 11.0881 17.3084 10.6626 17.1212C10.237 16.9169 9.69235 16.7382 9.02852 16.585C8.33065 16.4148 7.6498 16.1935 6.98597 15.9212C6.32214 15.6488 5.76894 15.2914 5.32639 14.8488C4.90086 14.4063 4.68809 13.8361 4.68809 13.1382C4.68809 12.3212 4.92639 11.5978 5.40299 10.968C5.8966 10.3212 6.56894 9.81905 7.42001 9.4616C8.27107 9.08714 9.2498 8.8999 10.3562 8.8999C11.8541 8.8999 13.037 9.25735 13.9051 9.97224C14.7732 10.6871 15.1902 11.6573 15.1562 12.8829H12.0158C11.9987 12.4403 11.803 12.0829 11.4285 11.8105C11.0711 11.5382 10.5945 11.402 9.99873 11.402C9.38597 11.402 8.88384 11.5382 8.49235 11.8105C8.11788 12.0659 7.93065 12.3893 7.93065 12.7808C7.93065 13.1552 8.15192 13.4446 8.59448 13.6488C9.05405 13.8361 9.6498 14.0148 10.3817 14.185C11.1817 14.3722 11.8966 14.602 12.5264 14.8744C13.1732 15.1467 13.6838 15.5042 14.0583 15.9467C14.4498 16.3722 14.6455 16.9339 14.6455 17.6318C14.6455 18.551 14.3817 19.351 13.8541 20.0318C13.3264 20.7127 12.603 21.2403 11.6838 21.6148C10.7817 21.9893 9.76043 22.1765 8.62001 22.1765Z" stroke="black"/>
<path d="M30.5723 9.20629L28.3511 21.8701H25.466L25.5425 19.7765C25.0149 20.5084 24.3511 21.0956 23.5511 21.5382C22.7511 21.9637 21.8574 22.1765 20.8702 22.1765C19.5596 22.1765 18.5383 21.8191 17.8064 21.1042C17.0915 20.3722 16.734 19.3254 16.734 17.9637C16.734 17.4871 16.7851 16.951 16.8872 16.3552L18.1638 9.20629H21.4319L20.2064 16.0488C20.1894 16.2531 20.1638 16.4488 20.1298 16.6361C20.1128 16.8063 20.1042 16.968 20.1042 17.1212C20.1042 18.6531 20.8617 19.4191 22.3766 19.4191C23.2787 19.4191 24.0787 19.1042 24.7766 18.4744C25.4745 17.8276 25.9255 16.951 26.1298 15.8446L27.3042 9.20629H30.5723Z" stroke="black"/>
<path d="M29.884 27.4871L33.0755 9.20629H36.0117L36.0372 11.0191C36.5479 10.3893 37.1606 9.87863 37.8755 9.48714C38.6074 9.09565 39.4755 8.8999 40.4798 8.8999C41.5181 8.8999 42.4202 9.1382 43.1862 9.6148C43.9691 10.0914 44.5734 10.7467 44.9989 11.5808C45.4245 12.3978 45.6372 13.3254 45.6372 14.3637C45.6372 15.4531 45.45 16.4744 45.0755 17.4276C44.7181 18.3637 44.2074 19.1893 43.5436 19.9042C42.8798 20.6191 42.0968 21.1808 41.1947 21.5893C40.3096 21.9808 39.3479 22.1765 38.3096 22.1765C37.3904 22.1765 36.5904 21.9808 35.9096 21.5893C35.2287 21.1808 34.7351 20.6956 34.4287 20.1339L33.1521 27.4871H29.884ZM38.1564 19.3169C38.9394 19.3169 39.6372 19.1297 40.25 18.7552C40.8798 18.3637 41.3734 17.8361 41.7308 17.1722C42.0883 16.5084 42.267 15.7595 42.267 14.9254C42.267 14.0233 41.9947 13.2744 41.45 12.6786C40.9053 12.0659 40.1649 11.7595 39.2287 11.7595C38.4287 11.7595 37.7138 11.9552 37.084 12.3467C36.4713 12.7382 35.9862 13.2744 35.6287 13.9552C35.2713 14.6361 35.0925 15.402 35.0925 16.2531C35.0925 17.1382 35.3734 17.8701 35.9351 18.4488C36.4968 19.0276 37.2372 19.3169 38.1564 19.3169Z" stroke="black"/>
<path d="M52.5359 22.1765C50.8508 22.1765 49.5061 21.6914 48.5019 20.7212C47.5146 19.751 47.021 18.4403 47.021 16.7893C47.021 15.7169 47.2082 14.7042 47.5827 13.751C47.9572 12.7978 48.4933 11.9637 49.1912 11.2488C49.8891 10.5169 50.7146 9.94671 51.6678 9.5382C52.638 9.11267 53.7019 8.8999 54.8593 8.8999C55.9827 8.8999 56.9444 9.12118 57.7444 9.56373C58.5444 9.98926 59.1572 10.585 59.5827 11.351C60.0253 12.0999 60.2465 12.9595 60.2465 13.9297C60.2465 14.3382 60.204 14.7637 60.1189 15.2063C60.0508 15.6318 59.9657 16.0063 59.8636 16.3297H50.238C50.238 16.4659 50.238 16.6105 50.238 16.7637C50.238 17.6148 50.4933 18.2871 51.004 18.7808C51.5146 19.2573 52.1785 19.4956 52.9955 19.4956C53.6423 19.4956 54.2125 19.351 54.7061 19.0616C55.2168 18.7552 55.6338 18.3637 55.9572 17.8871H59.2763C58.8848 18.7042 58.3487 19.4361 57.6678 20.0829C57.004 20.7297 56.2295 21.2403 55.3444 21.6148C54.4763 21.9893 53.5402 22.1765 52.5359 22.1765ZM54.4253 11.5552C53.6423 11.5552 52.9019 11.785 52.204 12.2446C51.5061 12.6871 50.9955 13.368 50.6721 14.2871H56.9785C56.9955 14.151 57.004 14.0573 57.004 14.0063C57.021 13.2573 56.7912 12.6616 56.3146 12.2191C55.838 11.7765 55.2082 11.5552 54.4253 11.5552Z" stroke="black"/>
<path d="M60.8177 21.8701L63.039 9.20629H65.9751L65.873 11.5042C66.4687 10.7212 67.2007 10.0914 68.0687 9.6148C68.9538 9.1382 69.9326 8.8999 71.0049 8.8999L70.3922 12.3467H69.4985C68.4092 12.3467 67.473 12.602 66.69 13.1127C65.907 13.6063 65.3964 14.5254 65.1581 15.8701L64.0858 21.8701H60.8177Z" stroke="black"/>
</svg>
