<svg width="110" height="33" viewBox="0 0 110 33" fill="none" xmlns="http://www.w3.org/2000/svg">
<path fill-rule="evenodd" clip-rule="evenodd" d="M0.425781 16.4873C0.425781 25.3239 7.58922 32.4873 16.4258 32.4873C25.2623 32.4873 32.4258 25.3239 32.4258 16.4873C32.4258 7.65075 25.2623 0.487305 16.4258 0.487305C7.58922 0.487305 0.425781 7.65075 0.425781 16.4873ZM18.5068 25.9103C16.1867 25.8934 13.8222 24.8676 12.192 22.4167C14.1971 24.2531 16.4831 24.9581 18.4771 24.9315C20.7674 24.901 23.2499 23.7661 24.5522 21.6217L25.1384 22.9237C23.6369 24.5448 21.4176 25.9316 18.5068 25.9103ZM10.1602 18.3072H12.0491L11.848 18.8816C11.7443 19.1777 11.6866 19.3319 11.3714 19.3319H8.81554C8.81554 18.8816 9.53504 18.3072 10.1602 18.3072ZM25.6205 22.2167C23.7941 17.6255 18.5068 16.1244 13.931 17.8825C18.5998 14.6813 24.3391 15.5175 27.4789 17.1253C27.4789 18.4203 27.0909 20.4248 25.6205 22.2167ZM27.3874 16.3139C23.194 14.367 17.6724 14.367 13.2024 17.4643C15.2241 13.3321 20.1517 10.697 25.7209 11.0102C26.6156 12.2334 27.2871 13.6177 27.3874 16.3139ZM12.0491 17.5488V8.50212C13.6424 7.44608 15.4947 6.91806 17.6058 6.91806C19.9481 6.91806 23.1144 7.88707 24.9646 10.2106C21.2147 10.2106 14.9824 11.8299 12.3005 17.5488H12.0491ZM8.95025 6.73816C9.88757 6.73816 11.4897 7.79378 11.4897 9.29353V10.7995C11.4897 12.4025 9.89674 13.3321 8.96457 13.3321H6.09287C5.8297 13.3321 5.80583 13.1066 5.95493 12.963C6.10402 12.8193 7.9964 11.0199 10.6222 8.65927C9.71131 8.07457 8.74163 7.28821 8.60378 7.17299C8.44155 7.03741 8.43885 6.92918 8.49489 6.84897C8.54917 6.77127 8.60378 6.73816 8.95025 6.73816ZM49.7866 9.55396H44.7733V24.4873H50.2133C51.1946 24.4873 52.0266 24.3948 52.7093 24.21C53.4062 24.0251 53.968 23.7548 54.3946 23.3993C54.8355 23.0295 55.1555 22.5815 55.3546 22.0553C55.5537 21.5148 55.6533 20.8891 55.6533 20.178C55.6533 19.41 55.4613 18.7273 55.0773 18.13C54.7075 17.5184 54.1173 17.0491 53.3066 16.722C53.9608 16.3806 54.4444 15.9397 54.7573 15.3993C55.0702 14.8588 55.2266 14.2615 55.2266 13.6073C55.2266 12.9673 55.1271 12.3984 54.928 11.9006C54.7288 11.3886 54.4088 10.962 53.968 10.6206C53.5413 10.2793 52.9795 10.0162 52.2826 9.83129C51.6 9.6464 50.768 9.55396 49.7866 9.55396ZM47.3333 22.3113V17.8526H50.2133C51.2373 17.8526 51.9484 18.0375 52.3466 18.4073C52.7591 18.7628 52.9653 19.3175 52.9653 20.0713C52.9653 20.8393 52.7591 21.4082 52.3466 21.778C51.9484 22.1335 51.2373 22.3113 50.2133 22.3113H47.3333ZM47.3333 15.762V11.73H49.7866C50.7964 11.73 51.5075 11.9077 51.92 12.2633C52.3324 12.6046 52.5386 13.0953 52.5386 13.7353C52.5386 14.3895 52.3324 14.8944 51.92 15.25C51.5075 15.5913 50.7964 15.762 49.7866 15.762H47.3333ZM60.1705 13.8206H58.2291V24.4873H60.7038V18.3006C60.7038 17.5753 60.9313 16.9993 61.3865 16.5726C61.8558 16.146 62.5811 15.9326 63.5625 15.9326H64.6291V13.6286H63.5625C62.894 13.6286 62.2825 13.7495 61.7278 13.9913C61.1874 14.2188 60.7322 14.5602 60.3625 15.0153L60.1705 13.8206ZM70.9383 24.6793C69.3312 24.6793 68.0725 24.2242 67.1623 23.314C66.2663 22.4037 65.8183 21.1308 65.8183 19.4953V18.8126C65.8183 18.002 65.9321 17.2766 66.1596 16.6366C66.4014 15.9966 66.7427 15.4562 67.1836 15.0153C67.6387 14.5602 68.1792 14.2188 68.805 13.9913C69.4307 13.7495 70.1418 13.6286 70.9383 13.6286C72.5454 13.6286 73.797 14.0837 74.693 14.994C75.6032 15.9042 76.0583 17.1771 76.0583 18.8126V19.4953C76.0583 20.306 75.9374 21.0313 75.6956 21.6713C75.4681 22.3113 75.1267 22.8588 74.6716 23.314C74.2307 23.7548 73.6903 24.0962 73.0503 24.338C72.4245 24.5655 71.7205 24.6793 70.9383 24.6793ZM70.9383 22.3753C71.749 22.3753 72.3676 22.1406 72.7943 21.6713C73.2352 21.202 73.4556 20.4766 73.4556 19.4953V18.8126C73.4556 17.8455 73.2281 17.1273 72.773 16.658C72.3321 16.1744 71.7205 15.9326 70.9383 15.9326C70.1276 15.9326 69.5018 16.1673 69.061 16.6366C68.6343 17.106 68.421 17.8313 68.421 18.8126V19.4953C68.421 20.4624 68.6414 21.1877 69.0823 21.6713C69.5374 22.1406 70.1561 22.3753 70.9383 22.3753ZM79.5975 24.4873L82.0081 20.9033L84.4188 24.4873H87.2775L83.5868 19.0046L87.1068 13.8206H84.3761L82.0935 17.2126L79.8535 13.8206H76.9948L80.5148 19.09L76.8241 24.4873H79.5975ZM93.0508 24.6793C91.7992 24.6793 90.8108 24.2953 90.0855 23.5273C89.3601 22.7451 88.9975 21.5717 88.9975 20.0073V13.8206H91.4721V20.0073C91.4721 20.7895 91.657 21.3797 92.0268 21.778C92.3966 22.1762 92.8801 22.3753 93.4775 22.3753C94.2028 22.3753 94.7788 22.1691 95.2055 21.7566C95.6464 21.3442 95.881 20.7966 95.9095 20.114V13.8206H98.3841V24.4873H96.4428L96.2508 23.314C95.8668 23.7548 95.4046 24.0962 94.8641 24.338C94.3237 24.5655 93.7192 24.6793 93.0508 24.6793ZM102.076 23.7193C102.787 24.3593 103.875 24.6793 105.34 24.6793C106.122 24.6793 106.791 24.6011 107.345 24.4446C107.914 24.274 108.376 24.0464 108.732 23.762C109.102 23.4775 109.372 23.1362 109.543 22.738C109.728 22.3397 109.82 21.906 109.82 21.4366C109.82 20.7113 109.664 20.1353 109.351 19.7086C109.052 19.282 108.675 18.9548 108.22 18.7273C107.765 18.4855 107.274 18.3148 106.748 18.2153C106.222 18.1015 105.731 17.9948 105.276 17.8953C104.821 17.7815 104.437 17.6464 104.124 17.49C103.825 17.3193 103.676 17.0562 103.676 16.7006C103.676 16.4162 103.797 16.1744 104.039 15.9753C104.295 15.7762 104.728 15.6766 105.34 15.6766C105.866 15.6766 106.243 15.7904 106.471 16.018C106.712 16.2455 106.89 16.6508 107.004 17.234H109.607C109.493 16.0962 109.095 15.2144 108.412 14.5886C107.729 13.9486 106.705 13.6286 105.34 13.6286C104.615 13.6286 103.982 13.714 103.441 13.8846C102.915 14.0411 102.474 14.2615 102.119 14.546C101.763 14.8162 101.5 15.1433 101.329 15.5273C101.159 15.9113 101.073 16.3237 101.073 16.7646C101.073 17.4615 101.223 18.0091 101.521 18.4073C101.834 18.7913 102.218 19.0971 102.673 19.3246C103.128 19.538 103.619 19.7015 104.145 19.8153C104.672 19.9148 105.162 20.0286 105.617 20.1566C106.072 20.2704 106.449 20.4268 106.748 20.626C107.061 20.8251 107.217 21.1166 107.217 21.5006C107.217 21.842 107.082 22.1193 106.812 22.3326C106.556 22.5317 106.065 22.6313 105.34 22.6313C104.728 22.6313 104.288 22.5104 104.017 22.2686C103.761 22.0126 103.576 21.5788 103.463 20.9673H100.86C100.974 22.1477 101.379 23.0651 102.076 23.7193Z" fill="black"/>
</svg>
