<svg width="1920" height="908" viewBox="0 0 1920 908" fill="none" xmlns="http://www.w3.org/2000/svg">
<path d="M0 0H1920V892H964H0L0 0Z" fill="url(#paint0_linear)"/>
<path opacity="0.05" d="M395.007 418.318C642.817 263.776 677.979 71.7504 667.352 0H0V908H26.4779C40.4637 611.377 107.533 597.597 395.007 418.318Z" fill="white"/>
<path opacity="0.05" d="M488.206 381.097C563.261 493.477 535.309 744.524 511.95 856H0V310.504C231.652 213.527 394.387 240.623 488.206 381.097Z" fill="white"/>
<path opacity="0.05" d="M1100.99 856.489C1035.85 555.712 1631.5 354.955 1561.87 0.21098L1920 0.210972L1920 856.489L1100.99 856.489Z" fill="white"/>
<path opacity="0.05" d="M1659.63 246.157C1720.76 199.346 1858.68 135.881 1920 110V640C1884.86 631.748 1789.81 596.34 1690.76 520.722C1566.94 426.2 1583.21 304.671 1659.63 246.157Z" fill="white"/>
<path opacity="0.05" d="M730 -84.3167C730 226.958 466.784 479.367 142 479.367C-182.784 479.367 -446 226.958 -446 -84.3167C-446 -395.591 -182.784 -648 142 -648C466.784 -648 730 -395.591 730 -84.3167Z" stroke="black" stroke-width="2"/>
<path opacity="0.05" d="M2407 297.5C2407 379.461 2354.08 453.813 2268.2 507.724C2182.33 561.628 2063.65 595 1932.5 595C1801.35 595 1682.67 561.628 1596.8 507.724C1510.92 453.813 1458 379.461 1458 297.5C1458 215.539 1510.92 141.187 1596.8 87.2756C1682.67 33.3725 1801.35 0 1932.5 0C2063.65 0 2182.33 33.3725 2268.2 87.2756C2354.08 141.187 2407 215.539 2407 297.5Z" stroke="black" stroke-width="2"/>
<defs>
<linearGradient id="paint0_linear" x1="960" y1="0" x2="960" y2="846.882" gradientUnits="userSpaceOnUse">
<stop stop-color="#18ABF4"/>
<stop offset="1" stop-color="#1892CF"/>
</linearGradient>
</defs>
</svg>
