<svg width="1920" height="784" viewBox="0 0 1920 784" fill="none" xmlns="http://www.w3.org/2000/svg">
<mask id="mask0" mask-type="alpha" maskUnits="userSpaceOnUse" x="0" y="0" width="1921" height="784">
<rect y="184" width="1920" height="416" fill="#EDF6FA"/>
<path opacity="0.5" d="M0 600H1920V647.473C1920 647.473 746.249 784 478.124 784C142.968 784 0 663.412 0 663.412V600Z" fill="#EDF6FA"/>
<path opacity="0.5" d="M0 600H1920V639.503C1920 639.503 719.999 713.657 451.874 713.657C280.311 713.657 0 663.412 0 663.412V600Z" fill="#EDF6FA"/>
<path opacity="0.5" d="M0 600H1920V670.689C1920 670.689 1647.66 763.556 1379.53 763.556C1038.75 763.556 0 663.412 0 663.412V600Z" fill="#EDF6FA"/>
<path opacity="0.5" d="M0 600H1920V668.264C1920 668.264 1647.66 738.606 1379.53 738.606C1038.75 738.606 0 661.333 0 661.333V600Z" fill="#EDF6FA"/>
<path opacity="0.7" d="M0 600H1920V666.531C1920 666.531 1664.06 725.439 1395.94 725.439C1055.16 725.439 0 661.333 0 661.333V600Z" fill="#EDF6FA"/>
<path opacity="0.5" d="M0 600H1920V655.443C1920 655.443 1583.44 700.836 1350 711.925C985.781 729.225 0 661.333 0 661.333V600Z" fill="#EDF6FA"/>
<path opacity="0.5" d="M1920 184H0.000366211V136.527C0.000366211 136.527 1173.75 0 1441.88 0C1777.03 0 1920 120.588 1920 120.588V184Z" fill="#EDF6FA"/>
<path opacity="0.5" d="M1920 184H0.000366211V144.497C0.000366211 144.497 1200 70.3428 1468.13 70.3428C1639.69 70.3428 1920 120.588 1920 120.588V184Z" fill="#EDF6FA"/>
<path opacity="0.5" d="M1920 184H0.00134277V113.311C0.00134277 113.311 272.345 20.4444 540.47 20.4444C881.251 20.4444 1920 120.588 1920 120.588V184Z" fill="#EDF6FA"/>
<path opacity="0.5" d="M1920 184H0.00134277V115.736C0.00134277 115.736 272.345 45.3936 540.47 45.3936C881.251 45.3936 1920 122.667 1920 122.667V184Z" fill="#EDF6FA"/>
<path opacity="0.7" d="M1920 184H0.00134277V117.469C0.00134277 117.469 255.939 58.5612 524.063 58.5612C864.844 58.5612 1920 122.667 1920 122.667V184Z" fill="#EDF6FA"/>
<path opacity="0.5" d="M1920 184H0.00134277V128.557C0.00134277 128.557 336.564 83.1638 570.001 72.0753C934.219 54.7746 1920 122.667 1920 122.667V184Z" fill="#EDF6FA"/>
</mask>
<g mask="url(#mask0)">
<rect width="1920" height="784" fill="url(#paint0_linear)"/>
<path opacity="0.1" d="M1027.5 106C1027.5 238.872 943.306 359.235 807.036 446.404C670.771 533.57 482.492 587.5 274.5 587.5C66.5076 587.5 -121.771 533.57 -258.036 446.404C-394.306 359.235 -478.5 238.872 -478.5 106C-478.5 -26.8716 -394.306 -147.235 -258.036 -234.404C-121.771 -321.57 66.5076 -375.5 274.5 -375.5C482.492 -375.5 670.771 -321.57 807.036 -234.404C943.306 -147.235 1027.5 -26.8716 1027.5 106Z" stroke="black"/>
<ellipse opacity="0.05" cx="240.5" cy="155" rx="753.5" ry="482" fill="white"/>
<path opacity="0.1" d="M839.5 425.5C839.5 828.754 565.643 1155.5 228 1155.5C-109.643 1155.5 -383.5 828.754 -383.5 425.5C-383.5 22.2456 -109.643 -304.5 228 -304.5C565.643 -304.5 839.5 22.2456 839.5 425.5Z" stroke="black"/>
<path opacity="0.1" d="M2197.5 676.5C2197.5 939.877 1952.22 1153.5 1649.5 1153.5C1346.78 1153.5 1101.5 939.877 1101.5 676.5C1101.5 413.123 1346.78 199.5 1649.5 199.5C1952.22 199.5 2197.5 413.123 2197.5 676.5Z" stroke="black"/>
<ellipse opacity="0.05" cx="1679.5" cy="625.5" rx="548.5" ry="477.5" fill="white"/>
</g>
<defs>
<linearGradient id="paint0_linear" x1="960" y1="0" x2="960" y2="784" gradientUnits="userSpaceOnUse">
<stop stop-color="#18ABF4"/>
<stop offset="1" stop-color="#1892CF"/>
</linearGradient>
</defs>
</svg>
