<svg width="1600" height="724" viewBox="0 0 1600 724" fill="none" xmlns="http://www.w3.org/2000/svg">
<ellipse rx="799.006" ry="343.525" transform="matrix(0.994679 -0.103019 0.126831 0.991924 800.547 366.028)" fill="#EDF6FA"/>
<path d="M1506.42 274.803C1518.41 368.592 1447.56 462.12 1322.95 537.488C1198.37 612.834 1020.22 669.92 818.035 690.86C615.847 711.801 427.949 692.626 287.613 644.718C147.233 596.795 54.6292 520.195 42.637 426.407C30.6448 332.618 101.496 239.09 226.111 163.721C350.688 88.3761 528.834 31.2902 731.022 10.3497C933.21 -10.5908 1121.11 8.58397 1261.44 56.4923C1401.82 104.415 1494.43 181.015 1506.42 274.803Z" stroke="#D9EDF7"/>
</svg>
