<svg width="64" height="64" viewBox="0 0 64 64" fill="none" xmlns="http://www.w3.org/2000/svg">
<rect opacity="0.5" width="64" height="64" rx="16" fill="#F5DACC"/>
<path d="M42.2927 36.6655C42.8989 36.8984 43.1321 37.8054 43.1785 38.201C43.2719 38.9228 43.0626 39.202 42.8294 39.202C42.5961 39.202 42.2695 38.9228 41.9204 38.3645C41.5706 37.8054 41.4308 37.1776 41.6176 36.8514C41.7335 36.6416 41.9892 36.549 42.2927 36.6655ZM38.7509 39.2953C39.1239 39.2953 39.5433 39.4581 39.9163 39.7835C40.6384 40.3889 40.8484 41.0869 40.4754 41.599C40.2654 41.855 39.9163 42.0178 39.5201 42.0178C39.1239 42.0178 38.7045 41.8782 38.425 41.6221C37.7724 41.0637 37.5862 40.1322 38.0049 39.6208C38.1686 39.4111 38.425 39.2953 38.7509 39.2953ZM30.5954 46.0204C21.7395 46.0204 14.5625 38.8527 14.5625 30.0098C14.5625 21.167 21.7402 14 30.5947 14C39.4498 14 46.6275 21.1677 46.6275 30.0098C46.6275 33.0115 45.7888 35.8279 44.3678 38.2249C44.3207 38.2943 44.2041 38.2712 44.1809 38.1779C43.6217 34.2454 41.2214 32.0806 37.726 31.4296C37.4225 31.3826 37.3762 31.1967 37.7724 31.1505C38.8443 31.0571 40.3588 31.0803 41.1512 31.2199C41.1975 30.8243 41.2214 30.4055 41.2214 29.9867C41.2214 24.1455 36.4672 19.3979 30.6178 19.3979C24.7692 19.3979 20.015 24.1455 20.015 29.9867C20.015 35.8279 24.7692 40.5755 30.6186 40.5755H31.1075C30.9414 39.6308 30.871 38.6717 30.8974 37.7128C30.9213 37.0611 31.0611 36.9678 31.3407 37.4799C32.8088 40.0164 34.9064 42.2969 39.0073 43.2047C42.3629 43.9496 45.7186 44.8104 49.3306 49.3945C49.6565 49.7901 49.1676 50.2089 48.7946 49.8834C45.1131 46.6251 41.7574 45.5546 38.7045 45.5546C35.2786 45.5785 32.9493 46.0204 30.5954 46.0204Z" fill="#FF8C00"/>
</svg>
