<svg width="100" height="81" viewBox="0 0 100 81" fill="none" xmlns="http://www.w3.org/2000/svg">
<path opacity="0.1" d="M20 5.04041L45.6 5.04041L21.6 81H4L20 5.04041ZM74.4 5.04041H100L76 81H58.4L74.4 5.04041Z" fill="#5E6E77"/>
<path opacity="0.2" d="M18 0.500366H17.5943L17.5107 0.897308L1.51073 76.8569L1.38371 77.46H2H19.6H19.9664L20.0768 77.1106L44.0768 1.151L44.2823 0.500366H43.6L18 0.500366ZM72.4 0.500366H71.9943L71.9107 0.897308L55.9107 76.8569L55.7837 77.46H56.4H74H74.3664L74.4768 77.1106L98.4768 1.151L98.6823 0.500366H98H72.4Z" stroke="#5E6E77"/>
</svg>
