<svg width="48" height="48" viewBox="0 0 48 48" fill="none" xmlns="http://www.w3.org/2000/svg">
<path opacity="0.15" d="M6 2.25391H28.35C28.35 2.25391 28.35 2.25393 34.35 7.79963C40.35 13.3453 42.1501 16.7995 42.1501 16.7995V47.9996H6V2.25391Z" fill="black"/>
<path d="M5 1.00438C5 0.728242 5.22386 0.504384 5.5 0.504384H26.0119L26.037 0.504286L26.0567 0.504186C26.0647 0.504171 26.0704 0.504221 26.0746 0.50431C26.1823 0.537336 26.6706 0.737629 27.944 1.76081C29.2619 2.81974 31.3811 4.72631 34.7433 8.15042C38.3274 11.8006 40.252 13.981 41.283 15.2671C41.7986 15.9103 42.0851 16.3229 42.2427 16.5787C42.3401 16.7367 42.3829 16.8264 42.4001 16.8663V45.5001C42.4001 45.7762 42.1762 46.0001 41.9001 46.0001H5.5C5.22386 46.0001 5 45.7762 5 45.5001V1.00438Z" stroke="black"/>
<rect opacity="0.15" x="9.30005" y="14.0996" width="28.8" height="28.8" fill="black"/>
<rect x="8.30005" y="12.3496" width="27.8" height="27.8" stroke="black"/>
<rect x="13.4" y="18.1992" width="20.6" height="14.4" stroke="black"/>
<rect x="14" y="35.75" width="8.00001" height="2.00001" stroke="black"/>
<rect x="25.25" y="35.75" width="8.00001" height="2.00001" stroke="black"/>
<path fill-rule="evenodd" clip-rule="evenodd" d="M15.3 30.5L21.6003 20.5L25.6765 26.97L27.8999 22.9998L32.1001 30.4999H27.9004L27.9005 30.5H15.3Z" fill="black"/>
<path d="M42.8959 16.8C39.6631 13.5672 39.5414 12.6678 31.3031 12.6047C30.7508 12.6005 30.2998 12.1508 30.2931 11.5986C30.1827 2.52051 28.5329 2.43711 26.1 0.00420171C26.1 0.00420171 28.1995 -0.415795 35.7576 7.14232C43.3158 14.7004 42.8959 16.8 42.8959 16.8Z" fill="black"/>
</svg>
