<svg width="48" height="48" viewBox="0 0 48 48" fill="none" xmlns="http://www.w3.org/2000/svg">
<circle opacity="0.25" cx="25.309" cy="15.9821" r="6.10909" fill="black"/>
<circle opacity="0.25" cx="38.4" cy="17.7269" r="4.36364" fill="black"/>
<ellipse opacity="0.25" cx="9.59997" cy="15.9828" rx="4.36364" ry="4.36364" fill="black"/>
<path d="M15.3363 16.8539C15.3363 18.9877 13.6065 20.7175 11.4727 20.7175C9.33888 20.7175 7.60907 18.9877 7.60907 16.8539C7.60907 14.72 9.33888 12.9902 11.4727 12.9902C13.6065 12.9902 15.3363 14.72 15.3363 16.8539Z" stroke="black"/>
<path d="M29.0454 15.5455C29.0454 18.8843 26.3388 21.5909 23 21.5909C19.6612 21.5909 16.9545 18.8843 16.9545 15.5455C16.9545 12.2066 19.6612 9.5 23 9.5C26.3388 9.5 29.0454 12.2066 29.0454 15.5455Z" stroke="black"/>
<circle cx="36.5273" cy="16.8539" r="3.86364" stroke="black"/>
<path opacity="0.25" d="M11.4728 32.436C11.4728 26.327 18.822 22.6344 25.4365 22.836C32.051 23.0375 38.5274 26.327 38.5274 32.436C38.5273 36.3633 30.2364 36.7996 24.5637 36.7996C20.2 36.7996 11.4728 36.3633 11.4728 32.436Z" fill="black"/>
<path d="M11.8456 34.309C11.8456 31.4811 13.5413 29.1699 16.1116 27.5668C18.684 25.9624 22.0757 25.1107 25.294 25.2088C28.5324 25.3075 31.7091 26.1627 34.0601 27.7113C36.3996 29.2524 37.9001 31.4597 37.9001 34.309C37.9001 35.08 37.5061 35.7059 36.7334 36.2352C35.9459 36.7746 34.8059 37.1803 33.4401 37.4748C30.7148 38.0626 27.2705 38.1727 24.4365 38.1727C22.2617 38.1727 19.0339 38.0631 16.362 37.4753C15.0225 37.1806 13.8658 36.7745 13.0554 36.2322C12.256 35.6971 11.8456 35.0701 11.8456 34.309Z" stroke="black"/>
<path d="M1.37274 31.0378V31.0378C1.37274 28.9617 2.54943 27.2646 4.34233 26.0835C6.13997 24.8993 8.51405 24.2691 10.7663 24.3416C13.0398 24.4147 15.2628 25.049 16.9023 26.1897C18.5295 27.3218 19.5727 28.9409 19.5727 31.0378C19.5727 31.5752 19.3162 32.0103 18.7973 32.3857C18.2621 32.773 17.4764 33.071 16.5165 33.2897C14.6017 33.7259 12.1734 33.8087 10.1631 33.8087C8.62225 33.8087 6.34702 33.7264 4.46973 33.2901C3.528 33.0713 2.72959 32.7728 2.17745 32.3825C1.63854 32.0016 1.37273 31.5656 1.37274 31.0378Z" stroke="black"/>
<path d="M28.4272 31.0378V31.0378C28.4272 28.9617 29.6039 27.2646 31.3968 26.0835C33.1945 24.8993 35.5686 24.2691 37.8208 24.3416C40.0943 24.4147 42.3173 25.049 43.9568 26.1897C45.584 27.3218 46.6272 28.9409 46.6272 31.0378C46.6272 31.5752 46.3707 32.0103 45.8518 32.3857C45.3166 32.773 44.531 33.071 43.571 33.2897C41.6562 33.7259 39.2279 33.8087 37.2176 33.8087C35.6767 33.8087 33.4015 33.7264 31.5242 33.2901C30.5825 33.0713 29.7841 32.7728 29.232 32.3825C28.693 32.0016 28.4272 31.5656 28.4272 31.0378Z" stroke="black"/>
<path opacity="0.25" d="M0 29.0378C0 24.4586 5.21553 21.6907 9.90968 21.8418C14.6038 21.9929 19.2 24.4586 19.2 29.0378C19.1999 31.9816 13.3161 32.3087 9.29032 32.3087C6.19347 32.3087 -5.40279e-05 31.9816 0 29.0378Z" fill="black"/>
<path opacity="0.25" d="M28.8 32.9108C28.8 28.3316 34.0155 25.5638 38.7097 25.7149C43.4038 25.8659 48 28.3316 48 32.9108C47.9999 35.8547 42.116 36.1817 38.0903 36.1817C34.9935 36.1817 28.7999 35.8547 28.8 32.9108Z" fill="black"/>
</svg>
