<svg width="49" height="48" viewBox="0 0 49 48" fill="none" xmlns="http://www.w3.org/2000/svg">
<path opacity="0.25" d="M8.47059 30.075L7.85294 27.8691H15.8824C16.1647 29.8456 14.3529 30.8103 13.4118 31.0456L16.4118 39.428C17.3294 39.075 18.0294 39.9868 18.2647 40.4868C18.3529 40.6927 18.6353 41.3868 19.0588 42.5162C19.6941 44.1397 18.7941 44.8986 18.2647 45.075C17.9412 45.1633 16.8353 45.4633 15 45.9574C12.3882 46.6633 11.0882 44.7221 10.7647 43.6633L7.5 31.1338L8.47059 30.075Z" fill="black"/>
<path d="M10.3392 31.9129L10.527 31.7079L10.4521 31.4402L10.0122 29.8691H16.9097C16.8835 30.4539 16.6179 30.9031 16.2583 31.2509C15.7995 31.6946 15.196 31.9592 14.7905 32.0605L14.255 32.1944L14.441 32.7141L17.441 41.0964L17.6135 41.5784L18.0913 41.3946C18.3393 41.2992 18.5616 41.3581 18.7886 41.5333C19.0259 41.7165 19.2138 41.9935 19.3087 42.1922C19.3969 42.3988 19.6743 43.0814 20.0907 44.1918L20.0906 44.1918L20.0932 44.1984C20.3695 44.9044 20.2877 45.3476 20.1532 45.6109C20.0128 45.8858 19.7768 46.0404 19.6178 46.0968C19.2764 46.1899 18.177 46.4881 16.37 46.9746L16.3695 46.9747C15.2165 47.2863 14.3986 47.0115 13.8281 46.575C13.2392 46.1244 12.8856 45.477 12.7458 45.0266L9.55246 32.7711L10.3392 31.9129Z" stroke="black"/>
<path opacity="0.35" d="M7.10297 27.1329H15.8383V10.1035H7.1912C5.51473 10.1035 1.98532 11.1094 1.98532 15.1329V22.0153C1.98532 26.1094 5.39709 27.1329 7.10297 27.1329Z" fill="black"/>
<path d="M14.1029 11.3535V24.3829H5.86765C5.09472 24.3829 3.92419 24.1469 2.96127 23.4536C2.02384 22.7787 1.25 21.6494 1.25 19.7653V15.8829C1.25 14.0449 2.0437 12.9373 3.00848 12.2708C3.99955 11.586 5.19591 11.3535 5.95588 11.3535H14.1029Z" stroke="black"/>
<path opacity="0.15" d="M8.33823 12.3521V26.3816H23.0294C35.2412 26.3816 40.2941 32.2639 41.2941 35.2051C41.2941 35.2051 44.2941 29.3816 44.2941 19.4551C44.2941 9.52861 41.2941 3.70508 41.2941 3.70508C38.6118 10.6227 28 12.3521 23.0294 12.3521H8.33823Z" fill="black"/>
<path d="M23.0294 24.3816H16.3382V11.3521H23.0294C25.562 11.3521 29.1486 10.913 32.4559 9.5868C35.4326 8.39315 38.2321 6.4592 39.7895 3.43312C39.7926 3.4408 39.7957 3.44851 39.7988 3.45627C40.0738 4.1416 40.4427 5.16232 40.8124 6.49163C41.5518 9.15017 42.2941 13.0425 42.2941 17.9551C42.2941 22.8677 41.5518 26.76 40.8124 29.4185C40.4488 30.7259 40.0859 31.7349 39.8125 32.4198C39.1439 30.9993 37.9663 29.2742 35.9093 27.7853C33.2672 25.873 29.2172 24.3816 23.0294 24.3816Z" stroke="black"/>
<path opacity="0.25" d="M45.7941 18.7055C45.7941 8.77905 42.7941 2.95552 42.7941 2.95552C41.7353 0.749691 44.1177 -0.0444942 44.9118 2.24963C44.9118 2.24963 48 8.42611 48 18.7055C48 28.9849 44.9118 35.5143 44.9118 35.5143C44.2059 37.1909 42 36.1321 42.7941 34.4555C42.7941 34.4555 45.7941 28.632 45.7941 18.7055Z" fill="black"/>
<path d="M44.9118 0.75C44.9118 0.75 48 6.92647 48 17.2059C48 27.4853 44.9118 34.0147 44.9118 34.0147" stroke="black"/>
</svg>
