<svg width="489" height="250" viewBox="0 0 489 250" fill="none" xmlns="http://www.w3.org/2000/svg">
<path opacity="0.5" d="M334.653 98.7522L443.596 23L459.086 33.6195L334.653 98.7522L466.314 37.8673L488 52.0265L334.653 98.7522Z" fill="#0088CC"/>
<path opacity="0.15" d="M463.733 74.6811L334.653 98.7519L459.086 33.6191L463.733 74.6811Z" fill="#0088CC"/>
<path opacity="0.15" d="M463.733 74.6813L334.653 98.7521L466.314 37.8672L463.733 74.6813Z" fill="#0088CC"/>
<path d="M333.621 101.584L442.564 25.832L458.054 36.4515L333.621 101.584ZM333.621 101.584L486.968 54.8586L465.282 40.6993L333.621 101.584Z" stroke="#0088CC"/>
<path d="M460.635 78.9291L331.556 103L455.988 37.8672L460.635 78.9291Z" stroke="#0088CC"/>
<path d="M460.635 78.9294L331.556 103L463.217 42.1152L460.635 78.9294Z" stroke="#0088CC"/>
<path opacity="0.25" fill-rule="evenodd" clip-rule="evenodd" d="M213.205 7.96005C216.752 7.68415 224.501 6.47015 227.121 3.82144C232.033 -1.97232 239.4 -0.524107 245.13 3.82144C248.405 6.30461 257.409 8.78778 263.14 3.82144C268.87 -1.1449 274.6 -0.317176 281.149 3.82144C286.388 7.13233 290.972 7.96005 292.609 7.96005L279.512 32.7917C272.963 44.3802 272.144 46.863 290.972 64.2452C315.53 86.9176 340.088 137.085 340.088 177.644C340.088 229.79 303.579 243.034 252.498 243.034C201.417 243.034 169 224.824 169 177.644C169 123.842 201.908 78.1507 215.66 64.2452C232.851 51.002 234.98 44.7107 227.121 32.7917L213.205 7.96005ZM235.035 184.004C238.291 187.839 243.207 190.113 249.782 190.828V199.992H259.933V190.828C266.892 190.113 272.031 188.001 275.351 184.492C278.67 180.982 280.33 176.563 280.33 171.233C280.33 167.789 279.724 164.929 278.511 162.654C277.298 160.38 275.734 158.495 273.818 157C271.903 155.44 269.733 154.238 267.307 153.393C264.881 152.483 262.423 151.671 259.933 150.956V132.238C262.295 132.823 263.987 133.993 265.008 135.748C266.094 137.438 266.796 139.842 267.115 142.962H279.373C278.926 136.463 277.17 131.426 274.106 127.851C271.041 124.277 266.317 122.132 259.933 121.417V112.253H249.782V121.417C246.526 121.807 243.685 122.555 241.26 123.659C238.897 124.764 236.918 126.129 235.322 127.754C233.726 129.379 232.513 131.263 231.683 133.408C230.917 135.488 230.534 137.73 230.534 140.135C230.534 143.319 231.077 145.984 232.162 148.129C233.311 150.274 234.78 152.093 236.567 153.588C238.355 155.018 240.398 156.188 242.696 157.098C244.994 158.008 247.356 158.787 249.782 159.437V180.007C247.165 179.292 245.25 177.96 244.037 176.01C242.824 173.995 242.089 171.103 241.834 167.334H229.577C230.024 174.613 231.843 180.17 235.035 184.004ZM265.87 165.677C267.466 166.976 268.264 168.764 268.264 171.038C268.264 173.248 267.594 175.165 266.253 176.79C264.913 178.35 262.806 179.455 259.933 180.105V162.362C262.359 163.272 264.338 164.377 265.87 165.677ZM244.611 145.107C243.271 143.937 242.6 142.312 242.6 140.232C242.6 138.348 243.175 136.69 244.324 135.26C245.473 133.831 247.293 132.823 249.782 132.238V148.031C247.676 147.251 245.952 146.277 244.611 145.107Z" fill="#E9872C"/>
<path d="M263.708 134.552C265.636 135.151 267 136.192 267.851 137.655L267.857 137.665L267.863 137.674C268.888 139.271 269.577 141.588 269.893 144.669L269.939 145.118H270.39H282.647H283.183L283.146 144.583C282.695 138.017 280.917 132.864 277.76 129.182C274.66 125.566 269.95 123.401 263.708 122.628V113.909V113.409H263.208H253.057H252.557V113.909V122.632C249.444 123.04 246.698 123.78 244.327 124.86L244.327 124.86L244.323 124.862C241.914 125.989 239.884 127.386 238.241 129.059C236.596 130.733 235.346 132.676 234.492 134.883L234.492 134.883L234.489 134.891C233.701 137.031 233.309 139.332 233.309 141.791C233.309 145.029 233.861 147.777 234.991 150.01L234.991 150.01L234.996 150.021C236.174 152.219 237.683 154.09 239.521 155.627L239.521 155.627L239.53 155.634C241.359 157.098 243.446 158.292 245.787 159.218C247.986 160.089 250.243 160.841 252.557 161.476V180.991C250.368 180.272 248.775 179.071 247.738 177.405C246.585 175.487 245.861 172.687 245.608 168.956L245.576 168.49H245.109H232.852H232.32L232.353 169.02C232.803 176.358 234.641 182.034 237.926 185.98L237.929 185.984C241.216 189.854 246.116 192.152 252.557 192.93V201.648V202.148H253.057H263.208H263.708V201.648V192.933C270.509 192.167 275.63 190.042 278.989 186.491C282.406 182.879 284.105 178.332 284.105 172.889C284.105 169.389 283.489 166.442 282.227 164.075C280.984 161.744 279.377 159.805 277.405 158.265C275.445 156.67 273.226 155.441 270.752 154.579C268.433 153.709 266.085 152.928 263.708 152.236V134.552ZM268.822 167.714L268.822 167.714L268.829 167.72C270.296 168.914 271.039 170.552 271.039 172.694C271.039 174.792 270.406 176.594 269.146 178.124C267.991 179.465 266.198 180.477 263.708 181.125V164.749C265.785 165.59 267.486 166.58 268.822 167.714ZM248.215 146.386C247.002 145.327 246.375 143.85 246.375 141.888C246.375 140.114 246.913 138.568 247.989 137.229C248.953 136.029 250.458 135.12 252.557 134.538V148.957C250.801 148.241 249.357 147.382 248.215 146.386Z" stroke="#E9872C"/>
<path opacity="0.5" d="M232.744 9.49142L232.771 9.46414L232.796 9.43489C235.038 6.79036 237.798 5.82023 240.674 5.98437C243.593 6.15095 246.681 7.49423 249.438 9.58503C251.249 10.9582 254.505 12.2531 258.035 12.5776C261.581 12.9036 265.57 12.2627 268.707 9.54392C271.412 7.19931 274.038 6.27994 276.714 6.37327C279.431 6.46798 282.324 7.60941 285.527 9.63358C289.743 12.2978 293.584 13.4236 295.938 13.7855L283.546 37.2792C280.328 42.9736 278.202 46.8884 279.683 51.6118C280.409 53.9252 281.97 56.3501 284.473 59.2476C286.98 62.151 290.495 65.5972 295.206 69.9468C307.358 81.1658 319.568 99.251 328.74 119.615C337.911 139.975 344 162.514 344 182.61C344 208.413 334.992 224.405 319.825 234.016C304.563 243.687 282.906 247.001 257.41 247.001C231.957 247.001 211.332 242.458 197.091 232.187C182.911 221.96 174.912 205.944 174.912 182.61C174.912 155.909 183.08 131.191 192.98 111.397C202.859 91.645 214.433 76.8564 221.237 69.9629C229.78 63.3762 234.831 58.3444 236.637 53.3274C238.498 48.1597 236.852 43.2594 232.888 37.2383L219.737 13.7723C221.444 13.5738 223.584 13.2318 225.663 12.7182C227.049 12.3757 228.429 11.9518 229.645 11.4334C230.847 10.9206 231.958 10.2865 232.744 9.49142Z" stroke="#E9872C" stroke-width="2"/>
<path opacity="0.25" d="M263.139 3.82123C257.409 8.78757 248.405 6.3044 245.13 3.82123C242.848 2.09044 240.306 0.819271 237.763 0.282227L251.679 49.3466H258.228L269.868 0.510653C267.593 0.836385 265.366 1.89134 263.139 3.82123Z" fill="#E9872C"/>
<path opacity="0.25" d="M340.088 177.644C340.088 137.085 315.53 86.9176 290.972 64.2452C285.728 59.4038 282.008 55.7183 279.512 52.6699C351.549 193.37 289.335 233.937 201.744 233.937C215.221 240.219 232.417 243.034 252.498 243.034C303.579 243.034 340.088 229.79 340.088 177.644Z" fill="#E9872C"/>
<path opacity="0.6" d="M227.939 43.7246C227.939 43.1723 228.387 42.7246 228.939 42.7246H277.693C278.245 42.7246 278.693 43.1723 278.693 43.7246V48.3464C278.693 48.8987 278.245 49.3464 277.693 49.3464H270.965C270.124 49.3464 269.642 50.3323 270.145 51.0061C272.536 54.2054 277.889 61.7935 282.786 71.6949C285.241 76.6613 280.379 79.5278 278.693 75.8335C274.233 66.0639 263.701 52.2004 261.799 49.7302C261.611 49.4862 261.322 49.3464 261.014 49.3464H248.839C248.562 49.3464 248.304 49.4534 248.117 49.6572C246.095 51.8515 233.932 65.2289 227.939 75.8335C223.546 83.607 217.298 82.4553 220.572 75.8335C224.983 66.911 234.659 55.3006 238.344 51.0231C238.908 50.3682 238.437 49.3464 237.572 49.3464H228.939C228.387 49.3464 227.939 48.8987 227.939 48.3464V43.7246Z" fill="#E9872C"/>
<path d="M229.439 45.7246C229.439 45.4485 229.663 45.2246 229.939 45.2246H278.693C278.969 45.2246 279.193 45.4485 279.193 45.7246V50.3464C279.193 50.6225 278.969 50.8464 278.693 50.8464H271.965C270.701 50.8464 270.002 52.3107 270.745 53.3054C273.124 56.4898 278.459 64.0513 283.337 73.9165C284.49 76.2473 283.869 77.9261 282.984 78.6181C282.533 78.971 282.003 79.089 281.517 78.9604C281.035 78.833 280.52 78.4422 280.147 77.6259C275.66 67.7949 265.09 53.8859 263.195 51.4252C262.911 51.0561 262.474 50.8464 262.014 50.8464H249.839C249.429 50.8464 249.036 51.0067 248.749 51.3184C246.733 53.5066 234.53 66.9247 228.504 77.5875C227.432 79.4844 226.259 80.8141 225.17 81.647C224.071 82.4882 223.102 82.791 222.422 82.7335C222.09 82.7054 221.831 82.5931 221.639 82.4209C221.447 82.2483 221.292 81.9888 221.213 81.6168C221.052 80.8566 221.224 79.6645 222.02 78.0551C226.399 69.198 236.032 57.6333 239.723 53.3494C240.568 52.3681 239.861 50.8464 238.572 50.8464H229.939C229.663 50.8464 229.439 50.6225 229.439 50.3464V45.7246Z" stroke="#E9872C"/>
<path opacity="0.25" d="M51.5772 244.737L207.825 175L46.1582 194.925L51.5772 244.737Z" fill="#0088CC"/>
<path opacity="0.25" d="M51.5771 244.737L207.825 175L62.4151 199.453L51.5771 244.737Z" fill="#0088CC"/>
<path d="M50.4024 248.273L206.65 178.535L44.9834 198.46L50.4024 248.273Z" stroke="#0088CC"/>
<path opacity="0.5" d="M207.825 175L46.1583 194.925L1 180.434L207.825 175L131.056 221.19L62.4152 199.453L207.825 175Z" fill="#0088CC"/>
<path d="M209 177.357L47.3331 197.282L2.1748 182.792L209 177.357ZM209 177.357L132.231 223.547L63.59 201.811L209 177.357Z" stroke="#0088CC"/>
<path d="M52.752 247.095L209 177.357L63.5899 201.811L52.752 247.095Z" stroke="#0088CC"/>
<path opacity="0.25" d="M41.3884 0L103.99 54.0177L1 45.5929L18.6699 25.7699L103.99 54.0177L26.7476 16.354L41.3884 0Z" fill="#0088CC"/>
<path opacity="0.5" d="M105 56.0001L42.3981 1.98242L27.7573 18.3364L105 56.0001ZM105 56.0001L19.6797 27.7523L2.00977 47.5753L105 56.0001Z" stroke="#0088CC"/>
<path opacity="0.1" d="M26.748 35.1854L103.991 54.0172L26.748 16.3535V35.1854Z" fill="#0088CC"/>
<path opacity="0.5" d="M25.7383 36.1766L102.981 55.0084L25.7383 17.3447V36.1766Z" stroke="#0088CC"/>
<path opacity="0.1" d="M26.7476 35.1855L103.99 54.0173L18.6699 25.7695L26.7476 35.1855Z" fill="#0088CC"/>
<path opacity="0.5" d="M25.7378 36.1767L102.981 55.0085L17.6602 26.7607L25.7378 36.1767Z" stroke="#0088CC"/>
</svg>
