<svg width="64" height="64" viewBox="0 0 64 64" fill="none" xmlns="http://www.w3.org/2000/svg">
<circle opacity="0.25" cx="33.7451" cy="21.309" r="8.14546" fill="black"/>
<ellipse opacity="0.25" cx="51.2" cy="23.6365" rx="5.81818" ry="5.81818" fill="black"/>
<ellipse opacity="0.25" cx="12.7996" cy="21.3089" rx="5.81818" ry="5.81818" fill="black"/>
<circle cx="15.2967" cy="22.4725" r="5.31818" stroke="black"/>
<path d="M38.894 20.7273C38.894 25.2711 35.2105 28.9545 30.6667 28.9545C26.1229 28.9545 22.4395 25.2711 22.4395 20.7273C22.4395 16.1835 26.1229 12.5 30.6667 12.5C35.2105 12.5 38.894 16.1835 38.894 20.7273Z" stroke="black"/>
<circle cx="48.7029" cy="22.4725" r="5.31818" stroke="black"/>
<path opacity="0.25" d="M15.2969 43.2485C15.2969 35.1031 25.0957 30.1797 33.9151 30.4485C42.7344 30.7172 51.3696 35.1031 51.3696 43.2485C51.3695 48.4849 40.3149 49.0666 32.7514 49.0666C26.9331 49.0666 15.2968 48.4849 15.2969 43.2485Z" fill="black"/>
<path d="M15.627 45.7455C15.627 41.8995 17.9351 38.7714 21.3934 36.6145C24.8539 34.4563 29.4092 33.3136 33.7299 33.4453C38.0707 33.5776 42.3384 34.7237 45.5046 36.8093C48.6594 38.8875 50.6997 41.878 50.6997 45.7455C50.6996 46.8438 50.1329 47.7242 49.0716 48.4513C47.9955 49.1884 46.4509 49.735 44.6214 50.1295C40.9688 50.9173 36.3609 51.0637 32.5815 51.0637C29.6795 51.0637 25.3607 50.9178 21.7797 50.13C19.9857 49.7353 18.4199 49.1883 17.3141 48.4482C16.2192 47.7155 15.6269 46.8339 15.627 45.7455Z" stroke="black"/>
<path d="M1.66406 41.3842C1.66406 38.5449 3.27537 36.2355 5.6985 34.6393C8.12636 33.0399 11.3262 32.1917 14.3609 32.2893C17.4167 32.3877 20.4139 33.24 22.632 34.7833C24.8378 36.318 26.2641 38.5241 26.2641 41.3842C26.264 42.167 25.885 42.7928 25.1612 43.3165C24.4212 43.8519 23.3484 44.2556 22.0594 44.5492C19.4865 45.1353 16.2324 45.2454 13.5512 45.2454C11.4942 45.2454 8.44477 45.1358 5.92233 44.5497C4.65802 44.2559 3.56928 43.8517 2.80747 43.3132C2.05889 42.7841 1.66405 42.1573 1.66406 41.3842Z" stroke="black"/>
<path d="M37.7363 41.3842C37.7363 38.5449 39.3476 36.2355 41.7708 34.6393C44.1986 33.0399 47.3985 32.1917 50.4331 32.2893C53.489 32.3877 56.4861 33.24 58.7043 34.7833C60.9101 36.318 62.3363 38.5241 62.3363 41.3842C62.3363 42.167 61.9572 42.7928 61.2335 43.3165C60.4935 43.8519 59.4207 44.2556 58.1316 44.5492C55.5588 45.1353 52.3047 45.2454 49.6234 45.2454C47.5665 45.2454 44.517 45.1358 41.9946 44.5497C40.7303 44.2559 39.6415 43.8517 38.8797 43.3132C38.1312 42.7841 37.7363 42.1573 37.7363 41.3842Z" stroke="black"/>
<path opacity="0.25" d="M0 38.7177C0 32.6121 6.95404 28.9216 13.2129 29.1231C19.4718 29.3245 25.6 32.6121 25.6 38.7177C25.5999 42.6428 17.7547 43.0789 12.3871 43.0789C8.25796 43.0789 -7.20372e-05 42.6428 0 38.7177Z" fill="black"/>
<path opacity="0.25" d="M38.4004 43.8813C38.4004 37.7757 45.3544 34.0852 51.6133 34.2867C57.8722 34.4881 64.0004 37.7757 64.0004 43.8813C64.0003 47.8064 56.1551 48.2424 50.7875 48.2424C46.6584 48.2424 38.4003 47.8064 38.4004 43.8813Z" fill="black"/>
</svg>
