<svg width="48" height="48" viewBox="0 0 48 48" fill="none" xmlns="http://www.w3.org/2000/svg">
<circle opacity="0.5" cx="25.309" cy="15.9802" r="6.10909" fill="#E9872C"/>
<circle opacity="0.5" cx="38.4" cy="17.7269" r="4.36364" fill="#E9872C"/>
<circle opacity="0.5" cx="9.59996" cy="15.9808" r="4.36364" fill="#E9872C"/>
<circle cx="11.4728" cy="16.8558" r="3.86364" stroke="#E9872C"/>
<circle cx="23" cy="15.5455" r="6.04545" stroke="#E9872C"/>
<circle cx="36.5272" cy="16.8558" r="3.86364" stroke="#E9872C"/>
<path opacity="0.5" d="M11.4729 32.436C11.4729 26.327 18.8221 22.6344 25.4365 22.836C32.051 23.0375 38.5274 26.327 38.5274 32.436C38.5273 36.3633 30.2364 36.7996 24.5638 36.7996C20.2001 36.7996 11.4728 36.3633 11.4729 32.436Z" fill="#E9872C"/>
<path d="M11.8455 34.3071C11.8455 31.4792 13.5411 29.1679 16.1114 27.5649C18.6839 25.9605 22.0756 25.1088 25.2939 25.2068C28.5323 25.3055 31.709 26.1607 34.0599 27.7093C36.3994 29.2504 37.9 31.4577 37.9 34.3071C37.9 35.078 37.506 35.7039 36.7333 36.2332C35.9458 36.7727 34.8058 37.1783 33.44 37.4729C30.7146 38.0607 27.2704 38.1707 24.4364 38.1707C22.2616 38.1707 19.0338 38.0611 16.3619 37.4733C15.0224 37.1786 13.8657 36.7726 13.0553 36.2302C12.2559 35.6952 11.8454 35.0682 11.8455 34.3071Z" stroke="#E9872C"/>
<path d="M1.3728 31.0378V31.0378C1.3728 28.9617 2.54949 27.2646 4.3424 26.0835C6.14004 24.8993 8.51411 24.2691 10.7664 24.3416C13.0399 24.4147 15.2628 25.049 16.9024 26.1897C18.5296 27.3218 19.5728 28.9409 19.5728 31.0378C19.5728 31.5752 19.3163 32.0103 18.7974 32.3857C18.2622 32.773 17.4765 33.071 16.5165 33.2897C14.6017 33.7259 12.1735 33.8087 10.1631 33.8087C8.62231 33.8087 6.34708 33.7264 4.46979 33.2901C3.52806 33.0713 2.72965 32.7728 2.17751 32.3825C1.6386 32.0016 1.37279 31.5656 1.3728 31.0378Z" stroke="#E9872C"/>
<path d="M28.4272 31.0378V31.0378C28.4272 28.9617 29.6039 27.2646 31.3968 26.0835C33.1945 24.8993 35.5686 24.2691 37.8208 24.3416C40.0943 24.4147 42.3173 25.049 43.9568 26.1897C45.584 27.3218 46.6272 28.9409 46.6272 31.0378C46.6272 31.5752 46.3707 32.0103 45.8518 32.3857C45.3166 32.773 44.531 33.071 43.571 33.2897C41.6562 33.7259 39.2279 33.8087 37.2176 33.8087C35.6767 33.8087 33.4015 33.7264 31.5242 33.2901C30.5825 33.0713 29.7841 32.7728 29.232 32.3825C28.693 32.0016 28.4272 31.5656 28.4272 31.0378Z" stroke="#E9872C"/>
<path opacity="0.5" d="M0 29.0378C0 24.4586 5.21553 21.6907 9.90968 21.8418C14.6038 21.9929 19.2 24.4586 19.2 29.0378C19.1999 31.9816 13.3161 32.3087 9.29032 32.3087C6.19347 32.3087 -5.40279e-05 31.9816 0 29.0378Z" fill="#E9872C"/>
<path opacity="0.5" d="M28.8 32.9128C28.8 28.3336 34.0156 25.5657 38.7097 25.7168C43.4039 25.8679 48 28.3336 48 32.9128C48 35.8566 42.1161 36.1837 38.0904 36.1837C34.9935 36.1837 28.8 35.8566 28.8 32.9128Z" fill="#E9872C"/>
</svg>
