<svg width="49" height="48" viewBox="0 0 49 48" fill="none" xmlns="http://www.w3.org/2000/svg">
<path opacity="0.5" d="M8.47059 30.077L7.85294 27.8711H15.8824C16.1647 29.8476 14.3529 30.8123 13.4118 31.0476L16.4118 39.4299C17.3294 39.077 18.0294 39.9887 18.2647 40.4887C18.3529 40.6946 18.6353 41.3887 19.0588 42.5182C19.6941 44.1417 18.7941 44.9005 18.2647 45.077C17.9412 45.1652 16.8353 45.4652 15 45.9593C12.3882 46.6652 11.0882 44.724 10.7647 43.6652L7.5 31.1358L8.47059 30.077Z" fill="#E9872C"/>
<path d="M10.3392 31.9148L10.527 31.7099L10.4521 31.4422L10.0122 29.8711H16.9097C16.8835 30.4559 16.6179 30.9051 16.2583 31.2528C15.7995 31.6965 15.196 31.9611 14.7905 32.0625L14.255 32.1964L14.441 32.716L17.441 41.0984L17.6135 41.5803L18.0913 41.3966C18.3393 41.3012 18.5616 41.3601 18.7886 41.5353C19.0259 41.7184 19.2138 41.9955 19.3087 42.1942C19.3969 42.4007 19.6743 43.0834 20.0907 44.1937L20.0906 44.1937L20.0932 44.2004C20.3695 44.9064 20.2877 45.3495 20.1532 45.6128C20.0128 45.8878 19.7768 46.0424 19.6178 46.0988C19.2764 46.1918 18.177 46.49 16.37 46.9765L16.3695 46.9767C15.2165 47.2883 14.3986 47.0135 13.8281 46.5769C13.2392 46.1263 12.8856 45.4789 12.7458 45.0286L9.55246 32.7731L10.3392 31.9148Z" stroke="#E9872C"/>
<path opacity="0.7" d="M7.103 27.131H15.8383V10.1016H7.19124C5.51476 10.1016 1.98535 11.1074 1.98535 15.131V22.0133C1.98535 26.1074 5.39712 27.131 7.103 27.131Z" fill="#E9872C"/>
<path d="M14.1029 11.3516V24.381H5.86765C5.09472 24.381 3.92419 24.145 2.96127 23.4517C2.02384 22.7767 1.25 21.6474 1.25 19.7633V15.881C1.25 14.0429 2.0437 12.9354 3.00848 12.2688C3.99955 11.5841 5.19591 11.3516 5.95588 11.3516H14.1029Z" stroke="#E9872C"/>
<path opacity="0.25" d="M8.33813 12.3541V26.3835H23.0293C35.2411 26.3835 40.294 32.2659 41.294 35.207C41.294 35.207 44.294 29.3835 44.294 19.457C44.294 9.53056 41.294 3.70703 41.294 3.70703C38.6117 10.6247 27.9999 12.3541 23.0293 12.3541H8.33813Z" fill="#E9872C"/>
<path d="M23.0293 24.3835H16.3381V11.3541H23.0293C25.5619 11.3541 29.1486 10.915 32.4559 9.58876C35.4326 8.3951 38.232 6.46116 39.7894 3.43508C39.7925 3.44275 39.7956 3.45047 39.7987 3.45823C40.0737 4.14356 40.4426 5.16427 40.8123 6.49358C41.5517 9.15212 42.294 13.0444 42.294 17.957C42.294 22.8696 41.5517 26.7619 40.8123 29.4205C40.4487 30.7279 40.0858 31.7368 39.8124 32.4217C39.1438 31.0012 37.9662 29.2761 35.9092 27.7873C33.2671 25.8749 29.2171 24.3835 23.0293 24.3835Z" stroke="#E9872C"/>
<path opacity="0.5" d="M45.794 18.7075C45.794 8.781 42.794 2.95747 42.794 2.95747C41.7352 0.751644 44.1176 -0.0425411 44.9117 2.25159C44.9117 2.25159 47.9999 8.42806 47.9999 18.7075C47.9999 28.9869 44.9117 35.5163 44.9117 35.5163C44.2058 37.1928 41.9999 36.134 42.794 34.4575C42.794 34.4575 45.794 28.6339 45.794 18.7075Z" fill="#E9872C"/>
<path d="M44.9119 0.75C44.9119 0.75 48.0001 6.92647 48.0001 17.2059C48.0001 27.4853 44.9119 34.0147 44.9119 34.0147" stroke="#E9872C"/>
</svg>
