<svg width="64" height="64" viewBox="0 0 64 64" fill="none" xmlns="http://www.w3.org/2000/svg">
<path opacity="0.15" d="M8 3.00586H37.8C37.8 3.00586 37.8 3.00589 45.8 10.4001C53.8 17.7944 56.2 22.4 56.2 22.4V64.0001H8V3.00586Z" fill="black"/>
<path d="M7 0.505519H34.7118C34.7236 0.505519 34.7377 0.505401 34.7483 0.505312C34.7525 0.505276 34.7562 0.505245 34.759 0.505228C34.772 0.505148 34.7802 0.505198 34.7865 0.505369C34.7875 0.505397 34.7885 0.505428 34.7893 0.505459C34.9081 0.534999 35.5314 0.75647 37.2627 2.13726C39.0193 3.53813 41.872 6.09462 46.4432 10.7501C51.284 15.68 53.8585 18.6034 55.2253 20.3157C55.9088 21.1721 56.2843 21.7182 56.4889 22.0554C56.6309 22.2895 56.683 22.4109 56.7 22.4556V60.9997C56.7 61.2759 56.4761 61.4997 56.2 61.4997H7C6.72386 61.4997 6.5 61.2759 6.5 60.9997V1.00552C6.5 0.729376 6.72386 0.505519 7 0.505519Z" stroke="black"/>
<rect opacity="0.15" x="12.4004" y="18.7998" width="38.4" height="38.4" fill="black"/>
<rect x="10.9004" y="16.2998" width="37.4" height="37.4" stroke="black"/>
<rect x="17.7002" y="24.0996" width="27.8" height="19.5333" stroke="black"/>
<rect x="18.5" y="47.5" width="11" height="3" stroke="black"/>
<rect x="33.5" y="47.5" width="11" height="3" stroke="black"/>
<path fill-rule="evenodd" clip-rule="evenodd" d="M20.4004 40.6659L28.8007 27.3325L34.2356 35.9591L37.2002 30.6654L42.8004 40.6654H37.2007L37.201 40.6659H20.4004Z" fill="black"/>
<path d="M57.1942 22.4C52.8404 18.0462 52.7188 16.8665 41.4017 16.804C40.8495 16.801 40.399 16.3479 40.394 15.7957C40.283 3.36243 38.073 3.27878 34.7998 0.00560227C34.7998 0.00560227 37.5991 -0.554393 47.6766 9.52309C57.7541 19.6006 57.1942 22.4 57.1942 22.4Z" fill="black"/>
</svg>
