<svg width="1920" height="184" viewBox="0 0 1920 184" fill="none" xmlns="http://www.w3.org/2000/svg">
<path opacity="0.5" d="M0 0H1920V47.4727C1920 47.4727 746.249 184 478.124 184C142.968 184 0 63.4124 0 63.4124V0Z" fill="white"/>
<path opacity="0.5" d="M0 0H1920V39.5028C1920 39.5028 719.999 113.657 451.874 113.657C280.311 113.657 0 63.4124 0 63.4124V0Z" fill="white"/>
<path opacity="0.5" d="M0 0H1920V70.6893C1920 70.6893 1647.66 163.556 1379.53 163.556C1038.75 163.556 0 63.4124 0 63.4124V0Z" fill="white"/>
<path opacity="0.5" d="M0 0H1920V68.2637C1920 68.2637 1647.66 138.606 1379.53 138.606C1038.75 138.606 0 61.3333 0 61.3333V0Z" fill="white"/>
<path opacity="0.7" d="M0 0H1920V66.5311C1920 66.5311 1664.06 125.439 1395.94 125.439C1055.16 125.439 0 61.3333 0 61.3333V0Z" fill="white"/>
<path opacity="0.5" d="M0 0H1920V55.4426C1920 55.4426 1583.44 100.836 1350 111.925C985.781 129.225 0 61.3333 0 61.3333V0Z" fill="white"/>
</svg>
