<svg width="65" height="64" viewBox="0 0 65 64" fill="none" xmlns="http://www.w3.org/2000/svg">
<path opacity="0.25" d="M11.2941 40.1004L10.4706 37.1592H21.1765C21.5529 39.7945 19.1373 41.0807 17.8824 41.3945L21.8824 52.5709C23.1059 52.1004 24.0392 53.316 24.3529 53.9827C24.4706 54.2572 24.8471 55.1827 25.4118 56.6886C26.2588 58.8533 25.0588 59.8651 24.3529 60.1004C23.9216 60.218 22.4471 60.618 20 61.2768C16.5176 62.218 14.7843 59.6298 14.3529 58.218L10 41.5121L11.2941 40.1004Z" fill="black"/>
<path d="M25.1533 55.2462C25.4969 55.5113 25.7628 55.906 25.8969 56.188C26.0144 56.463 26.3859 57.3771 26.9436 58.8642L26.9436 58.8642L26.9461 58.8708C27.3283 59.8474 27.2245 60.4891 27.0194 60.8906C26.8085 61.3037 26.4535 61.5362 26.2066 61.622C25.7578 61.7444 24.2896 62.1426 21.87 62.794L21.8695 62.7942C20.2812 63.2234 19.1373 62.8457 18.3362 62.2327C17.5167 61.6056 17.0278 60.7083 16.8341 60.0815L12.5525 43.6494L13.6627 42.4382L13.8506 42.2333L13.7756 41.9655L13.1298 39.6592H22.7155C22.7273 40.5728 22.3335 41.2658 21.7936 41.788C21.1563 42.4042 20.3234 42.7688 19.7611 42.9094L19.2256 43.0433L19.4116 43.563L23.4116 54.7394L23.5841 55.2214L24.0618 55.0376C24.4629 54.8834 24.82 54.9889 25.1533 55.2462Z" stroke="black"/>
<path opacity="0.35" d="M9.47099 36.1766H21.1181V13.4707H9.58864C7.35334 13.4707 2.64746 14.8119 2.64746 20.1766V29.3531C2.64746 34.8119 7.19648 36.1766 9.47099 36.1766Z" fill="black"/>
<path d="M18.9706 32.6766H7.82353C6.76629 32.6766 5.16929 32.3553 3.85098 31.4061C2.55816 30.4753 1.5 28.9195 1.5 26.3531V21.1766C1.5 18.668 2.58781 17.1413 3.91657 16.2232C5.27161 15.287 6.90179 14.9707 7.94118 14.9707H18.9706V32.6766Z" stroke="black"/>
<path opacity="0.15" d="M11.1172 16.4708V35.1767H30.7054C46.9878 35.1767 53.725 43.0198 55.0584 46.9414C55.0584 46.9414 59.0584 39.1767 59.0584 25.9414C59.0584 12.7061 55.0584 4.94141 55.0584 4.94141C51.4819 14.1649 37.3329 16.4708 30.7054 16.4708H11.1172Z" fill="black"/>
<path d="M21.6172 32.6767V14.9708H30.7054C34.0665 14.9708 38.8266 14.3876 43.2121 12.629C47.266 11.0034 51.0514 8.35063 53.067 4.17566C53.1149 4.29012 53.1658 4.41414 53.2193 4.54761C53.588 5.46663 54.082 6.83339 54.5767 8.61215C55.566 12.1696 56.5584 17.3744 56.5584 23.9414C56.5584 30.5084 55.566 35.7132 54.5767 39.2707C54.082 41.0494 53.588 42.4162 53.2193 43.3352C53.1748 43.4463 53.132 43.5509 53.0913 43.6488C52.2425 41.7151 50.6689 39.2737 47.7809 37.1834C44.2922 34.6583 38.9285 32.6767 30.7054 32.6767H21.6172Z" stroke="black"/>
<path opacity="0.25" d="M61.0587 24.941C61.0587 11.7057 57.0587 3.94101 57.0587 3.94101C55.647 0.999913 58.8234 -0.059 59.8822 2.99984C59.8822 2.99984 63.9999 11.2351 63.9999 24.941C63.9999 38.6469 59.8822 47.3528 59.8822 47.3528C58.9411 49.5882 55.9999 48.1764 57.0587 45.941C57.0587 45.941 61.0587 38.1763 61.0587 24.941Z" fill="black"/>
<path d="M59.8828 1C59.8828 1 64.0005 9.2353 64.0005 22.9412C64.0005 36.6471 59.8828 45.3529 59.8828 45.3529" stroke="black"/>
</svg>
