<svg width="1920" height="754" viewBox="0 0 1920 754" fill="none" xmlns="http://www.w3.org/2000/svg">
<mask id="mask0" mask-type="alpha" maskUnits="userSpaceOnUse" x="0" y="0" width="1920" height="754">
<rect width="1920" height="754" fill="#FAEECC"/>
</mask>
<g mask="url(#mask0)">
<path opacity="0.05" d="M849.469 93C849.469 358.915 1069.91 574.5 1341.86 574.5C1613.82 574.5 1834.26 358.915 1834.26 93C1834.26 -172.915 1613.82 -388.5 1341.86 -388.5C1069.91 -388.5 849.469 -172.915 849.469 93Z" stroke="black"/>
<ellipse opacity="0.03" rx="492.895" ry="482" transform="matrix(-1 0 0 1 1364.1 142)" fill="#A67C00"/>
<path opacity="0.05" d="M972.448 412.5C972.448 614.154 1017.24 796.694 1089.64 928.801C1162.05 1060.93 1262 1142.5 1372.28 1142.5C1482.56 1142.5 1582.51 1060.93 1654.92 928.801C1727.32 796.694 1772.12 614.154 1772.12 412.5C1772.12 210.846 1727.32 28.3064 1654.92 -103.801C1582.51 -235.927 1482.56 -317.5 1372.28 -317.5C1262 -317.5 1162.05 -235.927 1089.64 -103.801C1017.24 28.3064 972.448 210.846 972.448 412.5Z" stroke="black"/>
<path opacity="0.05" d="M84.1243 663.5C84.1243 795.26 124.255 914.527 189.113 1000.84C253.971 1087.16 343.534 1140.5 442.421 1140.5C541.307 1140.5 630.87 1087.16 695.728 1000.84C760.586 914.527 800.717 795.26 800.717 663.5C800.717 531.74 760.586 412.473 695.728 326.157C630.87 239.841 541.307 186.5 442.421 186.5C343.534 186.5 253.971 239.841 189.113 326.157C124.255 412.473 84.1243 531.74 84.1243 663.5Z" stroke="black"/>
<ellipse opacity="0.03" rx="358.796" ry="477.5" transform="matrix(-1 0 0 1 422.797 612.5)" fill="#A67C00"/>
</g>
</svg>
