<svg width="1920" height="184" viewBox="0 0 1920 184" fill="none" xmlns="http://www.w3.org/2000/svg">
<path opacity="0.5" d="M1920 184H0.000244141V136.527C0.000244141 136.527 1173.75 0 1441.88 0C1777.03 0 1920 120.588 1920 120.588V184Z" fill="#EDF6FA"/>
<path opacity="0.5" d="M1920 184H0.000244141V144.497C0.000244141 144.497 1200 70.3428 1468.13 70.3428C1639.69 70.3428 1920 120.588 1920 120.588V184Z" fill="#EDF6FA"/>
<path opacity="0.5" d="M1920 184H0.0012207V113.311C0.0012207 113.311 272.345 20.4444 540.47 20.4444C881.251 20.4444 1920 120.588 1920 120.588V184Z" fill="#EDF6FA"/>
<path opacity="0.5" d="M1920 184H0.0012207V115.736C0.0012207 115.736 272.345 45.3936 540.47 45.3936C881.251 45.3936 1920 122.667 1920 122.667V184Z" fill="#EDF6FA"/>
<path opacity="0.7" d="M1920 184H0.0012207V117.469C0.0012207 117.469 255.939 58.5612 524.063 58.5612C864.844 58.5612 1920 122.667 1920 122.667V184Z" fill="#EDF6FA"/>
<path opacity="0.5" d="M1920 184H0.0012207V128.557C0.0012207 128.557 336.563 83.1638 570.001 72.0753C934.219 54.7746 1920 122.667 1920 122.667V184Z" fill="#EDF6FA"/>
</svg>
