<svg width="348" height="176" viewBox="0 0 348 176" fill="none" xmlns="http://www.w3.org/2000/svg">
<rect x="100" y="64" width="48" height="48" rx="16" fill="#CAF4FA"/>
<g clip-path="url(#clip0)">
<path d="M129 84C129.552 84 130 83.5523 130 83C130 82.4477 129.552 82 129 82C128.448 82 128 82.4477 128 83C128 83.5523 128.448 84 129 84Z" fill="#0E8595"/>
<path d="M126.5 81.5C127.052 81.5 127.5 81.0523 127.5 80.5C127.5 79.9477 127.052 79.5 126.5 79.5C125.948 79.5 125.5 79.9477 125.5 80.5C125.5 81.0523 125.948 81.5 126.5 81.5Z" fill="#0E8595"/>
<path d="M131.5 86.5C132.052 86.5 132.5 86.0523 132.5 85.5C132.5 84.9477 132.052 84.5 131.5 84.5C130.948 84.5 130.5 84.9477 130.5 85.5C130.5 86.0523 130.948 86.5 131.5 86.5Z" fill="#0E8595"/>
<path fill-rule="evenodd" clip-rule="evenodd" d="M124.048 76H133.892C135.055 76 136.001 76.9463 136.001 78.1094V87.9532C136.001 89.1163 135.055 90.0625 133.892 90.0625H129.953C130.302 90.8389 130.159 91.7848 129.522 92.4216L122.561 99.3822C122.163 99.7806 121.633 100 121.07 100C120.506 100 119.977 99.7806 119.578 99.3822L112.618 92.4216C111.795 91.5992 111.795 90.261 112.618 89.4385L119.578 82.4779C119.977 82.0795 120.506 81.86 121.07 81.86C121.374 81.86 121.669 81.9247 121.938 82.0465V78.1094C121.938 76.9463 122.885 76 124.048 76ZM133 88C133.5 88 134 87.5 134 87V79C134 78.5 133.5 78 133 78H125C124.5 78 124 78.5 124 79V84L128 88H133ZM127.812 91.4541L121.454 97.8119C121.333 97.9332 121.172 98 121 98C120.828 98 120.667 97.9332 120.546 97.8119L114.188 91.4541C113.937 91.2037 113.937 90.7963 114.188 90.5459L120.546 84.1881C120.667 84.0668 120.828 84 121 84C121.172 84 121.333 84.0668 121.454 84.1881L127.812 90.5459C128.063 90.7963 128.063 91.2038 127.812 91.4541Z" fill="#0E8595"/>
<path d="M121.5 88.5C122.052 88.5 122.5 88.0523 122.5 87.5C122.5 86.9477 122.052 86.5 121.5 86.5C120.948 86.5 120.5 86.9477 120.5 87.5C120.5 88.0523 120.948 88.5 121.5 88.5Z" fill="#0E8595"/>
<path d="M117.5 92.5C118.052 92.5 118.5 92.0523 118.5 91.5C118.5 90.9477 118.052 90.5 117.5 90.5C116.948 90.5 116.5 90.9477 116.5 91.5C116.5 92.0523 116.948 92.5 117.5 92.5Z" fill="#0E8595"/>
<path d="M119.5 90.5C120.052 90.5 120.5 90.0523 120.5 89.5C120.5 88.9477 120.052 88.5 119.5 88.5C118.948 88.5 118.5 88.9477 118.5 89.5C118.5 90.0523 118.948 90.5 119.5 90.5Z" fill="#0E8595"/>
<path d="M124.5 91.5C125.052 91.5 125.5 91.0523 125.5 90.5C125.5 89.9477 125.052 89.5 124.5 89.5C123.948 89.5 123.5 89.9477 123.5 90.5C123.5 91.0523 123.948 91.5 124.5 91.5Z" fill="#0E8595"/>
<path d="M120.5 95.5C121.052 95.5 121.5 95.0523 121.5 94.5C121.5 93.9477 121.052 93.5 120.5 93.5C119.948 93.5 119.5 93.9477 119.5 94.5C119.5 95.0523 119.948 95.5 120.5 95.5Z" fill="#0E8595"/>
<path d="M122.5 93.5C123.052 93.5 123.5 93.0523 123.5 92.5C123.5 91.9477 123.052 91.5 122.5 91.5C121.948 91.5 121.5 91.9477 121.5 92.5C121.5 93.0523 121.948 93.5 122.5 93.5Z" fill="#0E8595"/>
</g>
<rect x="200" width="48" height="48" rx="16" fill="#E1DEF5"/>
<g clip-path="url(#clip1)">
<path d="M235.046 21.3643L234.591 20.9073C234.591 20.9007 234.585 20.8941 234.578 20.8874L232.745 15.5563C232.418 14.6225 231.588 14 230.658 14L218.229 14C217.3 14 215.914 14.6225 215.588 15.5563L213.772 20.8278L213.083 21.4437C212.4 22.0596 212.006 22.9669 212 23.9272V31.6093C212 32.9272 213.022 34 214.246 34H216.803C218.022 34 219 32.9338 219 31.6292C219 31.6225 219 31.6159 219 31.6159V31H229V31.6093C228.988 32.9206 229.972 33.9868 231.191 34C231.197 34 231.203 34 231.203 34H233.76C234.985 34 236 32.9272 236 31.6093V23.7351C236 22.8345 235.655 21.9802 235.046 21.3643ZM217 16.6821C217.148 16.2649 217.517 15.9933 217.929 16L230.571 16C230.983 15.9934 231.352 16.2649 231.5 16.6821L232.5 20H231.558C231.263 18.212 229.792 16.8014 228.02 16.8014C226.248 16.8014 224.783 18.212 224.494 20H216.059L217 16.6821ZM230 20L226 20C226.5 19 227 18.5 228 18.5C229 18.5 229.5 19 230 20ZM217 31C217.012 31.5762 216.588 31.9868 216.052 32C216.046 32 216.04 32 216.034 32H215C214.452 32 213.985 31.5232 213.985 30.9338V30.755C214.305 30.9206 214.649 31 215 31H217ZM234.015 31C234.015 31.6093 233.548 32 233 32H232C231.465 32 231 31.5762 231 31H233C233.351 31 233.702 30.9206 234.015 30.755V31ZM232.985 29H215C214.452 29 213.985 28.5298 213.985 27.9404V24C213.991 23.4239 214.225 23.0663 214.631 22.6954L215.388 22H232.874L233.428 22.5629C233.791 22.9338 234 23.4636 234 24V27.9404C234 28.5298 233.532 29 232.985 29Z" fill="#3E2CB1"/>
<path d="M219.431 23.7559H215.615C215.277 23.7559 215 24.033 215 24.3718V27.0201C215 27.3588 215.277 27.636 215.615 27.636H219.431C219.769 27.636 220.046 27.3588 220.046 27.0201V24.3718C220.046 24.033 219.769 23.7559 219.431 23.7559ZM218.815 26.4042H216.231V24.9876H218.815V26.4042Z" fill="#3E2CB1"/>
<path d="M232.431 23.7559H228.615C228.277 23.7559 228 24.033 228 24.3718V27.0201C228 27.3588 228.277 27.636 228.615 27.636H232.431C232.769 27.636 233.046 27.3588 233.046 27.0201V24.3718C233.046 24.033 232.769 23.7559 232.431 23.7559ZM231.815 26.4042H229.231V24.9876H231.815V26.4042Z" fill="#3E2CB1"/>
<path d="M226.398 25.8496H221.602C221.271 25.8496 221 26.1268 221 26.4655C221 26.8042 221.271 27.0814 221.602 27.0814H226.398C226.729 27.0814 227 26.8042 227 26.4655C227 26.1268 226.735 25.8496 226.398 25.8496Z" fill="#3E2CB1"/>
<path d="M226.398 24.3105H221.602C221.271 24.3105 221 24.5877 221 24.9265C221 25.2652 221.271 25.5424 221.602 25.5424H226.398C226.729 25.5424 227 25.2652 227 24.9265C227 24.5877 226.735 24.3105 226.398 24.3105Z" fill="#3E2CB1"/>
</g>
<rect x="100" width="48" height="48" rx="16" fill="#C5E4F3"/>
<path d="M135.297 17H129.953V12.7531C129.953 12.3372 129.638 12 129.25 12H112.703C112.315 12 112 12.3372 112 12.7531V32.2343C112 34.3107 113.577 36 115.516 36H132.484C134.423 36 136 34.3107 136 32.2343V17.7531C136 17.3372 135.685 17 135.297 17ZM116 34C114.837 34 114 33.2458 114 32V14H128C128 33.9062 127.975 31.7162 128 32C128.061 32.6982 128.116 33.4525 128.5 34H116ZM134 32C134 33.2458 133.358 34 132.422 34C132.264 34 132.155 34 132 34C130.837 34 129.953 33.2458 129.953 32V19H134V32Z" fill="#006BA1"/>
<path d="M126 16H116C115.5 16 115 16.3358 115 16.75C115 17.1642 115.5 17.5 116 17.5H126C126.5 17.5 127 17.1642 127 16.75C127 16.3358 126.5 16 126 16Z" fill="#006BA1"/>
<path d="M126 30H116C115.5 30 115 30.3358 115 30.75C115 31.1642 115.5 31.5 116 31.5H126C126.5 31.5 127 31.1642 127 30.75C127 30.3358 126.5 30 126 30Z" fill="#006BA1"/>
<path d="M126 19H116C115.5 19 115 19.3358 115 19.75C115 20.1642 115.5 20.5 116 20.5H126C126.5 20.5 127 20.1642 127 19.75C127 19.3358 126.5 19 126 19Z" fill="#006BA1"/>
<path d="M118 23L116 23C115.5 23 115 23.3358 115 23.75C115 24.1642 115.5 24.5 116 24.5H118C118.5 24.5 119 24.1642 119 23.75C119 23.3358 118.5 23 118 23Z" fill="#006BA1"/>
<path d="M118 26L116 26C115.5 26 115 26.3358 115 26.75C115 27.1642 115.5 27.5 116 27.5H118C118.5 27.5 119 27.1642 119 26.75C119 26.3358 118.5 26 118 26Z" fill="#006BA1"/>
<path d="M126 22H122C121.5 22 121 22.5 121 23V27C121 27.5 121.5 28 122 28H126C126.5 28 127 27.5 127 27L127 23C127 22.5 126.5 22 126 22ZM125.5 26.5H122.5V23.5H125.5V26.5Z" fill="#006BA1"/>
<rect x="300" width="48" height="48" rx="16" fill="#EBEDEE"/>
<g clip-path="url(#clip2)">
<path d="M323.953 21.4688C324.471 21.4688 324.891 21.8884 324.891 22.4062C324.891 22.9241 324.471 23.3438 323.953 23.3438C323.435 23.3438 323.016 22.9241 323.016 22.4062C323.016 21.8884 323.435 21.4688 323.953 21.4688ZM327.234 22.4062C327.234 22.9241 327.654 23.3438 328.172 23.3438C328.69 23.3438 329.109 22.9241 329.109 22.4062C329.109 21.8884 328.69 21.4688 328.172 21.4688C327.654 21.4688 327.234 21.8884 327.234 22.4062ZM318.797 22.4062C318.797 22.9241 319.217 23.3438 319.734 23.3438C320.252 23.3438 320.672 22.9241 320.672 22.4062C320.672 21.8884 320.252 21.4688 319.734 21.4688C319.217 21.4688 318.797 21.8884 318.797 22.4062ZM335.176 31.1982C336.273 32.2954 336.273 34.0796 335.176 35.1762C334.628 35.7244 333.908 35.9987 333.188 35.9987C332.467 35.9987 331.747 35.7244 331.199 35.1762L326.052 30.0414C325.943 29.9323 325.863 29.798 325.818 29.6501L324.697 25.96C324.597 25.6328 324.684 25.2775 324.923 25.0327C325.161 24.7881 325.514 24.6929 325.844 24.7841L329.628 25.8322C329.784 25.8754 329.926 25.9579 330.04 26.0722L335.176 31.1982ZM327.543 28.8801L331.016 32.3454L332.342 31.0193L328.89 27.5735L326.986 27.0461L327.543 28.8801ZM333.85 32.5247L333.669 32.3439L332.344 33.6698L332.524 33.8496C332.89 34.216 333.485 34.216 333.85 33.8503C334.216 33.4849 334.216 32.8901 333.85 32.5247ZM324.521 31.4275C324.348 31.435 324.173 31.4388 324 31.4388C322.492 31.4388 321.041 31.1581 319.687 30.6046C319.456 30.5105 319.197 30.512 318.967 30.6088L314.699 32.4108L316.137 29.0037C316.278 28.6707 316.214 28.2861 315.973 28.0159C314.601 26.4738 313.875 24.6286 313.875 22.6804C313.875 17.8251 318.417 13.875 324 13.875C329.583 13.875 334.125 17.8251 334.125 22.6804C334.125 23.8317 333.842 24.9877 333.285 26.1158C333.055 26.58 333.245 27.1423 333.71 27.3717C334.174 27.6011 334.736 27.4109 334.965 26.9467C335.652 25.5579 336 24.1225 336 22.6804C336 16.7911 330.617 12 324 12C317.383 12 312 16.7911 312 22.6804C312 24.9033 312.754 27.0084 314.186 28.8038L312.074 33.8073C311.925 34.1587 312.005 34.565 312.275 34.8347C312.454 35.0142 312.694 35.1094 312.938 35.1094C313.061 35.1094 313.185 35.0852 313.302 35.0356L319.346 32.4844C320.82 33.035 322.384 33.3138 324 33.3138C324.2 33.3138 324.403 33.3093 324.604 33.3007C325.121 33.278 325.522 32.8403 325.499 32.3231C325.477 31.8058 325.038 31.4035 324.521 31.4275Z" fill="#5E6E77"/>
</g>
<rect y="64" width="48" height="48" rx="16" fill="#FAEECC"/>
<g clip-path="url(#clip3)">
<path d="M35.5937 82.1277C35.341 81.9714 35.0254 81.9572 34.7597 82.09L29 85V82.5714C29 81.1513 27.8487 80 26.4286 80L14.5714 80C13.1513 80 12 81.1513 12 82.5714L12 93.4286C12 94.8487 13.1513 96 14.5714 96L26.4286 96C27.8487 96 29 94.8487 29 93.4286V91L34.7597 93.9142C35.1832 94.1258 35.698 93.9541 35.9096 93.5306C35.9698 93.4102 36.0008 93.2773 36 93.1428V82.8571C36.0002 82.56 35.8464 82.284 35.5937 82.1277ZM27 93C27 93.4734 26.4734 93.9999 26 93.9999L15 94C14.5266 94 14 93.4734 14 93V83C14 82.5266 14.5266 81.9999 15 81.9999H26C26.4286 81.9999 27 82.5 27 83V93ZM34 91.5L29 89V87L34 84.5V91.5Z" fill="#A67C00"/>
<path fill-rule="evenodd" clip-rule="evenodd" d="M17 88C17 86.067 18.567 84.5 20.5 84.5C22.433 84.5 24 86.067 24 88C24 89.933 22.433 91.5 20.5 91.5C18.567 91.5 17 89.933 17 88ZM20.5 89.5C19.6716 89.5 19 88.8284 19 88C19 87.1716 19.6716 86.5 20.5 86.5C21.3284 86.5 22 87.1716 22 88C22 88.8284 21.3284 89.5 20.5 89.5Z" fill="#A67C00"/>
</g>
<rect x="200" y="64" width="48" height="48" rx="16" fill="#E2F1AB"/>
<g clip-path="url(#clip4)">
<path d="M235.297 76H232.484C232.096 76 231.781 76.3148 231.781 76.7031V77.4062H225.988C225.698 76.5879 224.917 76 224 76C223.083 76 222.302 76.5879 222.012 77.4062H216.219V76.7031C216.219 76.3148 215.904 76 215.516 76H212.703C212.315 76 212 76.3148 212 76.7031V79.5156C212 79.9039 212.315 80.2188 212.703 80.2188H215.516C215.904 80.2188 216.219 79.9039 216.219 79.5156V78.8031H219.143C216.606 80.4097 215.064 83.1238 214.878 86.0051C214.05 86.2899 213.453 87.0763 213.453 88C213.453 89.1631 214.399 90.1094 215.562 90.1094C216.726 90.1094 217.672 89.1631 217.672 88C217.672 87.0916 217.095 86.3154 216.288 86.0191C216.537 82.7075 218.922 79.8553 222.111 79.046C222.456 79.7403 223.173 80.2188 224 80.2188C224.827 80.2188 225.544 79.7403 225.889 79.0461C229.078 79.8553 231.463 82.7075 231.712 86.0191C230.905 86.3154 230.328 87.0916 230.328 88C230.328 89.1631 231.274 90.1094 232.438 90.1094C233.601 90.1094 234.547 89.1631 234.547 88C234.547 87.0763 233.95 86.2899 233.122 86.0051C232.936 83.1181 231.389 80.416 228.857 78.8125H231.781V79.5156C231.781 79.9039 232.096 80.2188 232.484 80.2188H235.297C235.685 80.2188 236 79.9039 236 79.5156V76.7031C236 76.3148 235.685 76 235.297 76ZM214.812 78.8125H213.406V77.4062H214.812V78.8125ZM215.562 88.7031C215.175 88.7031 214.859 88.3877 214.859 88C214.859 87.6123 215.175 87.2969 215.562 87.2969C215.95 87.2969 216.266 87.6123 216.266 88C216.266 88.3877 215.95 88.7031 215.562 88.7031ZM224 78.8125C223.612 78.8125 223.297 78.4971 223.297 78.1094C223.297 77.7217 223.612 77.4062 224 77.4062C224.388 77.4062 224.703 77.7217 224.703 78.1094C224.703 78.4971 224.388 78.8125 224 78.8125ZM232.438 87.2969C232.825 87.2969 233.141 87.6123 233.141 88C233.141 88.3877 232.825 88.7031 232.438 88.7031C232.05 88.7031 231.734 88.3877 231.734 88C231.734 87.6123 232.05 87.2969 232.438 87.2969ZM234.594 78.8125H233.188V77.4062H234.594V78.8125Z" fill="#5E7500"/>
<path d="M230.21 90.422L224.585 81.9845C224.585 81.9842 224.585 81.984 224.584 81.9836C224.582 81.9806 224.58 81.9778 224.578 81.9748C224.568 81.9608 224.558 81.9473 224.548 81.9341C224.251 81.566 223.687 81.5908 223.422 81.9748C223.42 81.9778 223.418 81.9806 223.416 81.9836C223.415 81.984 223.415 81.9842 223.415 81.9845L217.79 90.422C217.604 90.7009 217.641 91.0722 217.878 91.3092C219.281 92.712 220.174 94.5458 220.417 96.5077C220.308 96.596 220.202 96.6905 220.102 96.7927C219.442 97.4683 219.078 98.3575 219.078 99.2964C219.078 99.6847 219.393 99.9995 219.781 99.9995H228.219C228.607 99.9995 228.922 99.6847 228.922 99.2964C228.922 98.3575 228.558 97.4683 227.898 96.7927C227.798 96.6904 227.692 96.5959 227.583 96.5077C227.826 94.5457 228.719 92.7119 230.122 91.3092C230.359 91.0722 230.396 90.7008 230.21 90.422ZM224 90.1089C224.388 90.1089 224.703 90.4243 224.703 90.812C224.703 91.1997 224.388 91.5151 224 91.5151C223.612 91.5151 223.297 91.1997 223.297 90.812C223.297 90.4243 223.612 90.1089 224 90.1089ZM220.604 98.5933C220.897 97.7573 221.69 97.1401 222.594 97.1401H225.406C226.31 97.1401 227.103 97.7573 227.396 98.5933H220.604ZM226.261 95.8409C225.985 95.7703 225.698 95.7339 225.406 95.7339H222.594C222.302 95.7339 222.015 95.7703 221.739 95.841C221.409 93.9458 220.555 92.1743 219.271 90.7363L223.297 84.6968V88.8236C222.478 89.1139 221.891 89.8954 221.891 90.8121C221.891 91.9752 222.837 92.9214 224 92.9214C225.163 92.9214 226.109 91.9752 226.109 90.8121C226.109 89.8954 225.522 89.1139 224.703 88.8236V84.6968L228.729 90.7363C227.445 92.1742 226.59 93.9457 226.261 95.8409Z" fill="#5E7500"/>
</g>
<rect width="48" height="48" rx="16" fill="#CCEEDA"/>
<g clip-path="url(#clip5)">
<path fill-rule="evenodd" clip-rule="evenodd" d="M30 17.0001H31C31.5 17 32 17.5 32 18.0001V28C32 30 30 32 28 32H27V33C27 34.5 26 36 24 36C22 36 21 34.5 21 33V32H20C18 32 16 30 16 28V18.0001C16 17.5001 16.5 17.0001 17 17.0001H18V13.0001C18 12.3872 18.5 12.0001 19 12.0001L29 12C29.5 12 30 12.5 30 13.0001V17.0001ZM24 34C24.5 34 25 33.5 25 33V32H23V33C23 33.5 23.5 34 24 34ZM28 30C29 30 30 29 30 28V19H18V28C18 29 18.5 30 20 30H28ZM20 14H28V17H20V14Z" fill="#008A39"/>
<path d="M23 15H21V16H23V15Z" fill="#008A39"/>
<path d="M27 15H25V16H27V15Z" fill="#008A39"/>
<path d="M23.25 27V28H24.75V25.5C24.8503 25.4078 27.75 22.8008 27.75 22.6205V21H26.25V22.4L24.75 23.8V21H23.25V25.2L21.75 23.8V21.7H20.25V24.1292C20.25 24.3094 23.1497 26.9078 23.25 27Z" fill="#008A39"/>
</g>
<rect x="300" y="64" width="48" height="48" rx="16" fill="#F5CCD3"/>
<g clip-path="url(#clip6)">
<path d="M335.018 85H314.018C313.518 85 313 85.5056 313 86.0056V97.5047C313 98.8832 314.121 100.006 315.501 100.006H333.508C334.887 100.006 336.009 98.8832 336.009 97.5047V86.0056C336.009 85.5056 335.518 85 335.018 85ZM334.018 97.0056C334.018 97.5056 333.508 98.0056 333.018 98.0056H316.018C315.501 98.0056 315.018 97.5056 315.018 97.0056V87.0056H334.018V97.0056Z" fill="#CC0022"/>
<path d="M335.5 90H313.5C313.224 90 313 90.448 313 91C313 91.552 313.224 92 313.5 92H335.5C335.777 92 336 91.552 336 91C336 90.448 335.776 90 335.5 90Z" fill="#CC0022"/>
<rect x="317.384" y="85.834" width="1.5" height="5" transform="rotate(30 317.384 85.834)" fill="#CC0022"/>
<rect x="322.5" y="85.834" width="1.5" height="5" transform="rotate(30 322.5 85.834)" fill="#CC0022"/>
<rect x="327.5" y="85.834" width="1.5" height="5" transform="rotate(30 327.5 85.834)" fill="#CC0022"/>
<rect x="332.5" y="86" width="1.5" height="5" transform="rotate(30 332.5 86)" fill="#CC0022"/>
<path fill-rule="evenodd" clip-rule="evenodd" d="M312.985 79.8266C312.492 79.9132 312.087 80.4926 312.174 80.9851L312.556 83.1508L313.042 85.9091C313.129 86.4014 313.708 86.8071 314.2 86.7203C317.033 86.2208 319.429 85.7986 321.694 85.3992L321.708 85.3967C325.898 84.6584 329.643 83.9982 334.881 83.0736C335.374 82.9867 335.779 82.4075 335.693 81.9152L334.824 76.9911C334.737 76.4987 334.158 76.0932 333.666 76.18C330.112 76.8061 327.245 77.3122 324.46 77.8037C320.917 78.429 317.507 79.0309 312.985 79.8266ZM319.357 80.7338L316.025 81.3214L318.305 83.9655L321.637 83.3779L319.357 80.7338ZM321.063 80.433L323.343 83.0772L326.562 82.5097L324.281 79.8655L321.063 80.433ZM331.579 81.6249L328.267 82.2089L325.987 79.5648L329.299 78.9807L331.579 81.6249ZM333.285 81.3241L333.549 81.2776L333.028 78.3231L331.005 78.6799L333.285 81.3241ZM314.317 81.6225L314.319 81.6221L316.599 84.2663L314.838 84.5769L314.317 81.6225Z" fill="#CC0022"/>
</g>
<rect x="100" y="128" width="48" height="48" rx="16" fill="#F5DACC"/>
<g clip-path="url(#clip7)">
<path fill-rule="evenodd" clip-rule="evenodd" d="M117.811 147.757C117.922 147.312 118.322 147 118.781 147H129.22C129.678 147 130.078 147.312 130.19 147.757L130.75 150H135C135.182 150 135.353 150.049 135.5 150.134L135.512 150.127L135.523 150.147C135.809 150.323 136 150.639 136 151L136.489 151.873L136 152.146V163C136 163.552 135.553 164 135 164H113C112.448 164 112 163.552 112 163V152.146L111.512 151.873L112 151C112 150.639 112.191 150.323 112.478 150.147L112.489 150.127L112.5 150.134C112.647 150.049 112.818 150 113 150H117.25L117.811 147.757ZM119.25 150H128.75L128.5 149H119.5L119.25 150ZM114 153.266L121 157.186V157.5C121 158.605 121.896 159.5 123 159.5H125C126.105 159.5 127 158.605 127 157.5V157.186L134 153.266V162H114V153.266ZM115.833 152L121.502 155.175C121.869 154.761 122.404 154.5 123 154.5H125C125.597 154.5 126.132 154.761 126.498 155.175L132.168 152H115.833ZM123.5 156C122.948 156 122.5 156.448 122.5 157C122.5 157.552 122.948 158 123.5 158H124.5C125.053 158 125.5 157.552 125.5 157C125.5 156.448 125.053 156 124.5 156H123.5Z" fill="#CC4400"/>
<path d="M112.75 149V140.75H117.75V141.75M117.75 146V141.75M117.75 141.75H122.75V142.75M122.75 146V142.75M122.75 142.75H127.75V146" stroke="#CC4400" stroke-width="1.5"/>
</g>
<rect x="200" y="128" width="48" height="48" rx="16" fill="#CAF4FA"/>
<path fill-rule="evenodd" clip-rule="evenodd" d="M216.601 143.52C217.068 142.935 217.459 142.461 218.187 142.461H229.285C230.555 142.461 230.776 142.738 231.336 143.442L231.399 143.52L235.626 148.814C236.093 149.398 236.155 149.872 235.626 150.402C232.567 153.466 230.557 155.48 227.959 158.082L227.938 158.103L225.585 160.46C224.152 161.896 223.85 161.898 222.415 160.46L212.374 150.402C211.845 149.872 211.907 149.398 212.374 148.814L216.601 143.52ZM214.769 148.615L217.538 145.23L218.769 148.615H214.769ZM215.077 150.461H219.385L221.692 156.922L215.077 150.461ZM219.077 144.307L220.308 147.384L222.308 144.307H219.077ZM221.692 148.615L224 145.23L226.308 148.615H221.692ZM227.692 147.384L225.692 144.307H228.923L227.692 147.384ZM230.462 145.23L229.231 148.615H233.231L230.462 145.23ZM228.615 150.461H232.923L226.308 156.922L228.615 150.461ZM224 157.846L226.615 150.461H221.385L224 157.846Z" fill="#0E8595"/>
<rect y="128" width="48" height="48" rx="16" fill="#E1DEF5"/>
<g clip-path="url(#clip8)">
<path fill-rule="evenodd" clip-rule="evenodd" d="M16.1843 146.6C16.8269 143.403 19.2692 140.852 22.2813 140.188C27.3799 139.065 32 143.113 32 148.437C32 150.48 31.2967 152.452 30.0196 153.989C29.1471 155.038 28.6666 156.33 28.6666 157.625V159.031C28.6666 159.967 28.0858 160.762 27.2846 161.037C27.0211 162.679 25.6696 164 23.9998 164C22.3296 164 20.9784 162.679 20.7149 161.037C19.9138 160.762 19.333 159.967 19.333 159.031V157.625C19.333 156.332 18.854 155.025 18.0189 154.035C16.3103 152.009 15.6417 149.299 16.1843 146.6ZM22.1139 161.136C22.3914 161.972 23.1428 162.594 23.9998 162.594C24.8568 162.594 25.6082 161.972 25.8856 161.136H22.1139ZM26.3333 159.734C26.7009 159.734 27 159.419 27 159.031V158.328H21V159.031C21 159.419 21.2991 159.734 21.6667 159.734H26.3333ZM28.6433 152.838C29.4912 151.887 30 151.316 30 147.999C30 144.686 27.3137 141.999 24 141.999C20.6863 141.999 18 144.686 18 147.999C18 151.3 18.562 151.937 19.4889 152.987L19.5 152.999C20.4335 154.057 21 155.499 21 155.999C21 156.499 21 156.749 21.125 156.874C21.25 156.999 21.5 156.999 22 156.999H26C26.5 156.999 26.75 156.999 26.875 156.874C27 156.749 27 156.499 27 155.999C27 155.499 27.6174 153.999 28.5 152.999C28.548 152.945 28.595 152.892 28.641 152.841L28.6413 152.84L28.6432 152.838L28.6433 152.838ZM14.1094 147.436H12.7031C12.3148 147.436 12 147.751 12 148.139C12 148.528 12.3148 148.843 12.7031 148.843H14.1094C14.4977 148.843 14.8125 148.528 14.8125 148.139C14.8125 147.751 14.4977 147.436 14.1094 147.436ZM14.4062 141.926L15.4006 142.921C15.6752 143.195 15.6752 143.64 15.4006 143.915C15.126 144.19 14.6808 144.189 14.4062 143.915L13.4119 142.921C13.1373 142.646 13.1373 142.201 13.4119 141.926C13.6865 141.652 14.1317 141.652 14.4062 141.926ZM15.4006 152.364C15.126 152.089 14.6808 152.089 14.4062 152.364L13.4119 153.358C13.1373 153.633 13.1373 154.078 13.4119 154.353C13.6864 154.627 14.1316 154.627 14.4062 154.353L15.4006 153.358C15.6752 153.084 15.6752 152.638 15.4006 152.364ZM33.8906 147.436H35.2969C35.6852 147.436 36 147.751 36 148.139C36 148.528 35.6852 148.843 35.2969 148.843H33.8906C33.5023 148.843 33.1875 148.528 33.1875 148.139C33.1875 147.751 33.5023 147.436 33.8906 147.436ZM34.5881 141.926C34.3136 141.652 33.8683 141.652 33.5937 141.926L32.5994 142.921C32.3248 143.195 32.3248 143.64 32.5994 143.915C32.8739 144.189 33.3191 144.189 33.5937 143.915L34.5881 142.921C34.8627 142.646 34.8627 142.201 34.5881 141.926ZM33.5937 152.364L34.5881 153.358C34.8627 153.633 34.8627 154.078 34.5881 154.353C34.3135 154.627 33.8683 154.627 33.5937 154.353L32.5994 153.358C32.3248 153.084 32.3248 152.638 32.5994 152.364C32.874 152.089 33.3192 152.089 33.5937 152.364Z" fill="#3E2CB1"/>
</g>
<rect x="300" y="128" width="48" height="48" rx="16" fill="#C5E4F3"/>
<path fill-rule="evenodd" clip-rule="evenodd" d="M315.938 152.004L312.356 150.26C312.138 150.154 312 149.931 312 149.687V149.171C312 148.927 312.138 148.704 312.356 148.598L323.722 143.063C323.894 142.979 324.095 142.979 324.268 143.063L335.644 148.603C335.862 148.709 336 148.932 336 149.176V149.682C336 149.927 335.862 150.149 335.644 150.255L334.287 150.916V155.466C334.502 155.61 334.667 155.829 334.744 156.095L335.3 158.002C335.371 158.246 335.359 158.509 335.267 158.745L334.671 160.275C334.499 160.715 334.086 161 333.618 161L333.608 161L333.592 161L333.583 160.999C333.107 160.985 332.688 160.667 332.541 160.209L332.025 159.721C331.953 159.496 331.951 159.258 332.02 159.032L332.576 157.201C332.655 156.941 332.818 156.728 333.029 156.585V151.529L332.052 152.004V155.727C332.052 155.813 332.035 155.898 332.002 155.977C331.993 155.996 331.985 156.015 331.977 156.034C331.916 156.169 331.81 156.279 331.677 156.343L324.844 159.671C324.759 159.713 324.665 159.734 324.571 159.734H323.419C323.325 159.734 323.231 159.713 323.146 159.671L316.294 156.334C316.076 156.228 315.938 156.006 315.938 155.761V152.004ZM333.5 149.5L323.995 145L314.5 149.5L323.995 153.8L333.5 149.5ZM330 155L324.427 157.8H323.563L318 155V153L323.722 155.795C323.808 155.837 323.902 155.858 323.995 155.858C324.088 155.858 324.182 155.837 324.268 155.795L330 153V155Z" fill="#006BA1"/>
<defs>
<clipPath id="clip0">
<rect width="24" height="24" fill="white" transform="translate(112 76)"/>
</clipPath>
<clipPath id="clip1">
<rect width="24" height="24" fill="white" transform="translate(212 12)"/>
</clipPath>
<clipPath id="clip2">
<rect width="24" height="24" fill="white" transform="translate(312 12)"/>
</clipPath>
<clipPath id="clip3">
<rect width="24" height="24" fill="white" transform="translate(12 76)"/>
</clipPath>
<clipPath id="clip4">
<rect width="24" height="24" fill="white" transform="translate(212 76)"/>
</clipPath>
<clipPath id="clip5">
<rect width="24" height="24" fill="white" transform="translate(12 12)"/>
</clipPath>
<clipPath id="clip6">
<rect width="24" height="24" fill="white" transform="translate(312 76)"/>
</clipPath>
<clipPath id="clip7">
<rect width="24" height="24" fill="white" transform="translate(112 140)"/>
</clipPath>
<clipPath id="clip8">
<rect width="24" height="24" fill="white" transform="translate(12 140)"/>
</clipPath>
</defs>
</svg>
