<svg width="32" height="32" viewBox="0 0 32 32" fill="none" xmlns="http://www.w3.org/2000/svg">
<rect width="32" height="32" rx="8" fill="#26A5E4"/>
<path d="M8.19451 15.1992C12.8588 13.167 15.9691 11.8273 17.5254 11.18C21.9687 9.33186 22.892 9.01082 23.4938 9.0001C23.6262 8.99788 23.9221 9.03069 24.1138 9.18624C24.2757 9.31758 24.3202 9.49501 24.3415 9.61954C24.3628 9.74407 24.3894 10.0277 24.3683 10.2494C24.1275 12.7794 23.0856 18.919 22.5556 21.7526C22.3313 22.9516 21.8896 23.3536 21.4621 23.393C20.5329 23.4785 19.8274 22.7789 18.9275 22.189C17.5193 21.2659 16.7237 20.6913 15.3568 19.7905C13.7771 18.7495 14.8012 18.1774 15.7014 17.2423C15.937 16.9976 20.0309 13.2739 20.1101 12.9361C20.12 12.8939 20.1292 12.7364 20.0357 12.6532C19.9421 12.5701 19.804 12.5985 19.7044 12.6211C19.5632 12.6532 17.3135 14.1401 12.9555 17.0819C12.317 17.5204 11.7386 17.734 11.2204 17.7228C10.6491 17.7105 9.55017 17.3998 8.73324 17.1343C7.73123 16.8085 6.93486 16.6363 7.00421 16.0832C7.04033 15.7951 7.4371 15.5004 8.19451 15.1992Z" fill="white"/>
</svg>
