<svg width="280" height="280" viewBox="0 0 280 280" fill="none" xmlns="http://www.w3.org/2000/svg">
<path fill-rule="evenodd" clip-rule="evenodd" d="M181.82 113.115C181.82 125.582 171.576 135.665 158.912 135.665C146.247 135.665 136.004 125.582 136.004 113.115C136.004 100.649 146.294 90.5654 158.912 90.5654C171.576 90.5654 181.82 100.649 181.82 113.115ZM143.128 113.115C143.128 121.64 150.158 128.561 158.819 128.561C167.479 128.561 174.51 121.64 174.51 113.115C174.51 104.59 167.479 97.6696 158.819 97.6696C150.158 97.6696 143.128 104.59 143.128 113.115ZM39.9997 91.3749H13.333V187.625H93.333V161.375L39.9997 91.3749ZM39.9403 161.375V97.2082L88.8292 161.375H39.9403ZM118.311 98.0767H131.813H131.86V91.385H97.7775V98.0767H111.187V134.835H118.311V98.0767ZM226.844 134.784V91.3857H219.721V109.56L220.326 124.896L198.303 91.3857H189.922V134.829H197.045V116.655L196.347 101.228L218.231 134.784H226.844ZM138.465 180.975V187.667H111.18V144.217H118.304V180.975H138.465ZM154.342 175.979H173.525L178.227 187.667H185.863L168.636 144.217H159.556L142.329 187.667H150.058L154.342 175.979ZM163.933 151.092L170.964 169.288H156.902L163.933 151.092ZM226.418 175.383C226.418 182.992 221.063 187.667 211.798 187.667H192.754V144.217H211.565C220.179 144.217 224.974 148.433 224.974 155.4C225.254 159.342 222.879 163.008 219.108 164.475C223.857 165.942 226.93 170.479 226.418 175.383ZM210.68 150.908H199.645V162.092H210.494C215.662 162.092 217.571 160.075 217.571 156.5C217.571 152.925 215.755 150.908 210.68 150.908ZM219.247 174.833C219.247 170.846 217.338 168.554 211.565 168.554H199.645V180.975H211.379C217.338 180.975 219.154 178.546 219.154 174.833H219.247ZM250.194 188.4C258.063 188.4 266.677 184.688 266.677 175.2C266.677 166.813 260.531 164.521 249.356 162.183C242.046 160.763 239.485 159.617 239.485 156.546C239.485 152.742 242.698 150.129 248.658 150.129C253.081 149.442 257.365 151.963 258.901 156.088H266.118C264.861 149.029 259.739 143.392 248.658 143.392C240.137 143.392 232.454 148.388 232.454 156.546C232.454 164.704 239.532 167.088 247.726 168.921C248.02 168.985 248.308 169.048 248.59 169.11C256.132 170.759 259.506 171.497 259.506 175.429C259.506 179.508 256.107 181.8 250.148 181.8C243.163 181.8 239.765 179.233 238.414 174.192H231.244C232.408 181.708 237.856 188.4 250.194 188.4Z" fill="#96A1A7"/>
</svg>
