<svg width="64" height="64" viewBox="0 0 64 64" fill="none" xmlns="http://www.w3.org/2000/svg">
<rect opacity="0.5" width="64" height="64" rx="16" fill="#E2F1AB"/>
<path opacity="0.5" d="M16 14H48V41L38.8571 50H16V14Z" fill="#5E7500"/>
<path opacity="0.75" d="M20.5714 45.5C21.7143 43.8334 24 40.9001 24 42.5001C24 44.5 25.7143 45.4999 26.2857 44.4999C26.7428 43.7 28 44.8333 28.5714 45.5C28.1905 44.1667 28.1143 41.4 30.8571 41" stroke="#5E7500"/>
<path opacity="0.75" d="M38.8571 28.75C38.8571 29.3023 38.4094 29.75 37.8571 29.75H21.5715C21.0192 29.75 20.5715 29.3023 20.5715 28.75L20.5715 28.625L20.5715 28.5C20.5714 27.9477 21.0192 27.5 21.5715 27.5H37.8571C38.4094 27.5 38.8571 27.9477 38.8571 28.5V28.625V28.75Z" fill="#5E7500"/>
<path opacity="0.75" d="M43.4286 24.25C43.4286 24.8023 42.9808 25.25 42.4286 25.25H21.5715C21.0192 25.25 20.5715 24.8023 20.5715 24.25L20.5715 24.125L20.5715 24.0001C20.5714 23.4477 21.0192 23 21.5715 23H42.4286C42.9808 23 43.4286 23.4477 43.4286 24V24.125V24.25Z" fill="#5E7500"/>
<path d="M38.8571 41V50L48 41H38.8571Z" fill="#5E7500"/>
</svg>
