<svg width="32" height="32" viewBox="0 0 32 32" fill="none" xmlns="http://www.w3.org/2000/svg">
<rect width="32" height="32" rx="8" fill="#1E88E5"/>
<path d="M15.7646 22.4998H17.0792C17.0792 22.4998 17.4766 22.4558 17.6787 22.2371C17.8658 22.0364 17.8589 21.6596 17.8589 21.6596C17.8589 21.6596 17.8327 19.8953 18.6523 19.6354C19.4595 19.3797 20.4963 21.3406 21.595 22.0955C22.4256 22.6662 23.0568 22.541 23.0568 22.541L25.9953 22.4998C25.9953 22.4998 27.5327 22.4049 26.8039 21.1962C26.7448 21.0972 26.379 20.3024 24.6189 18.6688C22.7762 16.9581 23.0238 17.2359 25.2432 14.2781C26.5949 12.4767 27.1353 11.3766 26.9662 10.9063C26.8053 10.458 25.8111 10.5763 25.8111 10.5763L22.5053 10.5955C22.5053 10.5955 22.2606 10.5625 22.0777 10.6712C21.9003 10.7784 21.7862 11.0259 21.7862 11.0259C21.7862 11.0259 21.2623 12.4203 20.5637 13.6056C19.091 16.1069 18.501 16.2389 18.2604 16.0836C17.7007 15.7219 17.841 14.6287 17.841 13.8531C17.841 11.4288 18.2082 10.4181 17.1246 10.1569C16.7643 10.0702 16.5003 10.0125 15.5803 10.0029C14.4005 9.99049 13.4008 10.007 12.8356 10.2834C12.4589 10.4677 12.1687 10.8788 12.3461 10.9022C12.5647 10.9311 13.0598 11.0356 13.3224 11.3931C13.6621 11.8538 13.6497 12.8906 13.6497 12.8906C13.6497 12.8906 13.845 15.7439 13.1945 16.0987C12.7476 16.3421 12.1357 15.8457 10.8225 13.5754C10.1501 12.4134 9.64127 11.1277 9.64127 11.1277C9.64127 11.1277 9.54364 10.8884 9.369 10.7605C9.15724 10.6052 8.86022 10.5557 8.86022 10.5557L5.71673 10.5749C5.71673 10.5749 5.24507 10.5887 5.07181 10.7936C4.9178 10.9764 5.05944 11.3532 5.05944 11.3532C5.05944 11.3532 7.52087 17.1108 10.3068 20.0136C12.8631 22.6744 15.7646 22.4998 15.7646 22.4998Z" fill="white"/>
</svg>
